<?xml version="1.0" standalone="no"?>
<!DOCTYPE svg PUBLIC "-//W3C//DTD SVG 20010904//EN"
 "http://www.w3.org/TR/2001/REC-SVG-20010904/DTD/svg10.dtd">
<svg version="1.0" xmlns="http://www.w3.org/2000/svg"
 width="700.000000pt" height="700.000000pt" viewBox="0 0 700.000000 700.000000"
 preserveAspectRatio="xMidYMid meet">
<metadata>
Created by potrace 1.11, written by Peter Selinger 2001-2013
</metadata>
<g transform="translate(0.000000,700.000000) scale(0.100000,-0.100000)"
fill="#000000" stroke="none">
<path d="M3598 6975 c-2 -1 -77 -5 -168 -9 -91 -3 -183 -8 -205 -11 -22 -2
-65 -7 -95 -10 -30 -3 -66 -8 -80 -10 -165 -24 -167 -24 -245 -41 -38 -8 -81
-17 -95 -20 -40 -8 -222 -54 -255 -65 -69 -21 -235 -79 -300 -104 -202 -77
-471 -220 -675 -358 -65 -45 -196 -142 -210 -157 -3 -3 -27 -23 -55 -45 -118
-93 -350 -338 -505 -532 -35 -44 -167 -244 -210 -318 -52 -89 -170 -318 -170
-329 0 -3 -11 -29 -24 -58 -22 -47 -36 -82 -92 -231 -8 -21 -34 -106 -58 -190
-37 -127 -55 -202 -91 -378 -5 -24 -12 -73 -25 -169 -6 -47 -13 -98 -15 -115
-26 -191 -26 -708 0 -905 3 -19 7 -53 9 -75 19 -154 52 -314 107 -510 133
-479 366 -915 684 -1274 66 -75 195 -202 280 -276 44 -39 82 -72 85 -75 3 -3
48 -38 100 -76 274 -204 568 -359 893 -470 99 -34 366 -106 437 -118 19 -3 46
-8 60 -11 14 -3 43 -8 65 -11 22 -3 51 -8 65 -12 14 -3 295 -7 625 -9 597 -2
627 -1 815 32 83 14 252 56 325 81 234 77 411 176 630 350 210 167 301 273
554 647 18 28 19 23 18 -481 l0 -510 27 -46 c47 -81 8 -76 588 -76 l517 0 35
35 c19 19 40 52 46 74 7 27 9 518 8 1558 l-3 1519 -28 42 c-15 23 -46 52 -70
64 l-42 23 -1550 2 c-1071 1 -1561 -2 -1585 -9 -52 -16 -106 -63 -124 -109
-15 -36 -17 -95 -17 -464 -1 -368 1 -427 16 -461 20 -49 50 -81 97 -105 35
-18 66 -19 598 -19 308 0 560 -3 560 -6 0 -3 -23 -52 -51 -108 -151 -302 -363
-507 -616 -597 -192 -68 -351 -93 -598 -93 -119 0 -302 10 -327 18 -7 3 -33 7
-58 10 -259 32 -602 155 -798 287 -24 16 -45 29 -47 29 -3 0 -13 6 -22 14 -10
8 -45 35 -78 60 -136 101 -295 275 -399 436 -146 225 -261 548 -291 815 -4 33
-9 74 -12 90 -8 55 -10 418 -3 505 32 371 107 654 247 935 49 99 153 262 216
340 64 79 246 256 317 308 36 26 70 51 75 55 6 4 37 24 70 44 328 197 677 289
1075 282 114 -2 310 -13 319 -19 4 -1 33 -6 66 -10 124 -14 297 -59 457 -119
385 -145 701 -427 886 -791 54 -106 65 -133 105 -243 37 -104 76 -153 135
-173 28 -10 185 -13 667 -12 546 0 635 2 666 15 108 47 138 133 114 335 -29
250 -160 612 -327 902 -54 94 -165 266 -193 298 -5 6 -21 26 -35 44 -111 148
-330 367 -479 479 -18 14 -57 43 -87 65 -215 162 -566 335 -874 433 -175 56
-439 119 -573 137 -17 2 -63 8 -102 14 -38 5 -101 13 -140 17 -38 3 -86 8
-105 10 -19 2 -120 6 -225 9 -104 3 -198 8 -207 9 -9 2 -18 3 -20 1z"/>
</g>
</svg>
