<?xml version="1.0" encoding="UTF-8"?>
<svg width="389px" height="387px" viewBox="0 0 389 387" version="1.1" xmlns="http://www.w3.org/2000/svg" xmlns:xlink="http://www.w3.org/1999/xlink">
    <!-- Generator: Sketch 63.1 (92452) - https://sketch.com -->
    <title>illustration / main</title>
    <desc>Created with Sketch.</desc>
    <g id="illustration-/-main" stroke="none" stroke-width="1" fill="none" fill-rule="evenodd">
        <g>
            <g id="Group-5">
                <path d="M33.5229375,108.923077 C33.3909952,108.923077 33.3082079,113.04066 33.2642271,119.710314 C33.4634341,121.85478 33.6031377,123.326829 33.6031377,123.498178 C33.5977975,123.535172 33.5771243,123.568177 33.5462214,123.589046 C34.1932631,124.870093 34.5233699,126.288669 34.5086238,127.724802 C34.5331847,129.382152 34.0843083,131.011901 33.2150722,132.421339 C33.1710914,165.912399 33.5229375,223.384615 33.5229375,223.384615 L41.475693,223.384615 L63.6549296,118.928856 C55.0709208,117.280265 40.9815563,112.074871 33.5229375,108.923077 Z" id="Path" fill="#0D0E2D" fill-rule="nonzero"></path>
                <path d="M32.3535917,99.292695 C31.9035713,102.743818 33.9428065,122.11653 33.9428065,122.759311 C33.9374985,122.795657 33.9169496,122.828083 33.8862325,122.848586 C34.529383,124.107189 34.8575047,125.500911 34.8428473,126.911882 C34.8485297,128.018746 34.6507151,129.117364 34.2591066,130.153846 L42.4366197,129.546775 L39.9782227,96.9230769 L32.7161796,97.4612787 C32.5310283,98.2596538 32.4050226,98.8896814 32.3535917,99.292695 Z" id="Path" fill="#CCCCD2" fill-rule="nonzero"></path>
                <path d="M24.7745483,127.517639 C24.7571737,126.045614 25.1206051,124.593231 25.8309859,123.295791 C25.7527313,122.018765 23.4181346,114.374488 22.5416827,100.950391 C22.4947299,100.230148 22.4616891,99.503095 22.4425602,98.7692308 L14.7605634,99.3336762 L17.2542778,132 L25.6431748,131.387028 C25.0599994,130.177646 24.7630821,128.854996 24.7745483,127.517639 L24.7745483,127.517639 Z" id="Path" fill="#CCCCD2" fill-rule="nonzero"></path>
                <path d="M74.8171142,119.775183 C74.9898428,123.196591 83.028169,222.461538 83.028169,222.461538 L74.8171142,222.461538 L53.5070423,147.914258 C53.5070423,147.914258 59.0575606,118.083933 59.4365324,118.153846 C61.2463159,118.633848 71.2903566,120.41848 74.8171142,119.775183 Z" id="Path" fill="#0D0E2D" fill-rule="nonzero"></path>
                <path d="M83.1442091,65.5384615 C85.7087083,67.5161834 94.061202,77.4099565 94.061202,77.4099565 C94.061202,77.4099565 120.688751,78.1793868 121.160887,77.0769231 C123.123652,74.1862267 131,75.5815082 131,78.5010622 C131,81.4206163 126.175318,84.3527234 121.160887,83.4124724 C118.802786,86.252543 94.2974584,88.6153846 90.8377066,88.6153846 C88.4744458,88.6153846 81.1627852,82.2354946 76.5704225,77.4099565" id="Path" stroke="#0D0E2D" stroke-linecap="round" stroke-linejoin="round"></path>
                <path d="M75.8764111,72.4480009 C79.4848237,70.1411288 83.6929557,65.6641865 84.8436177,62.511102 C85.5250006,60.6408108 73.8297464,52.0008202 66.8807021,50.7692308" id="Path" stroke="#0D0E2D" stroke-linecap="round" stroke-linejoin="round"></path>
                <path d="M32.2887324,107.999731 C38.1963849,112.609006 72.1410915,122.43594 75.018195,119.443004 C77.8952985,116.450069 83.3333748,52.5128982 58.1197183,44.7560137" id="Path" stroke="#0D0E2D" stroke-linecap="round" stroke-linejoin="round"></path>
                <path d="M48.8943662,44.3076923 C43.7203729,45.3383561 40.2950409,47.4530249 37.3767112,51.6923077" id="Path" stroke="#0D0E2D" stroke-linecap="round" stroke-linejoin="round"></path>
                <path d="M53.5070423,50.7692308 C55.8133803,50.7692308 58.1197183,50.3247863 58.1197183,49.4620412 L58.1197183,37.6393257" id="Path" stroke="#0D0E2D" stroke-linecap="round" stroke-linejoin="round"></path>
                <line x1="49.0236926" y1="38.7692308" x2="49.0236926" y2="44.3076923" id="Path" stroke="#0D0E2D" stroke-linecap="round" stroke-linejoin="round"></line>
                <ellipse id="Oval" stroke="#0D0E2D" cx="53.0457746" cy="22.1538462" rx="10.6091549" ry="17.5384615"></ellipse>
                <path d="M51.5448808,0.79445145 C46.1961281,0.79445145 39.0808624,3.44262295 33.9315547,3.44262295 C29.2821547,3.44262295 20.7889052,0 16.3182286,0 C13.4690141,0 0,1.35586381 0,12.4464061 C0,17.4514502 5.18039003,22.2446406 6.21646804,23.5687264 C7.25254605,24.8928121 9.15115899,32.3076923 13.9870531,32.3076923 C20.7422817,32.3076923 25.4072229,27.2761665 31.6003792,27.2761665 C35.8664304,27.2761665 36.9776241,28.3354351 39.1119447,28.3354351 C40.6660618,28.3354351 42.9972373,27.5886507 42.9972373,27.5409836 C42.9972373,26.7306431 42.8392354,19.8612863 43.7742958,18.7464061 C45.0693933,17.1575032 61.5559846,19.5223203 61.5559846,13.9214376 C62.7086213,14.9807062 63.806864,19.4825977 63.806864,20.4015132 C64.5528402,19.5964691 67.3450704,16.1538462 67.3450704,12.4464061 C67.3450704,9.09382093 65.0138949,0.79445145 51.5448808,0.79445145 Z" id="Path" fill="#0D0E2D" fill-rule="nonzero"></path>
                <path d="M33.966373,122.644218 C33.9609884,122.681203 33.9401435,122.714201 33.9089838,122.735066 C34.561402,124.015849 34.8942519,125.434134 34.8793833,126.869971 C34.8793833,129.465642 33.8672462,131.721281 32.3673007,132.923077 L45.2042254,131.96787 L42.710403,98.7692308 L32.2994771,99.5479322 C32.1325266,104.529026 33.966373,122.029043 33.966373,122.644218 Z" id="Path" fill="#F6F7F9" fill-rule="nonzero"></path>
                <path d="M24.7595275,126.953903 C24.7425315,125.473344 25.098043,124.01254 25.7929432,122.707578 C25.7163939,121.423148 23.4760507,113.878407 22.6008369,100.615385 L17.528169,100.990438 L19.9675405,133.846154 L27.6760563,133.265592 C25.9588001,132.204652 24.7595275,129.77708 24.7595275,126.953903 Z" id="Path" fill="#F6F7F9" fill-rule="nonzero"></path>
                <path d="M25.6352177,71.0769231 C24.2650565,76.1454697 21.535114,88.9441284 22.2617147,100.189564 C23.1336355,113.705689 25.4561626,121.397227 25.5340126,122.688151 C24.8273044,123.994485 24.4657519,125.456825 24.4830367,126.938941 C24.4830367,130.752566 26.7017637,133.846154 29.4394911,133.846154 C32.1772186,133.846154 34.3985406,130.760281 34.3985406,126.938941 C34.4133317,125.516441 34.082217,124.111331 33.4331997,122.842445 C33.464197,122.821774 33.4849333,122.789082 33.4902898,122.75244 C33.4902898,122.104407 31.4324529,102.573401 31.8865783,99.0940794 C32.2706387,96.1316412 36.6432176,81.116297 37.8239437,75.2068499" id="Path" stroke="#0D0E2D" stroke-linecap="round" stroke-linejoin="round"></path>
                <path d="M40.5915493,55.5643952 C40.0143242,53.6884305 39.1198854,52.3194137 37.8198289,51.9076793 C30.7241206,49.6585802 22.3179555,65.7033544 23.1161902,68.4671214 C23.8702229,71.0790614 29.8071723,73.2558654 34.7057851,74.1822678" id="Path" stroke="#0D0E2D" stroke-linecap="round" stroke-linejoin="round"></path>
                <path d="M37.8195196,103.359257 C37.8854112,104.317848 37.2075214,105.152497 36.3031451,105.226287 L36.3031451,105.226287 C35.3994931,105.294474 34.6134885,104.576618 34.5438302,103.61951 L34.1380399,97.8713189 C34.0736477,96.9132534 34.7507518,96.0795716 35.6544144,96.0042884 L35.6544144,96.0042884 C36.5575703,95.9376847 37.3426663,96.6547109 37.4137293,97.6110661 L37.6299728,100.65772" id="Path" stroke="#0D0E2D" stroke-linecap="round" stroke-linejoin="round"></path>
                <polyline id="Path" stroke="#0D0E2D" stroke-linecap="round" stroke-linejoin="round" points="40.5915493 222.973799 40.5915493 232.81024 26.7535211 240 34.8034018 231.242412 34.8034018 222.461538"></polyline>
                <polyline id="Path" stroke="#0D0E2D" stroke-linecap="round" stroke-linejoin="round" points="75.6478873 222.061538 75.6478873 232.615385 94.0985915 232.615385 81.7981221 226.546154 81.7981221 221.538462"></polyline>
            </g>
            <g id="Group-7" transform="translate(232.000000, 28.000000)">
                <path d="M138.32,49.24 C135.6,45.64 131.08,42.36 124.8,41.04" id="Path" stroke="#0D0E2D"></path>
                <path d="M137.44,109.8 C138.24,106.4 138.52,96.6 139.2,84.64" id="Path" stroke="#0D0E2D"></path>
                <path d="M114.68,41.12 C92.04,50.56 97.04,106.92 98.6,110.88 C101.24,117.6 133.92,112.8 136.84,111" id="Path" stroke="#0D0E2D"></path>
                <path d="M128.84,29.52 C126.24,32.72 124.44,42.56 124.4,43.68 C124,44.36 122.04,44.56 120.08,44.6" id="Path" stroke="#0D0E2D" stroke-linecap="round"></path>
                <path d="M89.32,65.48 C85.64,68.68 78.4,76.84 77.8,77.88 C75.96,77 56.8,66.92 55.36,66.28 C53.92,65.64 50.88,60.56 49.84,60.56 C49.24,60.56 48.68,61.72 48.68,62.52 C48.68,63.88 49.32,64.92 49.72,65.36 C48.36,65.16 36.36,64.24 36.36,65.04 C36.36,67.12 49.8,69.88 50.84,70.44 C51.88,71 73.76,91.24 81.36,91.24 C84.32,91.24 97.28,82.36 97.28,81.4" id="Path" stroke="#0D0E2D" stroke-linecap="round" stroke-linejoin="round"></path>
                <polyline id="Path" stroke="#0D0E2D" stroke-linecap="round" stroke-linejoin="round" points="134 244.44 134 251.08 117.12 251.08 127.88 244.44"></polyline>
                <polyline id="Path" stroke="#0D0E2D" stroke-linecap="round" stroke-linejoin="round" points="63.6 205.24 63.6 211.88 46.76 211.88 57.48 205.24"></polyline>
                <polyline id="Path" stroke="#0D0E2D" stroke-linecap="round" stroke-linejoin="round" points="-5.68434189e-14 254.52 -5.68434189e-14 211.88 73.84 211.88"></polyline>
                <path d="M135.76,78.08 C136.12,80.28 144.52,93.52 145.52,94.68 C143.4,96.52 131.6,122.32 130.68,124 C130.68,124.96 133.56,128.12 134.6,129.16 C136.36,129.16 156.16,103.68 156.16,100.8 C156.16,97.92 156.48,79.12 151.16,71" id="Path" stroke="#0D0E2D" stroke-linecap="round"></path>
                <path d="M133.4,77.68 C136.28,78.92 150.28,74.72 151.4,70.48 C152.6,64.2 143.16,46.12 134.76,49.52" id="Path" stroke="#0D0E2D" stroke-linecap="round"></path>
                <path d="M134.56,129.2 C133.52,128.16 130.64,125 130.64,124.04 C131.08,123.28 133.8,117.36 136.84,111.08 C129.32,113.12 110.6,114.64 103.76,113.08 C101.92,112.68 100.08,111.8 98.6,110.92 C96.8,112.08 70.32,130.6 58.08,148.76 C57.44,150.2 56.48,197.68 56.48,197.68 L66.2,198.52 L74.88,158.08 C76.28,158.08 95.2,150.84 108.76,142.2 L124.84,235.24 L135.28,235.24 L137.56,126.52 C136.04,128.12 134.92,129.2 134.56,129.2 Z" id="Path" fill="#0D0E2D" fill-rule="nonzero"></path>
                <path d="M106.84,0 C106.84,10.8 134.12,8 134.12,21.84 C134.12,27.84 130.84,29.28 128.92,29.28" id="Path" stroke="#0D0E2D" stroke-linecap="round"></path>
                <path d="M105.4,3.28 C105.4,4.48 106.92,7.84 111.32,12" id="Path" stroke="#0D0E2D" stroke-linecap="round"></path>
                <path d="M114.2,14.64 C113.72,16.24 109.32,24 109.32,24.96 C109.32,25.92 111.52,27.16 111.52,27.84 C111.52,28.52 110.64,32.08 115.04,35 C114.84,36.32 114.68,41.12 114.68,41.12" id="Path" stroke="#0D0E2D" stroke-linecap="round"></path>
                <path d="M107.76,46.16 C102,43.96 88.64,58.36 88.4,63.96 C89.44,66.72 94.88,70.16 98.44,72.04" id="Path" stroke="#0D0E2D"></path>
                <line x1="63.6" y1="207.64" x2="63.6" y2="198.36" id="Path" stroke="#0D0E2D" stroke-linecap="round" stroke-linejoin="round"></line>
                <line x1="57.6" y1="205.24" x2="57.6" y2="197.6" id="Path" stroke="#0D0E2D" stroke-linecap="round" stroke-linejoin="round"></line>
                <line x1="134" y1="244.44" x2="134" y2="235.16" id="Path" stroke="#0D0E2D" stroke-linecap="round" stroke-linejoin="round"></line>
                <line x1="127.96" y1="244.44" x2="127.96" y2="235.16" id="Path" stroke="#0D0E2D" stroke-linecap="round" stroke-linejoin="round"></line>
            </g>
            <g id="Group" transform="translate(144.000000, 92.000000)">
                <path d="M106.031962,85.6779661 L106.267475,86 C106.267475,85.6694915 106.291026,85.3305085 106.304484,85 L106.230466,85.8983051 L106.031962,85.6779661 Z" id="Path" fill="#F2F2F2" fill-rule="nonzero" transform="translate(106.168223, 85.500000) scale(-1, 1) translate(-106.168223, -85.500000) "></path>
                <path d="M85.4002714,54.5410292 L90.7824514,55 L95.0502035,54.3963839 L96,53.8233658 C94.1963429,54.4535587 92.2768913,54.7891484 90.336047,54.81363 C86.9579376,54.81363 84.1212121,54.1710709 82,53 L82.3545907,53.3783032 L85.4002714,54.5410292 Z" id="Path" fill="#F2F2F2" fill-rule="nonzero" transform="translate(89.000000, 54.000000) scale(-1, 1) translate(-89.000000, -54.000000) "></path>
                <path d="M74,115 C74.2224758,119.423927 74,287 74,287 L85.8596691,287 L104,176.874242" id="Path" fill="#F9CB0D" fill-rule="nonzero" transform="translate(89.000000, 201.000000) scale(-1, 1) translate(-89.000000, -201.000000) "></path>
                <path d="M110.421264,82 C109.767088,82.874947 105.706117,91.2786632 106.016941,94.7584904 C106.49402,100.081362 110.212473,103.196283 117,106.426601" id="Path" stroke="#0D0E2D" stroke-linecap="round" stroke-linejoin="round" transform="translate(111.500000, 94.213300) scale(-1, 1) translate(-111.500000, -94.213300) "></path>
                <path d="M113.973301,56.3340934 C105.758284,63.2031455 97.2202679,77.3892028 98.5715717,79.8780917 C99.221237,81.0416824 102.540686,83.6157564 106.402946,85.5" id="Path" stroke="#0D0E2D" stroke-linecap="round" transform="translate(106.201473, 70.917047) scale(-1, 1) translate(-106.201473, -70.917047) "></path>
                <path d="M73.0904625,8.4367085 C75.8472431,12.5586938 76.7732227,17.2266754 75.3129803,23.2207976 C73.6235518,30.1509881 70.2824362,35.1311477 65.030802,37" id="Path" stroke="#0D0E2D" stroke-linecap="round" transform="translate(70.515401, 22.718354) scale(-1, 1) translate(-70.515401, -22.718354) "></path>
                <path d="M65,43.2442461 C69.3411617,44.9096393 73.4260887,50.8511206 76.5702111,57" id="Path" stroke="#0D0E2D" stroke-linecap="round" transform="translate(70.785106, 50.122123) scale(-1, 1) translate(-70.785106, -50.122123) "></path>
                <polygon id="Path" stroke="#0D0E2D" stroke-linecap="round" transform="translate(90.500000, 291.000000) scale(-1, 1) translate(-90.500000, -291.000000) " points="77 287 77 295 104 295 104 290.481326 87.9203833 287"></polygon>
                <path d="M14.1356917,77.6382172 C14.6561156,78.2300642 19.3370308,90.2072827 19.9701579,91.7080376 C21.9675906,90.5951958 52.4518224,91.5984875 57.3537699,89.9708103 C62.2557174,88.343133 67,92.3509459 67,95.2408462 C67,100.538151 56.5452605,101.661956 54.5431204,100.538151 C53.2171998,102.063566 20.9447096,106 15.4156207,106 C12.8565939,106 3.95455818,95.6788023 0,88.4674284" id="Path" stroke="#0D0E2D" stroke-linecap="round" stroke-linejoin="round" transform="translate(33.500000, 91.819109) scale(-1, 1) translate(-33.500000, -91.819109) "></path>
                <path d="M52,62.6666667 C52,73.6666667 60.7640449,89 63.7977528,89 C66.8314607,89 82,78 82,75.3333333 C82,72.6666667 70.2022472,53 60.0898876,53 C56.0449438,53 52,57.3333333 52,62.6666667 Z" id="Path" stroke="#0D0E2D" stroke-linecap="round" transform="translate(67.000000, 71.000000) scale(-1, 1) translate(-67.000000, -71.000000) "></path>
                <path d="M84.529811,18.0627554 C90.3795444,18.1063609 101,6.7622126 101,6.32280295 C101,5.31652131 99.1948619,0 88.7203102,0 C81.2384876,0 69.4643723,5.17899616 69.4643723,22.1885101 C69.4643723,30.9465146 66,40.3015796 66,44.5279624 C66,50.9513935 71.2389724,55 79.5079981,55 C83.5016966,55 89.5075133,53.0545222 89.5075133,49.8612551 C89.5075133,45.1921083 94.5667675,29.0813928 85.3103448,25.7774348" id="Path" stroke="#0D0E2D" stroke-linecap="round" transform="translate(83.500000, 27.500000) scale(-1, 1) translate(-83.500000, -27.500000) "></path>
                <path d="M87,25.7774348 C86.5135846,26.1039819 85.6355197,26.440035 85.0548103,26.4422371 C83.1962184,26.4422371 81.6896552,24.2065262 81.6896552,21.9923231 C81.6896552,19.7781199 83.1962184,17.8609073 85.0548103,17.8609073 C85.4017718,17.8606057 85.8150247,17.9025268 86.1410428,18.0247382" id="Path" stroke="#0D0E2D" stroke-linecap="round" transform="translate(84.344828, 22.151572) scale(-1, 1) translate(-84.344828, -22.151572) "></path>
                <path d="M90.6553292,114 C86.8435265,119.109312 58.5490196,123.622378 43,115.202797 L80.4804379,194.708212 L70.9274015,286 L82.1510428,286 C82.1510428,286 104,206.812417 104,203.325108 C104,199.8378 90.6553292,114 90.6553292,114 Z" id="Path" fill="#F9CB0D" fill-rule="nonzero" transform="translate(73.500000, 200.000000) scale(-1, 1) translate(-73.500000, -200.000000) "></path>
                <polygon id="Path" stroke="#0D0E2D" stroke-linecap="round" transform="translate(62.500000, 290.500000) scale(-1, 1) translate(-62.500000, -290.500000) " points="48 286 48 295 77 295 77 291.111111 59.3598076 286"></polygon>
                <path d="M105.527042,102.311221 C106.044517,108.829728 106.261522,112.785732 105.527042,113.774999 C101.327152,119.364194 71.2535347,123.864195 58.7874062,114.954126 C55.1751,112.376035 53.8730673,72.4755793 65.8450912,53" id="Path" stroke="#0D0E2D" stroke-linecap="round" transform="translate(81.131621, 86.500000) scale(-1, 1) translate(-81.131621, -86.500000) "></path>
            </g>
        </g>
    </g>
</svg>