<svg xmlns="http://www.w3.org/2000/svg" width="177.976" height="20" viewBox="0 0 177.976 20"><g transform="translate(-41 -53)"><g transform="translate(41 55.968)"><path d="M231.562,89.9a6.662,6.662,0,1,0,6.662,6.662,6.662,6.662,0,0,0-6.662-6.662m0,10.7a4.016,4.016,0,1,1,.037,0" transform="translate(-181.488 -89.9)" fill="#0e081d"/><path d="M309.7,103.26h10.7V100.6h-8.031V97.931H318.4V95.266h-6.032V92.6H320.4V89.9H309.7Z" transform="translate(-234.905 -89.9)" fill="#0e081d"/><path d="M162.46,89.9h-3.331L155.8,94.378,152.431,89.9H149.1l5,6.7-5,6.662h3.331l3.368-4.441,3.331,4.441h3.331l-5-6.662Z" transform="translate(-133.741 -89.9)" fill="#0e081d"/><path d="M355.56,103.26,350.305,89.9h-2.85L342.2,103.26h2.887l3.812-9.7,3.812,9.7Z" transform="translate(-255.377 -89.9)" fill="#0e081d"/><path d="M279.76,89.9H277.1v9.807L269.731,89.9H266.4v13.36h2.665V93.49l7.365,9.77h3.331Z" transform="translate(-207.63 -89.9)" fill="#0e081d"/><path d="M112.929,89.9h8.031v2.7h-5.329v2.665h5.329v2.665h-8.031V100.6h8.031v2.665H107.6V100.6h2.665V95.266h2.665Z" transform="translate(-107.6 -89.9)" fill="#0e081d"/><path d="M196.7,100.6h-2l1.332-2.665h.666a2.665,2.665,0,0,0,0-5.329h-3.331V103.26H190.7V89.9h6a5.348,5.348,0,0,1,0,10.7" transform="translate(-159.945 -89.9)" fill="#0e081d"/></g><rect width="1" height="20" transform="translate(151 53)" fill="#1c1733"/><path d="M3.632-4.128v.544a1.767,1.767,0,0,0-1.384-.624A2.01,2.01,0,0,0,.24-2.064,2.01,2.01,0,0,0,2.248.08,1.749,1.749,0,0,0,3.632-.552V0h.96V-4.128ZM2.416-.792a1.216,1.216,0,0,1-1.2-1.272,1.216,1.216,0,0,1,1.2-1.272,1.214,1.214,0,0,1,1.216,1.12v.3A1.214,1.214,0,0,1,2.416-.792ZM10.64-4.208a1.772,1.772,0,0,0-1.392.64V-6h-.96V0h.96V-.552A1.765,1.765,0,0,0,10.64.08a2.01,2.01,0,0,0,2.008-2.144A2.01,2.01,0,0,0,10.64-4.208ZM10.472-.792A1.23,1.23,0,0,1,9.248-2.064a1.23,1.23,0,0,1,1.224-1.272,1.216,1.216,0,0,1,1.2,1.272A1.216,1.216,0,0,1,10.472-.792ZM13.76-6V0h.96V-6ZM18.008.08a2.117,2.117,0,0,0,2.176-2.144,2.117,2.117,0,0,0-2.176-2.144,2.112,2.112,0,0,0-2.176,2.144A2.112,2.112,0,0,0,18.008.08Zm0-.888a1.215,1.215,0,0,1-1.216-1.256A1.215,1.215,0,0,1,18.008-3.32a1.219,1.219,0,0,1,1.216,1.256A1.219,1.219,0,0,1,18.008-.808ZM23.24.08a2.117,2.117,0,0,0,2.176-2.144A2.117,2.117,0,0,0,23.24-4.208a2.112,2.112,0,0,0-2.176,2.144A2.112,2.112,0,0,0,23.24.08Zm0-.888a1.215,1.215,0,0,1-1.216-1.256A1.215,1.215,0,0,1,23.24-3.32a1.219,1.219,0,0,1,1.216,1.256A1.219,1.219,0,0,1,23.24-.808Zm8.24-3.4a1.77,1.77,0,0,0-1.44.7,1.622,1.622,0,0,0-1.376-.7,1.592,1.592,0,0,0-1.224.56v-.48h-.96V0h.96V-2.312A.969.969,0,0,1,28.4-3.32a.932.932,0,0,1,.968,1V0h.96V-2.344a.951.951,0,0,1,.96-.976.95.95,0,0,1,.968,1V0h.96V-2.48A1.669,1.669,0,0,0,31.48-4.208ZM2.376,7.08A2.112,2.112,0,0,0,4.384,5.744l-.872-.336A1.229,1.229,0,0,1,2.4,6.192,1.232,1.232,0,0,1,1.2,4.936,1.186,1.186,0,0,1,2.392,3.68a1.212,1.212,0,0,1,1.1.736l.88-.3a2.1,2.1,0,0,0-2-1.32A2.1,2.1,0,0,0,.24,4.936,2.088,2.088,0,0,0,2.376,7.08Zm4.944,0A2.117,2.117,0,0,0,9.5,4.936,2.117,2.117,0,0,0,7.32,2.792,2.112,2.112,0,0,0,5.144,4.936,2.112,2.112,0,0,0,7.32,7.08Zm0-.888A1.215,1.215,0,0,1,6.1,4.936a1.217,1.217,0,1,1,2.432,0A1.219,1.219,0,0,1,7.32,6.192Zm8.24-3.4a1.77,1.77,0,0,0-1.44.7,1.622,1.622,0,0,0-1.376-.7,1.592,1.592,0,0,0-1.224.56v-.48h-.96V7h.96V4.688a.969.969,0,0,1,.96-1.008.932.932,0,0,1,.968,1V7h.96V4.656a.964.964,0,1,1,1.928.024V7h.96V4.52A1.669,1.669,0,0,0,15.56,2.792Zm5.288,0a1.772,1.772,0,0,0-1.392.64v-.56H18.5V9h.96V6.448a1.765,1.765,0,0,0,1.392.632,2.01,2.01,0,0,0,2.008-2.144A2.01,2.01,0,0,0,20.848,2.792ZM20.68,6.208a1.23,1.23,0,0,1-1.224-1.272A1.23,1.23,0,0,1,20.68,3.664a1.216,1.216,0,0,1,1.2,1.272A1.216,1.216,0,0,1,20.68,6.208Zm6.448-3.336v.544a1.767,1.767,0,0,0-1.384-.624,2.01,2.01,0,0,0-2.008,2.144A2.01,2.01,0,0,0,25.744,7.08a1.749,1.749,0,0,0,1.384-.632V7h.96V2.872ZM25.912,6.208a1.216,1.216,0,0,1-1.2-1.272,1.21,1.21,0,0,1,2.416-.152v.3A1.214,1.214,0,0,1,25.912,6.208Zm5.712-3.416a1.713,1.713,0,0,0-1.32.616V2.872h-.96V7h.96V4.776a1.047,1.047,0,0,1,1.064-1.1,1.012,1.012,0,0,1,1.048,1.08V7h.96V4.608A1.71,1.71,0,0,0,31.624,2.792Zm5.576.08L36.184,5.64,35.12,2.872H34.088l1.592,3.92L34.816,9h.968l2.44-6.128Z" transform="translate(162 62.123)" fill="#1c1733"/><path d="M35.376-3.544v-.584h-.96V0h.96V-2.144c0-.632.464-1.112,1.392-1.048V-4.208A1.766,1.766,0,0,0,35.376-3.544Zm4.1-.664a2.1,2.1,0,0,0-2.136,2.144A2.122,2.122,0,0,0,39.552.08a2.07,2.07,0,0,0,1.9-1.184l-.8-.336A1.252,1.252,0,0,1,39.5-.776a1.206,1.206,0,0,1-1.232-.944H41.52A2.066,2.066,0,0,0,39.472-4.208Zm.024.856a1.2,1.2,0,0,1,1.16.9H38.28A1.223,1.223,0,0,1,39.5-3.352Zm6.328-.776v.544a1.767,1.767,0,0,0-1.384-.624,2.01,2.01,0,0,0-2.008,2.144A2.01,2.01,0,0,0,44.44.08a1.749,1.749,0,0,0,1.384-.632V0h.96V-4.128ZM44.608-.792a1.216,1.216,0,0,1-1.2-1.272,1.216,1.216,0,0,1,1.2-1.272,1.214,1.214,0,0,1,1.216,1.12v.3A1.214,1.214,0,0,1,44.608-.792ZM49.992.08A2.112,2.112,0,0,0,52-1.256l-.872-.336a1.229,1.229,0,0,1-1.112.784,1.232,1.232,0,0,1-1.2-1.256A1.186,1.186,0,0,1,50.008-3.32a1.212,1.212,0,0,1,1.1.736l.88-.3a2.1,2.1,0,0,0-2-1.32,2.1,2.1,0,0,0-2.128,2.144A2.088,2.088,0,0,0,49.992.08Zm5.232-4.288a1.713,1.713,0,0,0-1.32.616V-6h-.96V0h.96V-2.224a1.047,1.047,0,0,1,1.064-1.1,1.012,1.012,0,0,1,1.048,1.08V0h.96V-2.392A1.71,1.71,0,0,0,55.224-4.208Z" transform="translate(162 62.123)" fill="#1c1733"/></g></svg>