<svg xmlns="http://www.w3.org/2000/svg" viewBox="0 0 212.089 44.265">
  <defs>
    <style>
      .cls-1 {
        fill: #3e201d;
      }

      .cls-2 {
        fill: #008daa;
      }
    </style>
  </defs>
  <g id="Symbol_1_1" data-name="Symbol 1 – 1" transform="translate(-118.62 -58.124)">
    <path id="Path_5" data-name="Path 5" class="cls-1" d="M749.3,203.426a13.32,13.32,0,0,0,6.713-1.743,14.588,14.588,0,0,0,5-4.656l4.971,3.716a20.98,20.98,0,0,1-7.171,6.17,20.711,20.711,0,0,1-17.57.628,20.929,20.929,0,0,1-11-11.11,21.169,21.169,0,0,1,0-16.287,20.942,20.942,0,0,1,11-11.112,20.726,20.726,0,0,1,17.57.629,21.08,21.08,0,0,1,7.171,6.167l-4.971,3.716a14.711,14.711,0,0,0-5-4.655,13.319,13.319,0,0,0-6.713-1.741,13.083,13.083,0,0,0-5.568,1.2,14.548,14.548,0,0,0-4.544,3.259,15.72,15.72,0,0,0-3.087,4.8,15.747,15.747,0,0,0,0,11.77,15.79,15.79,0,0,0,3.087,4.8,14.657,14.657,0,0,0,4.544,3.252,13.1,13.1,0,0,0,5.568,1.2" transform="translate(-610 -108)"/>
    <rect id="Rectangle_1" data-name="Rectangle 1" class="cls-1" width="5.849" height="39.721" transform="translate(164.502 60.396)"/>
    <rect id="Rectangle_2" data-name="Rectangle 2" class="cls-1" width="5.849" height="39.721" transform="translate(220.025 60.396)"/>
    <path id="Path_1" data-name="Path 1" class="cls-1" d="M846.523,168.4h25.589v5.586h-9.9v34.135h-5.8V173.982h-9.9Z" transform="translate(-610 -108)"/>
    <path id="Path_2" data-name="Path 2" class="cls-1" d="M879.053,168.4H904.64v5.586h-9.9v34.135h-5.8V173.982h-9.9Z" transform="translate(-610 -108)"/>
    <path id="Path_3" data-name="Path 3" class="cls-1" d="M919.516,173.21l3.113-7.086,18.08,41.992h-6.344Z" transform="translate(-610 -108)"/>
    <path id="Path_4" data-name="Path 4" class="cls-1" d="M920.625,184.567l-3.129-7.708-13.257,31.258h6.349Z" transform="translate(-610 -108)"/>
    <path id="Path_6" data-name="Path 6" class="cls-2" d="M808.145,203.3l-3.113,7.088L786.954,168.4H793.3Zm-1.108-11.354,3.129,7.707L823.422,168.4h-6.349Z" transform="translate(-610 -108)"/>
  </g>
</svg>
