<?xml version="1.0" encoding="UTF-8" standalone="no"?>
<!DOCTYPE svg PUBLIC "-//W3C//DTD SVG 1.1//EN" "http://www.w3.org/Graphics/SVG/1.1/DTD/svg11.dtd">
<svg width="100%" height="100%" viewBox="0 0 842 457" version="1.1" xmlns="http://www.w3.org/2000/svg" xmlns:xlink="http://www.w3.org/1999/xlink" xml:space="preserve" xmlns:serif="http://www.serif.com/" style="fill-rule:evenodd;clip-rule:evenodd;stroke-linejoin:round;stroke-miterlimit:2;">
    <g transform="matrix(0.1,0,0,0.1,0,-12.188)">
        <path d="M442.781,2343.33C442.781,3014.06 941.883,3570.14 1588.07,3660.34L1588.07,3285.87C1146.61,3199.42 812.363,2809.77 812.363,2343.33C812.363,1876.91 1146.61,1487.29 1588.07,1400.86L1588.07,1026.37C941.883,1116.62 442.781,1672.68 442.781,2343.33" style="fill:rgb(34,31,31);fill-rule:nonzero;"/>
    </g>
    <g transform="matrix(0.1,0,0,0.1,0,-217.017)">
        <path d="M2656.37,3398.61C2464.75,3228.07 2223.81,3111.84 1957.73,3074.66L1957.73,3449.16C2122.21,3481.39 2271.68,3555.73 2394.61,3660.34" style="fill:rgb(34,31,31);fill-rule:nonzero;"/>
    </g>
    <g transform="matrix(0.1,0,0,0.1,0,48.46)">
        <path d="M2896.52,1026.37L2625.73,1297.1C2694.09,1429.06 2733.45,1578.29 2733.45,1736.85C2733.45,2203.29 2399.22,2592.94 1957.73,2679.39L1957.73,3053.86C2604,2963.66 3103.05,2407.59 3103.05,1736.85C3103.05,1475.68 3027.11,1232.04 2896.52,1026.37" style="fill:rgb(34,31,31);fill-rule:nonzero;"/>
    </g>
    <g transform="matrix(0.1,0,0,0.1,0,76.761)">
        <rect x="3750.37" y="1603.52" width="136.73" height="590.18" style="fill:rgb(34,31,31);"/>
    </g>
    <g transform="matrix(0.1,0,0,0.1,0,76.761)">
        <path d="M4034.51,2193.7L4034.51,1603.52L4193.57,1603.52L4318.67,1819.81C4354.43,1881.95 4390.17,1955.54 4416.98,2022.08L4419.67,2022.08C4410.73,1944.13 4408.05,1864.45 4408.05,1776.01L4408.05,1603.52L4533.15,1603.52L4533.15,2193.7L4390.17,2193.7L4261.48,1966.04C4225.77,1903 4186.43,1826.82 4156.94,1757.63L4154.25,1758.51C4157.84,1836.45 4159.62,1919.63 4159.62,2015.95L4159.62,2193.7" style="fill:rgb(34,31,31);fill-rule:nonzero;"/>
    </g>
    <g transform="matrix(0.1,0,0,0.1,0,76.937)">
        <path d="M4817.29,2091.23C4828.89,2093.86 4847.66,2093.86 4864.64,2093.86C4987.96,2094.76 5068.36,2028.19 5068.36,1887.23C5069.27,1764.62 4996,1699.84 4878.93,1699.84C4848.55,1699.84 4828.89,1702.47 4817.29,1705.08L4817.29,2091.23ZM4680.55,1609.63C4730.61,1601.76 4795.82,1597.39 4864.64,1597.39C4979.04,1597.39 5053.2,1617.53 5111.27,1660.43C5173.82,1705.97 5213.16,1778.65 5213.16,1882.83C5213.16,1995.79 5171.16,2073.73 5113.07,2121.89C5049.61,2173.54 4953.09,2198.07 4835.14,2198.07C4764.55,2198.07 4714.5,2193.7 4680.55,2189.31" style="fill:rgb(34,31,31);fill-rule:nonzero;"/>
    </g>
    <g transform="matrix(0.1,0,0,0.1,0,77.724)">
        <path d="M5467.8,1593.89L5467.8,1933.64C5467.8,2035.21 5507.11,2086.88 5576.8,2086.88C5648.3,2086.88 5687.61,2037.85 5687.61,1933.64L5687.61,1593.89L5823.47,1593.89L5823.47,1924.87C5823.47,2107.02 5729.63,2193.7 5572.33,2193.7C5420.43,2193.7 5331.07,2111.39 5331.07,1923.13L5331.07,1593.89" style="fill:rgb(34,31,31);fill-rule:nonzero;"/>
    </g>
    <g transform="matrix(0.1,0,0,0.1,0,76.674)">
        <path d="M5975.31,2057.09C6011.97,2075.48 6068.26,2093.86 6126.35,2093.86C6188.89,2093.86 6221.98,2068.48 6221.98,2029.95C6221.98,1993.18 6193.37,1972.16 6120.99,1946.77C6020.9,1912.61 5955.66,1858.32 5955.66,1772.5C5955.66,1671.8 6041.45,1594.75 6183.54,1594.75C6251.44,1594.75 6301.5,1608.75 6337.26,1624.53L6306.85,1732.23C6282.74,1720.84 6239.84,1704.21 6180.87,1704.21C6121.88,1704.21 6093.29,1730.48 6093.29,1761.14C6093.29,1798.78 6127.24,1815.41 6204.97,1844.32C6311.32,1882.82 6361.36,1937.14 6361.36,2020.32C6361.36,2119.25 6283.64,2203.34 6118.32,2203.34C6049.51,2203.34 5981.58,2185.8 5947.63,2167.43" style="fill:rgb(34,31,31);fill-rule:nonzero;"/>
    </g>
    <g transform="matrix(0.1,0,0,0.1,0,76.761)">
        <path d="M6599.06,1715.6L6437.31,1715.6L6437.31,1603.52L6900.2,1603.52L6900.2,1715.6L6735.77,1715.6L6735.77,2193.7L6599.06,2193.7" style="fill:rgb(34,31,31);fill-rule:nonzero;"/>
    </g>
    <g transform="matrix(0.1,0,0,0.1,0,76.323)">
        <path d="M7136.96,1869.7L7190.58,1869.7C7258.48,1869.7 7298.71,1836.43 7298.71,1784.78C7298.71,1730.48 7261.17,1703.34 7198.61,1702.47C7165.57,1702.47 7146.78,1705.08 7136.96,1706.84L7136.96,1869.7ZM7002.04,1615.77C7045.84,1608.77 7111.06,1603.53 7183.43,1603.53C7272.82,1603.53 7335.38,1616.66 7378.23,1649.93C7413.99,1677.94 7433.63,1719.11 7433.63,1773.39C7433.63,1848.69 7379.13,1900.37 7327.28,1918.74L7327.28,1921.37C7369.29,1938.01 7392.56,1977.41 7407.74,2031.71C7426.49,2098.26 7445.29,2175.31 7456.89,2198.07L7317.47,2198.07C7307.64,2181.44 7293.36,2133.27 7275.5,2060.59C7259.38,1987.05 7233.48,1966.91 7178.07,1966.04L7136.96,1966.04L7136.96,2198.07L7002.04,2198.07" style="fill:rgb(34,31,31);fill-rule:nonzero;"/>
    </g>
    <g transform="matrix(0.1,0,0,0.1,0,76.761)">
        <path d="M7683.84,2193.7L7683.84,1952.02L7493.51,1603.52L7649.02,1603.52L7710.67,1745.36C7729.42,1788.27 7741.92,1819.81 7757.14,1858.32L7758.93,1858.32C7772.33,1821.54 7786.61,1787.41 7804.47,1745.36L7865.24,1603.52L8018.06,1603.52L7819.69,1947.63L7819.69,2193.7" style="fill:rgb(34,31,31);fill-rule:nonzero;"/>
    </g>
    <g transform="matrix(0.1,0,0,0.1,0,-98.817)">
        <path d="M4189.32,3056.56C4163.7,3068.87 4106.06,3082.06 4031.03,3082.06C3817.86,3082.06 3708.07,2954.56 3708.07,2785.73C3708.07,2583.49 3858.12,2470.94 4044.77,2470.94C4117.04,2470.94 4171.93,2485.02 4196.63,2497.33L4168.28,2603.72C4139.92,2592.28 4100.57,2581.74 4051.17,2581.74C3940.46,2581.74 3854.46,2645.93 3854.46,2777.81C3854.46,2896.53 3927.65,2971.27 4052.09,2971.27C4094.17,2971.27 4140.83,2962.48 4168.28,2951.93" style="fill:rgb(34,31,31);fill-rule:nonzero;"/>
    </g>
    <g transform="matrix(0.1,0,0,0.1,0,-99.167)">
        <path d="M4479.35,2747.04L4534.24,2747.04C4603.79,2747.04 4644.96,2713.62 4644.96,2661.74C4644.96,2607.22 4606.52,2579.96 4542.46,2579.09C4508.63,2579.09 4489.41,2581.71 4479.35,2583.47L4479.35,2747.04ZM4341.19,2492.02C4386.02,2484.99 4452.8,2479.73 4526.91,2479.73C4618.39,2479.73 4682.46,2492.91 4726.37,2526.32C4762.96,2554.45 4783.1,2595.79 4783.1,2650.3C4783.1,2725.93 4727.29,2777.81 4674.23,2796.27L4674.23,2798.91C4717.23,2815.62 4741.01,2855.2 4756.57,2909.7C4775.79,2976.54 4795.01,3053.9 4806.89,3076.77L4664.18,3076.77C4654.1,3060.06 4639.46,3011.7 4621.18,2938.72C4604.68,2864.86 4578.16,2844.64 4521.43,2843.74L4479.35,2843.74L4479.35,3076.77L4341.19,3076.77" style="fill:rgb(34,31,31);fill-rule:nonzero;"/>
    </g>
    <g transform="matrix(0.1,0,0,0.1,0,-98.728)">
        <path d="M5292.7,2821.79L5065.8,2821.79L5065.8,2962.45L5319.23,2962.45L5319.23,3072.38L4925.82,3072.38L4925.82,2479.73L5306.41,2479.73L5306.41,2589.63L5065.8,2589.63L5065.8,2712.73L5292.7,2712.73" style="fill:rgb(34,31,31);fill-rule:nonzero;"/>
    </g>
    <g transform="matrix(0.1,0,0,0.1,0,-98.728)">
        <path d="M5738.27,2820.02L5699.83,2694.29C5688.84,2659.11 5677.89,2615.15 5668.72,2579.97L5666.89,2579.97C5657.75,2615.15 5648.61,2659.98 5638.52,2694.29L5601.94,2820.02L5738.27,2820.02ZM5581.81,2920.26L5537.89,3072.38L5393.34,3072.38L5581.81,2479.73L5764.77,2479.73L5955.99,3072.38L5805.95,3072.38L5758.39,2920.26" style="fill:rgb(34,31,31);fill-rule:nonzero;"/>
    </g>
    <g transform="matrix(0.1,0,0,0.1,0,-98.727)">
        <path d="M6160,2592.28L5994.41,2592.28L5994.41,2479.73L6468.33,2479.73L6468.33,2592.28L6300,2592.28L6300,3072.37L6160,3072.37" style="fill:rgb(34,31,31);fill-rule:nonzero;"/>
    </g>
    <g transform="matrix(0.1,0,0,0.1,0,-98.7278)">
        <rect x="6621.15" y="2479.73" width="139.953" height="592.648" style="fill:rgb(34,31,31);"/>
    </g>
    <g transform="matrix(0.1,0,0,0.1,0,-98.728)">
        <path d="M7106.04,3072.38L6908.38,2479.73L7061.21,2479.73L7136.21,2730.33C7157.27,2800.68 7176.48,2868.38 7191.09,2942.25L7193.87,2942.25C7209.43,2871.01 7228.64,2800.68 7249.64,2732.96L7328.37,2479.73L7476.59,2479.73L7268.88,3072.38" style="fill:rgb(34,31,31);fill-rule:nonzero;"/>
    </g>
    <g transform="matrix(0.1,0,0,0.1,0,-98.728)">
        <path d="M7951.42,2821.79L7724.54,2821.79L7724.54,2962.45L7977.96,2962.45L7977.96,3072.38L7584.54,3072.38L7584.54,2479.73L7965.14,2479.73L7965.14,2589.63L7724.54,2589.63L7724.54,2712.73L7951.42,2712.73" style="fill:rgb(34,31,31);fill-rule:nonzero;"/>
    </g>
    <g transform="matrix(0.1,0,0,0.1,0,222.584)">
        <path d="M3752.63,1025.85L3816.99,1025.85L3816.99,1152.86L3818.27,1152.86C3824.66,1141.78 3831.49,1131.56 3837.88,1121.34L3903.09,1025.85L3982.8,1025.85L3887.75,1148.19L3987.92,1313.14L3912.05,1313.14L3841.71,1189.1L3816.99,1219.36L3816.99,1313.14L3752.63,1313.14" style="fill:rgb(34,31,31);fill-rule:nonzero;"/>
    </g>
    <g transform="matrix(0.1,0,0,0.1,0,222.586)">
        <path d="M4097.89,1170.33C4097.89,1226.58 4124.34,1266.25 4167.8,1266.25C4211.71,1266.25 4236.86,1224.47 4236.86,1168.61C4236.86,1117.04 4212.14,1072.72 4167.38,1072.72C4123.48,1072.72 4097.89,1114.48 4097.89,1170.33M4305.48,1166.5C4305.48,1260.7 4248.37,1317.82 4164.39,1317.82C4079.14,1317.82 4029.28,1253.44 4029.28,1171.6C4029.28,1085.51 4084.26,1021.15 4169.1,1021.15C4257.33,1021.15 4305.48,1087.2 4305.48,1166.5" style="fill:rgb(34,31,31);fill-rule:nonzero;"/>
    </g>
    <g transform="matrix(0.1,0,0,0.1,0,216.232)">
        <path d="M4456.82,1073.6L4413.77,1021.61L4459.38,1021.61L4481.12,1048.03L4481.98,1048.03L4503.29,1021.61L4548.46,1021.61L4505.82,1073.6L4456.82,1073.6ZM4392.45,1309.74C4409.95,1318.7 4436.8,1327.65 4464.5,1327.65C4494.34,1327.65 4510.11,1315.29 4510.11,1296.54C4510.11,1278.63 4496.46,1268.38 4461.94,1256.03C4414.19,1239.42 4383.07,1212.97 4383.07,1171.21C4383.07,1122.19 4423.98,1084.69 4491.78,1084.69C4524.16,1084.69 4548.03,1091.49 4565.09,1099.17L4550.6,1151.61C4539.07,1146.06 4518.64,1137.96 4490.48,1137.96C4462.37,1137.96 4448.73,1150.74 4448.73,1165.65C4448.73,1183.99 4464.93,1192.1 4502.01,1206.17C4552.73,1224.92 4576.61,1251.35 4576.61,1291.83C4576.61,1340.02 4539.51,1380.9 4460.64,1380.9C4427.85,1380.9 4395.44,1372.4 4379.25,1363.46" style="fill:rgb(34,31,31);fill-rule:nonzero;"/>
    </g>
    <g transform="matrix(0.1,0,0,0.1,0,222.584)">
        <rect x="4662.7" y="1025.85" width="65.223" height="287.289" style="fill:rgb(34,31,31);"/>
    </g>
    <g transform="matrix(0.1,0,0,0.1,0,222.541)">
        <path d="M5037.38,1305.47C5025.45,1311.44 4998.58,1317.82 4963.64,1317.82C4864.32,1317.82 4813.17,1256.03 4813.17,1174.19C4813.17,1076.16 4883.07,1021.6 4970.04,1021.6C5003.71,1021.6 5029.27,1028.41 5040.79,1034.39L5027.58,1085.96C5014.36,1080.41 4996.02,1075.29 4973.01,1075.29C4921.45,1075.29 4881.36,1106.43 4881.36,1170.36C4881.36,1227.9 4915.48,1264.14 4973.45,1264.14C4993.04,1264.14 5014.77,1259.86 5027.58,1254.77" style="fill:rgb(34,31,31);fill-rule:nonzero;"/>
    </g>
    <g transform="matrix(0.1,0,0,0.1,0,222.584)">
        <path d="M5293.14,1191.67L5187.43,1191.67L5187.43,1259.85L5305.5,1259.85L5305.5,1313.14L5122.21,1313.14L5122.21,1025.85L5299.54,1025.85L5299.54,1079.14L5187.43,1079.14L5187.43,1138.8L5293.14,1138.8" style="fill:rgb(34,31,31);fill-rule:nonzero;"/>
    </g>
    <g transform="matrix(0.0283077,-0.0959097,-0.0959097,-0.0283077,510.622,906.93)">
        <path d="M5398.94,1183.96L5721.15,1183.96L5733.35,1142.65L5411.13,1142.67L5398.94,1183.96Z" style="fill:rgb(34,31,31);fill-rule:nonzero;"/>
    </g>
    <g transform="matrix(0.0283105,-0.0959089,-0.0959089,-0.0283105,523.746,924.509)">
        <path d="M5582.24,1183.96L5904.45,1183.96L5916.65,1142.65L5594.43,1142.66L5582.24,1183.96Z" style="fill:rgb(34,31,31);fill-rule:nonzero;"/>
    </g>
</svg>
