<?xml version="1.0" encoding="utf-8"?>
<!-- Generator: Adobe Illustrator 15.1.0, SVG Export Plug-In . SVG Version: 6.00 Build 0)  -->
<!DOCTYPE svg PUBLIC "-//W3C//DTD SVG 1.1//EN" "http://www.w3.org/Graphics/SVG/1.1/DTD/svg11.dtd">
<svg version="1.1" id="Layer_1" xmlns="http://www.w3.org/2000/svg" xmlns:xlink="http://www.w3.org/1999/xlink" x="0px" y="0px"
	 width="275.543px" height="81.5px" viewBox="0 0 275.543 81.5" enable-background="new 0 0 275.543 81.5" xml:space="preserve">
<path fill="#15489D" d="M73.089,59.926c0.194,0.291,0.445,0.507,0.745,0.644c0.307,0.141,0.62,0.21,0.942,0.21
	c0.18,0,0.361-0.026,0.549-0.084c0.188-0.058,0.361-0.143,0.513-0.254c0.152-0.11,0.281-0.249,0.376-0.416
	c0.097-0.163,0.146-0.354,0.146-0.573c0-0.306-0.098-0.539-0.295-0.702c-0.192-0.161-0.437-0.296-0.726-0.405
	c-0.289-0.108-0.601-0.213-0.944-0.311c-0.339-0.104-0.655-0.245-0.942-0.425c-0.289-0.18-0.531-0.422-0.726-0.725
	c-0.199-0.302-0.291-0.713-0.291-1.23c0-0.234,0.05-0.479,0.151-0.743c0.102-0.261,0.26-0.504,0.475-0.72
	c0.219-0.217,0.497-0.398,0.842-0.544c0.337-0.146,0.75-0.22,1.229-0.22c0.433,0,0.852,0.06,1.249,0.18
	c0.397,0.119,0.744,0.363,1.042,0.732l-0.874,0.797c-0.134-0.208-0.325-0.379-0.577-0.505c-0.245-0.128-0.525-0.191-0.84-0.191
	c-0.299,0-0.551,0.037-0.748,0.115c-0.198,0.081-0.358,0.183-0.477,0.305c-0.12,0.122-0.203,0.259-0.257,0.399
	c-0.044,0.142-0.072,0.276-0.072,0.395c0,0.337,0.101,0.595,0.293,0.774c0.196,0.18,0.437,0.328,0.725,0.438
	c0.289,0.114,0.606,0.215,0.947,0.305c0.336,0.09,0.657,0.215,0.941,0.375c0.291,0.162,0.532,0.38,0.728,0.653
	c0.191,0.272,0.291,0.649,0.291,1.129c0,0.383-0.072,0.725-0.218,1.036c-0.146,0.306-0.343,0.564-0.592,0.773
	c-0.246,0.213-0.539,0.37-0.876,0.484c-0.336,0.113-0.699,0.171-1.076,0.171c-0.509,0-0.999-0.092-1.452-0.271
	c-0.459-0.185-0.82-0.459-1.094-0.832L73.089,59.926z"/>
<polygon fill="#15489D" points="80.9,53.63 80.9,54.643 83.464,54.643 83.464,61.592 84.542,61.592 84.542,54.643 87.108,54.643 
	87.108,53.63 "/>
<polygon fill="#15489D" points="97.563,53.63 95.057,59.657 95.01,59.657 92.48,53.63 90.874,53.63 90.874,61.592 91.955,61.592 
	91.955,55.048 91.975,55.048 94.665,61.592 95.382,61.592 98.07,55.048 98.092,55.048 98.092,61.592 99.17,61.592 99.17,53.63 "/>
<polygon fill="#15489D" points="103.835,53.63 103.835,61.592 109.177,61.592 109.177,60.577 104.915,60.577 104.915,58.028 
	108.693,58.028 108.693,57.014 104.915,57.014 104.915,54.643 108.974,54.643 108.974,53.63 "/>
<polygon fill="#15489D" points="119.225,53.63 119.225,60.172 119.203,60.172 114.817,53.63 113.404,53.63 113.404,61.592 
	114.48,61.592 114.48,55.048 114.504,55.048 118.93,61.592 120.306,61.592 120.306,53.63 "/>
<polygon fill="#15489D" points="124.15,53.63 124.15,54.643 126.711,54.643 126.711,61.592 127.79,61.592 127.79,54.643 
	130.355,54.643 130.355,53.63 "/>
<polygon fill="#15489D" points="147.514,53.63 145.008,59.657 144.959,59.657 142.432,53.63 140.825,53.63 140.825,61.592 
	141.903,61.592 141.903,55.048 141.924,55.048 144.614,61.592 145.333,61.592 148.02,55.048 148.042,55.048 148.042,61.592 
	149.12,61.592 149.12,53.63 "/>
<path fill="#15489D" d="M156.709,55.025h0.021l1.484,3.65h-3.014L156.709,55.025z M156.28,53.63l-3.506,7.962h1.258l0.785-1.969
	h3.793l0.799,1.969h1.258l-3.406-7.962H156.28z"/>
<path fill="#15489D" d="M165.479,57.138h1.416c0.209,0,0.418-0.016,0.627-0.05c0.201-0.034,0.387-0.097,0.547-0.187
	c0.162-0.091,0.291-0.219,0.389-0.387c0.098-0.169,0.146-0.389,0.146-0.657c0-0.271-0.049-0.492-0.146-0.66
	c-0.098-0.166-0.227-0.297-0.389-0.385c-0.16-0.092-0.346-0.154-0.547-0.188c-0.209-0.034-0.418-0.05-0.627-0.05h-1.416V57.138z
	 M164.401,53.63h2.797c0.51,0,0.93,0.07,1.26,0.206c0.33,0.141,0.592,0.315,0.781,0.531c0.191,0.211,0.324,0.453,0.4,0.718
	c0.072,0.267,0.113,0.523,0.113,0.772c0,0.252-0.047,0.498-0.137,0.734c-0.092,0.235-0.221,0.452-0.389,0.641
	c-0.164,0.189-0.375,0.352-0.619,0.485c-0.242,0.129-0.516,0.209-0.814,0.242l2.26,3.629h-1.35l-2.02-3.507h-1.205v3.507h-1.078
	V53.63z"/>
<polygon fill="#15489D" points="178.653,53.63 175.133,57.07 175.045,57.07 175.045,53.63 173.965,53.63 173.965,61.592 
	175.045,61.592 175.045,57.609 175.133,57.609 178.846,61.592 180.418,61.592 176.315,57.307 180.159,53.63 "/>
<polygon fill="#15489D" points="183.948,53.63 183.948,61.592 189.288,61.592 189.288,60.577 185.028,60.577 185.028,58.028 
	188.807,58.028 188.807,57.014 185.028,57.014 185.028,54.643 189.084,54.643 189.084,53.63 "/>
<polygon fill="#15489D" points="192.616,53.63 192.616,54.643 195.178,54.643 195.178,61.592 196.258,61.592 196.258,54.643 
	198.819,54.643 198.819,53.63 "/>
<path fill="#15489D" d="M203.747,57.138h1.414c0.211,0,0.42-0.016,0.623-0.05c0.209-0.034,0.391-0.097,0.551-0.187
	c0.166-0.091,0.293-0.219,0.389-0.387c0.098-0.169,0.148-0.389,0.148-0.657c0-0.271-0.051-0.492-0.148-0.66
	c-0.096-0.166-0.223-0.297-0.389-0.385c-0.16-0.092-0.342-0.154-0.551-0.188c-0.203-0.034-0.412-0.05-0.623-0.05h-1.414V57.138z
	 M202.665,53.63h2.801c0.51,0,0.93,0.07,1.258,0.206c0.33,0.141,0.59,0.315,0.781,0.531c0.191,0.211,0.324,0.453,0.4,0.718
	c0.076,0.267,0.111,0.523,0.111,0.772c0,0.246-0.035,0.505-0.111,0.769c-0.076,0.268-0.209,0.505-0.4,0.721
	c-0.191,0.212-0.451,0.389-0.781,0.528c-0.328,0.137-0.748,0.207-1.258,0.207h-1.719v3.507h-1.082V53.63z"/>
<polygon fill="#15489D" points="212.032,53.63 212.032,61.592 216.764,61.592 216.764,60.577 213.11,60.577 213.11,53.63 "/>
<path fill="#15489D" d="M223.483,55.025h0.025l1.482,3.65h-3.014L223.483,55.025z M223.057,53.63l-3.508,7.962h1.262l0.785-1.969
	h3.789l0.797,1.969h1.262l-3.408-7.962H223.057z"/>
<path fill="#15489D" d="M236.715,55.35c-0.223-0.29-0.508-0.516-0.852-0.673c-0.344-0.159-0.701-0.236-1.07-0.236
	c-0.449,0-0.855,0.081-1.219,0.252c-0.365,0.168-0.674,0.401-0.932,0.691c-0.26,0.292-0.459,0.635-0.604,1.028
	c-0.143,0.393-0.215,0.815-0.215,1.266c0,0.418,0.07,0.816,0.205,1.192c0.133,0.376,0.326,0.702,0.584,0.987
	c0.254,0.285,0.566,0.511,0.934,0.676c0.367,0.162,0.781,0.246,1.246,0.246c0.459,0,0.857-0.094,1.205-0.28
	c0.342-0.188,0.635-0.448,0.875-0.787l0.912,0.688c-0.061,0.082-0.168,0.2-0.316,0.353c-0.15,0.155-0.346,0.307-0.596,0.459
	c-0.246,0.154-0.547,0.29-0.895,0.406c-0.346,0.116-0.748,0.175-1.207,0.175c-0.627,0-1.197-0.12-1.705-0.358
	c-0.506-0.243-0.934-0.556-1.291-0.946s-0.629-0.83-0.814-1.319c-0.188-0.491-0.283-0.99-0.283-1.49
	c0-0.614,0.102-1.184,0.303-1.705c0.205-0.521,0.488-0.968,0.85-1.351c0.363-0.377,0.801-0.669,1.311-0.88
	c0.51-0.209,1.072-0.316,1.686-0.316c0.525,0,1.041,0.104,1.549,0.305c0.504,0.204,0.918,0.515,1.24,0.936L236.715,55.35z"/>
<polygon fill="#15489D" points="241.788,53.63 241.788,61.592 247.127,61.592 247.127,60.577 242.868,60.577 242.868,58.028 
	246.645,58.028 246.645,57.014 242.868,57.014 242.868,54.643 246.926,54.643 246.926,53.63 "/>
<path fill="#EC0C6E" d="M20.712,20.365c0,5.718-4.636,10.354-10.355,10.354C4.636,30.719,0,26.083,0,20.365
	C0,14.644,4.636,10.01,10.357,10.01C16.076,10.01,20.712,14.644,20.712,20.365"/>
<path fill="#EC0C6E" d="M20.712,51.438c0,5.719-4.636,10.354-10.355,10.354C4.636,61.792,0,57.156,0,51.438
	s4.636-10.355,10.357-10.355C16.076,41.083,20.712,45.719,20.712,51.438"/>
<path fill="#15489D" d="M65.018,25.504c1.447-0.04,2.856,0.361,3.942,1.167l-1.369,5.548c-1.084-0.762-2.251-1.002-3.337-0.964
	c-2.293,0.123-4.263,1.569-4.263,4.506v9.735h-6.72V31.979c0-1.488-0.08-2.209-1.728-2.209v-3.742
	c2.694-0.643,7.924-1.088,8.245,2.654C60.554,26.548,62.804,25.504,65.018,25.504"/>
<polygon fill="#15489D" points="104.952,45.858 96.705,26.871 96.705,26.105 104.025,26.105 105.837,30.771 106.963,34.313 
	107.083,34.313 110.503,26.548 113.117,26.548 116.577,34.313 116.737,34.313 117.866,30.771 119.596,26.105 126.996,26.105 
	126.996,26.871 118.709,45.858 116.376,45.858 111.791,37.691 107.284,45.858 "/>
<path fill="#15489D" d="M144.167,32.261c-0.928-0.403-1.811-0.603-2.617-0.603c-2.131,0.04-3.702,1.527-3.702,4.183
	c0,2.375,0.969,4.142,3.381,4.142c1.891,0,2.938-1.648,2.938-3.418V32.261z M145.333,42.8c-1.006,2.051-2.977,3.179-5.229,3.22
	c-5.917,0.12-9.293-4.426-9.293-10.179c0-5.831,4.343-10.217,9.454-10.217c1.205,0,2.453,0.241,3.742,0.762V16.131h6.836v23.372
	c0,1.529-0.08,2.213,1.609,2.213v3.78c-2.613,0.644-7,1.086-7.119-2.453V42.8z"/>
<path fill="#15489D" d="M165.76,40.186c0.967,0.241,1.852,0.361,2.617,0.361c2.248,0,3.701-1.206,3.701-4.384
	c0-2.814-1.691-4.425-3.984-4.425c-0.725,0-1.529,0.161-2.334,0.521V40.186z M159.125,16.131h6.797v10.257
	c1.369-0.523,2.695-0.723,3.941-0.723c5.311,0.08,9.053,4.625,9.053,10.499c0,7.684-5.35,10.139-11.346,10.057
	c-2.855-0.04-5.834-0.602-8.445-1.489V16.131z"/>
<path fill="#15489D" d="M197.536,33.308c0.199-1.77-1.488-2.494-2.896-2.494c-1.449,0-3.057,0.845-3.379,2.494H197.536z
	 M203.249,37.411h-12.029c0.32,2.535,2.496,3.099,4.828,3.099c2.293,0,5.189-0.605,6.557-1.247l0.764,4.945
	c-2.373,1.086-5.068,1.771-7.762,1.813c-6.479,0-11.225-3.703-11.225-10.299c0-7.04,5.309-10.137,10.299-10.137
	C202.079,25.703,204.977,30.571,203.249,37.411"/>
<path fill="#15489D" d="M222.793,25.504c1.447-0.04,2.855,0.361,3.941,1.167l-1.369,5.548c-1.086-0.762-2.25-1.002-3.336-0.964
	c-2.295,0.123-4.266,1.569-4.266,4.506v9.735h-6.717V31.979c0-1.488-0.08-2.209-1.73-2.209v-3.742
	c2.695-0.643,7.926-1.088,8.248,2.654C218.327,26.548,220.581,25.504,222.793,25.504"/>
<path fill="#15489D" d="M244.59,25.504c1.449-0.04,2.855,0.361,3.943,1.167l-1.369,5.548c-1.086-0.762-2.252-1.002-3.338-0.964
	c-2.295,0.123-4.266,1.569-4.266,4.506v9.735h-6.717V31.979c0-1.488-0.082-2.209-1.729-2.209v-3.742
	c2.693-0.643,7.924-1.088,8.246,2.654C240.125,26.548,242.377,25.504,244.59,25.504"/>
<path fill="#15489D" d="M265.667,47.667c-2.695,6.881-5.994,9.417-12.594,6.397l0.605-4.385c2.895,1.246,4.586,0.643,5.672-2.574
	l0.523-1.609l-8.248-18.625v-0.765h7.32l4.145,11.385h0.162l3.658-11.385h6.801v0.765L265.667,47.667z"/>
<path fill="#15489D" d="M83.384,40.082c-2.311,0-4.183-1.873-4.183-4.183c0-2.309,1.872-4.182,4.183-4.182
	c2.309,0,4.181,1.873,4.181,4.182C87.565,38.209,85.693,40.082,83.384,40.082 M83.384,25.544c-5.721,0-10.357,4.638-10.357,10.355
	c0,5.72,4.636,10.359,10.357,10.359c5.719,0,10.355-4.639,10.355-10.359C93.739,30.182,89.103,25.544,83.384,25.544"/>
<path fill="#15489D" d="M41.066,37.643c-0.66,1.439-2.109,2.441-3.799,2.441c-2.311,0-4.183-1.872-4.183-4.185
	c0-2.309,1.872-4.179,4.183-4.179c1.831,0,3.383,1.177,3.95,2.812l5.923-1.76c-1.326-4.189-5.245-7.228-9.873-7.228
	c-5.721,0-10.355,4.638-10.355,10.355c0,5.72,4.634,10.359,10.355,10.359c4.076,0,7.591-2.361,9.28-5.783L41.066,37.643z"/>
<rect x="36.037" y="53.63" fill="#15489D" width="1.081" height="7.959"/>
<polygon fill="#15489D" points="47.681,53.63 47.681,60.172 47.658,60.172 43.274,53.63 41.858,53.63 41.858,61.592 42.938,61.592 
	42.938,55.048 42.958,55.048 47.39,61.592 48.761,61.592 48.761,53.63 "/>
<polygon fill="#15489D" points="58.453,53.63 56.022,60.104 56,60.104 53.66,53.63 52.417,53.63 55.485,61.592 56.497,61.592 
	59.631,53.63 "/>
<polygon fill="#15489D" points="63.286,53.63 63.286,61.592 68.627,61.592 68.627,60.577 64.366,60.577 64.366,58.028 
	68.142,58.028 68.142,57.014 64.366,57.014 64.366,54.643 68.423,54.643 68.423,53.63 "/>
</svg>
