<svg width="113" height="24" viewBox="0 0 113 24" version="1.1" xmlns="http://www.w3.org/2000/svg"><g id="1_Atoms-/-Logo-/-CloudTalk-/-Wordmark" stroke="none" stroke-width="1" fill="none" fill-rule="evenodd"><path d="M0 12.384c0-.892.154-1.735.46-2.53a6.175 6.175 0 0 1 1.334-2.092 6.494 6.494 0 0 1 2.109-1.435c.823-.357 1.752-.535 2.787-.535 1.39 0 2.573.3 3.55.9.979.6 1.71 1.386 2.195 2.359l-3.176.973a2.873 2.873 0 0 0-1.09-1.082 3.045 3.045 0 0 0-1.503-.377c-.47 0-.906.093-1.31.28a3.217 3.217 0 0 0-1.054.778 3.611 3.611 0 0 0-.703 1.204c-.17.47-.254.989-.254 1.557s.089 1.086.267 1.557c.177.47.415.875.714 1.216.3.34.65.604 1.055.79.403.187.832.28 1.285.28a3.1 3.1 0 0 0 1.611-.438c.493-.292.837-.649 1.03-1.07l3.176.973c-.437.973-1.156 1.767-2.157 2.383-1.003.617-2.206.925-3.612.925-1.034 0-1.963-.179-2.787-.536a6.388 6.388 0 0 1-2.109-1.446A6.425 6.425 0 0 1 .472 14.9 6.842 6.842 0 0 1 0 12.384zm14.839 6.373V1h3.248v17.757h-3.248zm12.51.243c-1.034 0-1.963-.179-2.787-.535a6.253 6.253 0 0 1-2.096-1.448 6.393 6.393 0 0 1-1.322-2.103 6.905 6.905 0 0 1-.46-2.506c0-.891.154-1.735.46-2.53a6.387 6.387 0 0 1 1.322-2.104 6.244 6.244 0 0 1 2.096-1.446c.824-.357 1.753-.536 2.788-.536 1.033 0 1.959.179 2.775.536a6.29 6.29 0 0 1 2.084 1.446 6.387 6.387 0 0 1 1.322 2.105c.306.794.46 1.638.46 2.53 0 .875-.154 1.71-.46 2.505a6.502 6.502 0 0 1-1.31 2.103 6.127 6.127 0 0 1-2.084 1.448c-.824.356-1.754.535-2.787.535zm-3.32-6.592c0 .568.085 1.083.255 1.544.169.463.403.864.702 1.205a3.088 3.088 0 0 0 2.364 1.07 3.085 3.085 0 0 0 2.363-1.07c.299-.341.533-.746.702-1.217.17-.47.255-.988.255-1.556a4.46 4.46 0 0 0-.255-1.533 3.748 3.748 0 0 0-.702-1.216 3.085 3.085 0 0 0-2.364-1.07c-.469 0-.905.097-1.308.292a3.294 3.294 0 0 0-1.055.802c-.3.34-.533.747-.702 1.216-.17.471-.255.982-.255 1.533zm36.673 6.349v-1.995c-.42.714-.961 1.265-1.624 1.654-.662.39-1.43.584-2.302.584a5.709 5.709 0 0 1-4.34-1.922c-.533-.6-.949-1.3-1.247-2.104a7.346 7.346 0 0 1-.449-2.59c0-.925.14-1.784.424-2.579a6.773 6.773 0 0 1 1.175-2.092 5.45 5.45 0 0 1 1.795-1.41 5.042 5.042 0 0 1 2.253-.51c.953 0 1.802.226 2.546.68a5.163 5.163 0 0 1 1.769 1.775V1h3.248v17.757h-3.248zm0-7.712a3.884 3.884 0 0 0-1.345-1.787c-.622-.462-1.273-.693-1.951-.693-.485 0-.93.11-1.333.328a3.45 3.45 0 0 0-1.042.863 3.99 3.99 0 0 0-.68 1.24c-.16.472-.242.958-.242 1.46 0 .536.09 1.03.266 1.484.179.455.425.852.74 1.192a3.5 3.5 0 0 0 1.103.803 3.248 3.248 0 0 0 2.351.134c.323-.106.626-.256.908-.45.284-.195.535-.422.753-.681a2.48 2.48 0 0 0 .472-.852v-3.04zm8.34 7.712V8.954h-1.89V6.01h1.89V1.875h3.345V6.01h2.933v2.944h-2.933v9.803h-3.344zm13.96.243a5.668 5.668 0 0 1-4.313-1.922c-.534-.6-.95-1.3-1.249-2.103a7.355 7.355 0 0 1-.448-2.591c0-.925.145-1.788.436-2.59a6.65 6.65 0 0 1 1.2-2.093 5.627 5.627 0 0 1 1.805-1.398 5.064 5.064 0 0 1 2.255-.511c.953 0 1.801.223 2.545.669a4.753 4.753 0 0 1 1.745 1.812V6.181h3.248v12.575h-3.248V16.69c-.42.73-.957 1.297-1.612 1.703-.654.405-1.442.608-2.363.608zm3.976-7.93a4.168 4.168 0 0 0-1.321-1.812c-.59-.462-1.24-.693-1.951-.693-.485 0-.933.11-1.345.328-.412.22-.768.511-1.067.876-.3.364-.53.778-.69 1.24a4.336 4.336 0 0 0-.243 1.448c0 .52.084 1.01.255 1.471.17.463.408.864.715 1.204a3.308 3.308 0 0 0 2.496 1.095c.727 0 1.353-.195 1.878-.584.526-.39.95-.908 1.273-1.557V11.07zm6.997 7.687V1h3.247v17.757h-3.247zm15.666 0l-3.685-5.522-1.745 1.727v3.795h-3.248V1h3.248v10.776l5.09-5.741h3.467l-4.726 5.4 5.065 7.322h-3.466zM48.312 6.01v6.804h-.002c0 3.41-2.663 6.185-5.936 6.185s-5.935-2.775-5.935-6.185h-.003V6.011h3.248v6.804h-.002c0 1.616 1.207 2.93 2.692 2.93s2.693-1.314 2.693-2.93h-.002V6.011h3.247z" id="Color" fill="#2196F3"/></g></svg>