<?xml version="1.0" encoding="utf-8"?>
<!-- Generator: Adobe Illustrator 21.0.2, SVG Export Plug-In . SVG Version: 6.00 Build 0)  -->
<svg version="1.1" id="Layer_1" xmlns="http://www.w3.org/2000/svg" xmlns:xlink="http://www.w3.org/1999/xlink" x="0px" y="0px"
	 viewBox="0 0 1045.3 368" style="enable-background:new 0 0 1045.3 368;" xml:space="preserve">
<style type="text/css">
	.st0{fill:#242B2A;}
	.st1{fill:#242B2A;}
	.st2{fill:#242B2A;}
</style>
<g>
	<circle class="st0" cx="436.1" cy="48.7" r="40.2"/>
	<path class="st1" d="M984.3,183.4v76.2c0,26.6,27,30.2,42.1,30.2c5.7,0,9.5-0.4,10.4-0.4v68.7c-1.2,0.2-9.5,1.3-21.4,1.3
		c-37.6,0-110.4-10.1-110.4-89.3l-0.2-212.6h79.5v61.7h52.5v64.1H984.3z M297.3,114.5c-35.3,0-63.2,20.2-75.6,39.9h-0.9
		c-12.4-26.6-36.2-39.9-66-39.9c-37.1,0-58.2,24.3-69.2,40.8h-0.9c0,0,0.5-3.2,0.5-5.5v-3.2c0-16-11.5-26.6-33-26.6H8.5v149.7
		L8.7,356h79.3v-97.6c0-10.1,1.4-19.7,3.2-28.4c5.5-25.2,18.8-43.5,42.2-43.5c15.1,0,18.3,12.4,18.3,29.8V356h79.3v-97.6
		c0-9.6,0.9-18.3,2.7-26.6c5-26.1,18.8-45.4,42.6-45.4c15.1,0,18.3,12.4,18.3,29.8v106.3c0,23.4,10.1,33.4,33.4,33.4h45.3V189.9
		C369.1,134.7,337.4,114.5,297.3,114.5z M801.5,153.5v126c0,6.4-3.7,10.1-10.1,10.1h-14.2h-1.4h-9c-6.4,0-10.1-3.7-10.1-10.1v-76.5
		c0-66.4-37.1-88.4-84.8-88.4c-41.7,0-63.7,22.5-74.7,40.8h-0.9c0,0,0.5-3.2,0.5-5.5v-3.2c0-16-11.5-26.6-33-26.6h-43.5l0,18.4
		v151.2h-34.7c-6.4,0-10.1-3.7-10.1-10.1v-126c0-23.4-10.1-33.4-33.4-33.4h-45.9l0,202.5c0,23.4,10.1,33.4,33.4,33.4h90.6h1.5h0.5
		H600V251.5c0-11.5,1.4-22,4.6-31.2c6.9-20.2,22-33.9,46.7-33.9c17.4,0,26.1,9.2,26.1,31.2v104.9c0,23.4,10.1,33.4,33.4,33.4h64.9
		h1.4h70.1c23.4,0,33.4-10.1,33.4-33.4v-69.8v-56.2V120h-45.8C811.6,120,801.5,130.1,801.5,153.5z"/>
	<circle class="st2" cx="841.2" cy="48.7" r="40.2"/>
</g>
</svg>
