<?xml version="1.0" encoding="UTF-8"?>
<svg width="153px" height="40px" viewBox="0 0 153 40" version="1.1" xmlns="http://www.w3.org/2000/svg" xmlns:xlink="http://www.w3.org/1999/xlink">
    <!-- Generator: Sketch 59.1 (86144) - https://sketch.com -->
    <title>logo-pm</title>
    <desc>Created with Sketch.</desc>
    <g id="Page-1" stroke="none" stroke-width="1" fill="none" fill-rule="evenodd">
        <g id="1400w" transform="translate(-90.000000, -20.000000)">
            <g id="HEADER">
                <g id="logo-pm" transform="translate(90.000000, 20.000000)">
                    <path d="M58.8232333,9.99836667 C58.8232333,9.74836667 58.7732333,9.54336667 58.6732333,9.38336667 C58.5732333,9.2237 58.4382333,9.09836667 58.2682333,9.00836667 C58.0982333,8.91836667 57.9055667,8.85836667 57.6909,8.82836667 C57.4755667,8.79803333 57.2532333,8.78303333 57.0235667,8.78303333 L55.8985667,8.78303333 L55.8985667,11.2883667 L56.9785667,11.2883667 C57.2182333,11.2883667 57.4482333,11.2687 57.6682333,11.2280333 C57.8879,11.1883667 58.0859,11.1183667 58.2609,11.0183667 C58.4355667,10.9187 58.5732333,10.7857 58.6732333,10.6207 C58.7732333,10.4557 58.8232333,10.2483667 58.8232333,9.99836667 M61.3882333,9.98336667 C61.3882333,10.6033667 61.2735667,11.1260333 61.0432333,11.5507 C60.8132333,11.9760333 60.5032333,12.3183667 60.1132333,12.5783667 C59.7232333,12.8387 59.2735667,13.0283667 58.7632333,13.1483667 C58.2532333,13.2683667 57.7232333,13.3283667 57.1732333,13.3283667 L55.8985667,13.3283667 L55.8985667,17.3333667 L53.3332333,17.3333667 L53.3332333,6.71336667 L57.2329,6.71336667 C57.8132333,6.71336667 58.3555667,6.7707 58.8605667,6.8857 C59.3655667,7.00103333 59.8059,7.1857 60.1809,7.4407 C60.5559,7.69603333 60.8505667,8.03103333 61.0659,8.44603333 C61.2805667,8.86103333 61.3882333,9.37336667 61.3882333,9.98336667" id="Fill-1" fill="#3D3D3D"></path>
                    <path d="M73.5081333,11.9782 C73.5081333,11.5185333 73.4331333,11.0885333 73.2831333,10.6885333 C73.1331333,10.2885333 72.9258,9.94586667 72.6608,9.66086667 C72.3958,9.37586667 72.0754667,9.15086667 71.7004667,8.98553333 C71.3254667,8.82086667 70.9134667,8.7382 70.4631333,8.7382 C70.0131333,8.7382 69.6028,8.82086667 69.2331333,8.98553333 C68.8631333,9.15086667 68.5431333,9.37586667 68.2734667,9.66086667 C68.0031333,9.94586667 67.7954667,10.2885333 67.6508,10.6885333 C67.5058,11.0885333 67.4331333,11.5185333 67.4331333,11.9782 C67.4331333,12.4582 67.5081333,12.9008667 67.6581333,13.3058667 C67.8081333,13.7108667 68.0154667,14.0582 68.2804667,14.3482 C68.5454667,14.6382 68.8631333,14.8658667 69.2331333,15.0308667 C69.6028,15.1958667 70.0131333,15.2782 70.4631333,15.2782 C70.9134667,15.2782 71.3228,15.1958667 71.6934667,15.0308667 C72.0631333,14.8658667 72.3831333,14.6382 72.6531333,14.3482 C72.9231333,14.0582 73.1331333,13.7108667 73.2831333,13.3058667 C73.4331333,12.9008667 73.5081333,12.4582 73.5081333,11.9782 M76.2531333,11.9782 C76.2531333,12.8185333 76.1081333,13.5858667 75.8184667,14.2808667 C75.5281333,14.9758667 75.1258,15.5708667 74.6108,16.0658667 C74.0958,16.5608667 73.4831333,16.9435333 72.7734667,17.2132 C72.0631333,17.4835333 71.2928,17.6185333 70.4631333,17.6185333 C69.6331333,17.6185333 68.8658,17.4835333 68.1608,17.2132 C67.4558,16.9435333 66.8458,16.5608667 66.3308,16.0658667 C65.8158,15.5708667 65.4131333,14.9758667 65.1231333,14.2808667 C64.8331333,13.5858667 64.6881333,12.8185333 64.6881333,11.9782 C64.6881333,11.1285333 64.8331333,10.3608667 65.1231333,9.67586667 C65.4131333,8.99086667 65.8158,8.4082 66.3308,7.92853333 C66.8458,7.4482 67.4558,7.07853333 68.1608,6.81853333 C68.8658,6.5582 69.6331333,6.42853333 70.4631333,6.42853333 C71.2928,6.42853333 72.0631333,6.5582 72.7734667,6.81853333 C73.4831333,7.07853333 74.0958,7.4482 74.6108,7.92853333 C75.1258,8.4082 75.5281333,8.99086667 75.8184667,9.67586667 C76.1081333,10.3608667 76.2531333,11.1285333 76.2531333,11.9782" id="Fill-3" fill="#3D3D3D"></path>
                    <polygon id="Fill-5" fill="#3D3D3D" points="91.4482333 17.3333333 88.9135667 17.3333333 86.8132333 10.1483333 86.7682333 10.1483333 84.6679 17.3333333 82.1182333 17.3333333 79.1032333 6.71333333 81.8632333 6.71333333 83.5429 13.7783333 83.5882333 13.7783333 85.4782333 6.71333333 88.1482333 6.71333333 90.0532333 13.7783333 90.0982333 13.7783333 91.8082333 6.71333333 94.4782333 6.71333333"></polygon>
                    <polygon id="Fill-7" fill="#3D3D3D" points="97.8232333 17.3333333 97.8232333 6.71333333 104.963233 6.71333333 104.963233 8.87333333 100.298233 8.87333333 100.298233 10.8833333 104.708233 10.8833333 104.708233 12.9383333 100.298233 12.9383333 100.298233 15.1433333 105.2329 15.1433333 105.2329 17.3333333"></polygon>
                    <path d="M114.7578,9.96843333 C114.7578,9.71843333 114.705133,9.5161 114.599467,9.36076667 C114.494133,9.2061 114.358467,9.0861 114.1928,9.0011 C114.0268,8.9161 113.8408,8.85843333 113.6348,8.82843333 C113.429133,8.7981 113.230467,8.7831 113.0398,8.7831 L111.6678,8.7831 L111.6678,11.2584333 L112.8888,11.2584333 C113.099467,11.2584333 113.3158,11.2407667 113.537133,11.2057667 C113.758133,11.1707667 113.959133,11.1084333 114.1398,11.0181 C114.3208,10.9284333 114.469133,10.7984333 114.584467,10.6281 C114.700133,10.4584333 114.7578,10.2384333 114.7578,9.96843333 L114.7578,9.96843333 Z M114.8628,17.3334333 L112.557133,13.1184333 L111.6828,13.1184333 L111.6828,17.3334333 L109.178133,17.3334333 L109.178133,6.7131 L113.2278,6.7131 C113.7378,6.7131 114.235467,6.7661 114.7208,6.87076667 C115.205467,6.97576667 115.640467,7.15376667 116.025467,7.40343333 C116.410133,7.65343333 116.7178,7.98343333 116.9478,8.3931 C117.1778,8.80343333 117.2928,9.31343333 117.2928,9.9231 C117.2928,10.6431 117.098133,11.2484333 116.708133,11.7384333 C116.318133,12.2284333 115.778133,12.5784333 115.0878,12.7884333 L117.8628,17.3334333 L114.8628,17.3334333 Z" id="Fill-9" fill="#3D3D3D"></path>
                    <polygon id="Fill-11" fill="#3D3D3D" points="123.9082 8.90333333 123.9082 11.0933333 128.0182 11.0933333 128.0182 13.2083333 123.9082 13.2083333 123.9082 17.3333333 121.3732 17.3333333 121.3732 6.71333333 128.362867 6.71333333 128.362867 8.90333333"></polygon>
                    <path d="M140.9401,15.0758333 C140.7251,15.6008333 140.417767,16.0508333 140.017433,16.4258333 C139.617767,16.8008333 139.1351,17.0935 138.570433,17.3035 C138.0051,17.5131667 137.377433,17.6185 136.687767,17.6185 C135.987767,17.6185 135.357767,17.5131667 134.797767,17.3035 C134.237767,17.0935 133.7631,16.8008333 133.3731,16.4258333 C132.982767,16.0508333 132.6831,15.6008333 132.472767,15.0758333 C132.2631,14.5508333 132.157767,13.9685 132.157767,13.3285 L132.157767,6.71316667 L134.707767,6.71316667 L134.707767,13.1185 C134.707767,13.4085 134.745433,13.6831667 134.820433,13.9435 C134.8951,14.2035 135.0101,14.4358333 135.165433,14.6408333 C135.320433,14.8461667 135.525433,15.0085 135.780433,15.1281667 C136.0351,15.2485 136.342767,15.3081667 136.702767,15.3081667 C137.062767,15.3081667 137.370433,15.2485 137.625433,15.1281667 C137.8801,15.0085 138.087767,14.8461667 138.2481,14.6408333 C138.407433,14.4358333 138.522767,14.2035 138.592767,13.9435 C138.662767,13.6831667 138.697767,13.4085 138.697767,13.1185 L138.697767,6.71316667 L141.2631,6.71316667 L141.2631,13.3285 C141.2631,13.9685 141.155433,14.5508333 140.9401,15.0758333" id="Fill-13" fill="#3D3D3D"></path>
                    <polygon id="Fill-15" fill="#3D3D3D" points="145.582667 17.3333333 145.582667 6.71333333 148.162667 6.71333333 148.162667 15.0983333 152.272667 15.0983333 152.272667 17.3333333"></polygon>
                    <polygon id="Fill-17" fill="#3D3D3D" points="53.3333333 24.1292333 55.8946667 24.1292333 58.2863333 30.6682333 58.3256667 30.6682333 60.6913333 24.1292333 63.2653333 24.1292333 63.2653333 33.3332333 61.6403333 33.3332333 61.6403333 25.9362333 61.6143333 25.9362333 58.8193333 33.3332333 57.675 33.3332333 54.9193333 25.9362333 54.8933333 25.9362333 54.8933333 33.3332333 53.3333333 33.3332333"></polygon>
                    <polygon id="Fill-19" fill="#3D3D3D" points="67.2435 24.1292333 73.3405 24.1292333 73.3405 25.5592333 68.8815 25.5592333 68.8815 27.8995667 73.1061667 27.8995667 73.1061667 29.2772333 68.8815 29.2772333 68.8815 31.8772333 73.5741667 31.8772333 73.5741667 33.3332333 67.2435 33.3332333"></polygon>
                    <path d="M80.1259667,31.9033333 C80.5506333,31.9033333 80.9753,31.8536667 81.3999667,31.754 C81.8246333,31.6543333 82.2079667,31.4853333 82.5506333,31.2466667 C82.8926333,31.0083333 83.1726333,30.686 83.3889667,30.2783333 C83.6053,29.871 83.7143,29.3553333 83.7143,28.7313333 C83.7143,28.073 83.6053,27.5353333 83.3889667,27.1193333 C83.1726333,26.7033333 82.8926333,26.3783333 82.5506333,26.1443333 C82.2079667,25.9103333 81.8246333,25.75 81.3999667,25.6633333 C80.9753,25.577 80.5506333,25.5333333 80.1259667,25.5333333 L78.7609667,25.5333333 L78.7609667,31.9033333 L80.1259667,31.9033333 Z M77.1229667,24.1293333 L80.3859667,24.1293333 C80.9839667,24.1293333 81.5863,24.2073333 82.1929667,24.3633333 C82.7996333,24.5193333 83.3456333,24.7773333 83.8309667,25.1366667 C84.3163,25.4963333 84.7106333,25.9686667 85.0139667,26.5536667 C85.3173,27.1386667 85.4689667,27.865 85.4689667,28.7313333 C85.4689667,29.5373333 85.3173,30.2306667 85.0139667,30.8113333 C84.7106333,31.392 84.3163,31.8686667 83.8309667,32.2413333 C83.3456333,32.614 82.7996333,32.8893333 82.1929667,33.0666667 C81.5863,33.2443333 80.9839667,33.3333333 80.3859667,33.3333333 L77.1229667,33.3333333 L77.1229667,24.1293333 Z" id="Fill-21" fill="#3D3D3D"></path>
                    <polygon id="Fill-23" fill="#3D3D3D" points="89.0053333 33.3333333 90.6433333 33.3333333 90.6433333 24.1293333 89.0053333 24.1293333"></polygon>
                    <path d="M101.264,26.2874333 C101.021,25.9581 100.705,25.7174333 100.315,25.5657667 C99.925,25.4144333 99.5436667,25.3381 99.171,25.3381 C98.694,25.3381 98.261,25.4251 97.871,25.5984333 C97.481,25.7717667 97.1453333,26.0101 96.8633333,26.3134333 C96.5816667,26.6167667 96.365,26.9721 96.2136667,27.3791 C96.062,27.7867667 95.986,28.2287667 95.986,28.7054333 C95.986,29.2081 96.0593333,29.6674333 96.207,30.0834333 C96.3543333,30.4994333 96.5643333,30.8567667 96.8373333,31.1557667 C97.1106667,31.4547667 97.4376667,31.6867667 97.819,31.8511 C98.2003333,32.0161 98.6293333,32.0984333 99.106,32.0984333 C99.6,32.0984333 100.037333,32.0011 100.419,31.8061 C100.8,31.6107667 101.108,31.3531 101.341667,31.0321 L102.655,31.9554333 C102.247333,32.4667667 101.749333,32.8634333 101.16,33.1447667 C100.570333,33.4264333 99.8816667,33.5674333 99.093,33.5674333 C98.3736667,33.5674333 97.713,33.4481 97.1106667,33.2101 C96.5076667,32.9717667 95.9903333,32.6377667 95.557,32.2091 C95.1236667,31.7801 94.7853333,31.2684333 94.543,30.6747667 C94.3,30.0814333 94.179,29.4247667 94.179,28.7054333 C94.179,27.9687667 94.3066667,27.3037667 94.5626667,26.7101 C94.818,26.1161 95.169,25.6114333 95.6153333,25.1954333 C96.062,24.7794333 96.5883333,24.4587667 97.195,24.2334333 C97.8013333,24.0081 98.4603333,23.8951 99.171,23.8951 C99.4653333,23.8951 99.7733333,23.9234333 100.093667,23.9797667 C100.414333,24.0364333 100.722,24.1227667 101.017,24.2397667 C101.311667,24.3567667 101.589,24.5021 101.849,24.6754333 C102.108667,24.8491 102.33,25.0567667 102.511667,25.2994333 L101.264,26.2874333 Z" id="Fill-25" fill="#3D3D3D"></path>
                    <path d="M110.429033,29.8232333 L109.012033,26.0795667 L107.569033,29.8232333 L110.429033,29.8232333 Z M108.349033,24.1292333 L109.766367,24.1292333 L113.731033,33.3332333 L111.859033,33.3332333 L111.001033,31.2272333 L107.010033,31.2272333 L106.178033,33.3332333 L104.345033,33.3332333 L108.349033,24.1292333 Z" id="Fill-26" fill="#3D3D3D"></path>
                    <polygon id="Fill-27" fill="#3D3D3D" points="116.591133 24.1292333 118.229133 24.1292333 118.229133 31.8772333 122.1418 31.8772333 122.1418 33.3332333 116.591133 33.3332333"></polygon>
                    <path d="M38,14 L26,14 L26,2 C26,0.895666667 25.1043333,0 24,0 L16,0 C14.8956667,0 14,0.895666667 14,2 L14,14 L2,14 C0.895666667,14 0,14.8956667 0,16 L0,24 C0,25.1043333 0.895666667,26 2,26 L14,26 L14,38 C14,39.1043333 14.8956667,40 16,40 L24,40 C25.1043333,40 26,39.1043333 26,38 L26,26 L38,26 C39.1043333,26 40,25.1043333 40,24 L40,16 C40,14.8956667 39.1043333,14 38,14" id="Fill-28" fill="#0033CC"></path>
                </g>
            </g>
        </g>
    </g>
</svg>