<svg width="316" height="403" viewBox="0 0 316 403" fill="none" xmlns="http://www.w3.org/2000/svg">
<g clip-path="url(#clip0)">
<path fill-rule="evenodd" clip-rule="evenodd" d="M167.335 381.045H202.355V279.094H167.335V381.045Z" fill="#F8ECD4"/>
<path fill-rule="evenodd" clip-rule="evenodd" d="M230.861 268.801H250.616V258.507H230.861V268.801Z" fill="#22244B"/>
<path fill-rule="evenodd" clip-rule="evenodd" d="M168.593 319.625H290.123V277.648H168.593V319.625Z" fill="#E0D6C0"/>
<path fill-rule="evenodd" clip-rule="evenodd" d="M190.11 260.556H291.368V193.284H190.11V260.556Z" fill="#71728E"/>
<path fill-rule="evenodd" clip-rule="evenodd" d="M194.563 256.193H286.916V197.647H194.563V256.193Z" fill="#FFFFFE"/>
<path fill-rule="evenodd" clip-rule="evenodd" d="M161.213 279.093H315.048V272.393H161.213V279.093Z" fill="#F8ECD4"/>
<path fill-rule="evenodd" clip-rule="evenodd" d="M256.588 268.083H224.89C222.509 268.083 220.58 270.013 220.58 272.393H260.898C260.898 270.013 258.968 268.083 256.588 268.083Z" fill="#3F4165"/>
<path fill-rule="evenodd" clip-rule="evenodd" d="M269.406 386.851H308.583V279.094H269.406V386.851Z" fill="#F8ECD4"/>
<path fill-rule="evenodd" clip-rule="evenodd" d="M269.406 285.351H308.583V279.094H269.406V285.351Z" fill="#EADDC3"/>
<path fill-rule="evenodd" clip-rule="evenodd" d="M155.469 390.816C155.942 392.33 156.376 394.521 156.348 394.83C156.069 397.904 151.519 400.43 150.01 396.589C149.459 395.187 150.16 393.599 151.291 392.937C152.054 392.49 153.014 392.464 153.916 393.201L153.089 390.891C149.244 390.947 145.386 390.699 141.558 390.338C139.875 390.18 137.874 389.746 137.048 388.464L129.381 390.853C130.779 390.908 132.194 391.83 132.488 393.226C132.927 395.311 130.655 397.444 128.601 396.876C126.591 396.319 125.587 393.694 126.406 391.775C127.277 389.734 133.533 387.779 136.747 386.597C137.195 384.951 139.483 383.81 141.425 383.38C143.355 382.952 146.432 382.757 149.761 382.811L147.939 330.488C144.431 330.695 137.053 330.489 128.933 326.44C118.85 321.413 105.692 309.236 100.263 279.777L103.972 279.094C108.026 301.09 117.173 316.262 130.426 322.97C140.399 328.017 149.342 326.567 149.428 326.552L151.563 326.177L153.541 382.977C156.629 383.198 159.65 383.631 161.93 384.289C161.915 384.271 161.904 384.254 161.9 384.237L161.932 384.289C162.506 384.455 163.034 384.635 163.503 384.83C166.696 385.608 173.633 386.796 174.793 388.792C175.841 390.596 175.167 393.325 173.24 394.124C171.272 394.941 168.755 393.102 168.935 390.979C169.055 389.558 170.346 388.469 171.727 388.243L165.875 387.184C165.839 387.74 165.464 388.35 164.675 389.017C163.563 389.958 161.971 390.148 160.508 390.35C158.835 390.583 157.154 390.732 155.469 390.816Z" fill="#71728E"/>
<path fill-rule="evenodd" clip-rule="evenodd" d="M125.943 253.05C121.566 250.42 116.293 248.919 111.644 248.63C104.957 248.215 97.8209 250.633 93.8485 256.028C89.3395 262.151 90.0577 271.982 92.7376 278.735C99.8951 296.773 131.901 287.018 134.935 270.206C136.33 262.478 131.993 256.686 125.943 253.05Z" fill="#3F4065"/>
<path fill-rule="evenodd" clip-rule="evenodd" d="M179.276 319.518C179.276 319.518 170.689 331.187 153.179 332.064C135.669 332.941 116.24 327.063 131.325 312.516C147.316 297.097 179.276 319.518 179.276 319.518Z" fill="#3F4065"/>
<path fill-rule="evenodd" clip-rule="evenodd" d="M199.033 383.2L195.8 395.413H208.91L203.522 390.743L208.91 381.045L199.033 383.2Z" fill="#3F4065"/>
<path fill-rule="evenodd" clip-rule="evenodd" d="M167.29 282.45C167.29 282.45 246.085 276.883 243.391 304.54C240.697 332.197 208.91 383.2 208.91 383.2H199.033L211.371 349.797L218.069 306.156L136.761 307.234L167.29 282.45Z" fill="#0616A4"/>
<path fill-rule="evenodd" clip-rule="evenodd" d="M113.009 303.283C113.009 303.283 115.343 328.784 153.776 323.935C192.208 319.087 213.759 319.625 213.759 319.625L184.845 385.894H193.474C193.474 385.894 251.473 316.034 230.461 298.973C209.449 281.911 141.633 289.993 141.633 289.993L113.009 303.283Z" fill="#1B2BB5"/>
<path fill-rule="evenodd" clip-rule="evenodd" d="M169.4 206.304L180.181 199.786C178.813 191.101 177.22 182.44 174.693 174.041L158.366 178.267C160.132 188.495 121.73 199.325 116.727 187.226C81.0134 194.631 113.009 303.283 113.009 303.283L178.881 282.022L169.4 206.304Z" fill="#F9CB0D"/>
<path fill-rule="evenodd" clip-rule="evenodd" d="M184.845 196.966L179.098 172.901L174.693 174.041C177.221 182.441 178.813 191.101 180.182 199.786L184.845 196.966Z" fill="#FFFFFE"/>
<path fill-rule="evenodd" clip-rule="evenodd" d="M145.212 204.944C155.979 201.029 160.132 188.495 158.366 178.267L154.399 179.294C156.13 188.393 152.245 197.501 143.18 200.019C132.51 202.892 125.595 195.134 121.951 186.037C120.279 186.399 118.532 186.795 116.727 187.226C121.73 199.325 131.191 209.467 145.212 204.944Z" fill="#FFFFFE"/>
<path fill-rule="evenodd" clip-rule="evenodd" d="M127.583 164.172L126.634 165.689C126.634 165.689 128.514 168.133 131.518 167.692L132.212 166.584L127.583 164.172Z" fill="#FFFFFE"/>
<path fill-rule="evenodd" clip-rule="evenodd" d="M154.399 179.294L148.474 180.828C146.281 181.395 144.081 179.935 143.753 177.695L143.483 175.849L151.387 157.544L136.268 148.076L126.029 160.276L127.661 162.773C127.53 162.913 127.266 163.296 126.745 164.199C127.738 165.536 128.916 166.566 130.983 166.853C130.983 166.853 130.023 170.658 125.133 167.471C124.788 168.774 123.854 170.401 124.413 171.464C125.544 173.613 128.96 174.682 128.96 174.682L130.296 184.371C127.812 184.825 125.005 185.375 121.951 186.037C125.595 195.135 132.511 202.892 143.18 200.019C152.245 197.501 156.13 188.392 154.399 179.294Z" fill="#FFE1B5"/>
<path fill-rule="evenodd" clip-rule="evenodd" d="M143.483 175.849C143.483 175.849 154.037 157.349 152.02 154.042C149.52 149.943 142.48 145.209 142.48 145.209C142.48 145.209 143.881 139.655 139.749 138.367C135.618 137.079 127.186 148.884 140.486 156.693L137.933 162.857L139.647 163.874C146.777 161.36 147.582 167.699 140.367 167.703L137.95 172.775L143.483 175.849Z" fill="#0D0E2D"/>
<path fill-rule="evenodd" clip-rule="evenodd" d="M133.025 158.582C133.323 158.105 133.952 157.961 134.429 158.259C134.905 158.558 135.05 159.187 134.751 159.663C134.453 160.14 133.824 160.284 133.348 159.986C132.871 159.687 132.727 159.059 133.025 158.582Z" fill="#0D0E2D"/>
<path fill-rule="evenodd" clip-rule="evenodd" d="M136.225 158.465C136.262 158.488 136.305 158.504 136.351 158.511C136.531 158.539 136.7 158.415 136.727 158.235C136.863 157.341 136.587 156.469 135.989 155.901C135.465 155.405 134.763 155.204 134.058 155.349C133.879 155.385 133.763 155.56 133.8 155.739C133.836 155.918 134.011 156.033 134.19 155.996C134.69 155.894 135.166 156.031 135.534 156.38C135.976 156.799 136.177 157.456 136.074 158.135C136.054 158.269 136.117 158.397 136.225 158.465Z" fill="#0D0E2D"/>
<path fill-rule="evenodd" clip-rule="evenodd" d="M139.517 166.539C139.595 166.588 139.694 166.604 139.789 166.575C141.038 166.191 142.328 165.903 143.622 165.72C143.802 165.695 143.928 165.527 143.903 165.346C143.877 165.165 143.71 165.04 143.529 165.066C142.201 165.253 140.877 165.549 139.596 165.943C139.421 165.997 139.322 166.182 139.376 166.357C139.401 166.435 139.452 166.498 139.517 166.539Z" fill="#F9CA85"/>
<path fill-rule="evenodd" clip-rule="evenodd" d="M128.96 174.682L132.87 176.717H129.241L128.96 174.682Z" fill="#F9CA85"/>
<path fill-rule="evenodd" clip-rule="evenodd" d="M169.4 206.304L167.29 193.284L171.894 204.797L169.4 206.304Z" fill="#EBBD02"/>
<path fill-rule="evenodd" clip-rule="evenodd" d="M130.296 184.37L130.915 188.974L127.877 184.824L130.296 184.37Z" fill="#F9CA85"/>
<path fill-rule="evenodd" clip-rule="evenodd" d="M203.253 255.781C187.628 255.512 134.07 261.965 134.07 261.965L124.877 226.754L102.961 228.25C105.306 236.433 109.894 252.497 114.592 269.27C121.327 293.316 201.367 260.9 201.367 260.9L207.024 263.055L211.334 260.63L203.253 255.781Z" fill="#FFE1B5"/>
<path fill-rule="evenodd" clip-rule="evenodd" d="M123.168 220.21L101.348 222.634C101.348 222.634 101.943 224.701 102.961 228.25L124.877 226.754L123.168 220.21Z" fill="#FFFFFE"/>
<path fill-rule="evenodd" clip-rule="evenodd" d="M134.07 261.965L127.877 262.606L133.167 258.507L134.07 261.965Z" fill="#F9CA85"/>
<path fill-rule="evenodd" clip-rule="evenodd" d="M178.881 282.022L114.398 308.294L113.009 303.283L178.881 282.022Z" fill="#0616A4"/>
<path fill-rule="evenodd" clip-rule="evenodd" d="M124.877 143.336L123.731 144.16L116.577 134.223L117.723 133.398L124.877 143.336Z" fill="#B6EBEB"/>
<path fill-rule="evenodd" clip-rule="evenodd" d="M120.326 149.826L119.609 151.046L106.685 143.451L107.402 142.231L120.326 149.826Z" fill="#B6EBEB"/>
<path fill-rule="evenodd" clip-rule="evenodd" d="M116.849 158.739L116.689 160.145L106.866 159.028L107.026 157.622L116.849 158.739Z" fill="#B6EBEB"/>
<path fill-rule="evenodd" clip-rule="evenodd" d="M173.795 96.7545C171.544 94.2401 163.115 102.502 163.115 102.502L167.29 107.889L168.143 107.171L169.592 109.685L172.992 108.069L196.698 166.59L179.098 172.901L184.845 196.966C184.845 196.966 202.265 187.586 209.987 173.978C219.601 157.038 176.045 99.269 173.795 96.7545Z" fill="#FFE1B5"/>
<path fill-rule="evenodd" clip-rule="evenodd" d="M196.698 166.589L199.032 172.002L193.474 167.746L196.698 166.589Z" fill="#F9CA85"/>
<path fill-rule="evenodd" clip-rule="evenodd" d="M168.28 107.402L168.005 106.939L173.573 103.633L172.823 101.05L173.341 100.9L174.207 103.884L168.28 107.402Z" fill="#F9CA85"/>
<path fill-rule="evenodd" clip-rule="evenodd" d="M173.149 108.288L172.835 107.85L173.915 107.079L172.745 104.4L173.239 104.184L174.583 107.263L173.149 108.288Z" fill="#F9CA85"/>
<path fill-rule="evenodd" clip-rule="evenodd" d="M184.845 385.894L178.739 400.081H193.465L187.18 394.874L193.474 385.894H184.845Z" fill="#3F4065"/>
<path fill-rule="evenodd" clip-rule="evenodd" d="M213.759 319.625L217.8 311.544L208.91 319.625H213.759Z" fill="#0616A4"/>
<path fill-rule="evenodd" clip-rule="evenodd" d="M47.3077 381.105L41.7471 402.999H57.0384L51.2176 396.744L57.0384 379.715L47.3077 381.105Z" fill="#3F4065"/>
<path fill-rule="evenodd" clip-rule="evenodd" d="M17.0758 381.105L11.5151 402.999H26.8065L20.9856 396.744L26.8065 379.715L17.0758 381.105Z" fill="#3F4065"/>
<path fill-rule="evenodd" clip-rule="evenodd" d="M66.703 109.962L65.0877 109.907C65.2262 105.86 61.8923 102.381 61.8589 102.347L63.0156 101.218C63.1729 101.379 66.8657 105.215 66.703 109.962Z" fill="#3A3B39"/>
<path fill-rule="evenodd" clip-rule="evenodd" d="M58.4629 95.136L57.8972 85.5626C57.7787 83.5595 56.8574 81.7266 55.3019 80.4017C53.697 79.0349 51.5532 78.3749 49.4347 78.5899C47.3486 78.8005 45.4866 79.7978 44.1914 81.3968C42.9523 82.9269 42.386 84.8353 42.5972 86.7695L40.9901 86.9446C40.7325 84.5788 41.4227 82.2476 42.9356 80.3796C44.5034 78.4433 46.7544 77.2365 49.2715 76.9816C51.835 76.7225 54.4114 77.5204 56.3499 79.1712C58.2436 80.7843 59.3664 83.0202 59.5103 85.4673L60.076 95.0407L58.4629 95.136Z" fill="#0D0E2D"/>
<path fill-rule="evenodd" clip-rule="evenodd" d="M63.9406 98.1235C62.9482 94.802 59.8314 92.7999 56.9787 93.6517C54.1264 94.504 52.6184 97.888 53.6108 101.21C54.6032 104.531 57.72 106.533 60.5728 105.681C63.425 104.829 64.9331 101.445 63.9406 98.1235Z" fill="#523B5D"/>
<path fill-rule="evenodd" clip-rule="evenodd" d="M118.985 19.4185L111.687 19.94L105.431 83.0165L73.9526 114.248C73.7468 120.521 72.2684 126.566 68.4194 132.018C62.1638 140.88 50.6955 140.359 42.8764 135.667C37.5091 132.536 34.4511 126.336 33.359 120.028L15.2477 75.1968L19.9393 13.6843H10.5561C10.5561 13.6843 5.34294 31.9298 1.17232 59.0369C-2.99776 86.1441 4.82141 109.603 11.0771 130.976C17.4777 149.517 19.1608 242.592 19.1608 242.592H87.4504V138.994C87.4504 138.994 105.953 113.773 116.379 99.6979C126.804 85.6231 118.985 19.4185 118.985 19.4185Z" fill="#1DC8CC"/>
<path fill-rule="evenodd" clip-rule="evenodd" d="M69.627 115.235C68.6394 123.43 66.049 130.887 55.9083 133.061C46.7486 134.989 38.9322 128.444 37.8072 120.028H33.3591C34.4507 126.335 37.5093 132.536 42.876 135.667C50.6957 140.359 62.1639 140.88 68.4196 132.018C72.2686 126.565 73.7469 120.521 73.9528 114.248L69.627 115.235Z" fill="#FFFFFE"/>
<path fill-rule="evenodd" clip-rule="evenodd" d="M10.5559 13.6842L14.3354 0.912676L24.37 0V5.99489H22.1546V8.47108L20.1999 8.60146L18.7662 13.6842H10.5559Z" fill="#FFE1B5"/>
<path fill-rule="evenodd" clip-rule="evenodd" d="M118.985 19.4185C118.985 19.4185 117.943 4.95249 115.075 4.4315C112.208 3.90997 107.126 4.4315 107.126 4.4315V9.90486H108.168V12.6418H111.426L111.687 19.94L118.985 19.4185Z" fill="#FFE1B5"/>
<path fill-rule="evenodd" clip-rule="evenodd" d="M57.7325 117.027L57.2115 112.6C57.2115 112.6 61.9031 111.688 61.5125 108.69C61.1213 105.693 59.3736 85.8838 59.3736 85.8838L43.6582 89.0114L46.3924 115.933C46.5492 117.478 45.4652 118.875 43.9292 119.106L37.8071 120.028C38.9321 128.445 46.7486 134.989 55.9082 133.061C66.0489 130.888 68.6393 123.431 69.6269 115.235L57.7325 117.027Z" fill="#FFE1B5"/>
<path fill-rule="evenodd" clip-rule="evenodd" d="M87.4504 242.593C87.4504 242.593 84.3643 314.645 78.4562 329.589C72.548 344.533 54.8661 387.276 54.8661 387.276H43.3974L58.2997 325.071L53.9136 260.316C45.7151 322.607 46.0465 322.481 36.7942 353.568C28.106 382.761 25.3259 387.276 25.3259 387.276H13.8577C13.8577 387.276 23.8939 336.887 22.8514 330.284C21.8088 323.681 19.1608 242.593 19.1608 242.593H87.4504Z" fill="#1B2BB5"/>
<path fill-rule="evenodd" clip-rule="evenodd" d="M20.2002 8.87093H16.2532L16.5684 5.72559H24.3703V6.26436H17.0554L16.8485 8.33216H20.2002V8.87093Z" fill="#F9CA85"/>
<path fill-rule="evenodd" clip-rule="evenodd" d="M16.8117 6.26433H14.7461L14.9357 2.85229L15.4734 2.88193L15.3156 5.72556H16.8117V6.26433Z" fill="#F9CA85"/>
<path fill-rule="evenodd" clip-rule="evenodd" d="M114.563 10.1741H107.125V9.63532H114.024V6.8418H114.563V10.1741Z" fill="#F9CA85"/>
<path fill-rule="evenodd" clip-rule="evenodd" d="M113.781 12.9111H111.426V12.3724H113.242V9.90479H113.781V12.9111Z" fill="#F9CA85"/>
<path fill-rule="evenodd" clip-rule="evenodd" d="M55.3441 103.74L58.4717 103.175C58.4717 103.175 58.0811 96.9582 56.1259 97.1845C54.1712 97.4102 55.3441 103.74 55.3441 103.74Z" fill="#F9CA85"/>
<path fill-rule="evenodd" clip-rule="evenodd" d="M47.6985 89.4024C47.6985 89.4024 62.9462 90.3145 62.4252 83.929C61.9037 77.543 57.5289 77.2822 53.6562 81.3225C53.6562 81.3225 42.8765 79.4879 43.6582 88.0991C43.6582 88.0991 40.7915 89.5128 43.0069 96.9613L46.5256 97.8735L45.7438 89.0112L47.6985 89.4024Z" fill="#F9CB0D"/>
<path fill-rule="evenodd" clip-rule="evenodd" d="M51.9556 97.178C51.9556 96.601 51.488 96.1333 50.9109 96.1333C50.3339 96.1333 49.8657 96.601 49.8657 97.178C49.8657 97.755 50.3339 98.2227 50.9109 98.2227C51.488 98.2227 51.9556 97.755 51.9556 97.178Z" fill="#0D0E2D"/>
<path fill-rule="evenodd" clip-rule="evenodd" d="M59.8206 96.1333C59.8206 95.5563 59.353 95.0886 58.7759 95.0886C58.1989 95.0886 57.7307 95.5563 57.7307 96.1333C57.7307 96.7103 58.1989 97.178 58.7759 97.178C59.353 97.178 59.8206 96.7103 59.8206 96.1333Z" fill="#0D0E2D"/>
<path fill-rule="evenodd" clip-rule="evenodd" d="M60.1111 104.346L53.9465 105.779C53.9465 105.779 53.9842 106.378 54.2369 107.063C56.1954 106.771 58.1559 106.189 60.1979 105.716C60.2345 104.946 60.1111 104.346 60.1111 104.346Z" fill="#FFFFFE"/>
<path fill-rule="evenodd" clip-rule="evenodd" d="M54.2368 107.063C54.635 108.142 55.5703 109.436 57.7636 108.955C59.694 108.532 60.1412 106.917 60.1978 105.717C58.1558 106.189 56.1952 106.771 54.2368 107.063Z" fill="#0D0E2D"/>
<path fill-rule="evenodd" clip-rule="evenodd" d="M48.5878 95.0073C48.5215 95.0073 48.4547 94.9906 48.3922 94.9566C48.1972 94.8483 48.1271 94.6021 48.2349 94.4071C48.5937 93.7606 49.2505 93.2918 50.0381 93.12C50.8248 92.9481 51.6189 93.1011 52.2148 93.5402C52.3942 93.6727 52.433 93.9254 52.3004 94.1054C52.1684 94.2848 51.9147 94.3236 51.7353 94.191C51.3274 93.8904 50.7741 93.7875 50.2106 93.9098C49.6502 94.0316 49.1874 94.3559 48.9418 94.7993C48.8679 94.9324 48.73 95.0073 48.5878 95.0073Z" fill="#0D0E2D"/>
<path fill-rule="evenodd" clip-rule="evenodd" d="M56.5465 93.5855C56.449 93.5855 56.3526 93.5511 56.2745 93.4805C56.1096 93.3302 56.0972 93.0748 56.2475 92.9099C56.7281 92.3809 57.4463 92.0565 58.2173 92.0199C58.9872 91.9843 59.7334 92.2386 60.2619 92.7203C60.4273 92.8706 60.4391 93.126 60.2888 93.2908C60.138 93.4562 59.8821 93.4676 59.7183 93.3178C59.3465 92.9794 58.8099 92.8006 58.2555 92.827C57.6973 92.8534 57.1834 93.0818 56.8456 93.453C56.7658 93.5408 56.6564 93.5855 56.5465 93.5855Z" fill="#0D0E2D"/>
<path fill-rule="evenodd" clip-rule="evenodd" d="M48.8227 99.7565C47.8303 96.4349 44.7135 94.4329 41.8607 95.2852C39.0085 96.137 37.5005 99.521 38.4929 102.843C39.4853 106.164 42.6021 108.166 45.4549 107.314C48.3071 106.462 49.8151 103.078 48.8227 99.7565Z" fill="#523B5D"/>
<path fill-rule="evenodd" clip-rule="evenodd" d="M48.8233 99.7564C47.8583 96.5276 44.887 94.5535 42.1016 95.2281C44.1009 95.7006 45.887 97.3902 46.5938 99.7564C47.5862 103.078 46.0782 106.462 43.2254 107.314C43.1462 107.338 43.066 107.351 42.9857 107.37C43.7933 107.562 44.6349 107.559 45.4554 107.314C48.3077 106.462 49.8157 103.078 48.8233 99.7564Z" fill="#523B5D"/>
<path fill-rule="evenodd" clip-rule="evenodd" d="M62.1122 117.694L61.1494 116.396C63.6795 114.518 65.0049 112.335 65.0878 109.907L66.7031 109.963C66.6023 112.907 65.0582 115.508 62.1122 117.694Z" fill="#3A3B39"/>
<path fill-rule="evenodd" clip-rule="evenodd" d="M42.5974 86.7695L43.6097 96.0455L42.0026 96.2212L40.9902 86.9446L42.5974 86.7695Z" fill="#0D0E2D"/>
<path fill-rule="evenodd" clip-rule="evenodd" d="M63.4406 117.045C63.4406 116.045 62.6303 115.235 61.6303 115.235C60.6309 115.235 59.8201 116.045 59.8201 117.045C59.8201 118.045 60.6309 118.855 61.6303 118.855C62.6303 118.855 63.4406 118.045 63.4406 117.045Z" fill="#523B5D"/>
<path fill-rule="evenodd" clip-rule="evenodd" d="M57.6106 117.045L58.2684 122.374L59.8206 116.712L57.6106 117.045Z" fill="#F9CA85"/>
<path fill-rule="evenodd" clip-rule="evenodd" d="M87.4505 242.593L19.4534 248.503L19.1609 242.593H87.4505Z" fill="#0616A4"/>
<path fill-rule="evenodd" clip-rule="evenodd" d="M53.9136 260.316L73.9521 258.172L54.371 267.067L53.9136 260.316Z" fill="#0616A4"/>
<path fill-rule="evenodd" clip-rule="evenodd" d="M87.4504 138.994V122.374L91.5564 133.4L87.4504 138.994Z" fill="#12B5B9"/>
<path fill-rule="evenodd" clip-rule="evenodd" d="M76.7816 57.9824L77.9265 58.8073L70.7721 68.7438L69.6267 67.9195L76.7816 57.9824Z" fill="#B6EBEB"/>
<path fill-rule="evenodd" clip-rule="evenodd" d="M87.1023 66.8149L87.8194 68.0347L74.8948 75.6303L74.1777 74.4105L87.1023 66.8149Z" fill="#B6EBEB"/>
<path fill-rule="evenodd" clip-rule="evenodd" d="M87.4784 82.2061L87.6379 83.6117L77.815 84.7291L77.655 83.3229L87.4784 82.2061Z" fill="#B6EBEB"/>
<path fill-rule="evenodd" clip-rule="evenodd" d="M279.749 255.781C279.053 255.453 278.354 255.127 277.637 254.853C279.991 252.955 280.537 249.179 278.819 246.691C277.101 244.204 273.376 243.378 270.768 244.907C273.367 241.026 276.019 237.024 277.008 232.459C277.997 227.894 276.951 222.572 273.245 219.73C269.86 217.135 265.026 217.18 261.045 218.712C257.524 220.066 254.348 222.576 252.729 225.983C251.11 229.39 251.26 233.717 253.565 236.704C250.708 237.239 248.125 238.931 246.365 241.238C246.496 240.236 246.414 239.214 246.074 238.257C245.195 235.782 242.475 234.001 239.897 234.498C238.612 234.745 237.496 235.607 236.811 236.715C236.447 232.857 233.57 229.153 229.742 228.144C224.671 226.809 218.965 230.023 217.05 234.904C215.135 239.786 216.879 245.723 220.824 249.177C218.447 247.501 215.07 247.387 212.586 248.897C210.26 250.311 208.838 253.071 208.987 255.781H279.749Z" fill="#B6EBEB"/>
<path fill-rule="evenodd" clip-rule="evenodd" d="M235.04 220.345C235.04 218.775 233.768 217.503 232.199 217.503C230.63 217.503 229.358 218.775 229.358 220.345C229.358 221.914 230.63 223.186 232.199 223.186C233.768 223.186 235.04 221.914 235.04 220.345Z" fill="#B6EBEB"/>
<path fill-rule="evenodd" clip-rule="evenodd" d="M212.087 240.218C212.087 239.358 211.391 238.662 210.532 238.662C209.673 238.662 208.976 239.358 208.976 240.218C208.976 241.077 209.673 241.773 210.532 241.773C211.391 241.773 212.087 241.077 212.087 240.218Z" fill="#B6EBEB"/>
<path fill-rule="evenodd" clip-rule="evenodd" d="M246.979 164.173L234.442 245.275H240.711L246.979 164.173Z" fill="#B6EBEB"/>
<path fill-rule="evenodd" clip-rule="evenodd" d="M244.55 245.275C243.341 243.7 250.206 174.682 250.206 174.682L256.247 241.718L244.55 245.275Z" fill="#B6EBEB"/>
<path fill-rule="evenodd" clip-rule="evenodd" d="M257.678 226.754L254.86 172.901L262.808 222.22L257.678 226.754Z" fill="#B6EBEB"/>
<path fill-rule="evenodd" clip-rule="evenodd" d="M250.568 156.584C268.839 156.584 250.568 190.309 250.568 190.309C250.568 190.309 232.297 156.584 250.568 156.584Z" fill="#EBBD02"/>
<path fill-rule="evenodd" clip-rule="evenodd" d="M250.568 177.207C250.568 177.207 241.13 159.787 250.568 159.787C260.006 159.787 250.568 177.207 250.568 177.207Z" fill="#F9CB0D"/>
<path fill-rule="evenodd" clip-rule="evenodd" d="M236.549 153.461L244.317 146.145V128.912L238.771 133.997C235.409 137.08 233.947 141.635 234.912 146.02L236.549 153.461Z" fill="#12B5B9"/>
<path fill-rule="evenodd" clip-rule="evenodd" d="M264.881 153.461L266.519 146.02C267.484 141.635 266.022 137.08 262.659 133.997L257.113 128.912V146.145L264.881 153.461Z" fill="#12B5B9"/>
<path fill-rule="evenodd" clip-rule="evenodd" d="M251.032 97.129L250.93 96.998C246.117 102.926 243.49 110.329 243.49 117.964V148.711H258.102V117.631C258.102 110.199 255.613 102.982 251.032 97.129Z" fill="#B6EBEB"/>
<path fill-rule="evenodd" clip-rule="evenodd" d="M243.704 114.266H257.924C257.29 108.04 254.917 102.093 251.032 97.129L250.93 96.9976C246.899 101.962 244.409 107.962 243.704 114.266Z" fill="#1DC8CC"/>
<path fill-rule="evenodd" clip-rule="evenodd" d="M255.706 123.097C255.706 120.307 253.444 118.045 250.654 118.045C247.865 118.045 245.604 120.307 245.604 123.097C245.604 125.886 247.865 128.148 250.654 128.148C253.444 128.148 255.706 125.886 255.706 123.097Z" fill="#12B5B9"/>
<path fill-rule="evenodd" clip-rule="evenodd" d="M254.379 123.097C254.379 121.04 252.712 119.373 250.656 119.373C248.599 119.373 246.932 121.04 246.932 123.097C246.932 125.153 248.599 126.82 250.656 126.82C252.712 126.82 254.379 125.153 254.379 123.097Z" fill="#FFFFFE"/>
<path fill-rule="evenodd" clip-rule="evenodd" d="M255.706 137.463C255.706 134.673 253.444 132.411 250.654 132.411C247.865 132.411 245.604 134.673 245.604 137.463C245.604 140.253 247.865 142.514 250.654 142.514C253.444 142.514 255.706 140.253 255.706 137.463Z" fill="#12B5B9"/>
<path fill-rule="evenodd" clip-rule="evenodd" d="M254.379 137.463C254.379 135.406 252.712 133.74 250.656 133.74C248.599 133.74 246.932 135.406 246.932 137.463C246.932 139.519 248.599 141.186 250.656 141.186C252.712 141.186 254.379 139.519 254.379 137.463Z" fill="#FFFFFE"/>
<path fill-rule="evenodd" clip-rule="evenodd" d="M243.49 148.711L240.791 158.712H260.346L258.102 148.711H243.49Z" fill="#1DC8CC"/>
<path fill-rule="evenodd" clip-rule="evenodd" d="M258.81 151.866L258.102 148.712H243.49L242.639 151.866H258.81Z" fill="#12B5B9"/>
<path fill-rule="evenodd" clip-rule="evenodd" d="M244.351 110.494C244.065 111.735 243.846 112.994 243.704 114.266H257.924C257.795 112.995 257.589 111.736 257.317 110.494H244.351Z" fill="#12B5B9"/>
</g>
<defs>
<clipPath id="clip0">
<rect width="315.18" height="403" fill="white"/>
</clipPath>
</defs>
</svg>
