<svg width="72" height="72" viewBox="0 0 72 72" fill="none" xmlns="http://www.w3.org/2000/svg">
<g clip-path="url(#clip0)">
<path d="M36 33C38.4853 33 40.5 30.9853 40.5 28.5C40.5 26.0147 38.4853 24 36 24C33.5147 24 31.5 26.0147 31.5 28.5C31.5 30.9853 33.5147 33 36 33Z" fill="#1DC8CC"/>
<path d="M42.75 45C41.508 45 40.5 43.992 40.5 42.75C40.5 41.508 39.489 40.5 38.25 40.5H33.75C32.511 40.5 31.5 41.508 31.5 42.75C31.5 43.992 30.492 45 29.25 45C28.008 45 27 43.992 27 42.75C27 39.027 30.03 36 33.75 36H38.25C41.97 36 45 39.027 45 42.75C45 43.992 43.992 45 42.75 45Z" fill="#1DC8CC"/>
<path d="M36 57C24.423 57 15 47.58 15 36C15 24.42 24.423 15 36 15C47.577 15 57 24.42 57 36C57 47.58 47.577 57 36 57ZM36 19.5C26.904 19.5 19.5 26.901 19.5 36C19.5 45.099 26.904 52.5 36 52.5C45.096 52.5 52.5 45.099 52.5 36C52.5 26.901 45.096 19.5 36 19.5Z" fill="#1DC8CC"/>
<path d="M60.27 62.52C59.694 62.52 59.118 62.301 58.68 61.86L48.21 51.39C47.331 50.511 47.331 49.086 48.21 48.207C49.089 47.328 50.514 47.328 51.393 48.207L61.863 58.677C62.742 59.556 62.742 60.981 61.863 61.86C61.422 62.301 60.846 62.52 60.27 62.52Z" fill="#1DC8CC"/>
<path d="M22.2006 24.45C21.6246 24.45 21.0486 24.231 20.6106 23.79L10.1406 13.32C9.2616 12.441 9.2616 11.016 10.1406 10.137C11.0196 9.258 12.4446 9.258 13.3236 10.137L23.7936 20.607C24.6726 21.486 24.6726 22.911 23.7936 23.79C23.3526 24.231 22.7796 24.45 22.2006 24.45Z" fill="#1DC8CC"/>
<path d="M49.8 24.45C49.224 24.45 48.648 24.231 48.21 23.79C47.331 22.911 47.331 21.486 48.21 20.607L58.68 10.137C59.559 9.25797 60.984 9.25797 61.863 10.137C62.742 11.016 62.742 12.441 61.863 13.32L51.393 23.79C50.949 24.231 50.376 24.45 49.8 24.45Z" fill="#1DC8CC"/>
<path d="M11.7306 62.52C11.1546 62.52 10.5786 62.301 10.1406 61.86C9.2616 60.981 9.2616 59.556 10.1406 58.677L20.6106 48.207C21.4896 47.328 22.9146 47.328 23.7936 48.207C24.6726 49.086 24.6726 50.511 23.7936 51.39L13.3236 61.86C12.8826 62.301 12.3096 62.52 11.7306 62.52Z" fill="#1DC8CC"/>
<path d="M7.49999 72C3.36299 72 -7.62939e-06 68.634 -7.62939e-06 64.5C-7.62939e-06 60.366 3.36299 57 7.49999 57C11.637 57 15 60.366 15 64.5C15 68.634 11.637 72 7.49999 72ZM7.49999 61.5C5.84399 61.5 4.49999 62.847 4.49999 64.5C4.49999 66.153 5.84399 67.5 7.49999 67.5C9.15599 67.5 10.5 66.153 10.5 64.5C10.5 62.847 9.15599 61.5 7.49999 61.5Z" fill="#1DC8CC"/>
<path d="M7.5 15C3.363 15 0 11.634 0 7.5C0 3.366 3.363 0 7.5 0C11.637 0 15 3.366 15 7.5C15 11.634 11.637 15 7.5 15ZM7.5 4.5C5.844 4.5 4.5 5.847 4.5 7.5C4.5 9.153 5.844 10.5 7.5 10.5C9.156 10.5 10.5 9.153 10.5 7.5C10.5 5.847 9.156 4.5 7.5 4.5Z" fill="#1DC8CC"/>
<path d="M64.5 15C60.363 15 57 11.634 57 7.5C57 3.366 60.363 0 64.5 0C68.637 0 72 3.366 72 7.5C72 11.634 68.637 15 64.5 15ZM64.5 4.5C62.844 4.5 61.5 5.847 61.5 7.5C61.5 9.153 62.844 10.5 64.5 10.5C66.156 10.5 67.5 9.153 67.5 7.5C67.5 5.847 66.156 4.5 64.5 4.5Z" fill="#1DC8CC"/>
<path d="M64.5 72C60.363 72 57 68.634 57 64.5C57 60.366 60.363 57 64.5 57C68.637 57 72 60.366 72 64.5C72 68.634 68.637 72 64.5 72ZM64.5 61.5C62.844 61.5 61.5 62.847 61.5 64.5C61.5 66.153 62.844 67.5 64.5 67.5C66.156 67.5 67.5 66.153 67.5 64.5C67.5 62.847 66.156 61.5 64.5 61.5Z" fill="#1DC8CC"/>
</g>
<defs>
<clipPath id="clip0">
<rect width="72" height="72" fill="white"/>
</clipPath>
</defs>
</svg>
