<?xml version="1.0" encoding="UTF-8"?>
<svg width="24px" height="24px" viewBox="0 0 24 24" version="1.1" xmlns="http://www.w3.org/2000/svg" xmlns:xlink="http://www.w3.org/1999/xlink">
    <!-- Generator: Sketch 63.1 (92452) - https://sketch.com -->
    <title>ico / 24 / admin / courses</title>
    <desc>Created with Sketch.</desc>
    <g id="ico-/-24-/-admin-/-courses" stroke="none" stroke-width="1" fill="none" fill-rule="evenodd">
        <path d="M18,3 C18.5522847,3 19,3.44771525 19,4 C19,4.55228475 18.5522847,5 18,5 L6.75,5 C6.33578644,5 6,5.33578644 6,5.75 C6,6.16421356 6.33578644,6.5 6.75,6.5 L19,6.5 C19.5522847,6.5 20,6.94771525 20,7.5 L20,19 C20,20.1045695 19.1045695,21 18,21 L6,21 C4.8954305,21 4,20.1045695 4,19 L4,5 C4,3.8954305 4.8954305,3 6,3 L18,3 Z M15.5,10 L8.5,10 C8.22385763,10 8,10.2238576 8,10.5 L8,10.5 L8,13.5 C8,13.7761424 8.22385763,14 8.5,14 L8.5,14 L15.5,14 C15.7761424,14 16,13.7761424 16,13.5 L16,13.5 L16,10.5 C16,10.2238576 15.7761424,10 15.5,10 L15.5,10 Z" id="Combined-Shape" fill="#0D0E2D"></path>
    </g>
</svg>