<?xml version="1.0" encoding="UTF-8"?>
<svg width="92px" height="92px" viewBox="0 0 92 92" version="1.1" xmlns="http://www.w3.org/2000/svg" xmlns:xlink="http://www.w3.org/1999/xlink">
    <!-- Generator: Sketch 63.1 (92452) - https://sketch.com -->
    <title>illustration / institute / icon4</title>
    <desc>Created with Sketch.</desc>
    <g id="Page-1" stroke="none" stroke-width="1" fill="none" fill-rule="evenodd">
        <g id="04-01-07-1---Statna-sprava" transform="translate(-1124.000000, -1004.000000)">
            <g id="illustration-/-institute-/-icon4" transform="translate(1124.000000, 1004.000000)">
                <path d="M46,11.8024141 C46.7444453,11.8024141 47.3476562,11.1990234 47.3476562,10.4547578 L47.3476562,1.34765625 C47.3476562,0.603390625 46.7444453,1.27675648e-15 46,1.27675648e-15 C45.2555547,1.27675648e-15 44.6523438,0.603390625 44.6523438,1.34765625 L44.6523438,10.4547578 C44.6523438,11.1990234 45.2555547,11.8024141 46,11.8024141 Z" id="Path" fill="#0D0E2D" fill-rule="nonzero"></path>
                <path d="M46,68.6 C50.2879877,68.6 54.8388453,69.5299972 58.4043672,67.6915156 C60.2469042,66.7414526 61.4559388,63.6096057 63.0093148,62.2648128 C68.516195,57.4973813 72,50.4555338 72,42.6 C72,28.2405965 60.3594035,16.6 46,16.6 C31.6405965,16.6 20,28.2405965 20,42.6 C20,51.4798136 24.4515385,59.3199146 31.2447522,64.0104398 C32.3568479,64.778311 33.0545849,68.0102024 34.2829375,68.6 C37.6847913,70.2334116 41.9740965,68.6 46,68.6 Z" id="Oval" fill="#F9CB0D"></path>
                <path d="M20.1126016,21.46475 C20.6459141,21.9831484 21.49925,21.9716484 22.0181875,21.4376172 C22.537125,20.9039453 22.5247266,20.0507891 21.9912344,19.5320313 L15.3654375,13.0922109 C14.8315859,12.5734531 13.97825,12.5856719 13.4598516,13.1193438 C12.9409141,13.6530156 12.9533125,14.5061719 13.4868047,15.0249297 L20.1126016,21.46475 Z" id="Path" fill="#0D0E2D" fill-rule="nonzero"></path>
                <path d="M10.7178203,43.3983047 L1.34765625,43.3983047 C0.603210938,43.3983047 0,44.0016953 0,44.7459609 C0,45.4902266 0.603210938,46.0936172 1.34765625,46.0936172 L10.7178203,46.0936172 C11.4622656,46.0936172 12.0654766,45.4902266 12.0654766,44.7459609 C12.0654766,44.0016953 11.4622656,43.3983047 10.7178203,43.3983047 L10.7178203,43.3983047 Z" id="Path" fill="#0D0E2D" fill-rule="nonzero"></path>
                <path d="M20.1126016,68.0269922 L13.4868047,74.4666328 C12.9531328,74.9853906 12.9409141,75.8385469 13.4598516,76.3722188 C13.9787891,76.90625 14.8323047,76.91775 15.3654375,76.3991719 L21.9912344,69.9595312 C22.5249062,69.4407734 22.537125,68.5876172 22.0181875,68.0539453 C21.4997891,67.5204531 20.6464531,67.507875 20.1126016,68.0269922 Z" id="Path" fill="#0D0E2D" fill-rule="nonzero"></path>
                <path d="M71.8873984,68.0269922 C71.3533672,67.5080547 70.5002109,67.5204531 69.9818125,68.0539453 C69.462875,68.5877969 69.4752734,69.4409531 70.0087656,69.9595312 L76.6345625,76.3991719 C77.167875,76.91775 78.0212109,76.90625 78.5401484,76.3722188 C79.0590859,75.8383672 79.0466875,74.9852109 78.5131953,74.4666328 L71.8873984,68.0269922 Z" id="Path" fill="#0D0E2D" fill-rule="nonzero"></path>
                <path d="M90.6523438,43.3983047 L81.2821797,43.3983047 C80.5377344,43.3983047 79.9345234,44.0016953 79.9345234,44.7459609 C79.9345234,45.4902266 80.5377344,46.0936172 81.2821797,46.0936172 L90.6523438,46.0936172 C91.3967891,46.0936172 92,45.4902266 92,44.7459609 C92,44.0016953 91.3967891,43.3983047 90.6523438,43.3983047 L90.6523438,43.3983047 Z" id="Path" fill="#0D0E2D" fill-rule="nonzero"></path>
                <path d="M76.6345625,13.0922109 L70.0087656,19.5318516 C69.4750937,20.0506094 69.462875,20.9037656 69.9818125,21.4374375 C70.50075,21.9716484 71.3540859,21.9829688 71.8873984,21.4645703 L78.5131953,15.0249297 C79.0468672,14.5061719 79.0590859,13.6530156 78.5401484,13.1193438 C78.0219297,12.5856719 77.1685937,12.5734531 76.6345625,13.0922109 L76.6345625,13.0922109 Z" id="Path" fill="#0D0E2D" fill-rule="nonzero"></path>
                <path d="M67.0775234,24.7072109 C66.5975781,24.1381406 65.7474766,24.0657266 65.1785859,24.5458516 C64.6095156,25.0256172 64.5374609,25.8758984 65.0172266,26.4447891 C68.6943516,30.8050859 70.71925,36.3346094 70.71925,42.01525 C70.71925,48.3909219 68.2384844,54.4203359 63.7340781,58.9928438 C61.1489141,61.6173594 58.9502578,64.1275938 58.4043672,67.6913359 L51.3322266,67.6913359 L51.3322266,51.1148047 L54.2956328,51.1148047 C57.2597578,51.1148047 59.6713437,48.7032188 59.6713437,45.7390938 L59.6713437,45.6902187 C59.6713437,42.7260938 57.2597578,40.3145078 54.2956328,40.3145078 L54.0124453,40.3145078 C51.0483203,40.3145078 48.6369141,42.7259141 48.6369141,45.6902187 L48.6369141,48.4194922 L43.9195781,48.4194922 L43.9195781,45.6902187 C43.9195781,42.7260938 41.5079922,40.3145078 38.5438672,40.3145078 L38.2606797,40.3145078 C35.2965547,40.3145078 32.8849687,42.7259141 32.8849687,45.6902187 L32.8849687,45.7390938 C32.8849687,48.7032188 35.2965547,51.1148047 38.2606797,51.1148047 L41.2242656,51.1148047 L41.2242656,67.6913359 L34.1009141,67.6913359 C33.4186406,64.2212109 30.9143359,61.6788125 28.4792109,59.2090078 C27.2718906,58.0063594 26.1786719,56.6795469 25.2469922,55.260375 C24.8376641,54.6382969 24.0017578,54.4659766 23.3803984,54.875125 C22.7585,55.2842734 22.5861797,56.12 22.9951484,56.7417187 C24.0240391,58.3080547 25.2283047,59.7735859 26.5599687,61.1012969 C29.2577969,63.8375781 31.5874453,66.2006484 31.587625,69.5647578 L31.587625,77.6979531 C31.587625,80.3077344 33.0044609,82.5915625 35.1086016,83.8245781 L35.1086016,85.2489609 C35.1086016,88.9715469 38.2071328,91.9998203 42.0156094,91.9998203 L50.5401641,91.9998203 C54.3486406,91.9998203 57.4471719,88.9713672 57.4471719,85.2489609 L57.4471719,83.8245781 C59.5511328,82.5915625 60.9681484,80.3077344 60.9681484,77.6979531 L60.9681484,69.4359219 C60.9683281,65.9133281 62.9103906,63.66975 65.6538594,60.8845937 C70.6583359,55.8046484 73.4142031,49.1033828 73.4142031,42.01525 C73.4142031,35.6995937 71.1639766,29.5528437 67.0775234,24.7072109 L67.0775234,24.7072109 Z M51.3320469,45.6902187 C51.3320469,44.2122891 52.5343359,43.0098203 54.0122656,43.0098203 L54.2954531,43.0098203 C55.7735625,43.0098203 56.9758516,44.2121094 56.9758516,45.6902187 L56.9758516,45.7390937 C56.9758516,47.2172031 55.7735625,48.4194922 54.2954531,48.4194922 L51.3320469,48.4194922 L51.3320469,45.6902187 Z M35.5801016,45.7392734 L35.5801016,45.6903984 C35.5801016,44.2124688 36.7823906,43.01 38.2605,43.01 L38.5436875,43.01 C40.0217969,43.01 41.2240859,44.2122891 41.2240859,45.6903984 L41.2240859,48.4196719 L38.2605,48.4196719 C36.7823906,48.4196719 35.5801016,47.2172031 35.5801016,45.7392734 Z M43.9193984,51.1149844 L48.6367344,51.1149844 L48.6367344,67.6915156 L43.9193984,67.6915156 L43.9193984,51.1149844 Z M54.7520391,85.2491406 C54.7520391,87.4853516 52.862625,89.3046875 50.5403437,89.3046875 L42.0157891,89.3046875 C39.6933281,89.3046875 37.8040937,87.4853516 37.8040937,85.2491406 L37.8040937,84.7390078 L54.7522187,84.7390078 L54.7522187,85.2491406 L54.7520391,85.2491406 Z M53.8706719,82.1002969 L38.6852812,82.1002969 C36.2577031,82.1002969 34.2829375,80.1255312 34.2829375,77.6979531 L34.2829375,77.5910391 L48.4090703,77.5910391 C49.1535156,77.5910391 49.7567266,76.9878281 49.7567266,76.2433828 C49.7567266,75.4989375 49.1535156,74.8957266 48.4090703,74.8957266 L34.2829375,74.8957266 L34.2829375,72.6411875 L34.2829375,70.3866484 L58.2730156,70.3866484 L58.2730156,72.5955469 L58.2730156,74.8957266 L54.8950703,74.8957266 C54.150625,74.8957266 53.5474141,75.4989375 53.5474141,76.2433828 C53.5474141,76.9878281 54.150625,77.5910391 54.8950703,77.5910391 L58.2730156,77.5910391 L58.2730156,77.6979531 C58.2730156,80.1255312 56.29825,82.1002969 53.8706719,82.1002969 L53.8706719,82.1002969 Z" id="Shape" fill="#0D0E2D" fill-rule="nonzero"></path>
                <path d="M21.2809297,42.01525 C21.2809297,28.5771406 32.3699844,17.6444141 46,17.6444141 C51.2783203,17.6444141 56.3137031,19.2612422 60.5620547,22.3200625 C61.1661641,22.7547266 62.0083594,22.6179844 62.4433828,22.013875 C62.8782266,21.4099453 62.741125,20.56775 62.1371953,20.1327266 C57.4272266,16.7416641 51.8470313,14.9491016 46,14.9491016 C30.8836094,14.9491016 18.5856172,27.0909453 18.5856172,42.01525 C18.5856172,45.0248359 19.0829922,47.9815937 20.0637266,50.8035859 C20.3066641,51.5133516 21.0947734,51.8775781 21.7790234,51.6341016 C22.4821406,51.3899062 22.8539141,50.6217422 22.6095391,49.9188047 C21.7278125,47.3819766 21.2809297,44.7229609 21.2809297,42.01525 Z" id="Path" fill="#0D0E2D" fill-rule="nonzero"></path>
            </g>
        </g>
    </g>
</svg>