<?xml version="1.0" encoding="UTF-8"?>
<svg width="92px" height="92px" viewBox="0 0 92 92" version="1.1" xmlns="http://www.w3.org/2000/svg" xmlns:xlink="http://www.w3.org/1999/xlink">
    <!-- Generator: Sketch 63.1 (92452) - https://sketch.com -->
    <title>illustration / institute / icon3</title>
    <desc>Created with Sketch.</desc>
    <g id="Page-1" stroke="none" stroke-width="1" fill="none" fill-rule="evenodd">
        <g id="04-01-07-1---Statna-sprava" transform="translate(-824.000000, -1036.000000)">
            <g id="illustration-/-institute-/-icon3" transform="translate(824.000000, 1036.000000)">
                <polygon id="Path-3" fill="#F9CB0D" points="15 62.2688301 29.6145705 79.3225974 43.2772387 87 48.5921422 86.1494554 54.5597556 85.5365184 57.004429 82.3328973 62.1307665 83.0277659 64.5545957 78.625267 69.072687 76.81801 71.757102 72.0777979 77 65.6710273 66.5633515 43.5645824 48.5921422 36 39.9288721 38.4221926 25.1217184 38.4221926"></polygon>
                <path d="M35.8202722,0.18336349 C49.0957225,-0.299510255 62.5697376,0.172401339 75.8681891,1.58633905 C80.2084026,2.04836674 83.6091619,5.53486972 83.9547186,9.87642045 C84.9026185,21.7664002 85.3863619,33.8306961 85.3939092,45.7399045 C87.7466775,50.9940094 89.9292732,56.3338346 91.9161792,61.704929 C92.1258852,62.2719058 91.9325316,62.9091481 91.4432176,63.2635311 C89.3882066,64.7527662 87.2029154,65.9866371 84.9062124,66.9620888 C84.6744037,71.9845508 84.3567,77.0808726 83.9548983,82.1290327 C83.6095213,86.4704037 80.2085823,89.9569067 75.8685485,90.4189344 C65.9595354,91.4729182 55.9804407,92 46.0006272,92 C36.0208136,92 26.0408204,91.4729182 16.1301901,90.4189344 C11.7908751,89.9563676 8.39083457,86.4698646 8.04527789,82.128853 C7.52972816,75.6417758 7.15038851,69.0943169 6.91354831,62.6505492 C4.68261425,61.6874973 2.55842,60.4777072 0.556958581,59.0274686 C0.0674648731,58.6727262 -0.125888735,58.0354839 0.0838172694,57.4685071 C2.07701265,52.0799811 4.26733526,46.7229039 6.6289088,41.452266 C6.67383296,37.0253543 6.78344793,32.5583678 6.95667551,28.1693743 L6.95667551,28.1693743 C7.14086459,23.4960838 16.1840991,13.8659244 22.2177739,8.5322092 C22.7753727,8.03909214 23.6271349,8.0917464 24.1200428,8.64937842 C24.6131304,9.20719014 24.560659,10.0590032 24.0028806,10.5519405 C17.4019034,16.387219 11.6129754,23.2119664 10.0578805,26.8018011 C14.2034825,26.626227 18.3898756,26.3521733 22.5520097,25.986289 L22.5520097,25.986289 L20.8955659,23.5233993 C20.1659974,22.4388652 19.9167582,21.0862077 20.2116404,19.8128012 C20.5065226,18.539215 21.3248612,17.4340145 22.4569502,16.7804188 L22.4569502,16.7804188 L23.5432165,16.1530603 C24.6753055,15.4994645 26.0415392,15.3432988 27.2918686,15.7246379 C28.542198,16.105977 29.5887513,16.9982241 30.1632415,18.1722525 L30.1632415,18.1722525 L32.3771044,22.6963859 C32.9787289,21.8007243 33.3507009,20.7582418 33.4380335,19.660589 C33.8723604,14.2384578 34.211987,8.72449611 34.4491866,3.24306143 C33.2087406,3.71982513 31.1968568,4.79483471 28.0819948,7.17847347 C27.4907928,7.63079696 26.6447809,7.51847984 26.1926641,6.92724254 C25.7401879,6.33618495 25.852678,5.49012258 26.44388,5.03779909 C30.5485112,1.8966937 33.6996719,0.264231813 35.8109279,0.184801149 C35.8141625,0.184621441 35.8170376,0.183543197 35.8202722,0.18336349 Z M9.64996908,63.6888985 C9.88752807,69.7268869 10.2499762,75.8480799 10.7322821,81.9157201 C10.9748726,84.9646356 13.3648382,87.4138675 16.4153687,87.7389582 C36.0474088,89.8269783 55.9543847,89.8269783 75.5830105,87.7389582 C78.6342598,87.4140472 81.0251239,84.964995 81.2677144,81.9155404 C81.6368113,77.2810666 81.9322327,72.6075963 82.1575723,67.9874992 C80.8594436,68.4072956 79.5311259,68.7517947 78.1729785,69.013808 C78.0876226,69.0303411 78.0019073,69.0382482 77.9172701,69.0382482 C77.4198698,69.0382482 76.9548148,68.7613192 76.7208498,68.307558 C74.5749122,70.9476392 72.4771334,72.5303221 71.3534901,73.2732325 C71.3608577,73.390222 71.3660689,73.5077506 71.3660689,73.6261778 C71.3660689,75.0710252 70.8036184,76.4278159 69.7824022,77.4467568 C68.7293798,78.4985841 67.3458952,79.0247674 65.9629497,79.0247674 C65.847225,79.0247674 65.7316801,79.0197355 65.6161351,79.0123675 C65.7119134,80.5093301 65.1904337,82.0386399 64.0490005,83.1801412 C62.9957984,84.2334062 61.6124935,84.7599489 60.2291886,84.7599489 C59.1308826,84.7599489 58.0334751,84.4267714 57.10049,83.763112 C56.8724549,84.6853703 56.3991339,85.5591076 55.6798082,86.2784763 C54.626606,87.3317412 53.2433011,87.8582839 51.8599962,87.8582839 C50.8301547,87.8582839 49.8003131,87.5659 48.9066816,86.9820307 C47.7620139,87.6156789 46.4841909,87.9335813 45.0750097,87.9335813 C40.9737927,87.9335813 35.7633083,85.2534253 29.5077081,79.9136001 C23.4756506,74.7644444 17.7810633,68.2421445 14.7680894,64.6127742 C14.5628758,64.7340766 14.3269341,64.8018263 14.082906,64.8018263 C13.9982689,64.8018263 13.9127333,64.7939192 13.8271977,64.7773861 C12.4018438,64.5024338 11.0090149,64.1376278 9.64996908,63.6888985 Z M47.445568,36.8154561 C47.1693743,36.805033 46.8991105,36.8551714 46.6432224,36.9646132 C44.6151659,37.8317013 37.6758199,41.3038277 33.507037,49.5833064 C33.2425236,50.1087708 33.1082901,50.6719737 33.1082901,51.2576401 C33.1082901,52.4499986 33.6811631,53.5852102 34.6405636,54.2943355 C36.1392337,55.4027707 38.1910102,55.2611612 39.5195077,53.9579233 C42.4322109,51.0996773 45.0863306,49.2578563 47.4081911,48.4838566 C47.8922939,48.3226591 48.4263524,48.4484543 48.787363,48.8094864 L48.787363,48.8094864 L62.9582418,62.9812108 C63.4845733,63.5075737 63.4845733,64.3608244 62.9582418,64.8871873 C62.6951659,65.1504587 62.3501483,65.2820045 62.0053104,65.2820045 C61.6604725,65.2820045 61.3154549,65.1504587 61.052379,64.8871873 L61.052379,64.8871873 L47.5032507,51.3372505 C45.7445594,52.1204153 43.6559451,53.6752436 41.4072211,55.8820503 C39.1274095,58.1186884 35.607691,58.3623716 33.0383881,56.461966 C31.3945231,55.2471441 30.4128402,53.3016319 30.4128402,51.2576401 C30.4128402,50.2613424 30.6502195,49.2630678 31.0994612,48.3710004 C33.1219471,44.3540012 35.7458778,41.3652877 38.2388095,39.1958601 C35.2651892,39.0235207 30.619132,39.0215439 25.790503,40.0579164 C22.9565069,47.543987 19.7476636,54.9574558 16.2297421,62.1486265 C18.9717334,65.496036 24.9389205,72.4694013 31.2574145,77.8629591 C36.1036538,81.9994637 42.4758771,86.3232234 46.7449307,84.982786 L46.7449307,84.982786 L37.151465,75.3887478 C36.6251335,74.8623849 36.6251335,74.0091342 37.151465,73.4827713 C37.6776169,72.9564084 38.5309963,72.9564084 39.0573278,73.4827713 L39.0573278,73.4827713 L49.9460471,84.3719606 C51.0014056,85.4273821 52.7184072,85.4273821 53.7737657,84.3719606 C54.8291242,83.3167188 54.8291242,81.5996148 53.7739454,80.5441933 L53.7739454,80.5441933 L44.1592755,70.9291293 C43.632944,70.4029461 43.632944,69.5495157 44.1592755,69.0231528 C44.6854273,68.4967899 45.5388068,68.4967899 46.0651383,69.0231528 L46.0651383,69.0231528 L58.3150597,81.2738053 C59.3704182,82.3292268 61.0874198,82.3292268 62.1427783,81.2738053 C63.1981368,80.2183838 63.1981368,78.5012797 62.1427783,77.4458583 L62.1427783,77.4458583 L48.7490876,64.0513683 C48.2227561,63.5250054 48.2227561,62.6717547 48.7490876,62.1453918 C49.2752394,61.6190288 50.1286189,61.6190288 50.6549504,62.1453918 L50.6549504,62.1453918 L64.0490005,75.5391629 C65.1039996,76.5944047 66.8215403,76.5938656 67.8777973,75.5388035 C68.389214,75.0286142 68.6704393,74.3495 68.6704393,73.6259981 C68.6704393,72.9024961 68.3890343,72.2233819 67.8783364,71.7139115 L67.8783364,71.7139115 L64.8531431,68.688358 C64.3268116,68.161995 64.3268116,67.3085647 64.8531431,66.7822017 C65.3794746,66.2558388 66.2328541,66.2558388 66.7590059,66.7822017 L66.7590059,66.7822017 L69.7833007,69.806677 C70.0337979,70.0564703 70.256442,70.3271096 70.4497956,70.6139226 C71.6413642,69.7444983 73.5497428,68.1271318 75.3941493,65.6135646 C72.169313,58.9651102 69.2100684,52.1320962 66.5669102,45.2320515 C64.4134254,43.4829595 56.0230288,37.1290455 47.445568,36.8154561 Z M78.7864629,38.0308171 C75.062609,38.8756215 71.5845801,40.3826477 68.4213797,42.5217047 C71.4251891,50.5406076 74.865302,58.4813379 78.6606752,66.1571794 C82.3845291,65.312375 85.862558,63.8055286 89.0257584,61.6662919 C86.021949,53.6473889 82.5818361,45.7066587 78.7864629,38.0308171 Z M13.2135336,33.7947546 C9.41816039,41.4705962 5.97822718,49.4113264 2.97423808,57.4302294 C6.13743842,59.5694661 9.61546732,61.0763125 13.3393213,61.9211169 C17.1346945,54.2452754 20.5746277,46.3045451 23.5786168,38.2856422 C20.4154164,36.1464055 16.9373875,34.639559 13.2135336,33.7947546 Z M75.5828308,4.2666747 C62.8268835,2.91042306 49.9083108,2.4318623 37.1627859,2.83746187 C36.9232503,8.52358325 36.5755372,14.2485214 36.124858,19.8751597 C35.9338405,22.2765895 34.7904306,24.494538 32.9648922,26.0482881 C32.7154732,27.3621288 31.9185185,28.5616756 30.6850807,29.2738559 L30.6850807,29.2738559 L30.2478787,29.5263448 C29.508966,29.9531498 28.696198,30.1571177 27.8922351,30.1571177 C26.5468462,30.1571177 25.225357,29.5861874 24.308904,28.5331021 C19.4172015,28.9902777 14.4816529,29.3204001 9.6057637,29.5168203 C9.53388504,31.4750917 9.47314756,33.4439658 9.42660613,35.4182311 C10.0302072,34.1588418 10.6420744,32.9050234 11.2645436,31.6592918 C11.5348074,31.1185522 12.1317597,30.8238321 12.7254775,30.9383057 C17.5512313,31.8695494 22.0161543,33.8039197 25.9957166,36.6878638 C26.1784681,36.8203082 26.3195299,36.9921084 26.4142301,37.1847547 C33.3720848,35.898589 39.595699,36.5351125 41.4181826,36.7735842 C43.247854,35.5594812 44.7720411,34.8331039 45.5831918,34.4862686 C46.2081768,34.2186843 46.8683824,34.0957645 47.5458388,34.1216424 C54.8857286,34.3899455 61.8421458,38.4678655 65.7205389,41.2057075 C65.7997851,41.1005787 65.8932274,41.0044352 66.0039205,40.924106 C69.9836625,38.0401619 74.4484058,36.1057916 79.2741596,35.1745479 C79.867518,35.0600743 80.4650094,35.3546147 80.7350935,35.895534 C81.3857751,37.1976937 82.0249561,38.5086591 82.6549726,39.8255548 C82.5176844,29.919904 82.0533482,19.9448861 81.2677144,10.0902722 C81.0249442,7.0406379 78.6340801,4.59158566 75.5828308,4.2666747 Z M64.7081279,15.7248176 C65.9582776,15.3434785 67.324691,15.4996442 68.45678,16.15324 L68.45678,16.15324 L69.543226,16.7805985 C70.6751352,17.4341943 71.4934738,18.5393947 71.7883561,19.8129809 C72.0832383,21.0863874 71.833999,22.4388652 71.1044306,23.523579 L71.1044306,23.523579 L68.0477904,28.0685585 C67.1405019,29.4174421 65.6391363,30.1572974 64.1075816,30.1572974 C63.3034391,30.1572974 62.4910305,29.9533296 61.7519381,29.5265245 L61.7519381,29.5265245 L61.3147361,29.2740356 C59.1679001,28.0344141 58.3396782,25.3190355 59.4293587,23.0921016 L59.4293587,23.0921016 L61.8367549,18.1724322 C62.4112451,16.9984038 63.4577985,16.1061567 64.7081279,15.7248176 Z M25.9058682,18.2128664 C25.5538425,18.2128664 25.2063091,18.3055954 24.8909415,18.4876389 L24.8909415,18.4876389 L23.8046752,19.1149974 C23.3097906,19.4007322 22.9663902,19.8645569 22.8375477,20.4211107 C22.7087052,20.9776645 22.8132887,21.5451804 23.1318909,22.0188891 L23.1318909,22.0188891 L26.1885311,26.5638686 C26.7844052,27.449826 27.9756144,27.7256768 28.9001537,27.1917662 L28.9001537,27.1917662 L29.3373557,26.9392773 C30.2620747,26.4053666 30.6187726,25.2360107 30.1494049,24.2769124 L30.1494049,24.2769124 L27.7420087,19.357243 C27.4909725,18.8441784 27.0517938,18.4696682 26.5053363,18.3030795 C26.3073106,18.2428775 26.1058706,18.2128664 25.9058682,18.2128664 Z M67.1088753,18.4878187 C66.6141704,18.2020839 66.0407583,18.1366704 65.4944805,18.3032592 C64.9480229,18.4698479 64.5086646,18.8443581 64.2576284,19.3574227 L64.2576284,19.3574227 L61.8504119,24.2770921 C61.3812239,25.2361904 61.7377421,26.4057261 62.6622814,26.9398164 L62.6622814,26.9398164 L63.0994834,27.1923053 C64.0245618,27.7263956 65.2152319,27.4503651 65.811106,26.5644077 L65.811106,26.5644077 L68.8677462,22.0194282 C69.1865281,21.5453601 69.2911116,20.9778442 69.1622691,20.4212904 C69.0336062,19.8647366 68.6900262,19.4009119 68.1953213,19.1151771 L68.1953213,19.1151771 Z M46.6272294,10.3035849 C47.934343,10.3035849 49.1956338,10.8516924 50.0876481,11.8070169 C50.9796623,12.7623414 51.4400451,14.058391 51.3505562,15.3625275 L51.3505562,15.3625275 L50.9758887,20.82689 C50.806255,23.3003824 48.7312977,25.2378078 46.2523822,25.2378078 L46.2523822,25.2378078 L45.7474346,25.2378078 C43.2685191,25.2378078 41.1935618,23.3003824 41.0239281,20.8270697 L41.0239281,20.8270697 L40.6494403,15.3625275 C40.5599513,14.058391 41.0203342,12.7625211 41.9123484,11.8070169 C42.8043626,10.8515127 44.0656535,10.3035849 45.372767,10.3035849 L45.372767,10.3035849 Z M46.6270497,12.9993754 L45.3725873,12.9993754 C44.8015113,12.9993754 44.272125,13.2294008 43.8823629,13.6468611 C43.4924212,14.0643214 43.2992473,14.6081159 43.3382414,15.1781477 L43.3382414,15.1781477 L43.712909,20.6425102 C43.7858658,21.7076359 44.6794973,22.542197 45.7472549,22.542197 L45.7472549,22.542197 L46.2522025,22.542197 C47.3199601,22.542197 48.2134119,21.7078156 48.2865484,20.6425102 L48.2865484,20.6425102 L48.661216,15.1781477 C48.7003898,14.6082956 48.5072159,14.0643214 48.1172742,13.6468611 C47.7275121,13.2294008 47.1983054,12.9993754 46.6270497,12.9993754 L46.6270497,12.9993754 Z" id="Combined-Shape" fill="#0D0E2D" fill-rule="nonzero"></path>
            </g>
        </g>
    </g>
</svg>