<?xml version="1.0" encoding="UTF-8"?>
<svg width="92px" height="90px" viewBox="0 0 92 90" version="1.1" xmlns="http://www.w3.org/2000/svg" xmlns:xlink="http://www.w3.org/1999/xlink">
    <!-- Generator: Sketch 63.1 (92452) - https://sketch.com -->
    <title>illustration / institute / icon2</title>
    <desc>Created with Sketch.</desc>
    <g id="Page-1" stroke="none" stroke-width="1" fill="none" fill-rule="evenodd">
        <g id="04-01-07-1---Statna-sprava" transform="translate(-524.000000, -1005.000000)">
            <g id="illustration-/-institute-/-icon2" transform="translate(524.000000, 1005.000000)">
                <polygon id="Path-2" fill="#F9CB0D" points="31.0098015 12.4650594 33.1765173 13.4649888 33.7130829 17.3121103 27.6728202 23.7952575 26.8896027 38.3436279 32.3614422 41.1525364 33.7130829 62.8141099 38.8937646 62.8141099 41.526134 67.3266602 44.2305038 67.2057075 46 64.0306205 52.1725782 62.8141099 53.5271499 56.1572974 57.6291504 55.6349136 58.60118 27.4325257 58.60118 21.086394 54.8817216 16.8365784 57.2466616 12.4650594 57.6291504 1.44005727 31.0098015 1.44005727"></polygon>
                <path d="M37.7989502,80.4796448 L37.5287171,81.7999268 L37.7891236,80.4782409 C37.0591432,80.3343506 36.3502197,80.8095397 36.2063294,81.5395202 C36.0624389,82.2702025 36.5376282,82.9784241 37.2683105,83.1223145 C37.2704163,83.1230163 37.2907715,83.126526 37.2928772,83.1272278 C37.3785095,83.1433717 37.46344,83.1517943 37.5476685,83.1517943 C38.181488,83.1517943 38.7465209,82.7025756 38.8693542,82.0568236 C39.0097351,81.3254395 38.5303346,80.6193236 37.7989502,80.4796448 Z" id="Path" fill="#0D0E2D" fill-rule="nonzero"></path>
                <path d="M48.1029053,80.9127197 L48.236969,82.2533568 L48.0986939,80.9134216 C47.3581849,80.9892272 46.8198242,81.651123 46.8963317,82.3916321 C46.967224,83.0851136 47.5526123,83.6017151 48.2348633,83.6017151 C48.2811889,83.6017151 48.3282165,83.5989075 48.3745423,83.594696 L48.4117432,83.5904847 C49.1487428,83.5041504 49.6716614,82.839447 49.5895385,82.1024476 C49.5067139,81.3661498 48.8399049,80.8355103 48.1029053,80.9127197 L48.1029053,80.9127197 Z" id="Path" fill="#0D0E2D" fill-rule="nonzero"></path>
                <path d="M42.9439088,81.0825807 C42.9439088,81.0825807 42.9249573,81.0818786 42.9242553,81.0818786 C42.1816406,81.0481872 41.5611572,81.6251526 41.5274658,82.3684693 C41.4944763,83.1117858 42.0784606,83.741394 42.8217773,83.7750854 C42.8428346,83.7764893 42.8631897,83.7764893 42.8842468,83.7764893 C43.6001892,83.7764893 44.1968079,83.2128601 44.2290954,82.4898987 C44.2627868,81.746582 43.6879272,81.1162721 42.9439088,81.0825807 L42.9439088,81.0825807 Z" id="Path" fill="#0D0E2D" fill-rule="nonzero"></path>
                <path d="M32.8210449,79.1102295 L32.8041992,79.1039124 C32.1036986,78.8526306 31.3400268,79.2190247 31.0887451,79.9195251 C30.8367614,80.6200257 31.2087708,81.394928 31.9092712,81.6469115 C32.0601807,81.7009583 32.2138978,81.7262269 32.3648072,81.7262269 C32.9172058,81.7262269 33.4359131,81.3843994 33.6331481,80.8341064 C33.8851318,80.133606 33.5215455,79.3615111 32.8210449,79.1102295 L32.8210449,79.1102295 Z" id="Path" fill="#0D0E2D" fill-rule="nonzero"></path>
                <path d="M53.1889037,79.9693604 L53.5209046,81.2756042 L53.1846924,79.9707643 C52.4638366,80.156067 52.0300599,80.8909606 52.2153626,81.6118164 C52.3718873,82.2196654 52.9193725,82.6239623 53.5195007,82.6239623 C53.6311035,82.6239623 53.7441101,82.6099244 53.8571166,82.5804443 C53.8627318,82.5790404 53.8865967,82.5727233 53.8929138,82.5713196 C54.6081543,82.3761901 55.0264893,81.6412963 54.8355713,80.9246521 C54.6446533,80.2087097 53.9069519,79.7826537 53.1889037,79.9693604 L53.1889037,79.9693604 Z" id="Path" fill="#0D0E2D" fill-rule="nonzero"></path>
                <path d="M58.0608216,78.2700501 L58.5949707,79.5068054 L58.0566101,78.2714538 C57.3743591,78.5690612 57.0620117,79.362915 57.3589173,80.045166 C57.580017,80.5526429 58.0755615,80.8551635 58.5956726,80.8551635 C58.7746582,80.8551635 58.9578552,80.8186646 59.1326295,80.7428588 C59.1382447,80.7400514 59.1600036,80.7309265 59.1656189,80.7281189 C59.8415527,80.4227904 60.139862,79.6310424 59.8380433,78.9537048 C59.5362243,78.2756653 58.7402649,77.9717408 58.0608216,78.2700501 L58.0608216,78.2700501 Z" id="Path" fill="#0D0E2D" fill-rule="nonzero"></path>
                <path d="M27.6732787,16.8365784 C27.8894654,16.8365784 28.1091614,16.7846374 28.3120117,16.6765442 C28.9689941,16.3262939 29.2167663,15.5099792 28.8665162,14.8529968 C28.5162659,14.1967162 27.700653,13.9475403 27.0436706,14.2984925 L27.0275268,14.3069153 C26.3712464,14.6571654 26.1304932,15.4692688 26.4807435,16.1262513 C26.7221985,16.5796814 27.1910706,16.8365784 27.6732787,16.8365784 Z" id="Path" fill="#0D0E2D" fill-rule="nonzero"></path>
                <path d="M12.0846862,31.888916 C12.2847291,31.9934997 12.4988099,32.043335 12.710083,32.043335 C13.1950989,32.043335 13.663971,31.7808228 13.904724,31.3210755 L13.9285889,31.2740479 C14.2570801,30.605835 13.9819336,29.7979431 13.3137207,29.4701537 C12.6504212,29.1430664 11.8488464,29.4125977 11.5161438,30.0716858 C11.1722106,30.730072 11.4263001,31.5435791 12.0846862,31.888916 Z" id="Path" fill="#0D0E2D" fill-rule="nonzero"></path>
                <path d="M10.1874389,36.9587708 C10.3306275,37.0072021 10.4759216,37.0303649 10.6198119,37.0303649 C11.1813354,37.0303649 11.7056579,36.6759033 11.895874,36.1143799 L11.9134216,36.0610352 C12.1324157,35.3500061 11.7330322,34.595459 11.0213014,34.3771667 C10.3158874,34.1595765 9.56695566,34.551239 9.34164424,35.2531433 C9.10510254,35.9571533 9.483429,36.7208252 10.1874389,36.9587708 Z" id="Path" fill="#0D0E2D" fill-rule="nonzero"></path>
                <path d="M14.7434997,27.1742249 C14.982849,27.3482972 15.2601013,27.4325257 15.5352478,27.4325257 C15.9514771,27.4325257 16.362793,27.239502 16.6260071,26.8773193 L16.6435547,26.8534545 C17.0759277,26.2484131 16.934845,25.4089355 16.3312073,24.9765625 C15.7268678,24.5434876 14.8845826,24.6824646 14.4508057,25.2861023 L15.5366517,26.0848694 L14.4465943,25.2917175 C14.008606,25.8939515 14.1419678,26.7369385 14.7434997,27.1742249 Z" id="Path" fill="#0D0E2D" fill-rule="nonzero"></path>
                <path d="M23.0982666,19.7473756 C23.3811341,19.7473756 23.6661071,19.6582337 23.909668,19.472931 C24.510498,19.0335388 24.6403503,18.1905518 24.2009583,17.5897217 C23.7608643,16.9888916 22.9178772,16.8590394 22.317749,17.2984314 L22.2840576,17.322998 C21.6916504,17.7729187 21.5737305,18.6201172 22.0236511,19.2132263 C22.288971,19.5627747 22.6911621,19.7473756 23.0982666,19.7473756 Z" id="Path" fill="#0D0E2D" fill-rule="nonzero"></path>
                <path d="M8.984375,57.39682 C9.16265878,57.9758912 9.69470215,58.3471985 10.2702637,58.3471985 C10.4015198,58.3471985 10.5355834,58.3275452 10.6675416,58.2868347 C11.3750611,58.0699463 11.7744446,57.3203125 11.5624694,56.6113892 C11.3596191,55.9038697 10.6261292,55.4883424 9.91229239,55.6827698 C9.19424443,55.878601 8.77099609,56.6198119 8.96682744,57.3378601 C8.97103877,57.3518981 8.98016348,57.3827819 8.984375,57.39682 Z" id="Path" fill="#0D0E2D" fill-rule="nonzero"></path>
                <path d="M19.0272217,23.2990111 C19.377472,23.2990111 19.7277221,23.1635437 19.9923401,22.8940124 C20.5180664,22.3675843 20.5180664,21.5140686 19.9923401,20.9883424 C19.4659118,20.4619141 18.6123962,20.4619141 18.0859681,20.9883424 L18.0635071,21.0108033 C17.542694,21.5421448 17.5532227,22.3942565 18.0845642,22.9150696 C18.3463744,23.1719665 18.6867981,23.2990111 19.0272217,23.2990111 Z" id="Path" fill="#0D0E2D" fill-rule="nonzero"></path>
                <path d="M10.4738158,51.5211791 C10.3790589,50.7890931 9.71014395,50.2696839 8.97735605,50.35672 C8.23895255,50.4451599 7.71112052,51.1154785 7.79885869,51.8545837 L7.8065795,51.9086303 C7.90484628,52.5782471 8.47970577,53.0583496 9.13739005,53.0583496 C9.20196542,53.0583496 9.26794434,53.0534362 9.33462529,53.0436097 C10.0681152,52.9369202 10.5769958,52.2546692 10.4738158,51.5211791 Z" id="Path" fill="#0D0E2D" fill-rule="nonzero"></path>
                <path d="M8.78082284,47.6614075 C8.79486075,47.6614075 8.80819698,47.6621094 8.8215332,47.6621094 C9.54730216,47.6621094 10.1467285,47.0844421 10.1677857,46.3537598 L10.1691895,46.2962037 C10.1691895,45.5514831 9.56555176,44.9485475 8.8215332,44.9485475 C8.08242802,44.9485475 7.48300166,45.5423584 7.47387695,46.278656 C7.45422363,47.0212708 8.03890987,47.6396484 8.78082284,47.6614075 L8.78082284,47.6614075 Z" id="Path" fill="#0D0E2D" fill-rule="nonzero"></path>
                <path d="M9.07632451,42.2567444 C9.15704355,42.2707825 9.23635869,42.2778015 9.31567383,42.2778015 C9.95581055,42.2778015 10.5236511,41.819458 10.6408691,41.167389 C10.6443786,41.1477356 10.6471862,41.1280823 10.6499939,41.108429 C10.7587891,40.3721314 10.2499085,39.6870728 9.51290889,39.5789795 C8.78503418,39.4708861 8.10348506,39.971344 7.986267,40.697113 C7.85852051,41.4284974 8.345642,42.1254883 9.07632451,42.2567444 Z" id="Path" fill="#0D0E2D" fill-rule="nonzero"></path>
                <path d="M72.6477966,27.5995788 C72.908905,27.9786071 73.3286438,28.1814576 73.7568054,28.1814576 C74.0200195,28.1814576 74.2867432,28.104248 74.5197754,27.943512 C75.1325378,27.5223694 75.2876588,26.6828919 74.8665162,26.0694274 L73.7462768,26.8190612 L74.8623047,26.0631104 C74.4439697,25.4468385 73.6058959,25.2861022 72.9903259,25.7037354 C72.374054,26.1213685 72.2133178,26.9594421 72.6309509,27.5757142 L72.6477966,27.5995788 Z" id="Path" fill="#0D0E2D" fill-rule="nonzero"></path>
                <path d="M79.5299682,41.1610717 C78.7901611,41.2438965 78.2581178,41.9114075 78.3416442,42.6512146 L78.3486634,42.7094727 C78.4448242,43.381195 79.0217896,43.8662109 79.6815795,43.8662109 C79.744751,43.8662109 79.8093262,43.8619994 79.8739014,43.8528747 C80.6045837,43.748291 81.1141663,43.0751647 81.0194092,42.3451843 C80.9344788,41.607483 80.264862,41.0782471 79.5299682,41.1610717 Z" id="Path" fill="#0D0E2D" fill-rule="nonzero"></path>
                <path d="M77.2557983,37.3581543 L77.2614135,37.3757019 C77.434082,37.9631959 77.9710388,38.3436279 78.5536194,38.3436279 C78.6792603,38.3436279 78.8070068,38.3260804 78.9340515,38.2881774 C79.6485901,38.078308 80.0570983,37.3293763 79.8472291,36.6148376 L79.8416139,36.59729 C79.6317444,35.8827514 78.8828125,35.4742432 78.168274,35.6848145 C77.4544372,35.8946839 77.045929,36.6436158 77.2557983,37.3581543 L77.2557983,37.3581543 Z" id="Path" fill="#0D0E2D" fill-rule="nonzero"></path>
                <path d="M75.3522338,32.3191833 C75.5873718,32.7971803 76.0681764,33.0758362 76.5679322,33.0758362 C76.766571,33.0758362 76.9687194,33.0316162 77.1589355,32.9375611 C77.8264466,32.6090697 78.1036986,31.8060912 77.7745056,31.1378783 L76.5531921,31.7071228 L77.7731019,31.1350709 C77.4572448,30.4612428 76.6549682,30.1713562 75.98114,30.4872132 C75.3073119,30.80307 75.0167236,31.6053467 75.3325807,32.2791748 L75.3522338,32.3191833 Z" id="Path" fill="#0D0E2D" fill-rule="nonzero"></path>
                <path d="M69.2533874,23.3909606 C69.5173034,23.6604919 69.8661498,23.7952575 70.2156982,23.7952575 C70.5561218,23.7952575 70.8965455,23.667511 71.1590576,23.4099121 C71.6868896,22.8933105 71.698822,22.0489196 71.1899414,21.5168763 C70.6852722,20.9729004 69.8345642,20.9399108 69.2884827,21.4438782 C68.7416992,21.9485475 68.7080078,22.801361 69.212677,23.3481445 L69.2533874,23.3909606 Z" id="Path" fill="#0D0E2D" fill-rule="nonzero"></path>
                <path d="M79.9679565,46.7882386 C79.2274476,46.7692871 78.607666,47.349762 78.5816956,48.0902709 C78.5480042,48.8279724 79.1144408,49.4561768 79.8528443,49.4975892 C79.8788147,49.4989929 79.9033814,49.4996947 79.9293519,49.4996947 C80.6389771,49.4996947 81.2334899,48.9444886 81.2734986,48.2264404 L81.2756042,48.1709899 C81.2966614,47.4276732 80.7112731,46.8099975 79.9679565,46.7882386 L79.9679565,46.7882386 Z" id="Path" fill="#0D0E2D" fill-rule="nonzero"></path>
                <path d="M60.6354065,16.7734069 L60.667694,16.7909545 C60.8684388,16.897644 61.0839232,16.9481811 61.2958984,16.9481811 C61.7752991,16.9481811 62.2392578,16.6898803 62.4828186,16.2371521 C62.8337708,15.5836791 62.5867005,14.7666627 61.9353333,14.4129029 L61.2832642,15.5921021 L61.9311218,14.4100951 C61.2783509,14.052124 60.4592285,14.2914733 60.1012572,14.9442444 C59.743988,15.5963135 59.9826355,16.4161377 60.6354065,16.7734069 L60.6354065,16.7734069 Z" id="Path" fill="#0D0E2D" fill-rule="nonzero"></path>
                <path d="M65.193573,19.729126 L65.2146302,19.7452698 C65.4581908,19.9298705 65.7438659,20.0190124 66.0281373,20.0190124 C66.4352416,20.0190124 66.8374329,19.8351136 67.1027526,19.4855651 C67.5526733,18.8924561 67.4361572,18.0473633 66.84375,17.5974427 L66.8346253,17.5911256 C66.2443236,17.1376953 65.398529,17.2485963 64.9450989,17.8388977 C64.4916687,18.4291992 64.6032715,19.2756959 65.193573,19.729126 L65.193573,19.729126 Z" id="Path" fill="#0D0E2D" fill-rule="nonzero"></path>
                <path d="M91.1682435,67.1904908 L84.8419799,60.8529968 C84.3036194,60.3139343 83.5883789,60.0170287 82.8268128,60.0170287 C82.0659485,60.0170287 81.3500061,60.3139343 80.8123474,60.8529968 L80.6656494,60.9996947 L80.2501221,60.5841674 C79.73703,60.0696716 79.3397522,59.4709473 79.070221,58.8188782 C79.0463562,58.7325439 79.0147705,58.6483154 78.97406,58.5690003 C78.7677002,57.9892272 78.6603089,57.3722533 78.6603089,56.7384339 L78.6603089,54.9457702 C78.783142,55.0103454 78.9172058,55.057373 79.0610963,55.0819397 C79.1383057,55.095276 79.2148132,55.1015931 79.2906189,55.1015931 C79.9300537,55.1015931 80.4957885,54.6453552 80.6144104,53.9967956 C80.7583008,53.268219 80.2859192,52.5599975 79.5566406,52.4140014 C79.2358704,52.3501282 78.9186097,52.4055787 78.651886,52.5501709 C78.5690612,50.635376 77.7864381,48.8469238 76.4247436,47.4824219 L70.2872924,41.3344421 C68.9101563,39.9552002 67.078888,39.1957397 65.1311035,39.1957397 C63.6234131,39.1957397 62.187317,39.6526794 60.9758301,40.498474 L60.3244629,39.8435974 L60.3244629,24.429779 C60.3244629,22.5718385 59.6499329,20.7791748 58.4258118,19.3830872 C57.5547486,18.3905944 57.0753479,17.1159362 57.0753479,15.7935485 L57.0753479,14.6641846 L57.1679993,14.6641846 C58.738861,14.6641846 60.0170287,13.3860169 60.0170287,11.8144531 L60.0170287,2.84973145 C60.0170287,1.27816768 58.738861,0 57.1679993,0 L31.9942018,0 C30.4233398,0 29.1451722,1.27816768 29.1451722,2.84973145 L29.1451722,11.8144531 C29.1451722,13.3860169 30.4233398,14.6641846 31.9942018,14.6641846 L32.2019654,14.6641846 L32.2019654,15.2551881 C32.2019654,16.7081299 31.6369323,18.0740357 30.6114502,19.1009216 L27.8943786,21.8229065 C26.4526673,23.2674255 25.6588135,25.1871338 25.6588135,27.2296752 L25.6588135,35.9241638 C25.6588135,37.1054687 25.9423828,38.2207946 26.4414368,39.2090759 C24.6543884,39.3122559 22.9887695,40.0569763 21.7127076,41.3344421 L15.5752564,47.4824219 C14.1335449,48.9269408 13.3396911,50.847351 13.3396911,52.8891907 L13.3396911,56.7384339 C13.3396911,58.1913757 12.7753601,59.5572815 11.7498779,60.5841674 L11.339264,60.9954834 C11.3371582,60.9968873 11.3357545,60.998291 11.3343506,60.9996947 L11.1883545,60.8529968 C10.6499939,60.3139343 9.93475333,60.0170287 9.17318721,60.0170287 C8.41232295,60.0170287 7.69638057,60.3139343 7.15872197,60.8529968 L0.831756547,67.1904908 C-0.277252242,68.3016052 -0.277252242,70.1097106 0.831756547,71.2208252 L2.99853516,73.3904114 C3.52426143,73.9175416 4.37777705,73.9182435 4.90420537,73.392517 C5.4306335,72.8660889 5.4320374,72.0132751 4.90560909,71.4861451 L2.73953252,69.3158568 C2.6784668,69.2547913 2.6784668,69.1558228 2.73953252,69.0947571 L9.06649776,62.7572631 C9.12545772,62.6983033 9.22161856,62.6976013 9.2805787,62.7572631 L10.3804626,63.8592529 L10.3811646,63.8592529 L25.3998108,78.9038697 L27.0822754,80.5898438 C27.1433411,80.6509095 27.1433411,80.7498779 27.0822754,80.8109436 L20.756012,87.1484375 C20.6963502,87.2080993 20.6001892,87.2080993 20.5412292,87.1484375 L8.72116084,75.308014 C8.19543457,74.7808838 7.34191895,74.7801819 6.81549081,75.3059082 C6.28836064,75.8323365 6.28765878,76.6851501 6.81338505,77.2122803 L18.6341553,89.0527038 C19.1718139,89.5917663 19.8877564,89.8886719 20.6493226,89.8886719 C21.4101868,89.8886719 22.1254272,89.5917663 22.6637878,89.0527038 L28.9900514,82.71521 C30.09906,81.6047975 30.09906,79.796692 28.9900514,78.6855774 L28.9212646,78.6167907 L29.7193298,77.8173217 C30.6514587,76.8830872 31.8896179,76.3215638 33.2056885,76.2366334 C35.058014,76.1166077 36.8008424,75.3262634 38.1127015,74.0115967 L43.924469,68.1871947 C45.6006165,67.7471009 46.9054565,66.3818971 47.2599183,64.672058 C47.8572389,64.9563294 48.5247497,65.1163636 49.2294616,65.1163636 C51.7640381,65.1163636 53.826233,63.0520631 53.826233,60.5139771 L53.826233,57.3139954 C54.4060059,57.5786133 55.0496521,57.727417 55.7276917,57.727417 C58.2622682,57.727417 60.323761,55.6631165 60.323761,53.1250306 L60.323761,43.6647644 L64.4692077,47.8305664 C64.7324219,48.0951843 65.0784606,48.2271423 65.4244994,48.2271423 C65.7684326,48.2271423 66.1123658,48.0965882 66.3755798,47.8347779 C66.90271,47.3097533 66.9048157,46.4569397 66.3797913,45.9291077 L62.9236145,42.4560852 C63.5925293,42.0875854 64.3463744,41.8910522 65.1311035,41.8910522 C66.3580322,41.8910522 67.5119629,42.369751 68.3795166,43.2394104 L74.5169678,49.3866882 C75.4505006,50.3223267 75.9649964,51.566101 75.9649964,52.8891907 L75.9649964,56.7384339 C75.9649964,58.9108275 76.8093873,60.9526673 78.3423463,62.4884339 L78.7606811,62.9074707 L76.8058776,64.8657838 L64.9830017,76.7090149 L64.3239135,76.0485229 C64.3168945,76.0422058 64.3105774,76.0351868 64.3035583,76.0288697 L64.1877441,75.9123535 C62.7923584,74.514862 60.9386292,73.6746826 58.9690856,73.5469361 C57.770935,73.4690247 56.6436768,72.9580384 55.790863,72.1045227 L51.3625488,67.7000732 C50.8347168,67.1750488 49.9812012,67.1771546 49.4561768,67.7049866 C48.9318542,68.2328186 48.93396,69.0863343 49.461792,69.6106568 L53.8872985,74.0115967 C55.1991576,75.3262634 56.941986,76.1166077 58.7950134,76.2366334 C60.1103821,76.3215638 61.3485413,76.8830872 62.2806702,77.8166198 L62.3459473,77.8818971 C62.3810424,77.9219056 62.4182435,77.9591064 62.4575501,77.9942018 L63.0787354,78.6160889 L63.0099486,78.6855774 C61.90094,79.796692 61.90094,81.6040954 63.0099486,82.71521 L69.3362122,89.0527038 C69.8745728,89.5917663 70.5898132,89.8886719 71.3513795,89.8886719 C72.1122436,89.8886719 72.8281861,89.5917663 73.3665466,89.0527038 L91.1682435,71.2201233 C92.2772522,70.1090088 92.2772522,68.3016052 91.1682435,67.1904908 L91.1682435,67.1904908 Z M79.5636596,53.7897338 L79.5383912,53.7855225 L79.2927246,53.7356872 L79.5636596,53.7897338 Z M36.2049255,72.1073304 C35.3563232,72.9580384 34.229065,73.4690247 33.0316162,73.5469361 C31.0613708,73.6746826 29.2076416,74.514862 27.8122559,75.9123535 L27.0169983,76.7090149 L26.301056,75.9916687 C26.2919311,75.9825439 26.2828064,75.9727174 26.2736816,75.9642943 L13.2393189,62.9074707 L13.6576537,62.4884339 C15.1906127,60.9526673 16.0350036,58.9108275 16.0350036,56.7384339 L16.0350036,52.8891907 C16.0350036,51.566101 16.5487976,50.3223267 17.4830322,49.3866882 L23.6204834,43.2394104 C24.4880371,42.369751 25.6419678,41.8910522 26.8688965,41.8910522 C27.6557312,41.8910522 28.4123841,42.0889893 29.0834046,42.4602966 L25.6216126,45.9277038 C25.0958861,46.4541321 25.0965882,47.3076477 25.6230163,47.833374 C25.8862305,48.0958861 26.2308655,48.2271423 26.5755006,48.2271423 C26.9208373,48.2271423 27.2661744,48.0951843 27.5293884,47.8319701 L31.6643066,43.6893311 L31.6643066,60.5139771 C31.6643066,63.0520631 33.7265014,65.1163636 36.2610778,65.1163636 C36.9756165,65.1163636 37.6522522,64.9521179 38.2558899,64.6601257 C38.5296325,65.9958496 39.3831481,67.1217041 40.5398864,67.7632447 L36.2049255,72.1073304 Z M57.6291504,53.1257324 C57.6291504,54.177185 56.7756348,55.0328064 55.7276917,55.0328064 C54.6790466,55.0328064 53.826233,54.177185 53.826233,53.1257324 L53.826233,38.0930481 C53.826233,37.3490296 53.2232972,36.7453919 52.4785768,36.7453919 C51.7338562,36.7453919 51.1309205,37.3490296 51.1309205,38.0930481 L51.1309205,60.514679 C51.1309205,61.5661315 50.2781067,62.4210511 49.2294616,62.4210511 C48.288208,62.4210511 47.5069886,61.731781 47.3560791,60.829834 L47.3560791,38.0776062 C47.3560791,37.3328857 46.7531433,36.7299499 46.0084229,36.7299499 C45.7690735,36.7299499 45.5437623,36.7931214 45.3486328,36.9026185 C44.9225769,37.1293334 44.6326904,37.5771484 44.6326904,38.0930481 L44.6326904,60.5139771 C44.6326904,60.6852416 44.642517,60.8529968 44.6607666,61.0193482 L44.6607666,63.7350159 C44.6607666,64.7864685 43.8079528,65.6420898 42.7593079,65.6420898 C41.7113647,65.6420898 40.8585511,64.7864685 40.8585511,63.7350159 L40.8585511,38.0614623 C40.8585511,37.3174439 40.2549134,36.7138061 39.5108948,36.7138061 C38.7661744,36.7138061 38.1625365,37.3174439 38.1625365,38.0614623 L38.1625365,60.5139771 C38.1625365,61.5654297 37.3097229,62.4210511 36.2617799,62.4210511 C35.2131348,62.4210511 34.360321,61.5654297 34.360321,60.5139771 L34.360321,35.4454651 C34.360321,34.7007447 33.7566833,34.0971068 33.0126648,34.0971068 C32.2679443,34.0971068 31.6650085,34.7007447 31.6650085,35.4454651 L31.6650085,40.0822448 C31.552002,40.1187439 31.4425049,40.169983 31.3407288,40.2373658 C29.5979004,39.582489 28.354126,37.8965149 28.354126,35.9241638 L28.354126,27.2296752 C28.354126,25.9065856 28.8686218,24.6628112 29.8021546,23.7271729 L32.519226,21.0051881 C34.052887,19.4694213 34.8972779,17.4275817 34.8972779,15.2551881 L34.8972779,14.6641846 L37.6066283,14.6641846 C38.3513489,14.6641846 38.9542846,14.0605469 38.9542846,13.3165283 C38.9542846,12.5718079 38.3513489,11.9688721 37.6066283,11.9688721 L31.9942018,11.9688721 C31.9092712,11.9688721 31.8404847,11.8993835 31.8404847,11.8144531 L31.8404847,2.84973145 C31.8404847,2.76480107 31.9092712,2.6953125 31.9942018,2.6953125 L57.1672975,2.6953125 C57.2529297,2.6953125 57.3217162,2.76480107 57.3217162,2.84973145 L57.3217162,11.8144531 C57.3217162,11.9000854 57.2529297,11.9688721 57.1672975,11.9688721 L43.9335938,11.9688721 C43.1895752,11.9688721 42.5859375,12.5718079 42.5859375,13.3165283 C42.5859375,14.0605469 43.1895752,14.6641846 43.9335938,14.6641846 L54.3800354,14.6641846 L54.3800354,15.7935485 C54.3800354,17.770111 55.0966797,19.6757812 56.3987122,21.1610107 C57.191864,22.0650635 57.6291504,23.2260131 57.6291504,24.429779 L57.6291504,53.1257324 Z M89.2604675,69.3158568 L71.4587708,87.1484375 C71.4292907,87.1786194 71.3934936,87.1933594 71.3513795,87.1933594 C71.3099671,87.1933594 71.2741699,87.1786194 71.243988,87.1484375 L64.9177246,80.8109436 C64.8566589,80.7498779 64.8566589,80.6509095 64.9177246,80.5898437 L65.9361878,79.5692748 C65.9361878,79.5692748 65.9368896,79.568573 65.9368896,79.568573 L76.2710267,69.2168884 L82.7194213,62.7572631 C82.7783814,62.6976013 82.8745423,62.6976013 82.9335022,62.7572631 L89.2604675,69.0947571 C89.3215332,69.1558228 89.3215332,69.2547913 89.2604675,69.3158568 L89.2604675,69.3158568 Z" id="Shape" fill="#0D0E2D" fill-rule="nonzero"></path>
                <path d="M36.2610778,5.89459238 C35.4700318,5.89459238 34.8263855,6.53964229 34.8263855,7.33209238 C34.8263855,8.12524414 35.4700318,8.76959238 36.2610778,8.76959238 C37.0528259,8.76959238 37.6964721,8.12524414 37.6964721,7.33209238 C37.6964721,6.53964229 37.0528259,5.89459238 36.2610778,5.89459238 Z" id="Path" fill="#0D0E2D" fill-rule="nonzero"></path>
                <path d="M83.2676087,67.3266602 C82.4758606,67.3266602 81.8322143,67.9717103 81.8322143,68.7641602 C81.8322143,69.5566101 82.4758606,70.2016602 83.2676087,70.2016602 C84.0586549,70.2016602 84.7023011,69.5566101 84.7023011,68.7641602 C84.7023011,67.9717103 84.0586549,67.3266602 83.2676087,67.3266602 Z" id="Path" fill="#0D0E2D" fill-rule="nonzero"></path>
                <path d="M22.4581299,81.0755615 C22.4581299,80.2831116 21.8144837,79.6380615 21.0234375,79.6380615 C20.2316895,79.6380615 19.5880433,80.2831116 19.5880433,81.0755615 C19.5880433,81.8680114 20.2316895,82.5130615 21.0234375,82.5130615 C21.8144837,82.5130615 22.4581299,81.8680114 22.4581299,81.0755615 Z" id="Path" fill="#0D0E2D" fill-rule="nonzero"></path>
            </g>
        </g>
    </g>
</svg>