<?xml version="1.0" encoding="UTF-8"?>
<svg width="92px" height="92px" viewBox="0 0 92 92" version="1.1" xmlns="http://www.w3.org/2000/svg" xmlns:xlink="http://www.w3.org/1999/xlink">
    <!-- Generator: Sketch 63.1 (92452) - https://sketch.com -->
    <title>illustration / institute / icon1</title>
    <desc>Created with Sketch.</desc>
    <g id="Page-1" stroke="none" stroke-width="1" fill="none" fill-rule="evenodd">
        <g id="04-01-07-1---Statna-sprava" transform="translate(-224.000000, -1036.000000)">
            <g id="illustration-/-institute-/-icon1" transform="translate(224.000000, 1036.000000)">
                <polygon id="Path-5" fill="#F9CB0D" points="2.83343683 63.0773765 31.1258906 72 44.1823244 71.1150201 70.2931675 63.0773765 73 58.9901537 70.2931675 45.0857187 59.8900944 42.9150729 49.8234179 35 12.7999033 36.077817 6.09939316 39.6113532 2 55.8547765"></polygon>
                <rect id="Rectangle" fill="#F9CB0D" x="31" y="63" width="13" height="16"></rect>
                <path d="M68.6173579,-4.97379915e-14 C81.5104944,-4.97379915e-14 92,10.4590052 92,23.3146525 C92,34.943137 83.4174315,44.6098506 72.2371321,46.3493343 C73.1524835,49.8198559 73.8913968,53.4565988 74.43603,57.1824723 C74.7829589,59.5526985 74.0537775,61.8479904 72.5627946,63.5367991 C72.7012057,69.0093443 72.521884,74.5559253 72.022667,80.0340411 C71.9588681,80.733788 71.3693595,81.2599459 70.6782052,81.2599459 C70.6371144,81.2599459 70.5958434,81.2581489 70.5542119,81.2543752 C69.810793,81.1869882 69.2627356,80.5314472 69.3303191,79.7901899 C69.7624933,75.047581 69.9504656,70.2528595 69.8960384,65.5019844 C69.7533019,65.566676 69.6089435,65.6288517 69.4609806,65.6856365 C64.5836119,67.5563003 56.9872224,70.1824176 48.4922422,72.0710512 C47.4312708,72.3069957 46.3553409,72.5096958 45.2808527,72.6780736 L45.2808527,72.6780736 L45.2808527,75.4558565 C45.2808527,78.0909587 43.1307952,80.2349443 40.4878283,80.2349443 L40.4878283,80.2349443 L34.0335104,80.2349443 C31.3907238,80.2349443 29.240486,78.0911384 29.240486,75.4558565 L29.240486,75.4558565 L29.240486,72.6805893 C28.2006007,72.5168838 27.1608955,72.3211919 26.1366896,72.0945918 C21.5983199,71.090615 16.8355729,69.7655165 11.9807321,68.1563144 C9.63405146,67.3778595 7.30593378,66.5467529 5.06107903,65.6856365 C4.9120348,65.6284923 4.76659503,65.5657775 4.62295749,65.5007265 C4.55843774,71.1251171 4.83850391,76.8136601 5.45865045,82.4461372 C5.825584,85.7772125 8.52982658,88.3416931 11.8882778,88.5436745 C28.724328,89.5582535 45.797191,89.5582535 62.6328807,88.5436745 C65.1504125,88.3921885 67.3799484,86.8866725 68.4513727,84.6145618 C68.7691054,83.9408712 69.5741605,83.6519157 70.2498157,83.9683651 C70.9254708,84.285174 71.2156295,85.0878882 70.8978967,85.7615788 C69.405472,88.9264328 66.3009547,91.023517 62.7959823,91.2343036 C54.3249717,91.7448277 45.7912436,92 37.2607595,92 C28.7281127,92 20.1983495,91.7448277 11.7253564,91.2343036 C7.04839545,90.9530751 3.28264079,87.380844 2.7713488,82.740304 C2.06811958,76.353272 1.79508209,69.895259 1.95656169,63.534463 C0.466840313,61.8458341 -0.261620101,59.5516204 0.0853087204,57.1822926 C1.14267568,49.9470826 2.74665829,44.3557566 3.90585111,40.9391446 C4.9682643,37.8100506 7.78460545,35.5472842 11.08106,35.1740499 C12.5368995,35.0090865 14.6375761,34.7828458 17.1579914,34.5449246 C17.1275338,33.065465 17.1585321,31.5816926 17.2542304,30.1180464 C17.5027576,26.3639602 19.6448854,23.0866148 22.9845934,21.3501859 C23.6467318,21.0062426 24.4627805,21.2621335 24.8080873,21.922167 C25.1532139,22.5822004 24.8963965,23.3962357 24.2344383,23.7403587 C21.738353,25.0379633 20.137254,27.4881555 19.9516245,30.2945106 C19.8649374,31.6185308 19.8333984,32.96106 19.8559262,34.3008938 L19.8559262,34.3008938 C20.9149152,34.2092474 21.9434465,34.1264063 22.9537753,34.0498546 C22.9391773,32.8645618 22.9696349,31.6742374 23.0467703,30.4961325 C23.2105928,27.9947262 25.2382791,26.0302597 27.7630198,25.9263938 C30.9151159,25.7980889 34.1104656,25.7332177 37.2605793,25.7332177 C39.952026,25.7332177 42.6748316,25.7835333 45.376551,25.8773361 C45.2839165,25.0356272 45.2347157,24.1808003 45.2347157,23.3146525 C45.2347157,23.1353131 45.237419,22.9563332 45.2415642,22.7778923 C39.8145161,22.5928027 34.3261922,22.5947793 28.9045508,22.7890337 C28.1584285,22.8161682 27.5319742,22.2344834 27.505121,21.4905306 C27.4782678,20.7465779 28.0614687,20.1219451 28.8074107,20.09517 C34.3337616,19.8973217 39.9285971,19.8967826 45.4596337,20.0883414 C47.0401874,8.75420338 56.8219581,-4.97379915e-14 68.6173579,-4.97379915e-14 Z M40.4876481,64.3495765 L34.0333302,64.3495765 C32.8811661,64.3495765 31.9436473,65.2841896 31.9436473,66.4331833 L31.9436473,66.4331833 L31.9436473,75.4560362 C31.9436473,76.6048502 32.8809859,77.539643 34.0333302,77.539643 L34.0333302,77.539643 L40.4876481,77.539643 C41.6398122,77.539643 42.577331,76.6050299 42.577331,75.4560362 L42.577331,75.4560362 L42.577331,66.4331833 C42.577331,65.2843693 41.6399924,64.3495765 40.4876481,64.3495765 L40.4876481,64.3495765 Z M37.260399,36.1291487 C32.4493523,36.1291487 26.6748347,36.4173854 20.0970643,36.9855928 C16.4019569,37.3049175 13.3203279,37.6330473 11.385997,37.8522798 C9.12528259,38.1083505 7.19437589,39.6591505 6.46627592,41.8033158 C5.34312765,45.1135461 3.78834586,50.5364944 2.76017499,57.5713403 C2.40585704,59.9922416 3.75121998,62.2943621 6.03193906,63.1702137 C8.23768548,64.0162353 10.5261541,64.8333255 12.8335462,65.5986623 C17.6007988,67.178933 22.2736146,68.4790533 26.7220531,69.4632633 C27.5537812,69.6472748 28.3963226,69.807566 29.2403058,69.9480904 L29.2403058,69.9480904 L29.2403058,66.4330036 C29.2403058,63.7979014 31.3903634,61.6539158 34.0333302,61.6539158 L34.0333302,61.6539158 L40.4876481,61.6539158 C43.1304347,61.6539158 45.2806725,63.7977217 45.2806725,66.4330036 L45.2806725,66.4330036 L45.2806725,69.9455747 C46.158898,69.8001984 47.0365829,69.6330786 47.9038149,69.4402618 C56.2373155,67.5875679 63.6983577,65.0079926 68.4897601,63.1702137 C70.7697583,62.2945418 72.1151213,59.9922416 71.7608033,57.5718794 C71.2082403,53.792276 70.4493223,50.1115069 69.5069374,46.6106162 C69.2115523,46.6215779 68.9152661,46.6291252 68.6171776,46.6291252 C60.6700746,46.6291252 53.6374219,42.654369 49.4102969,36.5951075 C44.8623755,36.2862054 40.776365,36.1291487 37.260399,36.1291487 Z M69.9690286,2.74058535 L69.9690286,5.99403087 C69.9690286,6.73834301 69.3638405,7.34177135 68.6173579,7.34177135 C67.8708752,7.34177135 67.2656871,6.73834301 67.2656871,5.99403087 L67.2656871,5.99403087 L67.2656871,2.74058535 C64.4832279,2.92064347 61.8492722,3.65147821 59.4721339,4.82509063 L59.4721339,4.82509063 L60.1668926,6.02511875 C60.540134,6.6696981 60.3186402,7.49397618 59.6721812,7.86613225 C59.4593381,7.98868678 59.2268507,8.04690917 58.9976073,8.04690917 C58.5304699,8.04690917 58.0761284,7.80521438 57.8257989,7.37285923 L57.8257989,7.37285923 L57.1328424,6.17606569 C54.8798776,7.68194105 52.9390587,9.61711668 51.4287919,11.8635305 L51.4287919,11.8635305 L52.6290755,12.5544721 C53.2755346,12.9266282 53.4970283,13.7509063 53.123787,14.3954856 C52.8734576,14.8276611 52.419116,15.0695356 51.9519786,15.0695356 C51.7227352,15.0695356 51.4902479,15.0113132 51.2774048,14.8887587 L51.2774048,14.8887587 L50.0738772,14.19602 C48.8966621,16.5660666 48.1636961,19.1925433 47.9832931,21.966912 L47.9832931,21.966912 L51.2462262,21.966912 C51.9927089,21.966912 52.597897,22.5703403 52.597897,23.3146525 C52.597897,24.0589646 51.9927089,24.6623929 51.2462262,24.6623929 L51.2462262,24.6623929 L47.9832931,24.6623929 C48.1638763,27.4367616 48.8968423,30.0630586 50.0738772,32.4332849 L50.0738772,32.4332849 L51.2774048,31.7405463 C51.9236836,31.3682105 52.7505457,31.5890602 53.123787,32.2338193 C53.4970283,32.8783986 53.2755346,33.7026767 52.6290755,34.0748328 L52.6290755,34.0748328 L51.4287919,34.7657744 C52.9390587,37.0121882 54.8798776,38.9473639 57.1328424,40.4532392 L57.1328424,40.4532392 L57.8257989,39.2564457 C58.1988601,38.6118663 59.0255419,38.3908369 59.6721812,38.7631727 C60.3186402,39.1353287 60.540134,39.9596068 60.1668926,40.6041862 L60.1668926,40.6041862 L59.4721339,41.8042143 C61.8490919,42.9780064 64.4832279,43.7088411 67.2656871,43.8887196 L67.2656871,43.8887196 L67.2656871,40.635274 C67.2656871,39.8909619 67.8708752,39.2875336 68.6173579,39.2875336 C69.3638405,39.2875336 69.9690286,39.8909619 69.9690286,40.635274 L69.9690286,40.635274 L69.9690286,43.8887196 C72.7514879,43.7086614 75.3854436,42.9778267 77.7625818,41.8042143 L77.7625818,41.8042143 L77.0678231,40.6041862 C76.6945817,39.9596068 76.9160755,39.1353287 77.5625346,38.7631727 C78.2089936,38.3908369 79.0356754,38.6116866 79.4089168,39.2564457 L79.4089168,39.2564457 L80.1018733,40.4532392 C82.3548381,38.9473639 84.295657,37.0121882 85.8059238,34.7661338 L85.8059238,34.7661338 L84.6056402,34.0751922 C83.9591811,33.7030361 83.7376874,32.878758 84.1109287,32.2341787 C84.4839898,31.5895993 85.3106716,31.3685699 85.9573109,31.7409056 L85.9573109,31.7409056 L87.1608385,32.4336443 C88.3380536,30.063418 89.0710196,27.4369413 89.2514226,24.6625726 L89.2514226,24.6625726 L85.9884895,24.6625726 C85.2420068,24.6625726 84.6368187,24.0591443 84.6368187,23.3148322 C84.6368187,22.57052 85.2420068,21.9670917 85.9884895,21.9670917 L85.9884895,21.9670917 L89.2514226,21.9670917 C89.0708394,19.1925433 88.3378734,16.5662463 87.1608385,14.19602 L87.1608385,14.19602 L85.9573109,14.8887587 C85.7444678,15.0113132 85.5119805,15.0695356 85.2827371,15.0695356 C84.8155997,15.0695356 84.3612581,14.8278408 84.1109287,14.3954856 C83.7376874,13.7509063 83.9591811,12.9266282 84.6056402,12.5544721 L84.6056402,12.5544721 L85.8059238,11.8635305 C84.295657,9.61711668 82.3548381,7.68194105 80.1018733,6.17606569 L80.1018733,6.17606569 L79.4089168,7.37285923 C79.1585874,7.80503468 78.7042458,8.04690917 78.2371084,8.04690917 C78.007865,8.04690917 77.7753776,7.98868678 77.5625346,7.86613225 C76.9160755,7.49397618 76.6945817,6.6696981 77.0678231,6.02511875 L77.0678231,6.02511875 L77.7625818,4.82509063 C75.3856238,3.65129851 72.7514879,2.92046378 69.9690286,2.74058535 L69.9690286,2.74058535 Z M37.260399,28.4288783 C34.1466903,28.4288783 30.9886468,28.4930308 27.8736766,28.6197184 C26.7335874,28.6666198 25.8178755,29.5489405 25.7441644,30.6720576 C25.6751391,31.7285064 25.6473848,32.7951981 25.6563959,33.8584755 C29.9575924,33.5767079 33.8449974,33.4340271 37.2602188,33.4340271 C40.3483359,33.4340271 43.8617787,33.5526283 47.7297197,33.7864163 C46.9033983,32.1543924 46.2628866,30.4136508 45.838462,28.5909666 C42.9909423,28.485124 40.1079187,28.4288783 37.260399,28.4288783 Z M68.6171776,12.0229233 C70.9101519,12.0229233 72.7752773,13.8829849 72.7752773,16.1691121 L72.7752773,16.1691121 L72.7752773,23.3146525 C72.7752773,25.6007797 70.9101519,27.4606616 68.6173579,27.4608413 L68.6173579,27.4608413 L58.3807048,27.4608413 C56.0879108,27.4608413 54.222425,25.6007797 54.222425,23.3146525 C54.222425,21.0285252 56.0879108,19.1684636 58.3807048,19.1684636 L58.3807048,19.1684636 L64.4588978,19.1684636 L64.4588978,16.1691121 C64.4588978,13.8829849 66.3243836,12.0229233 68.6171776,12.0229233 Z M64.459078,21.8639446 L58.380885,21.8639446 C57.5787135,21.8639446 56.9259467,22.5148134 56.9259467,23.3146525 C56.9259467,24.1144915 57.5787135,24.7653603 58.3810653,24.7653603 L58.3810653,24.7653603 L64.7223835,24.7653603 C64.5524334,24.3135977 64.459078,23.8248172 64.459078,23.3146525 L64.459078,23.3146525 L64.459078,21.8639446 Z M68.6171776,14.7184043 C67.8150061,14.7184043 67.1622393,15.3692731 67.1622393,16.1691121 L67.1622393,16.1691121 L67.1622393,23.3146525 C67.1622393,24.1144915 67.8150061,24.7653603 68.6171776,24.7653603 C69.4193492,24.7653603 70.072116,24.1144915 70.072116,23.3146525 L70.072116,23.3146525 L70.072116,16.1691121 C70.072116,15.3692731 69.4195294,14.7184043 68.6171776,14.7184043 Z" id="Combined-Shape" fill="#0D0E2D" fill-rule="nonzero"></path>
            </g>
        </g>
    </g>
</svg>