<svg width="264" height="477" viewBox="0 0 264 477" fill="none" xmlns="http://www.w3.org/2000/svg">
<rect x="71" y="365" width="12" height="17" stroke="#F9CB0D" stroke-width="2"/>
<rect x="211" y="440" width="11" height="18" stroke="#F9CB0D" stroke-width="2"/>
<path d="M152.5 203C138.215 203 79.7176 263.235 74.1581 273.827C68.5986 284.419 70.2201 367.391 70.2201 367.391L83.9645 370L106.28 292.708C116.009 291.557 156.933 282.807 178.091 265.844C199.248 248.805 176.083 210.811 176.083 210.811L152.5 203Z" fill="#1DC8CC"/>
<path d="M152.5 203L152.657 202.525L152.581 202.5H152.5V203ZM70.2201 367.391L69.7202 367.4L69.7281 367.806L70.1268 367.882L70.2201 367.391ZM83.9645 370L83.8712 370.491L84.3186 370.576L84.4449 370.139L83.9645 370ZM106.28 292.708L106.221 292.212L105.892 292.251L105.799 292.57L106.28 292.708ZM178.091 265.844L178.403 266.234L178.404 266.234L178.091 265.844ZM176.083 210.811L176.51 210.551L176.414 210.394L176.24 210.336L176.083 210.811ZM152.5 202.5C150.575 202.5 148.001 203.501 145.016 205.173C142.009 206.857 138.509 209.267 134.71 212.18C127.11 218.009 118.27 225.883 109.711 234.08C101.151 242.279 92.863 250.81 86.3657 257.955C83.1172 261.528 80.3137 264.757 78.1464 267.427C75.9875 270.087 74.436 272.221 73.7154 273.594L74.6008 274.059C75.2701 272.784 76.7628 270.719 78.9229 268.057C81.0746 265.406 83.8649 262.192 87.1056 258.628C93.5866 251.5 101.858 242.986 110.403 234.802C118.949 226.617 127.759 218.771 135.319 212.974C139.099 210.075 142.557 207.696 145.505 206.045C148.475 204.381 150.853 203.5 152.5 203.5V202.5ZM73.7154 273.594C72.9763 275.002 72.3852 277.536 71.8981 280.815C71.4076 284.116 71.0138 288.241 70.6985 292.881C70.0678 302.162 69.7491 313.537 69.6043 324.574C69.4595 335.612 69.4884 346.319 69.5536 354.265C69.5862 358.238 69.6278 361.522 69.6613 363.812C69.6781 364.957 69.6928 365.854 69.7033 366.465C69.7086 366.77 69.7128 367.004 69.7157 367.161C69.7172 367.24 69.7183 367.3 69.719 367.34C69.7194 367.36 69.7197 367.375 69.7199 367.385C69.72 367.39 69.7201 367.394 69.7201 367.396C69.7201 367.398 69.7202 367.399 69.7202 367.399C69.7202 367.4 69.7202 367.4 70.2201 367.391C70.72 367.381 70.72 367.38 70.72 367.38C70.72 367.379 70.72 367.378 70.7199 367.377C70.7199 367.375 70.7198 367.371 70.7197 367.366C70.7195 367.356 70.7192 367.341 70.7189 367.321C70.7181 367.281 70.717 367.222 70.7155 367.143C70.7126 366.986 70.7084 366.752 70.7032 366.448C70.6927 365.838 70.678 364.942 70.6612 363.797C70.6278 361.509 70.5861 358.227 70.5536 354.257C70.4885 346.315 70.4595 335.616 70.6042 324.587C70.749 313.557 71.0673 302.203 71.6962 292.948C72.0107 288.321 72.4023 284.225 72.8873 280.962C73.3756 277.675 73.95 275.299 74.6008 274.059L73.7154 273.594ZM70.1268 367.882L83.8712 370.491L84.0578 369.509L70.3134 366.899L70.1268 367.882ZM84.4449 370.139L106.76 292.847L105.799 292.57L83.4841 369.861L84.4449 370.139ZM106.339 293.205C111.241 292.625 123.935 290.141 138.05 285.682C152.158 281.225 167.751 274.775 178.403 266.234L177.778 265.454C167.273 273.876 151.825 280.282 137.749 284.729C123.681 289.173 111.048 291.641 106.221 292.212L106.339 293.205ZM178.404 266.234C189.233 257.512 188.659 243.47 185.503 231.807C183.919 225.954 181.672 220.643 179.822 216.797C178.897 214.873 178.071 213.314 177.475 212.235C177.177 211.696 176.936 211.276 176.77 210.99C176.687 210.848 176.622 210.738 176.578 210.665C176.556 210.628 176.539 210.6 176.528 210.58C176.522 210.571 176.518 210.564 176.515 210.559C176.513 210.556 176.512 210.554 176.511 210.553C176.511 210.552 176.51 210.552 176.51 210.552C176.51 210.551 176.51 210.551 176.083 210.811C175.656 211.071 175.656 211.071 175.656 211.072C175.656 211.072 175.656 211.072 175.657 211.073C175.657 211.074 175.658 211.075 175.66 211.077C175.662 211.082 175.666 211.088 175.671 211.097C175.682 211.115 175.698 211.141 175.719 211.177C175.762 211.248 175.824 211.354 175.906 211.494C176.069 211.773 176.305 212.186 176.599 212.719C177.187 213.784 178.005 215.326 178.921 217.231C180.754 221.041 182.975 226.293 184.538 232.068C187.675 243.662 188.105 257.137 177.777 265.455L178.404 266.234ZM176.24 210.336L152.657 202.525L152.343 203.475L175.926 211.286L176.24 210.336Z" fill="#1DC8CC"/>
<path d="M210.036 458H222V471H189L210.036 458Z" stroke="#F9CB0D" stroke-width="2"/>
<path d="M71.0355 382H83V395H50L71.0355 382Z" stroke="#F9CB0D" stroke-width="2"/>
<rect y="395" width="140" height="82" fill="#F9CB0D"/>
<path d="M134.177 113.327L135.053 112.844L134.448 111.746L133.511 112.581L134.177 113.327ZM111.991 137.308L111.56 138.21L112.394 138.607L112.856 137.809L111.991 137.308ZM92.5607 127.288L93.0215 126.4L92.5607 127.288ZM68.6752 115L69.0801 114.086L68.6752 115ZM63.2266 109.25L62.444 109.873L63.2266 109.25ZM57.7885 113.231L57.6435 114.22L60.4157 114.626L58.5272 112.557L57.7885 113.231ZM54.0464 121.305L53.7931 122.272L54.0464 121.305ZM59.9504 123L59.4777 123.881L59.9504 123ZM64.7282 126.965L65.3779 126.205L64.7282 126.965ZM149.94 140.265L148.943 140.183L148.943 140.194L149.94 140.265ZM150.911 128.552L151.908 128.635L151.959 128.021L151.433 127.699L150.911 128.552ZM133.511 112.581C129.939 115.766 124.651 121.297 120.129 126.259C117.863 128.744 115.781 131.097 114.19 132.957C113.396 133.886 112.72 134.696 112.205 135.339C111.707 135.961 111.313 136.482 111.125 136.807L112.856 137.809C112.956 137.636 113.251 137.231 113.766 136.589C114.262 135.969 114.923 135.177 115.71 134.257C117.284 132.417 119.352 130.08 121.607 127.606C126.124 122.649 131.353 117.184 134.842 114.073L133.511 112.581ZM112.421 136.405C110.814 135.639 102.195 131.164 93.0215 126.4L92.0998 128.175C101.242 132.923 109.913 137.425 111.56 138.21L112.421 136.405ZM93.0215 126.4C82.2215 120.792 70.624 114.769 69.0801 114.086L68.2704 115.914C69.7387 116.565 81.2382 122.535 92.0998 128.175L93.0215 126.4ZM69.0801 114.086C68.8811 113.998 68.5879 113.8 68.1998 113.457C67.822 113.122 67.4 112.69 66.9424 112.181C66.0254 111.162 65.0214 109.901 64.0093 108.628L62.444 109.873C63.4456 111.132 64.4899 112.446 65.4558 113.519C65.9396 114.057 66.4176 114.55 66.8736 114.954C67.3192 115.348 67.7933 115.703 68.2704 115.914L69.0801 114.086ZM64.0093 108.628C62.9541 107.301 61.8843 105.955 60.946 104.943C60.4777 104.438 60.0138 103.984 59.5772 103.65C59.1871 103.352 58.6344 103 58.0201 103V105C57.9214 105 58.0114 104.97 58.3619 105.239C58.666 105.471 59.0406 105.829 59.4793 106.302C60.3549 107.247 61.3729 108.526 62.444 109.873L64.0093 108.628ZM58.0201 103C57.4009 103 56.89 103.296 56.52 103.623C56.145 103.954 55.8353 104.383 55.5913 104.824C55.1088 105.695 54.781 106.803 54.781 107.769H56.781C56.781 107.197 56.9937 106.42 57.3412 105.792C57.5122 105.483 57.6899 105.258 57.8434 105.122C58.0017 104.983 58.0603 105 58.0201 105V103ZM54.781 107.769C54.781 110.688 56.1503 112.919 57.0498 113.905L58.5272 112.557C57.8825 111.85 56.781 110.081 56.781 107.769H54.781ZM57.9334 112.241C56.5679 112.041 50.0773 111.501 43.9585 111.203C40.8928 111.054 37.8879 110.963 35.6402 111.009C34.5233 111.031 33.5546 111.087 32.8486 111.196C32.5052 111.249 32.1585 111.323 31.8738 111.442C31.7334 111.501 31.5448 111.597 31.3774 111.756C31.1973 111.927 31 112.218 31 112.615H33C33 112.917 32.848 113.118 32.7557 113.205C32.6761 113.281 32.6179 113.299 32.6477 113.287C32.7036 113.263 32.8571 113.218 33.1523 113.173C33.7233 113.085 34.5847 113.03 35.6804 113.008C37.8578 112.964 40.8078 113.052 43.8611 113.201C49.9803 113.499 56.3839 114.036 57.6435 114.22L57.9334 112.241ZM31 112.615C31 113.381 31.4451 114.001 31.9121 114.455C32.3974 114.926 33.0564 115.366 33.8026 115.776C35.3018 116.601 37.3494 117.416 39.6051 118.19C44.1275 119.742 49.6771 121.195 53.7931 122.272L54.2997 120.338C50.1664 119.255 44.6928 117.822 40.2543 116.298C38.0295 115.535 36.1123 114.764 34.7668 114.024C34.0906 113.652 33.6072 113.313 33.3058 113.02C32.9861 112.71 33 112.579 33 112.615H31ZM53.7931 122.272C55.3276 122.674 56.6582 123.022 57.6734 123.307C58.1812 123.449 58.6003 123.572 58.9214 123.676C59.2655 123.788 59.4309 123.856 59.4777 123.881L60.4231 122.119C60.1982 121.998 59.8725 121.882 59.5372 121.773C59.1788 121.658 58.7301 121.526 58.2127 121.381C57.1774 121.091 55.8278 120.738 54.2997 120.338L53.7931 122.272ZM59.4777 123.881C59.4771 123.881 59.5827 123.95 59.8568 124.167C60.1021 124.36 60.4285 124.628 60.8334 124.967C61.6423 125.644 62.7396 126.581 64.0785 127.726L65.3779 126.205C64.0424 125.064 62.9356 124.118 62.1166 123.433C61.7075 123.091 61.3641 122.808 61.0967 122.597C60.8582 122.409 60.6085 122.218 60.4231 122.119L59.4777 123.881ZM64.0785 127.726C70.0006 132.787 80.5686 141.819 91.1591 149.587C96.4531 153.47 101.775 157.053 106.54 159.67C111.256 162.261 115.593 164 118.862 164V162C116.148 162 112.207 160.501 107.502 157.917C102.847 155.36 97.6043 151.834 92.342 147.974C81.8199 140.256 71.3051 131.271 65.3779 126.205L64.0785 127.726ZM118.862 164C119.763 164 120.92 163.689 122.17 163.231C123.449 162.762 124.933 162.097 126.528 161.305C129.72 159.72 133.419 157.596 136.926 155.421C140.434 153.245 143.77 151.008 146.236 149.192C147.467 148.286 148.498 147.472 149.23 146.815C149.593 146.49 149.905 146.182 150.135 145.907C150.249 145.771 150.362 145.619 150.451 145.46C150.529 145.321 150.65 145.069 150.65 144.757H148.65C148.65 144.56 148.723 144.452 148.705 144.484C148.699 144.495 148.671 144.54 148.6 144.625C148.46 144.793 148.228 145.027 147.894 145.327C147.232 145.92 146.26 146.69 145.05 147.581C142.637 149.359 139.347 151.566 135.872 153.721C132.397 155.876 128.755 157.966 125.639 159.513C124.079 160.288 122.667 160.918 121.481 161.353C120.267 161.798 119.39 162 118.862 162V164ZM150.65 144.757C150.65 144.757 150.65 144.757 150.65 144.755C150.65 144.754 150.65 144.753 150.651 144.751C150.651 144.746 150.651 144.74 150.651 144.733C150.651 144.718 150.652 144.699 150.653 144.675C150.655 144.627 150.658 144.566 150.662 144.492C150.669 144.344 150.68 144.153 150.694 143.934C150.721 143.496 150.757 142.95 150.793 142.416C150.829 141.883 150.865 141.363 150.892 140.976C150.906 140.783 150.917 140.623 150.925 140.511C150.929 140.455 150.932 140.412 150.934 140.382C150.935 140.367 150.936 140.356 150.937 140.348C150.937 140.344 150.937 140.341 150.937 140.339C150.937 140.338 150.937 140.338 150.937 140.337C150.937 140.337 150.938 140.337 150.938 140.337C150.938 140.336 150.938 140.336 150.938 140.336C150.938 140.336 150.938 140.336 149.94 140.265C148.943 140.194 148.943 140.194 148.943 140.194C148.943 140.194 148.943 140.194 148.943 140.194C148.943 140.194 148.943 140.195 148.943 140.195C148.943 140.195 148.942 140.196 148.942 140.197C148.942 140.199 148.942 140.202 148.942 140.206C148.941 140.214 148.94 140.225 148.939 140.24C148.937 140.27 148.934 140.314 148.93 140.37C148.922 140.482 148.911 140.642 148.897 140.836C148.87 141.224 148.834 141.746 148.798 142.281C148.727 143.321 148.65 144.496 148.65 144.757H150.65ZM150.937 140.348L151.908 128.635L149.915 128.47L148.943 140.183L150.937 140.348ZM151.433 127.699C148.177 125.705 144.741 123.205 141.781 120.582C138.807 117.947 136.373 115.241 135.053 112.844L133.301 113.809C134.783 116.5 137.413 119.384 140.455 122.079C143.509 124.786 147.04 127.355 150.389 129.405L151.433 127.699Z" fill="#F9CB0D"/>
<path d="M133.005 109.304C134.55 96.8492 163.373 68.5575 176.586 81.1657C188.1 92.1595 167.236 131.445 161.905 132.983C155.877 133.598 132.618 117.76 133.005 109.304Z" stroke="#F9CB0D" stroke-width="2"/>
<path fill-rule="evenodd" clip-rule="evenodd" d="M224.672 202.636C209.883 206.417 181.801 209.258 161.999 206.046L210.253 440H222.623L227.003 230.056V229.975C224.198 233.088 222.19 235.001 221.537 235.001C219.538 232.998 214 226.913 214 225.064C214.426 224.285 216.065 220.812 218.366 215.938C220.155 212.149 222.343 207.512 224.672 202.636Z" fill="#1DC8CC"/>
<path d="M224.672 202.636L225.123 202.852L225.584 201.887L224.548 202.152L224.672 202.636ZM161.999 206.046L162.079 205.552L161.362 205.436L161.509 206.147L161.999 206.046ZM210.253 440L209.763 440.101L209.845 440.5H210.253V440ZM222.623 440V440.5H223.113L223.123 440.01L222.623 440ZM227.003 230.056L227.503 230.067V230.056H227.003ZM227.003 229.975H227.503V228.673L226.631 229.641L227.003 229.975ZM221.537 235.001L221.184 235.354L221.33 235.501H221.537V235.001ZM214 225.064L213.561 224.824L213.5 224.937V225.064H214ZM218.366 215.938L218.818 216.152L218.366 215.938ZM224.548 202.152C209.809 205.92 181.798 208.751 162.079 205.552L161.919 206.539C181.804 209.765 209.957 206.914 224.796 203.121L224.548 202.152ZM161.509 206.147L209.763 440.101L210.742 439.899L162.488 205.945L161.509 206.147ZM210.253 440.5H222.623V439.5H210.253V440.5ZM223.123 440.01L227.503 230.067L226.503 230.046L222.123 439.989L223.123 440.01ZM227.503 230.056V229.975H226.503V230.056H227.503ZM226.631 229.641C225.233 231.193 224.041 232.437 223.123 233.289C222.663 233.716 222.282 234.036 221.984 234.245C221.836 234.35 221.718 234.419 221.63 234.461C221.533 234.507 221.51 234.501 221.537 234.501V235.501C221.728 235.501 221.91 235.435 222.059 235.364C222.217 235.29 222.385 235.186 222.56 235.062C222.911 234.816 223.329 234.462 223.803 234.022C224.754 233.14 225.968 231.87 227.374 230.31L226.631 229.641ZM221.891 234.648C220.902 233.657 219.029 231.647 217.406 229.659C216.594 228.664 215.853 227.684 215.318 226.846C215.05 226.427 214.84 226.052 214.698 225.736C214.552 225.408 214.5 225.189 214.5 225.064H213.5C213.5 225.402 213.621 225.777 213.785 226.144C213.955 226.522 214.193 226.942 214.475 227.384C215.041 228.27 215.809 229.283 216.631 230.291C218.278 232.308 220.173 234.343 221.184 235.354L221.891 234.648ZM214.439 225.304C214.874 224.508 216.524 221.012 218.818 216.152L217.914 215.725C215.607 220.612 213.978 224.063 213.561 224.824L214.439 225.304ZM218.818 216.152C220.607 212.362 222.795 207.726 225.123 202.852L224.221 202.421C221.891 207.298 219.702 211.935 217.914 215.725L218.818 216.152Z" fill="#1DC8CC"/>
<path d="M253.379 122.999C255.68 110.786 236.469 76.209 220.131 84.1474C205.941 91.0935 213.955 134.583 218.557 137.636C224.079 140.002 251.231 131.09 253.379 122.999Z" stroke="#F9CB0D" stroke-width="2"/>
<path d="M197.532 39.0424C199.173 39.0424 199.563 38.8102 199.563 37.7269C199.563 36.4628 201.265 38.3359 201.948 40.1774L204.329 39.1972C204.329 39.1972 205.345 41.1318 204.876 41.8282C199.798 48.0189 196.048 67.9839 195.969 70.228C194.251 72.9365 178.703 71.7757 178.624 71.6209C177.773 68.3235 178.149 60.9985 178.916 58.532C172.757 56.2076 168.933 49.7304 170.264 43.0663L173.624 25.9645C174.171 23.2561 175.499 20.8572 177.374 19C178.953 19.8868 181.413 20.7737 184.079 21.7348C190.253 23.9606 197.532 26.5848 197.532 30.5302C197.532 32.3039 196.999 33.286 196.502 34.2033C196.066 35.0068 195.657 35.7606 195.657 36.953C195.657 38.0364 196.751 39.0424 197.532 39.0424Z" stroke="#F9CB0D" stroke-width="2"/>
<path d="M178.162 67.6685L179.161 67.6336L179.108 66.1234L177.739 66.7623L178.162 67.6685ZM166.326 78.1412L165.509 77.5645L164.192 79.4299L166.456 79.1327L166.326 78.1412ZM178.624 71.6209L177.656 71.871L177.683 71.9753L177.732 72.0715L178.624 71.6209ZM195.969 70.228L196.814 70.7638L196.959 70.5344L196.969 70.2628L195.969 70.228ZM196.621 66.0222L196.759 65.0318L195.817 64.9005L195.639 65.8351L196.621 66.0222ZM227.588 83.2245L227.391 84.2049L230.114 84.7523L228.364 82.5947L227.588 83.2245ZM220.131 84.1473L219.694 83.2479L219.691 83.2492L220.131 84.1473ZM218.557 137.636L218.004 138.469L218.08 138.519L218.163 138.555L218.557 137.636ZM232.986 135.71L233.288 136.664L232.687 134.756L232.986 135.71ZM223.479 138.023L223.313 137.037L222.331 137.202L222.492 138.185L223.479 138.023ZM231 151.622L231.99 151.76L232.041 151.395L231.842 151.084L231 151.622ZM226.338 199.156L227.24 199.589L227.337 199.388L227.338 199.164L226.338 199.156ZM224.489 203.018L224.822 203.961L225.213 203.823L225.391 203.449L224.489 203.018ZM152.444 203.635L151.858 204.445L151.859 204.445L152.444 203.635ZM150.97 128.588L151.491 127.734L150.159 126.921L149.976 128.471L150.97 128.588ZM161.905 132.983L162.006 133.977L162.095 133.968L162.182 133.943L161.905 132.983ZM176.586 81.1657L177.277 80.4424L177.277 80.4422L176.586 81.1657ZM177.739 66.7623C172.944 68.9991 168.904 72.7552 165.509 77.5645L167.143 78.7179C170.394 74.1126 174.184 70.6276 178.584 68.5748L177.739 66.7623ZM179.593 71.3708C179.356 70.4556 179.214 69.1354 179.161 67.6336L177.162 67.7034C177.217 69.2566 177.366 70.7465 177.656 71.871L179.593 71.3708ZM195.125 69.6921C195.086 69.7543 194.905 69.9344 194.374 70.1386C193.877 70.3304 193.205 70.4929 192.389 70.6223C190.761 70.8804 188.711 70.9838 186.675 70.9982C184.645 71.0125 182.663 70.9384 181.185 70.8511C180.445 70.8075 179.837 70.7609 179.416 70.721C179.203 70.7009 179.048 70.6834 178.95 70.6699C178.898 70.6627 178.879 70.6589 178.881 70.6594C178.883 70.6599 178.89 70.6613 178.9 70.6639C178.91 70.6663 178.93 70.6715 178.956 70.6803C178.976 70.6871 179.032 70.7064 179.101 70.743C179.119 70.7525 179.367 70.8737 179.517 71.1702L177.732 72.0715C177.883 72.3704 178.135 72.4942 178.157 72.5064C178.231 72.5456 178.294 72.5677 178.323 72.5774C178.386 72.5985 178.442 72.6108 178.471 72.617C178.537 72.6308 178.61 72.642 178.677 72.6511C178.816 72.6703 179.004 72.6909 179.227 72.7121C179.678 72.7548 180.311 72.803 181.067 72.8477C182.579 72.9369 184.606 73.0128 186.689 72.9981C188.763 72.9835 190.928 72.8788 192.702 72.5977C193.586 72.4574 194.412 72.2676 195.093 72.005C195.743 71.7548 196.424 71.3787 196.814 70.7638L195.125 69.6921ZM195.639 65.8351C195.237 67.9445 194.992 69.5669 194.97 70.1932L196.969 70.2628C196.984 69.8181 197.195 68.3513 197.603 66.2094L195.639 65.8351ZM228.364 82.5947C221.79 74.4853 211.575 67.0964 196.759 65.0318L196.483 67.0126C210.732 68.9981 220.511 76.0835 226.811 83.8543L228.364 82.5947ZM220.568 85.0468C222.805 83.9596 225.094 83.7432 227.391 84.2049L227.785 82.2441C225.091 81.7025 222.353 81.9557 219.694 83.2479L220.568 85.0468ZM219.11 136.802C218.997 136.727 218.786 136.519 218.506 136.074C218.236 135.648 217.945 135.074 217.642 134.356C217.036 132.923 216.416 130.999 215.835 128.72C214.674 124.166 213.693 118.287 213.295 112.285C212.896 106.275 213.084 100.2 214.226 95.2298C215.377 90.2195 217.437 86.5792 220.571 85.0455L219.691 83.2492C215.729 85.1885 213.47 89.5891 212.277 94.7819C211.074 100.015 210.893 106.306 211.299 112.418C211.705 118.538 212.704 124.538 213.897 129.214C214.492 131.55 215.142 133.578 215.8 135.135C216.129 135.913 216.468 136.593 216.815 137.142C217.15 137.673 217.542 138.162 218.004 138.469L219.11 136.802ZM232.687 134.756C229.574 135.732 226.586 136.44 224.117 136.786C222.881 136.959 221.795 137.039 220.898 137.021C219.983 137.003 219.342 136.884 218.951 136.717L218.163 138.555C218.9 138.871 219.84 139 220.858 139.02C221.893 139.041 223.092 138.949 224.394 138.767C227 138.402 230.098 137.664 233.285 136.665L232.687 134.756ZM223.644 139.01C226.92 138.46 230.183 137.649 233.288 136.664L232.683 134.757C229.659 135.717 226.488 136.504 223.313 137.037L223.644 139.01ZM231.842 151.084C229.926 148.085 228.134 145.17 226.784 142.778C226.109 141.581 225.552 140.527 225.147 139.665C224.729 138.775 224.517 138.178 224.465 137.862L222.492 138.185C222.592 138.802 222.917 139.62 223.337 140.516C223.771 141.44 224.355 142.542 225.042 143.76C226.418 146.198 228.233 149.149 230.157 152.161L231.842 151.084ZM227.338 199.164C227.442 186.878 229.609 168.854 231.99 151.76L230.009 151.484C227.63 168.565 225.443 186.712 225.338 199.147L227.338 199.164ZM225.391 203.449C225.999 202.176 226.617 200.886 227.24 199.589L225.437 198.723C224.813 200.021 224.195 201.313 223.586 202.588L225.391 203.449ZM151.859 204.445C153.036 205.296 154.92 205.918 157.184 206.395C159.485 206.879 162.312 207.24 165.481 207.495C171.822 208.007 179.615 208.103 187.475 207.902C195.337 207.701 203.287 207.201 209.948 206.513C216.57 205.829 222.023 204.951 224.822 203.961L224.156 202.076C221.612 202.975 216.385 203.838 209.743 204.524C203.139 205.205 195.24 205.703 187.424 205.903C179.604 206.103 171.887 206.005 165.642 205.502C162.518 205.25 159.783 204.898 157.597 204.438C155.373 203.969 153.845 203.413 153.029 202.824L151.859 204.445ZM149.976 128.471C147.869 146.369 147.693 164.792 148.315 178.938C148.626 186.012 149.138 192.03 149.711 196.389C149.998 198.566 150.302 200.349 150.609 201.65C150.762 202.298 150.921 202.852 151.09 203.286C151.174 203.502 151.268 203.71 151.376 203.892C151.476 204.061 151.629 204.28 151.858 204.445L153.03 202.824C153.123 202.891 153.137 202.941 153.096 202.872C153.063 202.817 153.015 202.718 152.954 202.562C152.834 202.251 152.699 201.797 152.555 201.191C152.27 199.983 151.977 198.275 151.694 196.129C151.131 191.842 150.623 185.884 150.313 178.85C149.694 164.783 149.871 146.471 151.963 128.705L149.976 128.471ZM161.803 131.988C161.011 132.068 159.625 131.761 157.744 130.992C155.911 130.242 153.755 129.117 151.491 127.734L150.448 129.441C152.773 130.861 155.028 132.042 156.987 132.843C158.898 133.624 160.684 134.112 162.006 133.977L161.803 131.988ZM175.896 81.8889C178.441 84.3195 179.315 88.4447 178.902 93.6041C178.493 98.7222 176.834 104.61 174.631 110.257C172.431 115.895 169.71 121.239 167.217 125.256C165.97 127.267 164.792 128.925 163.777 130.117C163.269 130.714 162.816 131.177 162.428 131.505C162.025 131.846 161.759 131.984 161.627 132.022L162.182 133.943C162.716 133.789 163.239 133.439 163.721 133.031C164.219 132.61 164.749 132.06 165.3 131.414C166.402 130.12 167.638 128.371 168.917 126.311C171.476 122.186 174.251 116.733 176.494 110.984C178.734 105.242 180.465 99.1515 180.896 93.7636C181.324 88.4169 180.488 83.5088 177.277 80.4424L175.896 81.8889ZM166.456 79.1327C170.082 78.6568 173.319 79.4306 175.896 81.8892L177.277 80.4422C174.172 77.4795 170.285 76.6129 166.196 77.1497L166.456 79.1327Z" fill="#F9CB0D"/>
<path fill-rule="evenodd" clip-rule="evenodd" d="M202.017 40.7236L204.177 39.9065C204.177 39.9065 204.636 40.8345 204.177 41.5306C204.039 41.7022 203.903 41.8845 203.769 42.0768C204.616 42.7064 205.524 43 206.368 43C209.273 43 216 40.2932 216 30.6259C216 26.5103 213.648 23.5843 211.726 21.1927C210.397 19.5395 209.273 18.1416 209.273 16.7824C209.273 15.1228 209.504 14.3106 209.723 13.5364C209.923 12.8314 210.114 12.1579 210.114 10.9047C210.114 9.58993 208.815 5.25899 204.763 5.25899C203.617 5.25899 202.833 5.74236 202.049 6.22572C201.266 6.70908 200.482 7.19245 199.336 7.19245C198.205 7.19245 197.12 6.19794 195.924 5.1005C194.45 3.74963 192.807 2.24281 190.698 2.24281C189.417 2.24281 188.173 2.84396 186.912 3.4537C185.614 4.08111 184.297 4.71763 182.901 4.71763C181.463 4.71763 180.234 3.72411 178.904 2.64894C177.336 1.38123 175.627 0 173.269 0C170.493 0 168.817 1.55347 167.529 2.7477C166.725 3.49333 166.072 4.09892 165.396 4.09892C164.288 4.09892 163.638 3.94424 162.988 3.78957C162.338 3.63489 161.689 3.48022 160.58 3.48022C159.204 3.48022 155 5.95504 155 10.4406C155 13.6115 156.299 18.7932 162.797 18.7932C164.769 18.7932 166.293 20.4197 167.769 21.9944C169.153 23.4715 170.495 24.9029 172.123 24.9029C172.569 24.9029 173.093 24.8392 173.603 24.7773C174.295 24.6934 174.959 24.6128 175.359 24.6997C176.005 22.748 177.175 21.2923 178.619 19.8085C180.197 20.7044 182.543 21.5379 185.04 22.4248C190.698 24.4351 197.128 26.7195 197.128 30.6259C197.128 32.3985 196.594 33.2792 196.096 34.1018C195.659 34.8224 195.249 35.4983 195.249 36.69C195.249 38.0421 196.574 39.9064 197.338 39.9064L197.419 39.9064C198.956 39.9067 199.325 39.9068 199.804 39.0706C200.374 38.0739 201.369 39.2153 201.747 40.7035L202.017 40.7236ZM178.619 19.8085L178.576 19.7835L178.832 19.5913C178.761 19.6638 178.69 19.7362 178.619 19.8085Z" fill="#F9CB0D"/>
<path d="M253.379 122.999C263.608 138.713 262.993 174.917 262.993 180.386C262.993 185.855 224.845 235 221.537 235C219.538 232.997 214 226.912 214 225.063C215.769 221.828 238.458 172.144 242.534 168.6C240.688 166.366 224.171 142.26 223.479 138.023C237.707 135.635 251.764 128.237 253.379 122.999Z" stroke="#F9CB0D" stroke-width="2"/>
</svg>
