<svg width="158" height="354" viewBox="0 0 158 354" fill="none" xmlns="http://www.w3.org/2000/svg">
<path fill-rule="evenodd" clip-rule="evenodd" d="M157.682 353.77C156.13 353.039 154.574 352.313 152.976 351.702C158.219 347.474 159.438 339.061 155.61 333.517C151.782 327.975 143.482 326.135 137.671 329.542C143.462 320.895 149.37 311.979 151.574 301.809C153.778 291.638 151.448 279.781 143.189 273.449C135.649 267.667 124.878 267.768 116.008 271.179C108.164 274.197 101.089 279.788 97.4814 287.379C93.873 294.971 94.2079 304.612 99.3431 311.266C92.9787 312.458 87.2229 316.227 83.3025 321.367C83.593 319.134 83.4117 316.858 82.6531 314.725C80.6952 309.212 74.6345 305.245 68.8907 306.35C66.0278 306.901 63.5418 308.822 62.0149 311.29C61.2035 302.695 54.7934 294.442 46.2647 292.195C34.968 289.22 22.2547 296.381 17.9886 307.257C13.7212 318.132 17.6057 331.361 26.396 339.056C21.1 335.323 13.5772 335.067 8.04103 338.433C2.86018 341.581 -0.307618 347.732 0.0236867 353.77H157.682Z" fill="#B6EBEB"/>
<path fill-rule="evenodd" clip-rule="evenodd" d="M58.0691 274.817C58.0691 271.32 55.235 268.486 51.7383 268.486C48.2428 268.486 45.4087 271.32 45.4087 274.817C45.4087 278.314 48.2428 281.148 51.7383 281.148C55.235 281.148 58.0691 278.314 58.0691 274.817Z" fill="#B6EBEB"/>
<path fill-rule="evenodd" clip-rule="evenodd" d="M6.9322 319.094C6.9322 317.18 5.3801 315.629 3.4667 315.629C1.55209 315.629 0 317.18 0 319.094C0 321.009 1.55209 322.56 3.4667 322.56C5.3801 322.56 6.9322 321.009 6.9322 319.094Z" fill="#B6EBEB"/>
<path fill-rule="evenodd" clip-rule="evenodd" d="M84.6719 149.666L56.7402 330.362H70.7067L84.6719 149.666Z" fill="#B6EBEB"/>
<path fill-rule="evenodd" clip-rule="evenodd" d="M79.2601 330.362C76.5664 326.854 91.8617 173.08 91.8617 173.08L105.322 322.436L79.2601 330.362Z" fill="#B6EBEB"/>
<path fill-rule="evenodd" clip-rule="evenodd" d="M108.509 289.098L102.231 169.112L119.941 278.996L108.509 289.098Z" fill="#B6EBEB"/>
<path fill-rule="evenodd" clip-rule="evenodd" d="M92.6654 132.76C133.374 132.76 92.6654 207.898 92.6654 207.898C92.6654 207.898 51.9569 132.76 92.6654 132.76Z" fill="#EBBD02"/>
<path fill-rule="evenodd" clip-rule="evenodd" d="M92.6647 178.708C92.6647 178.708 71.6376 139.896 92.6647 139.896C113.692 139.896 92.6647 178.708 92.6647 178.708Z" fill="#F9CB0D"/>
<path fill-rule="evenodd" clip-rule="evenodd" d="M61.4316 125.801L78.7386 109.501V71.1045L66.3819 82.4349C58.8903 89.3047 55.6325 99.4527 57.7824 109.221L61.4316 125.801Z" fill="#12B5B9"/>
<path fill-rule="evenodd" clip-rule="evenodd" d="M124.556 125.801L128.205 109.221C130.355 99.4527 127.097 89.3047 119.605 82.4349L107.249 71.1045V109.501L124.556 125.801Z" fill="#12B5B9"/>
<path fill-rule="evenodd" clip-rule="evenodd" d="M93.7006 0.292669L93.4725 0.000976562C82.7495 13.2076 76.8965 29.702 76.8965 46.7138V115.218H109.451V45.9707C109.451 29.4127 103.906 13.3324 93.7006 0.292669Z" fill="#B6EBEB"/>
<path fill-rule="evenodd" clip-rule="evenodd" d="M77.3706 38.4734H109.053C107.642 24.6018 102.354 11.352 93.6982 0.292893L93.4701 0C84.4901 11.0615 78.9419 24.4289 77.3706 38.4734Z" fill="#69E3E6"/>
<path fill-rule="evenodd" clip-rule="evenodd" d="M104.113 58.1493C104.113 51.9337 99.0741 46.8945 92.8585 46.8945C86.643 46.8945 81.605 51.9337 81.605 58.1493C81.605 64.3649 86.643 69.4041 92.8585 69.4041C99.0741 69.4041 104.113 64.3649 104.113 58.1493Z" fill="#12B5B9"/>
<path fill-rule="evenodd" clip-rule="evenodd" d="M101.157 58.1484C101.157 53.5665 97.4428 49.8525 92.861 49.8525C88.2791 49.8525 84.564 53.5665 84.564 58.1484C84.564 62.7302 88.2791 66.4442 92.861 66.4442C97.4428 66.4442 101.157 62.7302 101.157 58.1484Z" fill="#FFFFFE"/>
<path fill-rule="evenodd" clip-rule="evenodd" d="M104.113 90.1571C104.113 83.9415 99.0741 78.9023 92.8585 78.9023C86.643 78.9023 81.605 83.9415 81.605 90.1571C81.605 96.3727 86.643 101.412 92.8585 101.412C99.0741 101.412 104.113 96.3727 104.113 90.1571Z" fill="#12B5B9"/>
<path fill-rule="evenodd" clip-rule="evenodd" d="M101.157 90.1576C101.157 85.5758 97.4428 81.8618 92.861 81.8618C88.2791 81.8618 84.564 85.5758 84.564 90.1576C84.564 94.7395 88.2791 98.4535 92.861 98.4535C97.4428 98.4535 101.157 94.7395 101.157 90.1576Z" fill="#FFFFFE"/>
<path fill-rule="evenodd" clip-rule="evenodd" d="M76.8979 115.219L70.8828 137.5H114.452L109.452 115.219H76.8979Z" fill="#69E3E6"/>
<path fill-rule="evenodd" clip-rule="evenodd" d="M111.027 122.248L109.45 115.22H76.8956L74.999 122.248H111.027Z" fill="#12B5B9"/>
<path fill-rule="evenodd" clip-rule="evenodd" d="M78.8155 30.0693C78.1793 32.835 77.6919 35.6391 77.375 38.4732H109.057C108.769 35.6415 108.31 32.8362 107.704 30.0693H78.8155Z" fill="#12B5B9"/>
</svg>
