<svg width="332" height="325" viewBox="0 0 332 325" fill="none" xmlns="http://www.w3.org/2000/svg">
<path d="M175.405 315.575L90.8472 219.944" stroke="#278A8C" stroke-width="1.00664" stroke-linecap="square"/>
<path d="M175.406 315.575L260.97 217.931" stroke="#278A8C" stroke-width="1.00664" stroke-linecap="square"/>
<path d="M175.406 315.575L150.24 235.043" stroke="#278A8C" stroke-width="1.00664" stroke-linecap="square"/>
<path d="M175.406 315.575L200.572 257.19" stroke="#278A8C" stroke-width="1.00664" stroke-linecap="square"/>
<path d="M175.406 315.575V211.891" stroke="#278A8C" stroke-width="1.00664" stroke-linecap="square"/>
<path d="M127.59 40.2588C129.258 40.2588 130.61 38.9068 130.61 37.2389C130.61 35.5711 129.258 34.219 127.59 34.219C125.922 34.219 124.57 35.5711 124.57 37.2389C124.57 38.9068 125.922 40.2588 127.59 40.2588Z" fill="#278A8C"/>
<path d="M127.589 48.3118C133.705 48.3118 138.662 43.3543 138.662 37.2388C138.662 31.1233 133.705 26.1658 127.589 26.1658C121.474 26.1658 116.516 31.1233 116.516 37.2388C116.516 43.3543 121.474 48.3118 127.589 48.3118Z" stroke="#278A8C" stroke-width="1.00664"/>
<path d="M127.59 60.3916C140.377 60.3916 150.742 50.0258 150.742 37.2389C150.742 24.452 140.377 14.0862 127.59 14.0862C114.803 14.0862 104.437 24.452 104.437 37.2389C104.437 50.0258 114.803 60.3916 127.59 60.3916Z" stroke="#278A8C" stroke-width="1.00664"/>
<path d="M127.59 71.4647C147.049 71.4647 162.823 55.6907 162.823 36.2324C162.823 16.7741 147.049 1 127.59 1C108.132 1 92.3579 16.7741 92.3579 36.2324C92.3579 55.6907 108.132 71.4647 127.59 71.4647Z" stroke="#278A8C" stroke-width="1.00664"/>
<path fill-rule="evenodd" clip-rule="evenodd" d="M1.14239 316.04L0 322.109H21.8965L8.08477 316.04H1.14239Z" fill="#0D0E2D"/>
<path fill-rule="evenodd" clip-rule="evenodd" d="M47.8666 316.04L46.1094 322.109H68.4738L54.9286 316.04H47.8666Z" fill="#0D0E2D"/>
<path fill-rule="evenodd" clip-rule="evenodd" d="M288.574 316.782L274.872 321.987H294.243L293.858 317.634L288.574 316.782Z" fill="#0D0E2D"/>
<path fill-rule="evenodd" clip-rule="evenodd" d="M303.976 317.634L291.585 321.987H310.332L309.32 317.634H303.976Z" fill="#0D0E2D"/>
<path fill-rule="evenodd" clip-rule="evenodd" d="M157.136 64.5359V171.495H113.042V89.9485C116.867 83.3416 123.175 77.6353 131.968 72.8298C140.76 68.0242 149.149 65.2596 157.136 64.5359Z" stroke="#278A8C" stroke-width="1.00664"/>
<path d="M157.136 64.5359C148.308 73.575 143.894 81.8229 143.894 89.2798C143.894 96.7367 143.894 124.142 143.894 171.495" stroke="#278A8C" stroke-width="1.00664"/>
<path d="M113.042 89.9485H157.136" stroke="#278A8C" stroke-width="1.00664"/>
<path d="M99.666 200.314V171.495H162.82V202.089" stroke="#278A8C" stroke-width="1.00664"/>
<path d="M162.821 185.326C162.821 185.326 193.556 185.326 255.026 185.326V202.089" stroke="#278A8C" stroke-width="1.00664"/>
<path d="M255.026 185.326L246.95 176.748H162.821" stroke="#278A8C" stroke-width="1.00664"/>
<path d="M246.95 176.748V133.11L233.445 104.56H227.185L240.219 133.11V176.748" stroke="#278A8C" stroke-width="1.00664"/>
<path d="M227.185 104.56H157.136" stroke="#278A8C" stroke-width="1.00664"/>
<path d="M145.343 66.8974V42.2188C165.796 46.2416 181.884 54.1546 193.606 65.9578C205.327 77.761 212.99 90.6286 216.592 104.561" stroke="#278A8C" stroke-width="1.00664"/>
<path d="M145.343 42.2188C167.081 50.3449 182.687 60.7352 192.159 73.3897C201.632 86.0441 206.884 96.4345 207.916 104.561" stroke="#278A8C" stroke-width="1.00664"/>
<path d="M145.459 42.2722C160.569 52.0674 172.327 60.8543 180.968 69.8077C189.609 78.7611 195.175 90.3454 197.666 104.561" stroke="#278A8C" stroke-width="1.00664"/>
<path d="M145.343 42.2188C160.984 57.0965 171.413 69.1581 176.63 78.4038C181.846 87.6494 185.002 96.3683 186.098 104.561" stroke="#278A8C" stroke-width="1.00664"/>
<path d="M120.543 183.201H109.47V200.314H120.543V183.201Z" stroke="#278A8C" stroke-width="1.00664"/>
<path d="M142.69 183.201H131.617V200.314H142.69V183.201Z" stroke="#278A8C" stroke-width="1.00664"/>
<path d="M148.226 171.625V201.824" stroke="#278A8C" stroke-width="1.00664" stroke-linecap="square"/>
<path d="M261.473 200.314H85.3115V208.368H261.473V200.314Z" fill="#105A5B"/>
<path d="M179.432 315.071H171.379C168.877 315.071 166.849 317.099 166.849 319.601C166.849 322.103 168.877 324.131 171.379 324.131H179.432C181.933 324.131 183.961 322.103 183.961 319.601C183.961 317.099 181.933 315.071 179.432 315.071Z" fill="#105A5B"/>
<path fill-rule="evenodd" clip-rule="evenodd" d="M281.705 32.1776C281.249 30.718 281.249 29.1886 281.705 27.5895C282.388 25.1908 285.926 24.03 290.734 24.6104C295.543 25.1908 301.584 28.8365 304.745 35.2607C307.906 41.6849 303.568 41.2447 302.942 49.1769C302.315 57.1091 308.431 60.0148 314.029 63.4212C319.627 66.8276 328.686 76.1851 331.186 87.1994C333.686 98.2136 330.015 108.005 325.702 111.868C321.389 115.732 315.676 118.516 310.464 118.516C306.989 118.516 306.502 109.574 309.002 91.6902L291.551 66.6564L288.381 54.1356L281.705 32.1776Z" fill="#F9CB0D"/>
<path fill-rule="evenodd" clip-rule="evenodd" d="M39.6358 54.614C36.1834 55.5595 32.7799 56.6845 29.4253 57.9888L52.4578 75.3477C53.0742 69.5957 53.4097 65.2969 53.4644 62.4512C53.5192 59.6056 53.3362 55.9738 52.9155 51.5557C47.5148 52.6491 43.0882 53.6685 39.6358 54.614Z" fill="white"/>
<path fill-rule="evenodd" clip-rule="evenodd" d="M22.6535 142.779C22.6535 142.779 35.8019 142.779 62.0987 142.779C49.2048 180.306 40.5151 206.831 36.0297 222.356C31.5443 237.881 22.2292 269.108 8.08446 316.039H1.14209C5.7375 266.683 8.91181 234.576 10.665 219.717C13.2949 197.429 22.6535 142.779 22.6535 142.779Z" fill="#1B2BB5"/>
<path d="M61.4059 142.936H22.6503L22.147 146.459L61.4059 142.936Z" fill="#0616A4"/>
<path fill-rule="evenodd" clip-rule="evenodd" d="M62.0994 142.779C70.9791 163.301 77.26 177.576 80.9421 185.602C86.4652 197.642 90.9688 214.567 90.9688 217.222C90.9688 219.877 76.8878 260.008 71.738 273.813C68.3049 283.016 62.7016 297.092 54.9282 316.039H47.8662C56.5436 278.682 61.7461 255.806 63.4737 247.409C65.2013 239.013 67.1826 231.156 69.4175 223.84L47.8662 183.934L62.0994 142.779Z" fill="#0616A4"/>
<path fill-rule="evenodd" clip-rule="evenodd" d="M52.9182 51.5552C58.7651 50.5436 62.977 50.5436 65.5537 51.5552C69.4188 53.0727 81.0056 67.469 89.2039 71.8044C97.4022 76.1398 99.2974 75.5018 103.449 71.8044C106.216 69.3394 112.961 61.5434 123.682 48.4163L129.068 51.5552C119.212 69.8716 112.478 81.174 108.866 85.4622C103.449 91.8947 99.3431 96.8102 89.2039 94.2094C82.4444 92.4755 77.6509 91.0202 74.8233 89.8436C72.8214 102.148 71.4202 109.847 70.6197 112.939C69.8191 116.031 68.7209 120.089 67.3251 125.112L73.0395 126.38L71.8489 132.941H65.5537C64.9505 135.027 64.4072 136.86 63.9236 138.442C63.44 140.025 62.8324 141.47 62.1007 142.779H22.6555C22.5348 139.315 22.4745 136.628 22.4745 134.716C22.4745 132.804 22.4745 131.009 22.4745 129.332C16.9334 128.028 13.6604 126.381 12.6556 124.39C11.1483 121.404 9.62891 106.31 9.62891 99.9688C9.62891 93.6276 10.0224 74.5064 13.4671 69.5737C15.7636 66.2853 21.0839 62.4235 29.4281 57.9884C35.7285 61.9326 39.7242 64.6637 41.4152 66.1815C43.1063 67.6994 46.5193 70.4238 51.6543 74.3547C52.4969 68.737 52.9182 64.6048 52.9182 61.9582C52.9182 59.3117 52.9182 55.844 52.9182 51.5552Z" fill="#F9CB0D"/>
<path d="M65.0801 80.2982C66.5772 82.8126 72.3077 87.6847 74.8935 89.7856L73.7862 96.1275L65.0801 80.2982C65.023 80.2024 64.9721 80.11 64.9277 80.0212L65.0801 80.2982Z" fill="#EBBD02"/>
<path d="M29.1934 113.743C30.2 107.704 29.8645 94.6173 29.1934 87.5708L34.2266 112.233L54.3593 121.293C46.8095 118.777 35.2332 115.757 29.1934 113.743Z" fill="#EBBD02"/>
<path fill-rule="evenodd" clip-rule="evenodd" d="M288.573 231.479V316.782L293.857 317.634C297.868 292.359 300.262 277.185 301.039 272.114C302.205 264.508 305.448 248.639 306.458 243.769C307.131 240.523 307.713 235.703 308.204 229.309L288.573 231.479Z" fill="#F9CA85"/>
<path fill-rule="evenodd" clip-rule="evenodd" d="M261.156 228.375L291.07 289.577L303.975 317.634H309.319L282.827 229.309L261.156 228.375Z" fill="#FFE1B5"/>
<path fill-rule="evenodd" clip-rule="evenodd" d="M73.0372 126.38C74.0106 126.866 75.1213 126.866 76.3694 126.38C77.6175 125.894 79.2256 125.003 81.1938 123.706L80.9909 126.19C79.1954 127.367 78.2976 128.848 78.2976 130.634C78.2976 132.421 79.1954 134.213 80.9909 136.011L83.6835 138.849L77.0346 138.524L71.8467 132.941L73.0372 126.38Z" fill="#FFE1B5"/>
<path fill-rule="evenodd" clip-rule="evenodd" d="M129.067 51.5553L133.23 49.0796L130.266 44.2242L134.817 39.3197L133.782 37.5908L128.392 43.006C127.199 43.605 125.932 43.605 124.592 43.006C123.252 42.407 122.027 41.4747 120.917 40.2092V42.2895C122.861 43.9385 123.833 45.2427 123.833 46.2022C123.833 47.1616 123.782 47.8997 123.68 48.4164L129.067 51.5553Z" fill="#FFE1B5"/>
<path fill-rule="evenodd" clip-rule="evenodd" d="M38.144 44.5732V56.4409C39.144 58.6108 40.9146 59.5235 43.4559 59.179C47.2678 58.6622 48.6351 56.9676 49.1576 55.4791C49.5059 54.4868 49.5059 52.1326 49.1576 48.4165C47.5001 48.9794 45.5995 48.9794 43.4559 48.4165C41.3123 47.8536 39.5417 46.5726 38.144 44.5732Z" fill="#FFE1B5"/>
<path d="M38.1509 46.8019V43.782C39.3588 44.9899 45.3651 47.6408 48.2173 48.8152C44.5934 49.2178 39.9964 47.6408 38.1509 46.8019Z" fill="#F9CA85"/>
<path fill-rule="evenodd" clip-rule="evenodd" d="M32.6904 37.591C34.6584 40.1921 36.0812 42.2319 37.7492 44.2856C40.2512 47.3662 43.5184 50.0201 49.3255 48.8155C55.1327 47.6109 51.6585 25.6527 50.5389 22.9736C49.7924 21.1876 44.6052 22.4534 34.9774 26.7709L32.6904 37.591Z" fill="#FFE1B5"/>
<path fill-rule="evenodd" clip-rule="evenodd" d="M47.4826 43.0423C47.1666 43.0423 46.8425 43.0285 46.5104 43.0012C46.3872 42.991 46.2961 42.8834 46.3059 42.7607C46.3166 42.6376 46.4269 42.5496 46.547 42.5563C47.7666 42.6581 48.8607 42.567 49.8924 42.2801C50.0111 42.248 50.1339 42.3167 50.1674 42.4354C50.1999 42.5541 50.1308 42.6768 50.012 42.7098C49.2116 42.9321 48.3772 43.0423 47.4826 43.0423Z" fill="#F9CA85"/>
<path fill-rule="evenodd" clip-rule="evenodd" d="M52.6507 69.7358L48.262 63.4514C48.7897 62.3628 48.7897 61.2898 48.262 60.2325C47.7343 59.1751 46.5436 59.1751 44.69 60.2325C43.5883 61.2436 43.5883 62.1279 44.69 62.8854C46.3425 64.0217 47.1512 63.7185 47.1512 65.6189C47.1512 66.8858 47.1512 68.941 47.1512 71.7845L51.6527 74.3548L52.6507 69.7358Z" fill="#16174A"/>
<path fill-rule="evenodd" clip-rule="evenodd" d="M286.66 56.5623C286.804 58.7449 286.499 60.4761 285.745 61.7561C284.991 63.036 285.923 64.4365 288.542 65.9575H293.156C292.302 65.6029 291.774 64.7313 291.572 63.3427C291.269 61.2599 291.54 57.2833 292.097 56.2202C292.468 55.5115 293.031 54.1765 293.785 52.2153L286.66 56.5623Z" fill="#FFE1B5"/>
<path d="M286.691 55.8619L294.241 52.3386L286.691 58.3785V55.8619Z" fill="#F9CA85"/>
<path fill-rule="evenodd" clip-rule="evenodd" d="M244.587 127.647H242.861L240.522 124.649L239.289 125.836L241.171 129.08L233.444 135.827L239.289 136.721L244.587 132.327V127.647Z" fill="#FFE1B5"/>
<path fill-rule="evenodd" clip-rule="evenodd" d="M220.08 74.8967L217.233 69.8074H205.216L206.498 71.4871L211.943 72.352L211.494 77.4096L212.648 78.4034L214.901 78.0509L218.191 78.4034L220.08 74.8967Z" fill="#FFE1B5"/>
<path fill-rule="evenodd" clip-rule="evenodd" d="M274.014 139.174H305.843C310.531 155.682 313.571 170.947 314.962 184.967C317.049 205.997 318.188 213.182 318.188 218.914C318.188 224.646 320.083 226.868 314.962 228.122C309.842 229.375 294.126 232.509 275.151 231.139C256.177 229.768 255.025 225.697 255.025 218.914C255.025 212.13 259.919 185.313 262.442 175.577C264.124 169.087 267.981 156.952 274.014 139.174Z" fill="#1B2BB5"/>
<path fill-rule="evenodd" clip-rule="evenodd" d="M35.7268 32.3544C36.2864 29.5009 37.5896 27.4347 39.6366 26.1557C42.707 24.2372 47.9994 25.0696 50.5381 22.9735C53.0768 20.8773 56.1414 16.0894 56.1414 10.5497C56.1414 5.0099 51.91 1.56812 49.6796 1.56812C47.4493 1.56812 45.27 4.90892 44.2346 10.5497C43.1992 16.1904 42.13 16.9613 39.6366 16.9613C37.1431 16.9613 33.5157 17.2496 32.33 21.4201C31.1443 25.5907 32.2614 28.3809 31.1513 30.1115C30.0413 31.8422 28.5883 34.4017 31.1513 36.7313C32.8601 38.2844 37.4956 39.2522 42.5288 39.2522C41.7704 38.0487 40.0122 36.3523 40.0122 35.2256C40.0122 34.099 41.0188 32.186 41.0188 31.1991L35.7268 32.3544Z" fill="#16174A"/>
<path fill-rule="evenodd" clip-rule="evenodd" d="M48.5963 29.0299C50.7449 28.3384 53.1246 27.6501 55.7354 26.9648C57.3745 26.5102 58.4761 26.8543 59.0402 27.9974C59.8865 29.7119 60.0122 33.4089 59.0402 34.3691C58.0683 35.3294 55.4197 36.7586 52.393 36.7586C49.3663 36.7586 47.6967 39.595 45.024 39.595C42.3514 39.595 41.2091 39.148 40.1242 36.7586C39.0393 34.3691 39.9853 32.3563 40.8305 31.4121C41.6756 30.4679 45.3733 30.0671 48.5963 29.0299Z" fill="#1B2BB5"/>
<path fill-rule="evenodd" clip-rule="evenodd" d="M274.015 139.174H305.844C307.867 128.948 309.436 121.44 310.553 116.65C312.228 109.466 315.675 86.9385 313.114 79.5219C310.553 72.1054 304.422 67.0501 303.361 67.0501C302.3 67.0501 295.522 66.9792 293.185 65.6789C290.849 64.3787 288.064 66.0068 286.779 64.4987C285.923 63.4933 285.579 62.5791 285.747 61.7559C279.89 61.8835 275.98 62.7978 274.015 64.4987C271.068 67.0501 260.426 80.4789 255.026 84.7657C249.627 89.0525 244.684 88.1856 239.837 85.8315C236.606 84.2621 230.021 80.6171 220.083 74.8965L218.193 78.3397C226.103 87.4996 232.601 93.9053 237.688 97.5569C242.775 101.209 249.107 101.832 256.684 99.4266L264.117 95.5976C263.707 100.214 264.372 103.333 266.112 104.954C268.722 107.387 270.993 109.682 270.993 111.625C270.993 112.919 270.993 114.218 270.993 115.52C265.292 119.536 260.522 122.321 256.684 123.873C252.846 125.425 248.814 126.683 244.588 127.647V132.327C254.836 131.137 261.346 130.2 264.117 129.518C266.888 128.836 269.912 128.212 273.19 127.647L274.015 138.434" fill="#0D0E2D"/>
<path fill-rule="evenodd" clip-rule="evenodd" d="M281.705 32.1775C280.275 38.9322 279.561 44.1619 279.561 47.8667C279.561 53.4239 280.054 56.834 282.389 57.0809C284.723 57.3279 290.094 55.9181 292.617 53.8727C294.299 52.5091 295.275 49.882 295.544 45.9914C294.87 44.4404 293.721 42.827 292.098 41.1511C290.475 39.4752 287.01 36.484 281.705 32.1775Z" fill="#FFE1B5"/>
<path fill-rule="evenodd" clip-rule="evenodd" d="M281.962 51.4434C281.664 51.3381 281.363 51.2172 281.059 51.0809C280.946 51.0302 280.896 50.8985 280.946 50.7861C280.997 50.6735 281.13 50.6273 281.241 50.6736C282.357 51.1756 283.419 51.4541 284.488 51.527C284.61 51.5362 284.703 51.6419 284.695 51.765C284.687 51.8878 284.581 51.9804 284.458 51.972C283.629 51.9151 282.805 51.7412 281.962 51.4434Z" fill="#F9CA85"/>
<path fill-rule="evenodd" clip-rule="evenodd" d="M291.759 41.6848C292.337 43.2843 291.999 44.5645 291.421 45.7954C290.843 47.0263 290.229 48.3853 289.408 49.3187L294.363 48.2339H302.872L303.648 44.2914H294.973L291.759 41.6848Z" fill="#16174A"/>
<path fill-rule="evenodd" clip-rule="evenodd" d="M291.759 41.6847C286.901 39.0154 282.747 37.1546 279.298 36.1022C274.124 34.5237 273.866 35.3961 273.242 36.826C272.618 38.2559 272.019 43.7066 274.337 45.091C276.656 46.4754 284.782 48.8741 287.18 49.1767C288.305 49.3185 289.028 49.3185 289.408 49.3185C290.414 48.3119 291.309 46.7545 291.759 45.4307C292.209 44.1069 292.209 42.8582 291.759 41.6847Z" fill="#1B2BB5"/>
</svg>
