<?xml version="1.0" encoding="UTF-8"?>
<svg width="152px" height="234px" viewBox="0 0 152 234" version="1.1" xmlns="http://www.w3.org/2000/svg" xmlns:xlink="http://www.w3.org/1999/xlink">
    <!-- Generator: Sketch 63.1 (92452) - https://sketch.com -->
    <title>illustration / institute / about2</title>
    <desc>Created with Sketch.</desc>
    <g id="Page-1" stroke="none" stroke-width="1" fill="none" fill-rule="evenodd">
        <g id="04-01-07-1---Statna-sprava" transform="translate(-1160.000000, -7099.000000)" fill-rule="nonzero">
            <g id="illustration-/-institute-/-about2" transform="translate(1160.000000, 7099.170000)">
                <path d="M150.469607,144.76 C136.259607,49.63 101.469607,-0.28 97.0596074,1.61 C90.8296074,4.34 89.0096074,57.75 100.139607,112.91 C100.419607,112.91 100.629607,112.84 100.909607,112.84 C104.129607,112.84 106.719607,115.43 106.719607,118.65 C106.719607,119.63 106.509607,120.54 106.089607,121.31 C107.979607,122.29 109.309607,124.25 109.309607,126.49 C109.309607,129.29 107.279607,131.67 104.619607,132.23 C107.909607,144.97 112.039607,157.57 116.939607,169.26 C119.459607,169.26 147.739607,169.26 147.739607,169.26 C147.739607,169.26 152.569607,158.62 150.469607,144.76 Z" id="Path" stroke="#3DDCE0" stroke-width="2" transform="translate(121.539804, 85.409120) scale(-1, 1) translate(-121.539804, -85.409120) "></path>
                <path d="M102.83,43.89 C94.22,43.89 84.98,68.67 74.76,68.67 C72.52,68.67 71.05,66.22 71.05,63.91 C71.05,61.67 78.12,37.03 78.12,25.06 C78.12,24.01 78.05,22.89 77.91,21.77 C76.79,22.47 75.39,22.89 73.99,22.89 C69.79,22.89 66.36,19.46 66.36,15.26 C66.36,11.55 68.95,8.54 72.45,7.77 C68.88,3.22 63.63,4.40536496e-13 56.49,4.40536496e-13 C47.46,4.40536496e-13 34.72,8.05 34.72,20.51 C34.72,24.01 35.77,32.9 35.77,40.95 C35.77,86.59 2.55795385e-13,93.45 2.55795385e-13,143.99 C2.55795385e-13,154.63 5.88,166.32 7.63,169.19 C7.63,169.19 37.59,169.54 40.46,169.54 C43.33,169.54 66.64,130.62 69.3,126.49 C79.45,110.81 113.19,93.59 113.19,56.14 C113.19,50.89 111.3,43.89 102.83,43.89 Z" id="Path" fill="#3DDCE0" transform="translate(56.595000, 84.770000) scale(-1, 1) translate(-56.595000, -84.770000) "></path>
                <polygon id="Path" fill="#0D0E2D" transform="translate(99.645000, 201.425000) scale(-1, 1) translate(-99.645000, -201.425000) " points="124.81 233.31 75.6 232.75 58.38 169.54 140.91 169.54"></polygon>
            </g>
        </g>
    </g>
</svg>