<svg width="371" height="438" viewBox="0 0 371 438" fill="none" xmlns="http://www.w3.org/2000/svg">
<g clip-path="url(#clip0)">
<path fill-rule="evenodd" clip-rule="evenodd" d="M260.695 0H63.4447C59.4567 0 56.1938 3.26287 56.1938 7.25081V383.325C56.1938 387.312 59.4567 390.575 63.4447 390.575H260.695C264.683 390.575 267.946 387.312 267.946 383.325V7.25081C267.946 3.26287 264.683 0 260.695 0Z" fill="#3F4065"/>
<path fill-rule="evenodd" clip-rule="evenodd" d="M250.556 340.771H72.6092C68.6213 340.771 65.3584 337.508 65.3584 333.52V27.1898C65.3584 23.2018 68.6213 19.939 72.6092 19.939H250.556C254.544 19.939 257.806 23.2018 257.806 27.1898V333.52C257.806 337.508 254.544 340.771 250.556 340.771Z" fill="#FFFFFE"/>
<path fill-rule="evenodd" clip-rule="evenodd" d="M72.6095 21.4496C69.4446 21.4496 66.8693 24.0249 66.8693 27.1899V333.521C66.8693 336.686 69.4446 339.261 72.6095 339.261H250.556C253.721 339.261 256.296 336.686 256.296 333.521V27.1899C256.296 24.0249 253.721 21.4496 250.556 21.4496H72.6095ZM250.556 342.282H72.6095C67.7787 342.282 63.8481 338.352 63.8481 333.521V27.1899C63.8481 22.359 67.7787 18.4285 72.6095 18.4285H250.556C255.387 18.4285 259.317 22.359 259.317 27.1899V333.521C259.317 338.352 255.387 342.282 250.556 342.282Z" fill="#71728E"/>
<path fill-rule="evenodd" clip-rule="evenodd" d="M192.348 356.341L188.672 390.576H204.009L192.348 356.341Z" fill="#AEAFC6"/>
<path fill-rule="evenodd" clip-rule="evenodd" d="M242.908 348.357H201.097C196.706 348.357 193.632 352.127 194.266 356.736L199.946 398.06C200.579 402.669 204.691 406.439 209.082 406.439H250.892C255.283 406.439 258.357 402.669 257.724 398.06L252.043 356.736C251.41 352.127 247.299 348.357 242.908 348.357Z" fill="#FFFFFE"/>
<path fill-rule="evenodd" clip-rule="evenodd" d="M201.097 349.867C199.503 349.867 198.076 350.497 197.08 351.64C195.971 352.912 195.503 354.648 195.762 356.53L201.442 397.854C201.97 401.688 205.468 404.928 209.082 404.928H250.892C252.486 404.928 253.913 404.299 254.91 403.155C256.018 401.884 256.486 400.148 256.228 398.265L250.547 356.942C250.02 353.107 246.521 349.867 242.908 349.867H201.097ZM250.892 407.949H209.082C203.953 407.949 199.184 403.605 198.449 398.265L192.769 356.942C192.395 354.221 193.136 351.566 194.802 349.655C196.382 347.844 198.617 346.846 201.097 346.846H242.908C248.037 346.846 252.806 351.19 253.54 356.53L259.22 397.854C259.594 400.574 258.853 403.23 257.187 405.141C255.608 406.952 253.372 407.949 250.892 407.949Z" fill="#CFD0E0"/>
<path fill-rule="evenodd" clip-rule="evenodd" d="M178.134 365.102C178.134 356.229 170.942 349.037 162.07 349.037C153.197 349.037 146.004 356.229 146.004 365.102C146.004 373.974 153.197 381.166 162.07 381.166C170.942 381.166 178.134 373.974 178.134 365.102Z" fill="#71728E"/>
<path fill-rule="evenodd" clip-rule="evenodd" d="M201.498 7.15112H139.771C137.777 7.15112 136.146 8.78256 136.146 10.7765C136.146 12.7699 137.777 14.4013 139.771 14.4013H201.498C203.492 14.4013 205.123 12.7699 205.123 10.7765C205.123 8.78256 203.492 7.15112 201.498 7.15112Z" fill="#71728E"/>
<path fill-rule="evenodd" clip-rule="evenodd" d="M126.489 10.7759C126.489 8.71243 124.817 7.03931 122.753 7.03931C120.689 7.03931 119.017 8.71243 119.017 10.7759C119.017 12.8394 120.689 14.5125 122.753 14.5125C124.817 14.5125 126.489 12.8394 126.489 10.7759Z" fill="#71728E"/>
<path fill-rule="evenodd" clip-rule="evenodd" d="M220.578 395.211C220.26 392.587 218.089 390.691 215.728 390.977C213.367 391.262 211.71 393.62 212.028 396.244C212.345 398.868 214.516 400.764 216.877 400.478C219.238 400.193 220.895 397.834 220.578 395.211Z" fill="#FFFFFE"/>
<path fill-rule="evenodd" clip-rule="evenodd" d="M216.605 362.354C216.288 359.73 214.117 357.834 211.756 358.12C209.395 358.405 207.738 360.763 208.056 363.388C208.373 366.011 210.544 367.907 212.905 367.621C215.266 367.336 216.923 364.977 216.605 362.354Z" fill="#FFFFFE"/>
<path fill-rule="evenodd" clip-rule="evenodd" d="M242.067 376.346C241.75 373.722 239.579 371.826 237.218 372.112C234.857 372.397 233.2 374.755 233.517 377.379C233.834 380.003 236.005 381.899 238.367 381.613C240.728 381.328 242.384 378.969 242.067 376.346Z" fill="#FFFFFE"/>
<path fill-rule="evenodd" clip-rule="evenodd" d="M221.163 393.356L219.337 391.208L238.109 375.795L219.978 364.288L221.522 361.936L242.902 375.506L221.163 393.356Z" fill="#CFD0E0"/>
<path fill-rule="evenodd" clip-rule="evenodd" d="M224.136 392.565C223.847 390.077 221.87 388.279 219.72 388.55C217.571 388.82 216.063 391.057 216.351 393.545C216.64 396.033 218.617 397.83 220.767 397.56C222.916 397.289 224.424 395.052 224.136 392.565Z" fill="#FFFFFE"/>
<path fill-rule="evenodd" clip-rule="evenodd" d="M219.845 389.467C219.755 389.467 219.665 389.473 219.574 389.483C218.911 389.561 218.314 389.926 217.894 390.51C217.442 391.139 217.249 391.937 217.351 392.756C217.452 393.576 217.834 394.305 218.426 394.811C218.976 395.28 219.647 395.497 220.309 395.417C221.737 395.248 222.735 393.78 222.533 392.144V392.144C222.343 390.611 221.167 389.467 219.845 389.467ZM220.031 398.191C218.778 398.191 217.569 397.739 216.571 396.888C215.453 395.933 214.735 394.583 214.55 393.087C214.365 391.591 214.733 390.113 215.586 388.926C216.471 387.693 217.768 386.92 219.236 386.746C222.212 386.395 224.944 388.668 225.333 391.813C225.722 394.958 223.62 397.802 220.647 398.154C220.441 398.179 220.235 398.191 220.031 398.191Z" fill="#CFD0E0"/>
<path fill-rule="evenodd" clip-rule="evenodd" d="M220.51 362.353C220.221 359.865 218.245 358.067 216.095 358.338C213.946 358.608 212.437 360.845 212.726 363.333C213.015 365.821 214.991 367.618 217.141 367.348C219.291 367.077 220.799 364.84 220.51 362.353Z" fill="#FFFFFE"/>
<path fill-rule="evenodd" clip-rule="evenodd" d="M216.219 358.651C216.129 358.651 216.039 358.656 215.949 358.667C214.52 358.835 213.522 360.304 213.725 361.94C213.826 362.759 214.208 363.489 214.8 363.994C215.351 364.465 216.021 364.679 216.682 364.601C217.347 364.523 217.944 364.158 218.363 363.574C218.816 362.945 219.008 362.147 218.907 361.327C218.717 359.795 217.541 358.651 216.219 358.651ZM216.404 367.374C215.152 367.374 213.942 366.922 212.945 366.072C211.827 365.117 211.109 363.768 210.924 362.271C210.536 359.125 212.638 356.281 215.611 355.93C218.582 355.58 221.319 357.852 221.707 360.996C221.892 362.493 221.525 363.971 220.672 365.159C219.786 366.39 218.489 367.164 217.021 367.338C216.815 367.362 216.609 367.374 216.404 367.374Z" fill="#CFD0E0"/>
<path fill-rule="evenodd" clip-rule="evenodd" d="M244.075 375.042C243.787 372.554 241.81 370.756 239.66 371.027C237.511 371.297 236.002 373.534 236.291 376.022C236.58 378.51 238.557 380.307 240.707 380.037C242.856 379.766 244.364 377.529 244.075 375.042Z" fill="#FFFFFE"/>
<path fill-rule="evenodd" clip-rule="evenodd" d="M239.783 373.757C239.693 373.757 239.604 373.762 239.514 373.773C238.85 373.852 238.254 374.217 237.834 374.8C237.382 375.429 237.189 376.226 237.29 377.046C237.392 377.866 237.774 378.595 238.366 379.101C238.916 379.571 239.585 379.786 240.249 379.707C240.912 379.629 241.509 379.264 241.929 378.68C242.381 378.051 242.573 377.253 242.472 376.434C242.371 375.614 241.989 374.885 241.397 374.379C240.921 373.973 240.356 373.757 239.783 373.757ZM236.511 381.177C235.393 380.224 234.675 378.874 234.49 377.377C234.305 375.881 234.673 374.402 235.526 373.215C236.411 371.983 237.707 371.209 239.176 371.036C240.646 370.864 242.092 371.312 243.252 372.303C244.37 373.257 245.087 374.606 245.272 376.103C245.458 377.599 245.09 379.078 244.237 380.265C243.351 381.497 242.055 382.27 240.587 382.444C240.381 382.468 240.175 382.48 239.97 382.48C238.717 382.48 237.508 382.029 236.511 381.177Z" fill="#CFD0E0"/>
<path fill-rule="evenodd" clip-rule="evenodd" d="M268.658 41.2795H111.204C107.313 41.2795 104.13 44.1907 104.13 47.7488V124.841C104.13 128.399 107.313 131.31 111.204 131.31H268.658C272.549 131.31 275.732 128.399 275.732 124.841V47.7488C275.732 44.1907 272.549 41.2795 268.658 41.2795Z" fill="#F4F5F9"/>
<path fill-rule="evenodd" clip-rule="evenodd" d="M132.629 54.9854C142.474 54.9854 150.454 62.9658 150.454 72.8103C150.454 82.6547 142.474 90.6352 132.629 90.6352C122.785 90.6352 114.804 82.6547 114.804 72.8103C114.804 62.9658 122.785 54.9854 132.629 54.9854Z" fill="#1DC8CC"/>
<path fill-rule="evenodd" clip-rule="evenodd" d="M128.098 66.859C128.098 66.6285 128.164 66.4028 128.288 66.2085C128.647 65.646 129.394 65.4813 129.957 65.8406L139.101 71.6814C139.234 71.7662 139.349 71.8761 139.439 72.0051C139.823 72.5512 139.691 73.3049 139.145 73.6886L130.001 80.1135C129.797 80.2564 129.555 80.3331 129.306 80.3331C128.639 80.3331 128.098 79.7921 128.098 79.1247V66.859Z" fill="#FFFFFE"/>
<path fill-rule="evenodd" clip-rule="evenodd" d="M164.352 54.9854H191.542C194.212 54.9854 196.376 57.1496 196.376 59.8192C196.376 62.4889 194.212 64.6531 191.542 64.6531H164.352C161.682 64.6531 159.518 62.4889 159.518 59.8192C159.518 57.1496 161.682 54.9854 164.352 54.9854Z" fill="#CFD0E0"/>
<path fill-rule="evenodd" clip-rule="evenodd" d="M164.352 74.321H255.591C258.261 74.321 260.425 76.4852 260.425 79.1549C260.425 81.8246 258.261 83.9888 255.591 83.9888H164.352C161.682 83.9888 159.518 81.8246 159.518 79.1549C159.518 76.4852 161.682 74.321 164.352 74.321Z" fill="#CFD0E0"/>
<path fill-rule="evenodd" clip-rule="evenodd" d="M164.352 105.741H255.591C258.261 105.741 260.425 107.905 260.425 110.575C260.425 113.245 258.261 115.409 255.591 115.409H164.352C161.682 115.409 159.518 113.245 159.518 110.575C159.518 107.905 161.682 105.741 164.352 105.741Z" fill="#CFD0E0"/>
<path fill-rule="evenodd" clip-rule="evenodd" d="M164.352 90.0312H255.591C258.261 90.0312 260.425 92.1955 260.425 94.8651C260.425 97.5348 258.261 99.699 255.591 99.699H164.352C161.682 99.699 159.518 97.5348 159.518 94.8651C159.518 92.1955 161.682 90.0312 164.352 90.0312Z" fill="#CFD0E0"/>
<path fill-rule="evenodd" clip-rule="evenodd" d="M349.385 280.365L333.354 319.481L334.562 306.139L309.99 311.223C309.587 313.438 316.032 356.138 330.534 357.346C342.69 358.36 354.843 301.923 358.458 283.636C355.34 282.749 352.29 281.722 349.385 280.365Z" fill="#FFE1B5"/>
<path fill-rule="evenodd" clip-rule="evenodd" d="M292.968 370.485L302.274 313.991L272.51 330.389L276.759 369.972C277.148 374.061 277.982 378.096 279.248 382.004L289.772 419.639C293.051 418.72 296.326 418.057 299.529 417.307L292.968 370.485Z" fill="#FFE1B5"/>
<path fill-rule="evenodd" clip-rule="evenodd" d="M289.771 419.638L293.358 431.11L284.997 436.948H301.718L299.529 417.306C296.325 418.057 293.05 418.72 289.771 419.638Z" fill="#282A64"/>
<path fill-rule="evenodd" clip-rule="evenodd" d="M272.51 331.715L300.768 323.961L301.394 319.818L272.51 331.715Z" fill="#F9CA85"/>
<path fill-rule="evenodd" clip-rule="evenodd" d="M267.946 275.518L272.51 331.715L334.545 307.095C334.545 307.095 338.247 266.863 330.996 251.556L267.946 275.518Z" fill="#1DC8CC"/>
<path fill-rule="evenodd" clip-rule="evenodd" d="M267.946 275.518L332.521 255.637C332.521 255.637 333.12 254.691 333.82 260.773L267.946 275.518Z" fill="#12B5B9"/>
<path fill-rule="evenodd" clip-rule="evenodd" d="M229.005 136.003L239.881 161.019L251.966 155.783L237.464 133.023L229.005 136.003Z" fill="#EBBD02"/>
<path fill-rule="evenodd" clip-rule="evenodd" d="M285.299 118.42L277.041 108.551C277.041 108.551 269.488 109.458 269.186 116.708C269.186 116.708 268.381 123.211 266.568 123.686C264.755 124.16 265.762 126.376 266.971 126.779C266.971 126.779 266.904 127.385 266.845 128.248L270.132 129.531C270.132 129.531 269.008 131.002 266.769 130.857C266.803 132.142 266.949 133.721 267.373 134.029C268.481 134.835 272.509 136.346 272.509 136.346L274.222 145.208L288.723 143.093L285.299 118.42Z" fill="#FFE1B5"/>
<path fill-rule="evenodd" clip-rule="evenodd" d="M278.04 126.473C278.003 126.473 277.966 126.467 277.93 126.452C277.774 126.391 277.698 126.215 277.759 126.06C278.286 124.723 279.266 123.597 280.517 122.889C280.662 122.807 280.847 122.858 280.929 123.003C281.011 123.148 280.96 123.333 280.814 123.415C279.683 124.055 278.798 125.073 278.321 126.282C278.275 126.401 278.161 126.473 278.04 126.473Z" fill="#F9CA85"/>
<path fill-rule="evenodd" clip-rule="evenodd" d="M280.019 129.876C280.019 129.084 279.377 128.442 278.585 128.442C277.792 128.442 277.15 129.084 277.15 129.876C277.15 130.668 277.792 131.31 278.585 131.31C279.377 131.31 280.019 130.668 280.019 129.876Z" fill="#FFFFFE"/>
<path fill-rule="evenodd" clip-rule="evenodd" d="M272.107 120.736C272.107 120.264 271.723 119.88 271.25 119.88C270.778 119.88 270.395 120.264 270.395 120.736C270.395 121.209 270.778 121.593 271.25 121.593C271.723 121.593 272.107 121.209 272.107 120.736Z" fill="#3A3B39"/>
<path fill-rule="evenodd" clip-rule="evenodd" d="M273.239 118.647C273.11 118.647 272.991 118.564 272.951 118.435C272.779 117.888 272.415 117.454 271.976 117.274C271.768 117.188 271.449 117.123 271.116 117.3C270.968 117.378 270.785 117.322 270.708 117.174C270.629 117.028 270.685 116.845 270.833 116.766C271.254 116.542 271.742 116.524 272.206 116.715C272.809 116.962 273.303 117.538 273.527 118.254C273.577 118.414 273.489 118.583 273.329 118.633C273.3 118.642 273.269 118.647 273.239 118.647Z" fill="#3A3B39"/>
<path fill-rule="evenodd" clip-rule="evenodd" d="M297.225 142.641C270.974 142.791 252.274 148.327 214.404 166.557C205.949 160.009 191.93 148.388 184.981 134.289L176.941 137.554C176.941 137.554 197.598 186.573 220.044 184.684C252.973 181.914 257.806 177.42 257.806 177.42L267.945 275.517L336.633 254.371C336.633 254.371 323.476 142.491 297.225 142.641Z" fill="#F9CB0D"/>
<path fill-rule="evenodd" clip-rule="evenodd" d="M303.118 126.732C300.168 124.172 295.474 123.528 293.701 120.048C291.926 116.568 294.05 111.847 291.782 108.667C289.37 105.285 284.171 106.266 280.241 104.922C278.124 104.197 276.318 102.738 274.198 102.021C272.078 101.305 269.269 101.648 268.278 103.655C267.246 105.745 268.791 108.197 270.537 109.74C272.284 111.284 274.434 112.678 275.064 114.922C275.515 116.528 275.08 118.295 275.599 119.881C276.6 122.942 279.312 120.492 281.24 121.567C284.577 123.429 281.412 126.51 280.02 128.558C277.679 132 278.153 136.909 280.641 140.248C283.129 143.585 287.303 145.414 291.459 145.665C296.324 145.958 301.485 144.036 304.268 140.034C307.05 136.031 306.799 129.927 303.118 126.732Z" fill="#1B2BB5"/>
<path fill-rule="evenodd" clip-rule="evenodd" d="M310.404 316.675L334.544 307.094L334.084 312.178L311.173 321.243L310.404 316.675Z" fill="#F9CA85"/>
<path fill-rule="evenodd" clip-rule="evenodd" d="M184.982 134.29L180.364 131.311L178.215 123.686L173.718 126.171V133.023L176.942 137.555L184.982 134.29Z" fill="#FFE1B5"/>
<path fill-rule="evenodd" clip-rule="evenodd" d="M237.464 133.023L233.839 122.449L232.177 123.122L232.932 130.154L226.89 133.023L229.005 136.002L237.464 133.023Z" fill="#FFE1B5"/>
<path fill-rule="evenodd" clip-rule="evenodd" d="M359.52 277.737L370.562 274.917L353.477 270.083L347.776 283.995C350.681 285.352 354.451 286.813 357.569 287.701C358.266 284.172 359.52 277.737 359.52 277.737Z" fill="#282A64"/>
<path fill-rule="evenodd" clip-rule="evenodd" d="M257.806 177.42L270.394 174.212L258.557 184.685L257.806 177.42Z" fill="#EBBD02"/>
<path fill-rule="evenodd" clip-rule="evenodd" d="M83.9886 228.401H239.277C244.616 228.401 248.945 232.729 248.945 238.068V299.7C248.945 305.04 244.616 309.368 239.277 309.368H83.9886C78.6492 309.368 74.3208 305.04 74.3208 299.7V238.068C74.3208 232.729 78.6492 228.401 83.9886 228.401Z" fill="#F4F5F9"/>
<path fill-rule="evenodd" clip-rule="evenodd" d="M91.2394 240.485H211.482C214.152 240.485 216.316 242.65 216.316 245.319C216.316 247.989 214.152 250.153 211.482 250.153H91.2394C88.5697 250.153 86.4055 247.989 86.4055 245.319C86.4055 242.65 88.5697 240.485 91.2394 240.485Z" fill="#CFD0E0"/>
<path fill-rule="evenodd" clip-rule="evenodd" d="M91.2394 254.987H194.563C197.233 254.987 199.397 257.151 199.397 259.821C199.397 262.491 197.233 264.655 194.563 264.655H91.2394C88.5697 264.655 86.4055 262.491 86.4055 259.821C86.4055 257.151 88.5697 254.987 91.2394 254.987Z" fill="#CFD0E0"/>
<path fill-rule="evenodd" clip-rule="evenodd" d="M93.0521 274.927H154.684C157.354 274.927 159.518 277.091 159.518 279.76V291.845C159.518 294.515 157.354 296.679 154.684 296.679H93.0521C90.3825 296.679 88.2183 294.515 88.2183 291.845V279.76C88.2183 277.091 90.3825 274.927 93.0521 274.927Z" fill="#CFD0E0"/>
<path fill-rule="evenodd" clip-rule="evenodd" d="M169.79 274.927H231.422C234.091 274.927 236.255 277.091 236.255 279.76V291.845C236.255 294.515 234.091 296.679 231.422 296.679H169.79C167.12 296.679 164.956 294.515 164.956 291.845V279.76C164.956 277.091 167.12 274.927 169.79 274.927Z" fill="#F9CB0D"/>
<path fill-rule="evenodd" clip-rule="evenodd" d="M35.225 418.519L31.2177 431.812L39.8794 436.948H23.2629L27.4316 417.008L35.225 418.519Z" fill="#282A64"/>
<path fill-rule="evenodd" clip-rule="evenodd" d="M85.4992 417.127V431.327L94.2606 437.067H77.9463V417.127H85.4992Z" fill="#282A64"/>
<path fill-rule="evenodd" clip-rule="evenodd" d="M69.789 282.685C69.789 282.685 92.8254 343.906 92.5233 350.553C92.2212 357.199 87.916 421.055 87.916 421.055H76.7377L68.3539 355.991L56.1937 331.93C56.1937 331.93 56.798 347.036 53.4747 357.61C50.1514 368.184 36.8582 421.055 36.8582 421.055H23.565L31.7222 347.942C31.7222 347.942 3.15159 297.295 8.37338 272.316L69.789 282.685Z" fill="#1B2BB5"/>
<path fill-rule="evenodd" clip-rule="evenodd" d="M169.941 178.606C169.941 178.606 170.983 183.25 167.441 186.064C163.899 188.878 159.669 192.967 159.669 192.967L156.497 191.144L129.608 195.673L124.321 176.189L144.261 172.714L161.18 171.204L169.941 178.606Z" fill="#FFE1B5"/>
<path fill-rule="evenodd" clip-rule="evenodd" d="M156.497 191.144C156.497 191.144 150.454 189.784 152.267 185.403C154.08 181.023 162.674 174.98 166.685 179.965C170.696 184.95 172.056 187.669 175.832 186.31C179.609 184.95 178.551 180.569 175.077 176.642C171.603 172.714 172.056 168.183 166.013 169.391C166.013 169.391 165.107 165.615 159.065 167.125C153.022 168.636 140.333 173.017 140.333 173.017L141.693 178.304L145.167 177.246C145.167 177.246 145.923 171.808 149.397 172.865C152.871 173.923 149.397 179.21 147.131 180.569C144.865 181.929 133.234 188.722 133.234 195.069C133.234 201.416 137.098 204.352 141.089 205.192C149.699 207.005 153.576 193.519 156.497 191.144Z" fill="#16174A"/>
<path fill-rule="evenodd" clip-rule="evenodd" d="M156.497 191.144C156.497 191.144 151.059 188.123 145.167 193.259C145.167 193.259 153.023 199.905 156.497 191.144Z" fill="#0D0E2D"/>
<path fill-rule="evenodd" clip-rule="evenodd" d="M146.526 178.606C146.47 178.606 146.412 178.589 146.361 178.556C146.221 178.464 146.183 178.277 146.274 178.137C147.03 176.988 147.629 175.742 148.052 174.434C148.103 174.276 148.273 174.189 148.432 174.239C148.591 174.291 148.678 174.461 148.627 174.62C148.187 175.98 147.565 177.275 146.779 178.47C146.721 178.558 146.625 178.606 146.526 178.606Z" fill="#F9CA85"/>
<path fill-rule="evenodd" clip-rule="evenodd" d="M162.842 185.403C162.842 184.861 162.403 184.421 161.86 184.421C161.317 184.421 160.877 184.861 160.877 185.403C160.877 185.946 161.317 186.386 161.86 186.386C162.403 186.386 162.842 185.946 162.842 185.403Z" fill="#3A3B39"/>
<path fill-rule="evenodd" clip-rule="evenodd" d="M164.956 185.252C164.724 185.252 164.503 185.118 164.403 184.892C163.967 183.904 163.091 183.123 162.06 182.804C161.741 182.705 161.563 182.366 161.661 182.048C161.76 181.729 162.098 181.549 162.417 181.649C163.778 182.071 164.933 183.101 165.509 184.404C165.643 184.709 165.505 185.066 165.2 185.201C165.12 185.236 165.038 185.252 164.956 185.252Z" fill="#0D0E2D"/>
<path fill-rule="evenodd" clip-rule="evenodd" d="M133.234 267.579C133.234 267.579 135.651 177.548 122.66 171.204C109.669 164.859 69.1849 161.838 35.952 197.186C2.71906 232.533 0 270.902 0 270.902L69.7891 282.685L102.72 232.836C102.72 232.836 113.445 272.715 121.753 280.57C130.061 288.425 153.173 308.365 153.173 308.365L160.877 302.02L133.234 267.579Z" fill="#1DC8CC"/>
<path fill-rule="evenodd" clip-rule="evenodd" d="M102.72 232.836L97.2817 210.479L100.001 236.952L102.72 232.836Z" fill="#12B5B9"/>
<path fill-rule="evenodd" clip-rule="evenodd" d="M160.878 302.021L168.977 308.365L168.128 309.12L163.748 308.365L167.441 311.084L166.618 312.595L157.705 313.803L153.174 308.365L160.878 302.021Z" fill="#FFE1B5"/>
<path fill-rule="evenodd" clip-rule="evenodd" d="M183.989 226.338H193.808L195.621 233.891H187.464L185.737 229.503L183.536 232.833H181.723L183.989 226.338Z" fill="#FFE1B5"/>
<path fill-rule="evenodd" clip-rule="evenodd" d="M56.1937 331.93L32.9307 298.093L56.1937 337.918V331.93Z" fill="#0616A4"/>
<path fill-rule="evenodd" clip-rule="evenodd" d="M32.9309 298.093L19.6377 295.072L35.2251 302.021L32.9309 298.093Z" fill="#0616A4"/>
<path fill-rule="evenodd" clip-rule="evenodd" d="M69.789 282.685L8.37341 272.316C8.03685 273.927 7.84289 275.646 7.77039 277.449L69.789 282.685Z" fill="#0616A4"/>
</g>
<defs>
<clipPath id="clip0">
<rect width="371" height="437.466" fill="white"/>
</clipPath>
</defs>
</svg>
