<svg width="317" height="443" viewBox="0 0 317 443" fill="none" xmlns="http://www.w3.org/2000/svg">
<path fill-rule="evenodd" clip-rule="evenodd" d="M215.69 415.684C212.652 417.933 203.402 419.568 192.462 419.568C191.37 419.568 190.295 419.552 189.242 419.521L187.118 421.012C190.054 420.431 193.411 421.412 195.045 423.977C197.778 428.266 194.918 434.788 189.981 436.039C185.023 437.296 179.451 433.106 179.299 428.006C179.178 423.934 182.538 420.237 186.455 419.399C177.214 418.867 170.09 417.138 168.507 414.984C166.644 415.006 163.228 415.138 161.486 415.785C159.018 416.704 157.502 418.742 158.324 421.239C158.815 422.728 160.159 423.793 160.768 425.237C162.224 428.691 158.113 432.69 154.465 431.798C150.817 430.906 148.809 426.495 149.731 422.863C150.652 419.231 153.827 416.506 157.32 415.131C160.814 413.755 164.636 413.514 168.385 413.288L168.409 413.316C169.917 410.855 178.636 408.916 189.586 408.624L189.022 335.339L193.703 335.302L194.267 408.601C205.81 408.792 215.11 410.809 216.552 413.379C218.768 413.422 221.01 413.774 223.221 414.126C226.341 414.622 229.393 416.091 231.48 418.407C231.48 418.407 232.651 419.882 233.05 420.66C234.912 424.288 234.196 429.282 230.898 431.688C227.6 434.095 222.029 432.77 220.756 428.897C219.829 426.077 221.29 422.871 223.649 421.064C224.849 420.145 226.234 419.539 227.693 419.14C225.158 416.296 220.744 415.62 215.69 415.684ZM222.685 320.279L222.521 315.596C243.33 314.86 248.573 257.387 248.837 235.305L253.518 235.361C253.515 235.567 253.228 256.201 249.543 276.685C244.419 305.163 235.383 319.83 222.685 320.279Z" fill="#0D0E2D"/>
<path fill-rule="evenodd" clip-rule="evenodd" d="M242.529 188.216C242.529 188.216 285.983 186.239 292.002 214.465C296.229 234.288 276.762 254.188 232.742 248.334L242.529 188.216Z" fill="#3F4065"/>
<path fill-rule="evenodd" clip-rule="evenodd" d="M216.746 305.852C216.746 305.852 258.9 313.725 242.53 329.499C226.16 345.274 118.059 343.545 129.98 311.899C141.901 280.254 216.746 305.852 216.746 305.852Z" fill="#3F4065"/>
<path fill-rule="evenodd" clip-rule="evenodd" d="M242.529 320.743C227.861 334.878 139.557 334.954 129.932 312.05C118.415 343.548 226.186 345.249 242.529 329.499C247.094 325.101 247.105 321.317 244.752 318.146C244.182 318.988 243.454 319.851 242.529 320.743Z" fill="#2F3054"/>
<path fill-rule="evenodd" clip-rule="evenodd" d="M187.269 91.5511C207.805 102.972 232.043 80.9909 233.249 57.4462C224.575 59.7525 219.138 61.0311 219.138 61.0311L214.391 35.1863L202.09 38.9344L191.967 61.9097C186.614 61.6832 180.091 60.7358 172.979 59.3355C172.118 72.4699 175.066 84.5703 187.269 91.5511Z" fill="#FFE1B5"/>
<path fill-rule="evenodd" clip-rule="evenodd" d="M295.215 114.961C295.215 114.961 272.723 57.3891 242.534 54.9148C241.499 69.9807 236.647 84.4663 224.719 93.894C205.214 109.514 175.568 105.609 167.766 82.1787C165.412 74.1014 164.077 65.7335 163.938 57.3891C155.685 55.4834 144.4 59.2098 134.956 67.0921C126.521 74.1316 123.006 82.1787 111.76 111.441C121.601 119.184 133.55 126.928 133.55 126.928L106.359 250.819L232.747 274.542L259.368 141.007C259.368 141.007 262.882 143.822 266.397 147.342C276.237 134.671 295.215 114.961 295.215 114.961Z" fill="#F9CB0D"/>
<path fill-rule="evenodd" clip-rule="evenodd" d="M224.716 93.894C236.645 84.4663 241.496 69.9807 242.532 54.9148C239.152 55.8591 236.031 56.7065 233.247 57.4461C232.042 80.9908 207.803 102.972 187.267 91.551C175.064 84.5702 172.116 72.4698 172.977 59.3354C170.053 58.7606 167.023 58.1022 163.936 57.3891C164.074 65.7343 165.41 74.1014 167.763 82.1787C175.565 105.609 205.211 109.514 224.716 93.894Z" fill="#FFFFFE"/>
<path fill-rule="evenodd" clip-rule="evenodd" d="M188.43 48.5152C188.43 48.5152 179.662 16.1598 188.43 13.8636C197.197 11.5666 210.035 10.9379 210.035 10.9379L211.46 27.8493C211.46 27.8493 216.479 21.6613 218.612 23.6467C221.334 26.1795 212.557 36.0079 212.557 36.0079L209.924 51.2292L188.43 48.5152Z" fill="#FFE1B5"/>
<path fill-rule="evenodd" clip-rule="evenodd" d="M212.03 32.1566C211.96 32.1566 211.888 32.1379 211.824 32.0981C211.642 31.984 211.586 31.7427 211.7 31.5599C212.957 29.5363 214.577 27.7704 216.513 26.3107C216.686 26.1803 216.931 26.2154 217.059 26.388C217.189 26.5598 217.155 26.8043 216.982 26.9339C215.123 28.3359 213.569 30.0307 212.362 31.9723C212.288 32.0918 212.161 32.1566 212.03 32.1566Z" fill="#F9CA85"/>
<path fill-rule="evenodd" clip-rule="evenodd" d="M201.426 43.6041C193.558 42.8246 186.194 47.4647 183.876 54.661C182.24 59.7384 181.483 66.499 186.709 70.6423C195.925 77.9487 212.031 72.5207 215.41 55.3577C217.549 44.4929 212.031 9.68822 207.073 7.60055C201.65 5.31841 195.882 10.9379 195.443 6.55712C195.214 4.27028 194.392 -0.331502 189.519 0.498724C186.182 1.06731 180.522 8.22694 186.886 14.6985C194.096 22.0315 204.477 16.5956 204.477 16.5956C204.477 16.5956 211.68 41.8351 207.292 43.5049C205.681 44.118 203.715 43.8322 201.426 43.6041Z" fill="#F9CB0D"/>
<path fill-rule="evenodd" clip-rule="evenodd" d="M197.418 45.1747L192.591 46.2182C191.729 41.9694 190.328 36.8256 192.591 35.3643C194.852 33.903 197.418 39.1218 197.418 45.1747Z" fill="#F9CA85"/>
<path fill-rule="evenodd" clip-rule="evenodd" d="M201.825 31.5982C201.825 30.7867 201.133 30.1283 200.279 30.1283C199.426 30.1283 198.734 30.7867 198.734 31.5982C198.734 32.4105 199.426 33.0681 200.279 33.0681C201.133 33.0681 201.825 32.4105 201.825 31.5982Z" fill="#0D0E2D"/>
<path fill-rule="evenodd" clip-rule="evenodd" d="M188.43 34.538C188.43 33.7265 187.738 33.0681 186.885 33.0681C186.032 33.0681 185.34 33.7265 185.34 34.538C185.34 35.3495 186.032 36.0079 186.885 36.0079C187.738 36.0079 188.43 35.3495 188.43 34.538Z" fill="#0D0E2D"/>
<path fill-rule="evenodd" clip-rule="evenodd" d="M197.514 27.1292L196.752 26.9605C196.97 25.9725 197.846 25.1539 198.881 24.9688C199.912 24.7853 201.032 25.2422 201.609 26.0802L200.966 26.5239C200.563 25.9397 199.745 25.6093 199.018 25.7381C198.296 25.867 197.664 26.452 197.514 27.1292Z" fill="#0D0E2D"/>
<path fill-rule="evenodd" clip-rule="evenodd" d="M185.62 28.9677L184.85 28.8474C184.973 28.0531 185.663 27.3892 186.49 27.2705C187.317 27.1526 188.172 27.5884 188.534 28.3069L187.838 28.6592C187.625 28.2374 187.092 27.9734 186.601 28.0437C186.113 28.114 185.691 28.5108 185.62 28.9677Z" fill="#0D0E2D"/>
<path fill-rule="evenodd" clip-rule="evenodd" d="M191.967 53.2146C192.462 54.6447 192.656 54.5228 193.544 55.4163C195.159 57.0424 200.264 56.3124 202.09 51.1183C198.715 50.2491 195.341 51.2886 191.967 53.2146Z" fill="white"/>
<path fill-rule="evenodd" clip-rule="evenodd" d="M202.244 49.1642L191.365 51.0004C191.506 51.7212 191.711 52.4765 191.966 53.2146C195.34 52.9545 198.714 51.9165 202.089 51.1183C202.189 50.4544 202.242 49.7937 202.244 49.1642Z" fill="#FFFFFE"/>
<path fill-rule="evenodd" clip-rule="evenodd" d="M219.137 61.031L220.871 69.1942L222.605 60.1859L219.137 61.031Z" fill="#F9CA85"/>
<path fill-rule="evenodd" clip-rule="evenodd" d="M133.548 126.928L136.359 112.145L124.41 120.592L133.548 126.928Z" fill="#EBBD02"/>
<path fill-rule="evenodd" clip-rule="evenodd" d="M259.367 141.007L248.121 129.039L255.15 162.125L259.367 141.007Z" fill="#EBBD02"/>
<path fill-rule="evenodd" clip-rule="evenodd" d="M128.519 254.979C128.519 254.979 9.52154 244.409 1.91174 268.392C-9.93674 305.735 65.5442 375.588 87.9258 406.34L101.091 400.189L55.4511 304.417L128.519 302.66V254.979Z" fill="#0616A4"/>
<path fill-rule="evenodd" clip-rule="evenodd" d="M24.293 412.49C24.293 412.49 64.2276 320.232 90.9977 282.45C117.767 244.668 124.789 245.547 148.048 251.258C171.306 256.969 232.745 274.542 232.745 274.542C232.745 274.542 224.406 331.216 187.983 325.944C151.559 320.672 123.911 309.688 123.911 309.688L38.3361 417.322L24.293 412.49Z" fill="#1B2BB5"/>
<path fill-rule="evenodd" clip-rule="evenodd" d="M24.2927 412.49L15.955 430.502L0.658203 435.774L20.3435 442.364L38.3358 417.322L24.2927 412.49Z" fill="#FFE1B5"/>
<path fill-rule="evenodd" clip-rule="evenodd" d="M87.9277 406.339L94.5108 417.322L87.9277 430.063L108.992 420.837L98.4601 401.419L87.9277 406.339Z" fill="#FFE1B5"/>
<path fill-rule="evenodd" clip-rule="evenodd" d="M123.912 309.689L132.031 299.804L129.983 311.9L123.912 309.689Z" fill="#0616A4"/>
<path fill-rule="evenodd" clip-rule="evenodd" d="M232.745 274.543L172.928 257.805L231.087 282.475L232.745 274.543Z" fill="#0616A4"/>
<path d="M86.4554 165.645C85.7525 152.974 111.759 111.441 111.759 111.441L133.549 126.928L131.44 136.783L111.759 169.164L130.034 209.993L117.382 220.553C117.382 220.553 87.1583 178.316 86.4554 165.645Z" fill="#FFE1B5"/>
<path fill-rule="evenodd" clip-rule="evenodd" d="M191.967 227.755H144.395L149.365 242.912L191.967 227.755Z" fill="#1DC8CC"/>
<path fill-rule="evenodd" clip-rule="evenodd" d="M73.6636 263.34L50.0837 202.094C49.6671 201.01 50.2686 199.804 51.3835 199.486L126.15 178.191C127.167 177.901 128.231 178.467 128.561 179.473L149.365 242.912L191.967 227.755C191.967 227.755 196.559 233.685 188.431 236.321C180.303 238.957 132.03 258.068 132.03 258.068L73.6636 263.34Z" fill="#B6EBEB"/>
<path fill-rule="evenodd" clip-rule="evenodd" d="M103.834 222.428C103.834 218.03 100.273 214.465 95.8804 214.465C91.4873 214.465 87.9258 218.03 87.9258 222.428C87.9258 226.826 91.4873 230.39 95.8804 230.39C100.273 230.39 103.834 226.826 103.834 222.428Z" fill="#1DC8CC"/>
<path d="M175.722 217.737L186.968 205.066L177.128 206.474L161.664 207.178V212.809L172.207 213.513L175.722 217.737Z" fill="#FFE1B5"/>
<path d="M266.395 146.638L295.213 114.961C301.539 122.939 310.958 145.934 314.894 165.645C318.831 185.355 313.254 193.568 309.974 195.211L208.055 216.329L184.859 229.704L177.127 238.151H170.801L175.019 231.112L165.178 236.039H151.12L149.012 231.112L166.584 214.217L189.077 204.362L283.967 176.204L266.395 146.638Z" fill="#FFE1B5"/>
</svg>
