<svg width="120" height="185" viewBox="0 0 120 185" fill="none" xmlns="http://www.w3.org/2000/svg">
<g id="illustration / institute / about2">
<path id="Path" d="M73.413 113.716C84.5075 38.8377 111.67 -0.447022 115.113 1.04062C119.977 3.18943 121.398 45.2291 112.708 88.6461C112.49 88.6461 112.326 88.591 112.107 88.591C109.593 88.591 107.571 90.6297 107.571 93.1642C107.571 93.9355 107.735 94.6518 108.063 95.2579C106.587 96.0292 105.549 97.572 105.549 99.3351C105.549 101.539 107.134 103.412 109.21 103.853C106.642 113.881 103.417 123.799 99.5916 133C97.6241 133 75.5445 133 75.5445 133C75.5445 133 71.7735 124.625 73.413 113.716Z" stroke="#1DC8CC" stroke-width="2"/>
<path id="Path_2" d="M9.14595 36.4305C15.9159 36.4305 23.1812 55.8698 31.2171 55.8698C32.9784 55.8698 34.1342 53.9479 34.1342 52.1357C34.1342 50.3785 28.5751 31.049 28.5751 21.6588C28.5751 20.8351 28.6302 19.9565 28.7403 19.0779C29.6209 19.627 30.7217 19.9565 31.8225 19.9565C35.1249 19.9565 37.8219 17.2658 37.8219 13.971C37.8219 11.0606 35.7854 8.6993 33.0334 8.09525C35.8404 4.52589 39.9685 1.99988 45.5826 1.99988C52.6827 1.99988 62.7001 8.31491 62.7001 18.0895C62.7001 20.8351 61.8745 27.8091 61.8745 34.1242C61.8745 69.9276 90 75.3091 90 114.957C90 123.303 85.3766 132.474 84.0006 134.725C84.0006 134.725 60.4434 135 58.1868 135C55.9301 135 37.6017 104.468 35.5102 101.228C27.5294 88.9276 1 75.419 1 46.0403C1 41.9218 2.48608 36.4305 9.14595 36.4305Z" fill="#1DC8CC"/>
<path id="Path_3" d="M59.6802 184L98.4377 183.561L112 134H47L59.6802 184Z" fill="#F9CB0D"/>
</g>
</svg>
