<?xml version="1.0" encoding="UTF-8"?>
<svg width="241px" height="435px" viewBox="0 0 241 435" version="1.1" xmlns="http://www.w3.org/2000/svg" xmlns:xlink="http://www.w3.org/1999/xlink">
    <!-- Generator: Sketch 63.1 (92452) - https://sketch.com -->
    <title>illustration / institute / about1</title>
    <desc>Created with Sketch.</desc>
    <g id="Page-1" stroke="none" stroke-width="1" fill="none" fill-rule="evenodd">
        <g id="04-01-07-1---Statna-sprava" transform="translate(-207.000000, -6833.000000)" fill-rule="nonzero">
            <g id="illustration-/-institute-/-about1" transform="translate(208.393543, 6833.000000)">
                <rect id="Rectangle" stroke="#0D0E2D" transform="translate(169.021457, 340.060000) scale(-1, 1) translate(-169.021457, -340.060000) " x="163.666457" y="331.94" width="10.71" height="16.24"></rect>
                <rect id="Rectangle" stroke="#0D0E2D" transform="translate(42.811457, 408.660000) scale(-1, 1) translate(-42.811457, -408.660000) " x="37.456457" y="400.54" width="10.71" height="16.24"></rect>
                <path d="M143.718267,183.275445 C143.945436,184.12618 144.168969,184.648245 144.379092,184.8 C146.470179,186.309219 152.004592,187.185509 159.051044,187.585924 L165.449092,191.31 C165.449092,191.31 186.449092,225.96 167.269092,241.5 C148.089092,256.97 110.989092,264.95 102.169092,266 L102.169092,266 L81.9390919,336.49 L69.4790919,334.11 C69.4790919,334.11 68.0090919,258.44 73.0490919,248.78 C77.5346919,240.1826 123.82733,193.714899 143.086783,183.596033 Z" id="Combined-Shape" fill="#F9CB0D" transform="translate(122.312774, 259.882214) scale(-1, 1) translate(-122.312774, -259.882214) "></path>
                <path d="M124.87371,94.99 C126.69371,94.99 132.01371,103.88 134.53371,105 C137.05371,106.12 170.58371,123.76 173.80371,125.3 C174.85371,123.48 187.59371,109.27 193.96371,103.6 C194.049523,103.523721 194.177872,103.485756 194.342562,103.481261 C197.098573,108.246026 204.029762,113.910206 210.076457,117.508874 L209.712239,117.290643 C209.178344,121.920184 208.786338,126.585473 208.512304,131.18464 C208.372343,131.278416 208.235821,131.370505 208.10371,131.46 C208.10371,133.14 185.21371,148.68 180.03371,148.68 C166.73371,148.68 128.44371,113.26 126.62371,112.28 C124.80371,111.3 101.28371,106.47 101.28371,102.83 C101.28371,101.43 122.28371,103.04 124.66371,103.39 C123.96371,102.62 122.84371,100.8 122.84371,98.42 C122.84371,97.02 123.82371,94.99 124.87371,94.99 Z" id="Combined-Shape" stroke="#0D0E2D" transform="translate(155.680083, 121.835000) scale(-1, 1) translate(-155.680083, -121.835000) "></path>
                <path d="M75.6682744,99.54 C77.0682744,88.2 103.178274,62.44 115.148274,73.92 C125.578274,83.93 106.678274,119.7 101.848274,121.1 C96.3882744,121.66 75.3182744,107.24 75.6682744,99.54 Z" id="Path" stroke="#0D0E2D" transform="translate(96.952366, 96.076692) scale(-1, 1) translate(-96.952366, -96.076692) "></path>
                <path d="M90.9616992,183.320007 C85.8368988,194.006876 81.2996964,203.783743 80.5788893,205.1 C80.5788893,206.78 85.6188893,212.31 87.4388893,214.13 C88.0158059,214.13 89.7576247,212.489365 92.196606,209.802012 L88.2088893,400.47 L76.9388893,400.47 L32.9788893,186.62 C51.3623375,189.593793 77.315441,186.9556 90.5504437,183.430831 Z" id="Combined-Shape" fill="#F9CB0D" transform="translate(62.587673, 291.895004) scale(-1, 1) translate(-62.587673, -291.895004) "></path>
                <polygon id="Path" stroke="#0D0E2D" transform="translate(52.226457, 422.590000) scale(-1, 1) translate(-52.226457, -422.590000) " points="56.286457 416.78 66.996457 416.78 66.996457 428.4 37.456457 428.4"></polygon>
                <polygon id="Path" stroke="#0D0E2D" transform="translate(178.436457, 353.990000) scale(-1, 1) translate(-178.436457, -353.990000) " points="182.496457 348.18 193.206457 348.18 193.206457 359.8 163.666457 359.8"></polygon>
                <rect id="Rectangle" fill="#0D0E2D" transform="translate(174.971457, 397.110000) scale(-1, 1) translate(-174.971457, -397.110000) " x="111.236457" y="359.8" width="127.47" height="74.62"></rect>
                <path d="M72.0146836,59.9882073 C84.9258337,61.7420968 93.9074083,68.0211907 99.7859242,75.015433 C97.773312,74.7155985 95.7483201,74.979494 93.7606493,75.95 C80.8106493,82.32 87.8806493,122.15 92.0806493,124.95 C93.0348148,125.360821 94.6864562,125.430431 96.750584,125.222953 C97.3996219,127.319062 100.210007,132.349208 103.371532,137.62376 C101.18227,153.338577 99.1810611,169.986146 99.1388143,181.206157 C98.6656953,182.189474 98.1948082,183.170401 97.7295192,184.142111 C88.7034163,187.621388 39.3942427,190.071289 32.0906493,184.8 C30.12258,183.378617 26.9780244,149.47103 30.6891789,117.290643 C34.7255691,119.733187 38.4146866,121.291381 40.2806493,121.1 C45.1106493,119.7 64.0106493,83.93 53.5806493,73.92 C51.0847559,71.5262777 47.9740918,70.7516545 44.6008548,71.1278025 C47.6641862,66.7493364 51.2874915,63.3970815 55.55657,61.441244 C55.6164705,62.6965465 55.7443849,63.8346029 55.9606493,64.68 C56.0306493,64.82 69.9606493,65.87 71.5006493,63.42 C71.5162538,62.9674672 71.6953532,61.7183321 72.0146836,59.9882073 Z" id="Combined-Shape" stroke="#0D0E2D" transform="translate(66.168553, 123.919969) scale(-1, 1) translate(-66.168553, -123.919969) "></path>
                <path d="M35.839735,112.351003 C45.15,126.63 44.59,159.53 44.59,164.5 C44.59,169.47 9.87,214.13 6.86,214.13 C5.04,212.31 -1.38555833e-13,206.78 -1.38555833e-13,205.1 C1.61,202.16 22.26,157.01 25.97,153.79 C24.3496101,151.832029 10.5516648,130.207631 9.00925129,125.220983 C17.8483488,124.334522 34.2492464,118.365902 35.839735,112.351003 Z" id="Combined-Shape" stroke="#0D0E2D" transform="translate(22.298229, 163.240501) scale(-1, 1) translate(-22.298229, -163.240501) "></path>
                <path d="M45.8201009,112.35 C47.9201009,101.15 30.9101009,68.67 16.0001009,75.95 C3.05010094,82.32 10.1201009,122.15 14.3201009,124.95 C19.3601009,127.12 43.8601009,119.77 45.8201009,112.35 Z" id="Path" stroke="#0D0E2D" transform="translate(27.288279, 100.116991) scale(-1, 1) translate(-27.288279, -100.116991) "></path>
                <path d="M59.352596,17.08 L59.555869,17.1924012 C64.4165634,19.8154156 77.412596,22.4719718 77.412596,27.51 C77.412596,30.52 75.732596,31.01 75.732596,33.32 C75.732596,34.3 76.712596,35.21 77.412596,35.21 C78.882596,35.21 79.232596,35 79.232596,34.02 C79.232596,32.8763107 80.7579898,34.5715488 81.3692712,36.2376462 L83.502596,35.35 C83.502596,35.35 84.412596,37.1 83.992596,37.73 C79.442596,43.33 76.082596,61.39 76.012596,63.42 C74.472596,65.87 60.542596,64.82 60.472596,64.68 C59.702596,61.67 60.052596,54.95 60.752596,52.78 L60.73509,52.8404455 C55.2159533,50.7382885 51.7894255,44.8786509 52.982596,38.85 L52.982596,38.85 L55.992596,23.38 C56.482596,20.93 57.672596,18.76 59.352596,17.08 L59.352596,17.08 Z" id="Combined-Shape" stroke="#0D0E2D" transform="translate(68.424526, 41.051443) scale(-1, 1) translate(-68.424526, -41.051443) "></path>
                <path d="M59.506457,-8.56203997e-13 C63.496457,-8.56203997e-13 65.456457,4.27 68.326457,4.27 C70.846457,4.27 73.086457,2.03 75.466457,2.03 C78.966457,2.03 81.066457,6.51 83.376457,6.51 C85.476457,6.51 86.246457,4.76 88.346457,4.76 C92.056457,4.76 93.246457,8.68 93.246457,9.87 C93.246457,12.25 92.476457,12.32 92.476457,15.19 C92.476457,18.2 98.636457,21.42 98.636457,27.72 C98.636457,36.47 92.476457,38.92 89.816457,38.92 C89.0439487,38.92 88.2124419,38.6545071 87.4368362,38.0852214 C87.5594326,37.9096918 87.683901,37.7450183 87.8098534,37.59 C88.2298534,36.96 87.8098534,36.12 87.8098534,36.12 L87.8098534,36.12 L85.831457,36.859 L85.5839436,36.8404389 C85.2504721,35.5415555 84.3906897,34.5349867 83.8617778,35.2749748 L83.8050027,35.3634406 C83.3593457,36.1334406 83.017058,36.12 81.547058,36.12 C80.847058,36.12 79.6343161,34.4325327 79.6343161,33.2087893 C79.6343161,30.8987893 81.3547013,30.73 81.3547013,27.72 C81.3547013,22.6851471 69.4146912,20.6271897 64.5773983,18.023386 L64.5773983,18.023386 L64.4065759,17.9284431 L64.3516309,17.9839917 C63.0537074,19.3082175 62.0034939,20.6140089 61.4193804,22.3567038 C60.7858863,22.2191673 59.4193727,22.54 58.456457,22.54 C55.376457,22.54 53.416457,17.01 49.916457,17.01 C43.966457,17.01 42.776457,12.32 42.776457,9.45 C42.776457,5.39 46.626457,3.15 47.886457,3.15 C49.916457,3.15 50.266457,3.71 52.296457,3.71 C53.906457,3.71 55.376457,-8.56203997e-13 59.506457,-8.56203997e-13 Z" id="Combined-Shape" fill="#F9CB0D" transform="translate(70.706457, 19.460000) scale(-1, 1) translate(-70.706457, -19.460000) "></path>
            </g>
        </g>
    </g>
</svg>