<svg width="415" height="343" viewBox="0 0 415 343" fill="none" xmlns="http://www.w3.org/2000/svg">
<path fill-rule="evenodd" clip-rule="evenodd" d="M182.301 189.27C182.301 189.27 167.888 202.07 163.246 217.719C158.604 233.367 195.702 316.36 195.702 316.36L204.11 313.333L190.585 222.692L232.046 210.679L230.999 312.077H240.752L257.519 220.468L304.255 221.993L298.912 180.333L182.301 189.27Z" fill="#3F4065"/>
<path fill-rule="evenodd" clip-rule="evenodd" d="M317.603 180.314C317.603 180.314 315.266 84.5463 293.569 74.5357C285.341 70.7397 277.681 67.8847 271.335 65.8005C269.41 76.5005 224.419 77.5322 225.522 65.1992C218.244 68.4994 210.143 74.3876 205.443 84.88C195.429 107.237 180.073 146.565 180.073 146.565L159.711 88.8842L150.364 93.8895C150.364 93.8895 162.159 180.319 182.299 180.319C202.439 180.319 216.459 154.755 216.459 154.755V180.314H317.603Z" fill="#F9CB0D"/>
<path fill-rule="evenodd" clip-rule="evenodd" d="M249.505 86.5478C262.135 85.5374 269.409 76.4998 271.334 65.7999C269.181 65.0931 267.179 64.4745 265.359 63.9386C263.949 68.2064 231.006 67.2814 230.704 63.1931C229.07 63.723 227.32 64.383 225.52 65.1986C224.418 77.5316 237.237 86.5478 249.505 86.5478Z" fill="#FFFFFE"/>
<path fill-rule="evenodd" clip-rule="evenodd" d="M290.903 118.782L294.241 173.19H301.251L290.903 118.782Z" fill="#EBBD02"/>
<path fill-rule="evenodd" clip-rule="evenodd" d="M262.462 63.1108C258.69 62.065 255.947 58.8129 255.577 54.9168L254.151 39.8782L251.589 15.8068L238.823 14.6389C238.823 14.6389 231.479 15.0126 231.479 22.1669C231.479 29.3211 228.975 47.0685 232.814 49.0399C236.653 51.0107 237.224 50.8612 237.224 50.8612L238.583 61.3182C236.739 61.5972 233.948 62.1431 230.704 63.1942C230.226 85.383 264.882 86.1278 265.359 63.939C264.334 63.6373 263.366 63.3617 262.462 63.1108Z" fill="#FFE1B5"/>
<path fill-rule="evenodd" clip-rule="evenodd" d="M251.594 15.8068C252.196 10.4591 247.771 8.70663 242.166 7.79834C242.166 7.79834 241.165 2.29252 237.668 0.624091C234.172 -1.04434 226.811 0.123562 228.515 10.4678C230.219 20.8121 251.594 15.8068 251.594 15.8068C251.594 15.8068 246.172 16.1405 246.84 24.4826C247.507 32.8248 247.841 36.7196 247.841 36.7196L251.672 41.3972H254.517C256.257 29.5366 258.47 17.0948 251.594 15.8068Z" fill="#1B2BB5"/>
<path fill-rule="evenodd" clip-rule="evenodd" d="M247.697 36.8842C247.697 36.8842 252.231 31.9409 253.793 34.1346C255.355 36.3282 250.216 41.0185 250.216 41.0185" fill="#FFE1B5"/>
<path fill-rule="evenodd" clip-rule="evenodd" d="M233.371 40.0635H237.711C237.711 40.0635 238.211 31.3055 236.542 30.9064C234.873 30.5074 233.371 40.0635 233.371 40.0635Z" fill="#F9CA85"/>
<path fill-rule="evenodd" clip-rule="evenodd" d="M248.476 39.4603C248.38 39.4603 248.285 39.4196 248.219 39.3401C248.101 39.1987 248.12 38.9884 248.261 38.8703L252.444 35.3786C252.586 35.2612 252.796 35.2799 252.914 35.4213C253.032 35.5628 253.013 35.773 252.871 35.8912L248.689 39.3829C248.627 39.4349 248.551 39.4603 248.476 39.4603Z" fill="#F9CA85"/>
<path fill-rule="evenodd" clip-rule="evenodd" d="M243.62 30.709C243.62 29.9675 243.019 29.3662 242.277 29.3662C241.535 29.3662 240.934 29.9675 240.934 30.709C240.934 31.4504 241.535 32.0517 242.277 32.0517C243.019 32.0517 243.62 31.4504 243.62 30.709Z" fill="#0D0E2D"/>
<path fill-rule="evenodd" clip-rule="evenodd" d="M233.37 30.5544C233.37 29.813 232.769 29.2117 232.027 29.2117C231.285 29.2117 230.684 29.813 230.684 30.5544C230.684 31.2959 231.285 31.8972 232.027 31.8972C232.769 31.8972 233.37 31.2959 233.37 30.5544Z" fill="#0D0E2D"/>
<path fill-rule="evenodd" clip-rule="evenodd" d="M230.684 27.2484C230.6 27.2484 230.515 27.227 230.436 27.183C230.197 27.0462 230.113 26.7405 230.25 26.5003C230.684 25.7375 231.41 25.2363 232.242 25.1255C233.015 25.0234 233.77 25.2803 234.318 25.8316C234.513 26.0271 234.512 26.3448 234.316 26.5396C234.12 26.7338 233.803 26.7332 233.608 26.5376C233.277 26.2053 232.838 26.0558 232.374 26.1179C231.855 26.1873 231.398 26.5069 231.119 26.9955C231.027 27.1576 230.858 27.2484 230.684 27.2484Z" fill="#0D0E2D"/>
<path fill-rule="evenodd" clip-rule="evenodd" d="M244.671 27.1493C244.543 27.1493 244.415 27.1006 244.317 27.0025C243.275 25.9594 241.46 25.8199 240.271 26.6935C240.048 26.857 239.734 26.809 239.571 26.5861C239.407 26.3638 239.455 26.0502 239.678 25.8867C241.25 24.7328 243.649 24.9163 245.026 26.2951C245.221 26.4906 245.221 26.8076 245.025 27.0032C244.927 27.1006 244.799 27.1493 244.671 27.1493Z" fill="#0D0E2D"/>
<path fill-rule="evenodd" clip-rule="evenodd" d="M237.228 50.8613L243.619 51.845L237.427 53.5181L237.228 50.8613Z" fill="#F9CA85"/>
<path fill-rule="evenodd" clip-rule="evenodd" d="M238.592 61.3176L239.055 66.1934L236.506 61.6853L238.592 61.3176Z" fill="#F9CA85"/>
<path fill-rule="evenodd" clip-rule="evenodd" d="M180.075 146.565L186.751 158.847L183.413 138.095L180.075 146.565Z" fill="#EBBD02"/>
<path fill-rule="evenodd" clip-rule="evenodd" d="M159.731 89.0935L157.395 80.4223C157.395 80.4223 163.737 76.2499 163.236 75.0807C162.736 73.9108 154.947 77.915 154.947 77.915C154.947 77.915 149.216 65.0821 148.048 65.4085C146.88 65.7355 151.386 77.2483 151.386 77.2483C151.386 77.2483 142.707 67.7376 141.706 68.405C140.704 69.0723 147.714 78.5824 147.714 78.5824C147.714 78.5824 136.532 72.576 136.365 73.4103C136.198 74.2445 145.044 80.4223 145.044 80.4223C145.044 80.4223 135.697 77.915 135.53 79.0829C135.363 80.2508 146.88 85.2561 146.88 85.2561L150.385 94.0988L159.731 89.0935Z" fill="#FFE1B5"/>
<path fill-rule="evenodd" clip-rule="evenodd" d="M235.144 44.5299C234.671 44.5299 234.187 44.5092 233.69 44.4685C233.506 44.4531 233.369 44.2923 233.384 44.1087C233.4 43.9245 233.565 43.7931 233.745 43.8031C235.569 43.9552 237.205 43.8191 238.748 43.39C238.925 43.3419 239.109 43.4447 239.159 43.6222C239.208 43.7997 239.104 43.9833 238.927 44.0327C237.73 44.365 236.482 44.5299 235.144 44.5299Z" fill="#F9CA85"/>
<path fill-rule="evenodd" clip-rule="evenodd" d="M154.775 77.4104L155.089 77.9997L148.19 81.6702L147.876 81.0809L154.775 77.4104Z" fill="#F9CA85"/>
<path fill-rule="evenodd" clip-rule="evenodd" d="M195.707 316.36L199.44 325.061L192.43 330.652L206.227 326.927L204.113 313.333L195.707 316.36Z" fill="#282A64"/>
<path fill-rule="evenodd" clip-rule="evenodd" d="M230.999 312.076V321.781L225.473 325.91L237.859 325.061L240.752 312.076H230.999Z" fill="#282A64"/>
<path fill-rule="evenodd" clip-rule="evenodd" d="M15.7191 175.309C15.7191 175.309 18.5652 243.409 45.8862 246.05L15.7191 175.309Z" fill="#282A64"/>
<path fill-rule="evenodd" clip-rule="evenodd" d="M61.5167 326.834L60.6693 329.753C61.7295 328.773 62.9185 328.731 63.8966 329.226C65.346 329.959 66.3334 331.867 65.7586 333.644C64.185 338.508 58.3653 335.731 57.7859 331.952C57.7276 331.572 58.0982 328.83 58.5675 326.922C56.4771 326.947 54.3866 326.89 52.2994 326.731C50.4741 326.591 48.4899 326.478 47.0432 325.401C46.0165 324.636 45.5063 323.909 45.4195 323.225L38.2626 324.981C39.9878 325.155 41.6668 326.402 41.9239 328.15C42.3084 330.762 39.3355 333.227 36.8393 332.367C34.3951 331.526 33.3536 328.203 34.5126 325.893C35.7951 323.337 44.2834 321.34 48.1725 320.135C48.7386 319.858 49.3775 319.595 50.0758 319.346L50.1109 319.279C50.1068 319.301 50.0957 319.322 50.0779 319.345C53.0379 318.29 57.0651 317.488 61.14 316.982V248.954H65.8133V316.532C69.6193 316.272 73.1063 316.301 75.369 316.658C77.8047 317.042 80.7209 318.279 81.4007 320.279C85.4655 321.496 93.3532 323.436 94.5857 325.893C95.7447 328.203 94.7032 331.526 92.2591 332.367C89.7628 333.227 86.7899 330.762 87.1745 328.15C87.4315 326.402 89.1106 325.155 90.8357 324.981L81.17 322.61C80.2461 324.258 77.8048 324.948 75.7355 325.272C71.0284 326.009 66.2764 326.61 61.5167 326.834Z" fill="#282A64"/>
<path fill-rule="evenodd" clip-rule="evenodd" d="M45.402 231.259C45.402 231.259 27.6333 252.724 57.1194 254.726C86.6062 256.728 115.981 231.259 115.981 231.259H45.402Z" fill="#3F4065"/>
<path fill-rule="evenodd" clip-rule="evenodd" d="M25.8956 124.779C16.9642 125.319 8.88602 130.796 4.52179 137.972C0.157558 145.147 -0.785789 153.782 0.579494 161.904C1.83462 169.37 5.09527 176.732 10.9256 182.062C16.7559 187.393 25.3722 190.42 33.4231 188.86L25.8956 124.779Z" fill="#3F4065"/>
<path fill-rule="evenodd" clip-rule="evenodd" d="M129.784 330.23L153.818 274.251L166.725 221.07H119.102L141.801 191.747C141.801 191.747 212.196 182.106 209.49 214.315C206.782 246.523 151.593 304.129 141.801 323.318L153.818 330.23H129.784Z" fill="#F9CA85"/>
<path fill-rule="evenodd" clip-rule="evenodd" d="M116.874 243.381L150.701 237.372L101.289 338.815H123.271L113.314 330.652C113.314 330.652 198.425 243.158 190.586 222.692C182.746 202.226 170.506 198.222 134.232 203.116L116.874 243.381Z" fill="#FFE1B5"/>
<path fill-rule="evenodd" clip-rule="evenodd" d="M40.8171 237.505C40.8171 237.505 62.5735 258.73 116.873 243.38L154.927 186.483H70.9321L40.8171 237.505Z" fill="#F9CB0D"/>
<path fill-rule="evenodd" clip-rule="evenodd" d="M103.304 114.244L110.648 148.613H166.728L166.37 156.567C166.37 156.567 94.4028 167.761 88.505 165.023C82.608 162.285 81.9403 117.712 79.9375 116.478C77.9346 115.245 103.304 114.244 103.304 114.244Z" fill="#FFE1B5"/>
<path fill-rule="evenodd" clip-rule="evenodd" d="M101.29 106.125L103.3 114.244L86.609 118.783L83.2709 110.908L101.29 106.125Z" fill="#FFFFFE"/>
<path fill-rule="evenodd" clip-rule="evenodd" d="M57.1246 69.7524C57.1246 69.7524 32.5342 72.1997 21.1846 114.911C9.83507 157.623 16.06 211.811 40.8207 237.505L78.5999 186.053H97.9609L90.6171 131.929C90.6171 131.929 97.2933 123.81 91.9523 109.016L101.292 106.124C101.292 106.124 97.9609 77.3158 86.9452 74.0904L57.1246 69.7524Z" fill="#1DC8CC"/>
<path fill-rule="evenodd" clip-rule="evenodd" d="M129.781 161.908L143.579 102.735L177.85 110.076L164.275 165.023L129.781 161.908Z" fill="#53546A"/>
<path fill-rule="evenodd" clip-rule="evenodd" d="M134.239 166.188L148.037 107.014L182.307 114.355L168.733 169.302L134.239 166.188Z" fill="#71728E"/>
<path fill-rule="evenodd" clip-rule="evenodd" d="M78.9365 21.4902C78.9365 21.4902 85.0479 26.8279 85.4992 35.3836C85.7222 39.598 88.5035 41.6122 88.5035 41.6122C88.5035 41.6122 88.3927 43.6143 86.6121 44.1702C86.6121 44.1702 88.1697 53.2912 86.056 54.07C83.9417 54.8481 80.3812 56.5166 80.3812 56.5166L80.0474 68.307L86.9459 74.0911C86.9459 74.0911 66.1382 84.8799 57.1254 69.7532C57.1254 69.7532 64.2469 66.8608 64.803 64.525C65.3598 62.1892 65.5821 55.1818 65.5821 55.1818L62.5778 45.0605C62.5778 45.0605 67.0288 28.0425 67.1397 28.3762C67.2512 28.7099 78.9365 21.4902 78.9365 21.4902Z" fill="#FFE1B5"/>
<path fill-rule="evenodd" clip-rule="evenodd" d="M57.1261 22.4806C57.1261 22.4806 53.0089 16.252 45.7766 18.1427C38.5442 20.0334 36.2076 26.5963 37.3198 35.4944C38.4328 44.3924 34.6494 61.4104 34.6494 61.4104L51.6737 59.5197L56.6808 36.0503L57.1261 22.4806Z" fill="#EBBD02"/>
<path fill-rule="evenodd" clip-rule="evenodd" d="M65.5791 55.1816C65.5791 55.1816 70.5862 51.511 69.5848 46.8394C69.5848 46.8394 62.9086 43.7248 65.5791 40.1657C68.2496 36.6066 72.2553 43.0574 72.2553 43.0574C72.2553 43.0574 74.7355 36.6453 77.0401 34.7153C81.1567 31.2676 82.6034 22.4804 76.4833 19.8109C70.3639 17.1414 53.3396 15.1393 50.4462 29.8214C47.5534 44.5036 63.5762 50.0648 65.5791 55.1816Z" fill="#F9CB0D"/>
<path fill-rule="evenodd" clip-rule="evenodd" d="M140.685 115.912L141.232 112.798L134.009 120.806L83.2697 154.595L68.5754 115.082L40.8171 126.833C47.55 143.339 63.6343 179.542 75.4806 180.319C90.8358 181.325 140.463 125.701 140.463 125.701L149.142 124.143L154.927 116.802L140.685 115.912Z" fill="#FFE1B5"/>
<path fill-rule="evenodd" clip-rule="evenodd" d="M65.2478 106.125L37.653 118.783C37.653 118.783 38.8267 121.943 40.8209 126.833L68.5792 115.082L65.2478 106.125Z" fill="#FFFFFE"/>
<path fill-rule="evenodd" clip-rule="evenodd" d="M83.2706 154.595L76.5944 158.847L81.8085 150.663L83.2706 154.595Z" fill="#F9CA85"/>
<path fill-rule="evenodd" clip-rule="evenodd" d="M166.724 159.959L167.837 150.185L175.403 148.613L173.845 159.959H166.724Z" fill="#FFE1B5"/>
<path fill-rule="evenodd" clip-rule="evenodd" d="M81.6361 38.0779C81.6361 37.2383 80.9551 36.5576 80.1153 36.5576C79.2754 36.5576 78.5944 37.2383 78.5944 38.0779C78.5944 38.9174 79.2754 39.5982 80.1153 39.5982C80.9551 39.5982 81.6361 38.9174 81.6361 38.0779Z" fill="#0D0E2D"/>
<path fill-rule="evenodd" clip-rule="evenodd" d="M77.7635 34.8264C77.6113 34.8264 77.4604 34.757 77.3623 34.6262C77.1967 34.4046 77.2415 34.0909 77.4631 33.9254C78.8451 32.8903 80.8553 32.885 82.2426 33.9147C82.4649 34.0796 82.511 34.3932 82.3461 34.6155C82.1818 34.8377 81.8681 34.8844 81.6451 34.7183C80.6236 33.9601 79.0834 33.9635 78.0633 34.7263C77.9732 34.7937 77.8683 34.8264 77.7635 34.8264Z" fill="#0D0E2D"/>
<path fill-rule="evenodd" clip-rule="evenodd" d="M70.931 45.3226C70.8528 45.3226 70.7741 45.2952 70.7106 45.2391L66.7937 41.8015C66.6555 41.68 66.6415 41.4691 66.7637 41.3303C66.8852 41.1922 67.0955 41.1788 67.2343 41.3003L71.1513 44.7386C71.2901 44.8601 71.3035 45.071 71.1813 45.2091C71.1159 45.2838 71.0238 45.3226 70.931 45.3226Z" fill="#F9CA85"/>
<path fill-rule="evenodd" clip-rule="evenodd" d="M109.653 321.644L101.289 338.814H123.271L113.313 330.652C113.313 330.652 116.623 327.249 121.863 321.644H109.653Z" fill="#282A64"/>
<path fill-rule="evenodd" clip-rule="evenodd" d="M137.036 313.333L129.781 330.229H153.816L141.798 323.318C143.151 320.667 145.373 317.281 148.2 313.333H137.036Z" fill="#282A64"/>
<path fill-rule="evenodd" clip-rule="evenodd" d="M85.9972 49.3242C85.0118 49.3242 84.0371 49.07 83.1425 48.5748C82.9802 48.4853 82.9222 48.2825 83.0109 48.121C83.1004 47.9601 83.3034 47.9014 83.4649 47.9908C84.4603 48.5414 85.5639 48.7563 86.6548 48.6141C86.8317 48.5888 87.0046 48.7189 87.0287 48.9018C87.0527 49.0846 86.9232 49.2522 86.7403 49.2755C86.4933 49.3082 86.2456 49.3242 85.9972 49.3242Z" fill="#F9CA85"/>
<path fill-rule="evenodd" clip-rule="evenodd" d="M343.984 30.6643C343.984 30.6643 339.122 29.449 333.854 35.1197C328.587 40.7904 325.75 44.6384 325.75 44.6384L328.384 47.8785L329.6 56.587L336.578 59.0176L338.109 71.1684L357.153 67.5233L354.519 52.739L355.33 38.3598L343.984 30.6643Z" fill="#FFE1B5"/>
<path fill-rule="evenodd" clip-rule="evenodd" d="M349.047 34.7144C349.047 34.7144 342.968 34.5122 340.943 39.7778C338.917 45.0433 333.042 53.3461 328.382 47.8783C328.382 47.8783 313.997 56.6449 316.023 64.7455C318.049 72.8467 325.225 75.3927 333.982 70.9501C342.738 66.508 346.21 46.0558 346.21 46.0558C346.21 46.0558 351.073 42.0055 352.693 45.2456C354.314 48.4857 347.628 51.7264 347.628 51.7264L347.831 57.3971L355.125 55.3716C355.125 55.3716 363.228 36.537 355.125 31.4743C347.02 26.411 345.4 20.9432 340.943 21.9556C336.485 22.968 332.839 31.4743 349.047 34.7144Z" fill="#16174A"/>
<path fill-rule="evenodd" clip-rule="evenodd" d="M327.576 47.4734C327.576 47.4734 333.333 49.7605 331.882 61.0424C331.882 61.0424 321.904 52.9412 327.576 47.4734Z" fill="#0D0E2D"/>
<path fill-rule="evenodd" clip-rule="evenodd" d="M337.504 39.8786C337.504 39.0397 336.824 38.3596 335.984 38.3596C335.145 38.3596 334.465 39.0397 334.465 39.8786C334.465 40.7174 335.145 41.3975 335.984 41.3975C336.824 41.3975 337.504 40.7174 337.504 39.8786Z" fill="#0D0E2D"/>
<path fill-rule="evenodd" clip-rule="evenodd" d="M346.565 49.3734C346.478 49.3734 346.391 49.3401 346.326 49.2727C346.197 49.1405 346.2 48.929 346.332 48.8008C347.509 47.6543 348.977 46.8494 350.577 46.4737C350.754 46.4317 350.936 46.5431 350.978 46.7226C351.021 46.9015 350.909 47.0817 350.729 47.1237C349.248 47.4714 347.888 48.2169 346.798 49.2787C346.732 49.3421 346.649 49.3734 346.565 49.3734Z" fill="#F9CA85"/>
<path fill-rule="evenodd" clip-rule="evenodd" d="M339.637 38.4612C339.374 38.4612 339.154 38.2577 339.137 37.9927C339.097 37.3721 338.714 36.7668 338.11 36.3743C337.506 35.9813 336.797 35.8751 336.213 36.0894C335.954 36.1855 335.667 36.052 335.57 35.7924C335.476 35.5328 335.608 35.2451 335.867 35.1497C336.747 34.8267 337.79 34.9709 338.657 35.5355C339.524 36.1 340.077 36.9943 340.137 37.9286C340.154 38.2049 339.945 38.4425 339.669 38.4605C339.658 38.4612 339.648 38.4612 339.637 38.4612Z" fill="#0D0E2D"/>
<path fill-rule="evenodd" clip-rule="evenodd" d="M335.211 326.834L334.364 329.754C335.424 328.773 336.613 328.732 337.591 329.226C339.041 329.959 340.028 331.868 339.453 333.644C337.88 338.508 332.06 335.731 331.48 331.952C331.422 331.573 331.793 328.831 332.262 326.922C330.172 326.948 328.082 326.891 325.995 326.731C324.169 326.592 322.185 326.479 320.738 325.401C319.712 324.636 319.202 323.91 319.115 323.226L311.958 324.981C313.683 325.155 315.362 326.403 315.619 328.15C316.004 330.762 313.031 333.227 310.535 332.368C308.09 331.526 307.049 328.203 308.208 325.893C309.49 323.337 317.979 321.34 321.868 320.135C322.434 319.858 323.073 319.595 323.771 319.346L323.806 319.28C323.802 319.301 323.791 319.323 323.773 319.345C326.993 318.197 331.477 317.349 335.911 316.856L338.45 243.953L341.096 244.417C341.202 244.436 352.284 246.232 364.643 239.979C381.065 231.671 392.399 212.877 397.423 185.631L402.019 186.477C395.292 222.968 378.986 238.051 366.492 244.279C356.431 249.293 347.288 249.549 342.94 249.293L340.6 316.465C343.976 316.281 347.02 316.336 349.064 316.658C351.5 317.042 354.416 318.279 355.096 320.28C359.161 321.497 367.048 323.437 368.28 325.893C369.439 328.203 368.398 331.526 365.954 332.368C363.458 333.227 360.485 330.762 360.869 328.15C361.126 326.403 362.805 325.155 364.53 324.981L354.865 322.611C353.941 324.259 351.5 324.948 349.431 325.272C344.723 326.009 339.971 326.61 335.211 326.834Z" fill="#282A64"/>
<path fill-rule="evenodd" clip-rule="evenodd" d="M370.202 151.245C375.626 147.987 382.16 146.128 387.921 145.77C396.207 145.256 405.05 148.252 409.972 154.934C415.559 162.519 414.67 174.696 411.349 183.062C402.479 205.405 362.819 193.321 359.059 172.496C357.331 162.924 362.705 155.749 370.202 151.245Z" fill="#3F4065"/>
<path fill-rule="evenodd" clip-rule="evenodd" d="M306.254 237.372C306.254 237.372 316.894 251.826 338.591 252.912C360.289 253.999 384.365 246.718 365.672 228.699C345.857 209.599 306.254 237.372 306.254 237.372Z" fill="#3F4065"/>
<path fill-rule="evenodd" clip-rule="evenodd" d="M193.896 133.957L212.898 180.32H309.481L294.237 173.192L271.092 171.853L253.656 132.696C252.592 130.308 250.191 128.798 247.576 128.875L196.221 130.38C194.409 130.433 193.208 132.28 193.896 133.957Z" fill="#53546A"/>
<path fill-rule="evenodd" clip-rule="evenodd" d="M215.531 171.852H266.644L249.627 133.879L199.797 135.023L215.531 171.852Z" fill="#FFFFFE"/>
<path fill-rule="evenodd" clip-rule="evenodd" d="M292.17 312.077L296.616 323.117L285.73 329.036L306.422 328.571L303.992 312.077H292.17Z" fill="#282A64"/>
<path fill-rule="evenodd" clip-rule="evenodd" d="M292.904 313.789C292.904 313.789 257.851 238.487 257.517 220.468C257.183 202.449 290.901 227.031 290.901 227.031L304.253 313.789H292.904Z" fill="#0616A4"/>
<path fill-rule="evenodd" clip-rule="evenodd" d="M365.673 228.698C365.673 228.698 335.63 262.734 235.487 220.023L260.189 318.126H248.84C248.84 318.126 197.433 229.366 212.121 202.004C226.808 174.641 312.709 191.787 312.709 191.787L365.673 228.698Z" fill="#1B2BB5"/>
<path fill-rule="evenodd" clip-rule="evenodd" d="M365.668 228.699L323.7 199.451L306.251 190.641C306.25 190.641 306.249 190.641 306.249 190.641L301.242 191.993L350.421 237.372C361.315 233.621 365.668 228.699 365.668 228.699Z" fill="#0616A4"/>
<path fill-rule="evenodd" clip-rule="evenodd" d="M86.6102 342.152H97.9598V186.63H86.6102V342.152Z" fill="#53546A"/>
<path fill-rule="evenodd" clip-rule="evenodd" d="M264.195 342.152H275.545V186.63H264.195V342.152Z" fill="#53546A"/>
<path fill-rule="evenodd" clip-rule="evenodd" d="M51.8906 191.788H321.609V180.319H51.8906V191.788Z" fill="#71728E"/>
<path fill-rule="evenodd" clip-rule="evenodd" d="M253.655 165.182L242.417 162.52L227.84 166.753V170.039L238.821 170.192L245.643 173.191L253.655 165.182Z" fill="#FFE1B5"/>
<path fill-rule="evenodd" clip-rule="evenodd" d="M244.164 172.4L252.176 164.392L306.253 173.974C306.253 173.974 313.597 75.2031 342.972 66.5273C372.347 57.8514 391.708 71.1989 399.052 101.231C406.396 131.262 406.396 197.332 365.671 240.044L307.588 197.332C307.588 197.332 273.159 188.898 244.164 172.4Z" fill="#1DC8CC"/>
<path fill-rule="evenodd" clip-rule="evenodd" d="M315.267 175.309L306.755 168.396L306.254 173.974L315.267 175.309Z" fill="#0080A3"/>
<path fill-rule="evenodd" clip-rule="evenodd" d="M356.325 118.782C356.325 118.782 346.089 202.226 307.589 197.332L318.778 205.559C318.778 205.559 355.658 191.726 356.325 118.782Z" fill="#12B5B9"/>
<path fill-rule="evenodd" clip-rule="evenodd" d="M235.486 220.023L224.136 215.351L237.857 229.441L235.486 220.023Z" fill="#0616A4"/>
<path fill-rule="evenodd" clip-rule="evenodd" d="M248.839 318.126L253.846 328.471L243.832 334.477H264.194L260.189 318.126H248.839Z" fill="#282A64"/>
</svg>
