<svg width="351" height="519" viewBox="0 0 351 519" fill="none" xmlns="http://www.w3.org/2000/svg">
<path fill-rule="evenodd" clip-rule="evenodd" d="M209.059 492.144C206.11 494.324 197.129 495.909 186.508 495.909C185.448 495.909 184.405 495.894 183.382 495.863L181.32 497.309C184.171 496.745 187.43 497.697 189.017 500.183C191.67 504.341 188.892 510.663 184.099 511.876C179.286 513.094 173.877 509.032 173.73 504.089C173.612 500.142 176.874 496.557 180.676 495.745C171.705 495.23 164.789 493.553 163.252 491.466C161.443 491.487 158.126 491.615 156.436 492.242C154.039 493.132 152.568 495.108 153.366 497.529C153.843 498.972 155.147 500.005 155.738 501.405C157.152 504.753 153.161 508.63 149.619 507.765C146.077 506.9 144.128 502.624 145.023 499.103C145.918 495.582 149 492.941 152.391 491.607C155.783 490.274 159.494 490.04 163.134 489.821L163.156 489.848C164.621 487.463 173.086 485.583 183.717 485.3L183.169 414.258L187.713 414.223L188.261 485.277C199.467 485.463 208.496 487.418 209.896 489.91C212.047 489.951 214.224 490.293 216.371 490.634C219.399 491.115 222.362 492.539 224.389 494.784C224.389 494.784 225.525 496.213 225.913 496.968C227.721 500.485 227.026 505.326 223.824 507.658C220.622 509.992 215.214 508.707 213.978 504.952C213.078 502.219 214.496 499.111 216.786 497.359C217.951 496.468 219.296 495.881 220.713 495.495C218.251 492.737 213.966 492.082 209.059 492.144ZM215.851 399.66L215.691 395.12C235.894 394.406 240.984 338.692 241.24 317.286L245.784 317.341C245.782 317.541 245.503 337.542 241.925 357.4C236.95 385.006 228.178 399.224 215.851 399.66Z" fill="#0D0E2D"/>
<path fill-rule="evenodd" clip-rule="evenodd" d="M235.115 271.638C235.115 271.638 277.302 269.722 283.145 297.084C287.249 316.3 268.35 335.591 225.613 329.916L235.115 271.638Z" fill="#3F4065"/>
<path fill-rule="evenodd" clip-rule="evenodd" d="M210.084 385.674C210.084 385.674 251.009 393.306 235.116 408.597C219.224 423.889 114.275 422.213 125.848 391.536C137.422 360.859 210.084 385.674 210.084 385.674Z" fill="#3F4065"/>
<path fill-rule="evenodd" clip-rule="evenodd" d="M235.116 400.109C220.875 413.811 135.145 413.885 125.801 391.682C114.62 422.216 219.249 423.865 235.116 408.597C239.547 404.333 239.558 400.666 237.274 397.592C236.721 398.407 236.013 399.245 235.116 400.109Z" fill="#2F3054"/>
<path fill-rule="evenodd" clip-rule="evenodd" d="M295.911 10.7889C295.915 10.7938 376.277 107.804 342.35 137.7C328.539 150.206 312.503 163.078 297.94 174.225C291.012 159.138 284.077 144.149 277.301 129.171C290.286 124.549 303.283 119.295 314.231 113.64C314.231 113.64 308.336 54.0871 282.318 19.9135L277.301 23.2813L264.667 7.38187L271.768 0L286.822 2.55526L295.911 10.7889ZM124.819 36.4835L125.49 39.7485L122.366 46.7753C122.365 46.7762 93.5366 106.756 87.5719 123.292C87.5719 123.292 103.919 129.191 124.15 135.365C116.445 148.281 110.358 162.23 104.994 176.318C80.4506 163.488 48.7327 142.285 58.1747 122.015C73.0862 90.0013 113.561 35.4898 113.561 35.4898L122.366 46.7753L113.561 35.4898L124.149 21.0099L139.692 17.6476L141.964 29.5275L124.149 33.2184L124.819 36.4835L125.49 39.7485L136.564 37.1933V30.6465L124.149 33.2184L124.819 36.4835ZM268.348 12.0147L277.301 23.2813L273.472 26.0258L264.667 17.0351L268.348 12.0147Z" fill="#FFE1B5"/>
<path fill-rule="evenodd" clip-rule="evenodd" d="M104.996 176.318C107.34 177.544 109.619 178.694 111.789 179.758C117.558 165.059 126.096 151.834 134.183 138.348C130.772 137.362 127.413 136.36 124.151 135.365C116.447 148.282 110.36 162.231 104.996 176.318Z" fill="#FFFFFE"/>
<path fill-rule="evenodd" clip-rule="evenodd" d="M181.464 177.932C201.401 189.004 224.932 167.695 226.102 144.872C217.681 147.107 212.403 148.347 212.403 148.347L207.795 123.293L195.852 126.926L186.025 149.198C180.827 148.979 174.495 148.06 167.59 146.703C166.754 159.435 169.616 171.165 181.464 177.932Z" fill="#FFE1B5"/>
<path fill-rule="evenodd" clip-rule="evenodd" d="M268.349 132.264C256.267 136.319 244.625 139.766 235.114 142.418C234.11 157.023 229.399 171.065 217.818 180.204C198.883 195.346 170.101 191.561 162.526 168.847C160.241 161.017 158.945 152.905 158.81 144.816C150.798 142.969 142.355 140.71 134.183 138.348C126.095 151.833 117.556 165.059 111.788 179.758C122.787 185.151 134.012 193.064 134.012 193.064L102.91 332.326L225.613 355.322L254.585 205.84C254.585 205.84 269.489 195.62 288.896 181.075C282.757 164.529 275.455 148.355 268.349 132.264Z" fill="#F9CB0D"/>
<path fill-rule="evenodd" clip-rule="evenodd" d="M217.817 180.204C229.398 171.065 234.108 157.023 235.113 142.418C231.832 143.333 228.802 144.155 226.099 144.872C224.929 167.696 201.397 189.004 181.46 177.933C169.613 171.166 166.751 159.436 167.586 146.703C164.748 146.146 161.806 145.508 158.809 144.816C158.943 152.906 160.24 161.017 162.525 168.847C170.099 191.561 198.881 195.346 217.817 180.204Z" fill="#FFFFFE"/>
<path fill-rule="evenodd" clip-rule="evenodd" d="M268.348 132.264C275.454 148.355 282.756 164.529 288.895 181.075C291.819 178.885 294.848 176.591 297.94 174.224C291.011 159.138 284.076 144.149 277.3 129.171C274.307 130.237 271.314 131.268 268.348 132.264Z" fill="#FFFFFE"/>
<path fill-rule="evenodd" clip-rule="evenodd" d="M182.59 136.214C182.59 136.214 174.078 104.849 182.59 102.623C191.102 100.396 203.565 99.7869 203.565 99.7869L204.948 116.181C204.948 116.181 209.821 110.182 211.892 112.107C214.535 114.562 206.014 124.089 206.014 124.089L203.458 138.845L182.59 136.214Z" fill="#FFE1B5"/>
<path fill-rule="evenodd" clip-rule="evenodd" d="M205.503 120.356C205.435 120.356 205.366 120.338 205.303 120.299C205.126 120.189 205.072 119.955 205.182 119.778C206.403 117.816 207.976 116.104 209.856 114.689C210.024 114.563 210.261 114.597 210.386 114.764C210.511 114.931 210.478 115.168 210.311 115.293C208.506 116.652 206.997 118.295 205.825 120.178C205.753 120.293 205.63 120.356 205.503 120.356Z" fill="#F9CA85"/>
<path fill-rule="evenodd" clip-rule="evenodd" d="M195.207 131.453C187.568 130.698 180.419 135.196 178.169 142.172C176.581 147.094 175.845 153.647 180.919 157.664C189.866 164.747 205.503 159.485 208.783 142.847C210.86 132.315 205.503 98.5755 200.689 96.5518C195.425 94.3395 189.824 99.7869 189.398 95.5403C189.176 93.3234 188.378 88.8625 183.647 89.6673C180.407 90.2185 174.912 97.159 181.09 103.432C188.091 110.541 198.169 105.271 198.169 105.271C198.169 105.271 205.162 129.738 200.902 131.357C199.338 131.951 197.429 131.674 195.207 131.453Z" fill="#F9CB0D"/>
<path fill-rule="evenodd" clip-rule="evenodd" d="M191.315 132.976L186.629 133.987C185.793 129.869 184.433 124.882 186.629 123.466C188.825 122.049 191.315 127.108 191.315 132.976Z" fill="#F9CA85"/>
<path fill-rule="evenodd" clip-rule="evenodd" d="M195.594 119.815C195.594 119.028 194.922 118.39 194.093 118.39C193.266 118.39 192.594 119.028 192.594 119.815C192.594 120.602 193.266 121.24 194.093 121.24C194.922 121.24 195.594 120.602 195.594 119.815Z" fill="#0D0E2D"/>
<path fill-rule="evenodd" clip-rule="evenodd" d="M182.592 122.665C182.592 121.878 181.92 121.24 181.092 121.24C180.264 121.24 179.592 121.878 179.592 122.665C179.592 123.451 180.264 124.09 181.092 124.09C181.92 124.09 182.592 123.451 182.592 122.665Z" fill="#0D0E2D"/>
<path fill-rule="evenodd" clip-rule="evenodd" d="M191.41 115.483L190.67 115.319C190.882 114.361 191.732 113.568 192.737 113.388C193.738 113.21 194.825 113.653 195.385 114.466L194.761 114.896C194.37 114.329 193.576 114.009 192.87 114.134C192.169 114.259 191.555 114.826 191.41 115.483Z" fill="#0D0E2D"/>
<path fill-rule="evenodd" clip-rule="evenodd" d="M179.862 117.265L179.113 117.148C179.233 116.378 179.903 115.735 180.706 115.62C181.508 115.505 182.338 115.928 182.691 116.624L182.014 116.966C181.808 116.557 181.29 116.301 180.814 116.369C180.34 116.437 179.931 116.822 179.862 117.265Z" fill="#0D0E2D"/>
<path fill-rule="evenodd" clip-rule="evenodd" d="M186.021 140.77C186.502 142.156 187.182 143.476 188.044 144.342C189.612 145.919 195.093 145.641 195.849 138.738C192.573 137.895 189.297 138.903 186.021 140.77Z" fill="#0D0E2D"/>
<path fill-rule="evenodd" clip-rule="evenodd" d="M196.001 136.843L185.439 138.623C185.577 139.322 185.775 140.054 186.023 140.77C189.299 140.518 192.574 139.511 195.85 138.738C195.947 138.094 195.999 137.453 196.001 136.843Z" fill="#FFFFFE"/>
<path fill-rule="evenodd" clip-rule="evenodd" d="M314.232 113.64L315.297 121.73L309.191 116.147L314.232 113.64Z" fill="#F9CA85"/>
<path fill-rule="evenodd" clip-rule="evenodd" d="M212.402 148.347L214.086 156.26L215.77 147.528L212.402 148.347Z" fill="#F9CA85"/>
<path fill-rule="evenodd" clip-rule="evenodd" d="M87.5724 123.292L83.9512 130.673L92.5086 125.032L87.5724 123.292Z" fill="#F9CA85"/>
<path fill-rule="evenodd" clip-rule="evenodd" d="M134.013 193.064L137.634 179.759L128.363 189.289L134.013 193.064Z" fill="#EBBD02"/>
<path fill-rule="evenodd" clip-rule="evenodd" d="M281.852 19.3064L288.896 15.0386L284.102 22.3432L281.852 19.3064Z" fill="#F9CA85"/>
<path fill-rule="evenodd" clip-rule="evenodd" d="M268.646 11.7783L277.599 23.0457L277.005 23.5166L268.053 12.25L268.646 11.7783Z" fill="#F9CA85"/>
<path fill-rule="evenodd" clip-rule="evenodd" d="M123.77 33.6832V28.1139L127.648 26.8949L127.876 27.6172L124.527 28.6696V32.7519L136.487 30.2754L136.64 31.0166L123.77 33.6832Z" fill="#F9CA85"/>
<path fill-rule="evenodd" clip-rule="evenodd" d="M124.426 336.358C124.426 336.358 8.89789 326.111 1.50996 349.361C-9.99306 385.56 63.2871 453.275 85.0161 483.085L97.7977 477.123L53.4883 384.283L124.426 382.579V336.358Z" fill="#0616A4"/>
<path fill-rule="evenodd" clip-rule="evenodd" d="M23.2383 489.048C23.2383 489.048 62.0086 399.614 87.9982 362.988C113.987 326.363 120.804 327.214 143.385 332.751C165.965 338.287 225.613 355.322 225.613 355.322C225.613 355.322 217.517 410.261 182.155 405.15C146.793 400.04 119.952 389.392 119.952 389.392L36.8719 493.732L23.2383 489.048Z" fill="#1B2BB5"/>
<path fill-rule="evenodd" clip-rule="evenodd" d="M23.2384 489.048L15.1438 506.508L0.292969 511.619L19.4043 518.007L36.8721 493.732L23.2384 489.048Z" fill="#FFE1B5"/>
<path fill-rule="evenodd" clip-rule="evenodd" d="M85.0176 483.085L91.4087 493.732L85.0176 506.083L105.468 497.139L95.2428 478.315L85.0176 483.085Z" fill="#FFE1B5"/>
<path fill-rule="evenodd" clip-rule="evenodd" d="M119.953 389.393L127.835 379.811L125.847 391.537L119.953 389.393Z" fill="#0616A4"/>
<path fill-rule="evenodd" clip-rule="evenodd" d="M157.607 79.1677C153.45 74.7696 150.195 69.4259 148.195 63.7142L149.625 63.2137C151.554 68.7263 154.696 73.883 158.708 78.1274L157.607 79.1677Z" fill="#B6EBEB"/>
<path fill-rule="evenodd" clip-rule="evenodd" d="M145.682 95.9642C139.447 93.4286 133.795 89.4235 129.338 84.3804L130.473 83.3779C134.777 88.2469 140.233 92.1135 146.253 94.5613L145.682 95.9642Z" fill="#B6EBEB"/>
<path fill-rule="evenodd" clip-rule="evenodd" d="M145.884 115.245C139.709 114.767 133.622 113.463 127.793 111.37L128.305 109.944C134.007 111.992 139.961 113.267 146.001 113.735L145.884 115.245Z" fill="#B6EBEB"/>
<path fill-rule="evenodd" clip-rule="evenodd" d="M225.614 355.323L167.541 339.097L224.004 363.012L225.614 355.323Z" fill="#0616A4"/>
<path fill-rule="evenodd" clip-rule="evenodd" d="M186.025 309.967H139.84L144.665 324.66L186.025 309.967Z" fill="#1DC8CC"/>
<path fill-rule="evenodd" clip-rule="evenodd" d="M71.1696 344.463L48.2771 285.092C47.8727 284.041 48.4566 282.872 49.539 282.564L122.125 261.92C123.113 261.639 124.146 262.188 124.467 263.163L144.663 324.66L186.023 309.967C186.023 309.967 190.482 315.716 182.591 318.271C174.7 320.827 127.834 339.352 127.834 339.352L71.1696 344.463Z" fill="#B6EBEB"/>
<path fill-rule="evenodd" clip-rule="evenodd" d="M100.462 304.803C100.462 300.54 97.0046 297.084 92.7403 297.084C88.4752 297.084 85.0176 300.54 85.0176 304.803C85.0176 309.066 88.4752 312.522 92.7403 312.522C97.0046 312.522 100.462 309.066 100.462 304.803Z" fill="#1DC8CC"/>
</svg>
