<svg width="72" height="72" viewBox="0 0 72 72" fill="none" xmlns="http://www.w3.org/2000/svg">
<path d="M2.10938 66.8565H24.4915C25.3974 69.83 28.1652 72 31.4311 72H40.5689C43.8348 72 46.6026 69.83 47.5085 66.8565H69.8906C71.0556 66.8565 72 65.9121 72 64.7471C72 63.5822 71.0556 62.6378 69.8906 62.6378H68.6149V55.2811C68.6149 53.9194 67.3419 52.9148 66.0181 53.2288C62.6448 54.03 60.4059 54.4288 57.5291 54.3912C52.6108 54.3264 50.5086 53.3434 44.6612 52.8926C40.9046 52.6032 37.8577 54.3388 35.9165 56.8046C33.9747 54.3386 30.9274 52.603 27.1721 52.8926C21.3384 53.3425 19.2142 54.3265 14.304 54.3912C11.4273 54.4284 9.18886 54.03 5.81527 53.2288C4.491 52.9144 3.21848 53.9203 3.21848 55.2811V62.6378H2.10938C0.944437 62.6378 0 63.5822 0 64.7471C0 65.9121 0.944437 66.8565 2.10938 66.8565ZM7.43738 57.9139C9.58739 58.3497 11.7717 58.6442 14.3601 58.6094C19.6841 58.5394 21.8971 57.5305 27.4965 57.0987C29.529 56.9423 32.9068 58.1085 33.8704 61.9645C33.8707 61.9656 33.8711 61.9666 33.8714 61.9677C34.3956 64.0451 37.4175 64.1291 37.9626 61.9668C37.9628 61.966 37.9631 61.9652 37.9633 61.9643C38.9268 58.1084 42.3032 56.9423 44.337 57.0987C49.9375 57.5305 52.1485 58.5393 57.4732 58.6094C60.0615 58.6443 62.2458 58.3495 64.396 57.9139V62.6378H45.7238C45.7201 62.6378 45.7166 62.6372 45.713 62.6372C44.548 62.6372 43.6036 63.5816 43.6036 64.7466C43.6036 66.4199 42.2422 67.7813 40.5689 67.7813H31.4311C29.7578 67.7813 28.3964 66.4199 28.3964 64.7466C28.3964 63.5816 27.452 62.6372 26.287 62.6372C26.2834 62.6372 26.2799 62.6378 26.2762 62.6378H7.43738V57.9139Z" fill="#1DC8CC"/>
<path d="M33.8126 48.7492H38.1567C41.5111 48.7492 44.2588 46.1108 44.2817 42.8687L44.3151 38.4436C44.9209 34.6476 46.4361 31.1173 48.8214 27.9508C50.9291 25.1544 52.0433 21.8196 52.0433 18.3068C52.0433 9.27899 44.6547 2.14016 35.7746 2.26742C27.1296 2.38738 20.0892 9.41806 19.9628 18.0662C19.9093 21.6868 21.0345 25.1207 23.2167 27.9969C25.58 31.1113 27.0832 34.6168 27.6879 38.4169V42.8261C27.6877 46.0921 30.4352 48.7492 33.8126 48.7492ZM40.0629 42.8379C40.0562 43.7712 39.2011 44.5304 38.1565 44.5304H33.8125C32.7615 44.5304 31.9063 43.7659 31.9063 42.8261V40.3117H40.0818L40.0629 42.8379ZM24.1808 18.1281C24.2735 11.7963 29.5006 6.57364 35.8331 6.48575C42.4173 6.3883 47.8244 11.6946 47.8244 18.3068C47.8244 20.896 47.0041 23.3526 45.4519 25.4119C43.0021 28.6643 41.3307 32.2499 40.4704 36.0931H38.1115V23.8629C38.1115 22.698 37.1671 21.7535 36.0022 21.7535C34.8372 21.7535 33.8928 22.698 33.8928 23.8629V36.0931H31.5394C30.6832 32.2374 29.0183 28.6636 26.5775 25.4469C24.9703 23.3285 24.1416 20.7979 24.1808 18.1281Z" fill="#1DC8CC"/>
<path d="M15.8774 16.2242C15.8774 15.0592 14.9329 14.1148 13.768 14.1148H6.73535C5.57041 14.1148 4.62598 15.0592 4.62598 16.2242C4.62598 17.3891 5.57041 18.3336 6.73535 18.3336H13.768C14.9331 18.3336 15.8774 17.3891 15.8774 16.2242Z" fill="#1DC8CC"/>
<path d="M56.2417 28.5864L62.3011 32.1561C63.3056 32.7479 64.5985 32.4125 65.1893 31.4094C65.7806 30.4056 65.4463 29.1127 64.4425 28.5213L58.3831 24.9515C57.3794 24.3603 56.0863 24.6943 55.495 25.6982C54.9038 26.702 55.2381 27.995 56.2417 28.5864Z" fill="#1DC8CC"/>
<path d="M9.69692 32.1561L15.7563 28.5864C16.7601 27.995 17.0944 26.702 16.503 25.6982C15.9116 24.6943 14.6185 24.3603 13.6149 24.9515L7.55549 28.5213C6.55171 29.1126 6.21744 30.4056 6.80877 31.4094C7.40024 32.4133 8.69314 32.7473 9.69692 32.1561Z" fill="#1DC8CC"/>
<path d="M58.3836 7.49687L64.443 3.9271C65.4467 3.33577 65.781 2.04273 65.1897 1.03895C64.5983 0.0350232 63.305 -0.298961 62.3015 0.292226L56.2421 3.86199C55.2384 4.45332 54.9041 5.74637 55.4954 6.75015C56.0869 7.75421 57.3798 8.08805 58.3836 7.49687Z" fill="#1DC8CC"/>
<path d="M15.7563 3.86199L9.69692 0.292226C8.69314 -0.298961 7.40038 0.0350232 6.80877 1.03895C6.21744 2.04273 6.55171 3.33563 7.55549 3.9271L13.6149 7.49687C14.6192 8.08848 15.9118 7.75351 16.503 6.75015C17.0942 5.74637 16.76 4.45332 15.7563 3.86199Z" fill="#1DC8CC"/>
<path d="M67.3755 16.2242C67.3755 15.0592 66.4311 14.1148 65.2661 14.1148H58.2335C57.0685 14.1148 56.1241 15.0592 56.1241 16.2242C56.1241 17.3891 57.0685 18.3336 58.2335 18.3336H65.2661C66.4311 18.3336 67.3755 17.3891 67.3755 16.2242Z" fill="#1DC8CC"/>
</svg>
