<svg width="72" height="72" viewBox="0 0 72 72" fill="none" xmlns="http://www.w3.org/2000/svg">
<path d="M71.8212 30.4062C71.4578 29.5289 70.6017 28.9568 69.652 28.9568H66.5088C65.0111 22.4879 61.4564 16.6094 56.3622 12.2388C50.9438 7.59026 44.0987 4.93948 36.9901 4.7135L32.9645 0.688113C32.293 0.0166296 31.2832 -0.184183 30.4058 0.179051C29.5284 0.542426 28.9564 1.39869 28.9564 2.34805V5.49129C22.4875 6.98909 16.6088 10.5438 12.2383 15.6381C7.58985 21.0568 4.93908 27.9017 4.71309 35.0103L0.68771 39.0358C0.0162267 39.7073 -0.184726 40.717 0.178648 41.5945C0.542023 42.472 1.39829 43.0437 2.34793 43.0437H5.49117C6.98896 49.5125 10.5437 55.3912 15.6379 59.7618C21.0564 64.4103 27.9014 67.0611 35.01 67.287L39.0355 71.3126C39.4845 71.7617 40.0851 72.0005 40.696 72.0003C40.9985 72.0003 41.3036 71.9419 41.5939 71.8216C42.4713 71.4582 43.0433 70.602 43.0433 69.6526V66.5094C49.5121 65.0116 55.3907 61.4569 59.7613 56.3626C64.4098 50.9442 67.0606 44.0991 67.2866 36.9905L71.3121 32.965C71.9837 32.2934 72.1846 31.2837 71.8212 30.4062ZM31.6842 9.73647C32.6379 9.5801 33.3785 8.86249 33.5905 7.9549L34.3396 8.70401C34.3396 8.70401 34.3398 8.70401 34.3398 8.70415L37.3753 11.7394L33.32 15.7947C33.1734 15.5495 32.9818 15.33 32.7511 15.1495C32.1823 14.7043 31.4404 14.546 30.7396 14.7195C26.0702 15.8762 21.841 18.601 18.8315 22.3923C16.8064 24.9434 15.4048 27.8331 14.6747 30.9198L13.3992 29.6443C12.5112 28.7563 11.09 28.7309 10.1685 29.5634C12.6649 19.42 20.9516 11.4967 31.6842 9.73647ZM49.2094 32.9649L53.189 36.9444C52.8371 43.4461 48.8773 49.113 43.0435 51.7213V50.8698C43.0435 49.9202 42.4715 49.064 41.594 48.7008C40.7172 48.3376 39.7069 48.5384 39.0354 49.2099L35.0558 53.1894C28.5542 52.8376 22.8874 48.8777 20.279 43.044H21.1303C22.08 43.044 22.9361 42.4721 23.2993 41.5946C23.6626 40.7171 23.4617 39.7074 22.7903 39.0359L18.8107 35.0564C19.1626 28.5547 23.1224 22.8878 28.9562 20.2795V21.1309C28.9564 22.0805 29.5283 22.9366 30.4057 23.3002C31.283 23.6637 32.2928 23.4626 32.9643 22.7911L36.9439 18.8116C43.4452 19.1634 49.1123 23.1233 51.7207 28.9569H50.8694C49.9197 28.9569 49.0637 29.5289 48.7004 30.4063C48.3371 31.2834 48.5379 32.2934 49.2094 32.9649ZM29.6443 58.6013C28.7563 59.4894 28.731 60.9104 29.5633 61.8321C19.4195 59.3354 11.4963 51.0487 9.73607 40.316C9.57955 39.3623 8.86223 38.6218 7.95449 38.4097L11.7391 34.6251L15.7945 38.6804C15.5492 38.827 15.3297 39.0185 15.1493 39.2493C14.7043 39.8181 14.5457 40.5597 14.7194 41.2608C15.876 45.9302 18.601 50.1595 22.3923 53.1689C24.9434 55.194 27.8331 56.5957 30.9198 57.3259L29.6443 58.6013ZM40.3156 62.2642C39.3619 62.4206 38.6217 63.1382 38.4093 64.0458L34.6247 60.2611L38.68 56.2058C38.8265 56.451 39.0182 56.6706 39.2488 56.851C39.8175 57.2961 40.5596 57.4547 41.2603 57.281C45.9298 56.1244 50.1591 53.3993 53.1684 49.6082C55.1936 47.0572 56.5952 44.1675 57.3253 41.0808L58.6008 42.3562C59.0592 42.8147 59.6601 43.044 60.2608 43.044C60.8241 43.044 61.3856 42.84 61.8313 42.4374C59.335 52.5806 51.0482 60.504 40.3156 62.2642ZM60.2606 37.3756L56.2054 33.3202C56.4505 33.1737 56.6701 32.9822 56.8506 32.7514C57.2955 32.1826 57.454 31.4408 57.2803 30.7399C56.1237 26.0705 53.3986 21.8413 49.6075 18.8319C47.0565 16.8068 44.1668 15.4051 41.0801 14.6749L42.3555 13.3995C43.2436 12.5114 43.2689 11.0904 42.4364 10.1688C52.5801 12.6651 60.5033 20.952 62.2635 31.6846C62.4199 32.6383 63.1375 33.3789 64.0451 33.5909L60.2606 37.3756Z" fill="#1DC8CC"/>
</svg>
