<svg width="48" height="48" viewBox="0 0 48 48" fill="none" xmlns="http://www.w3.org/2000/svg">
<mask id="path-1-outside-1" maskUnits="userSpaceOnUse" x="0.86615" y="0.890869" width="47" height="47" fill="black">
<rect fill="white" x="0.86615" y="0.890869" width="47" height="47"/>
<path fill-rule="evenodd" clip-rule="evenodd" d="M12.8206 16.9981C13.0649 16.9981 13.3046 17.0937 13.4837 17.2727L17.3236 21.1126L21.0878 17.3484L17.2479 13.5085C16.9872 13.2478 16.9036 12.8584 17.0342 12.5135C18.1241 9.63567 17.4229 6.37054 15.2476 4.19526C13.2851 2.23289 10.5168 1.47745 7.89731 2.10839L11.9684 6.17948C12.3345 6.54557 12.3345 7.1392 11.9684 7.50529L7.4805 11.9932C7.1144 12.3592 6.52078 12.3592 6.15468 11.9932L2.08359 7.92201C1.45284 10.5417 2.20809 13.3099 4.17046 15.2723C6.34575 17.4476 9.61087 18.1486 12.4888 17.0589C12.5967 17.018 12.7092 16.9981 12.8206 16.9981ZM41.8204 36.0314L45.8915 40.1025C46.5223 37.483 45.7671 34.7147 43.8047 32.7524C41.6294 30.5771 38.3641 29.8758 35.4864 30.9658C35.1414 31.0965 34.7522 31.0127 34.4915 30.752L30.6515 26.912L26.8872 30.6763L30.7271 34.5162C30.9879 34.7769 31.0716 35.1662 30.941 35.5111C29.851 38.3891 30.5523 41.6542 32.7276 43.8295C34.6899 45.7919 37.458 46.547 40.0778 45.9164L36.0067 41.8452C35.6407 41.4791 35.6407 40.8854 36.0067 40.5194L40.4946 36.0314C40.6703 35.8557 40.9088 35.7569 41.1575 35.7569C41.4061 35.7569 41.6446 35.8557 41.8204 36.0314Z"/>
</mask>
<path fill-rule="evenodd" clip-rule="evenodd" d="M12.8206 16.9981C13.0649 16.9981 13.3046 17.0937 13.4837 17.2727L17.3236 21.1126L21.0878 17.3484L17.2479 13.5085C16.9872 13.2478 16.9036 12.8584 17.0342 12.5135C18.1241 9.63567 17.4229 6.37054 15.2476 4.19526C13.2851 2.23289 10.5168 1.47745 7.89731 2.10839L11.9684 6.17948C12.3345 6.54557 12.3345 7.1392 11.9684 7.50529L7.4805 11.9932C7.1144 12.3592 6.52078 12.3592 6.15468 11.9932L2.08359 7.92201C1.45284 10.5417 2.20809 13.3099 4.17046 15.2723C6.34575 17.4476 9.61087 18.1486 12.4888 17.0589C12.5967 17.018 12.7092 16.9981 12.8206 16.9981ZM41.8204 36.0314L45.8915 40.1025C46.5223 37.483 45.7671 34.7147 43.8047 32.7524C41.6294 30.5771 38.3641 29.8758 35.4864 30.9658C35.1414 31.0965 34.7522 31.0127 34.4915 30.752L30.6515 26.912L26.8872 30.6763L30.7271 34.5162C30.9879 34.7769 31.0716 35.1662 30.941 35.5111C29.851 38.3891 30.5523 41.6542 32.7276 43.8295C34.6899 45.7919 37.458 46.547 40.0778 45.9164L36.0067 41.8452C35.6407 41.4791 35.6407 40.8854 36.0067 40.5194L40.4946 36.0314C40.6703 35.8557 40.9088 35.7569 41.1575 35.7569C41.4061 35.7569 41.6446 35.8557 41.8204 36.0314Z" fill="#F9CB0D"/>
<path d="M17.3236 21.1126L16.6165 21.8197C17.007 22.2103 17.6402 22.2103 18.0307 21.8197L17.3236 21.1126ZM21.0878 17.3484L21.7949 18.0555C21.9825 17.868 22.0878 17.6136 22.0878 17.3484C22.0878 17.0832 21.9825 16.8288 21.7949 16.6413L21.0878 17.3484ZM17.2479 13.5085L17.955 12.8014L17.2479 13.5085ZM17.0342 12.5135L16.099 12.1593L16.099 12.1594L17.0342 12.5135ZM15.2476 4.19526L15.9547 3.48815L15.9547 3.48814L15.2476 4.19526ZM7.89731 2.10839L7.66314 1.13619C7.31139 1.22091 7.03283 1.48904 6.93475 1.8373C6.83667 2.18557 6.93436 2.55965 7.1902 2.81549L7.89731 2.10839ZM11.9684 6.17948L12.6755 5.47237L11.9684 6.17948ZM11.9684 7.50529L11.2613 6.79819L11.9684 7.50529ZM7.4805 11.9932L8.18751 12.7004L8.1876 12.7003L7.4805 11.9932ZM6.15468 11.9932L5.44757 12.7003L5.44767 12.7004L6.15468 11.9932ZM2.08359 7.92201L2.7907 7.21491C2.53485 6.95906 2.16075 6.86137 1.81247 6.95946C1.46419 7.05756 1.19607 7.33615 1.11137 7.68792L2.08359 7.92201ZM4.17046 15.2723L4.87757 14.5652L4.17046 15.2723ZM12.4888 17.0589L12.8429 17.9941L12.843 17.994L12.4888 17.0589ZM45.8915 40.1025L45.1844 40.8096C45.4402 41.0655 45.8143 41.1632 46.1626 41.0651C46.5108 40.967 46.779 40.6884 46.8637 40.3367L45.8915 40.1025ZM41.8204 36.0314L41.1133 36.7386L41.8204 36.0314ZM35.4864 30.9658L35.1322 30.0306L35.132 30.0307L35.4864 30.9658ZM34.4915 30.752L33.7844 31.4591L34.4915 30.752ZM30.6515 26.912L31.3586 26.2049C31.171 26.0174 30.9167 25.912 30.6515 25.912C30.3862 25.912 30.1319 26.0174 29.9444 26.2049L30.6515 26.912ZM26.8872 30.6763L26.1801 29.9692C25.7896 30.3597 25.7896 30.9928 26.1801 31.3834L26.8872 30.6763ZM30.7271 34.5162L30.02 35.2233L30.0201 35.2234L30.7271 34.5162ZM30.941 35.5111L31.8761 35.8653L31.8762 35.8652L30.941 35.5111ZM40.0778 45.9164L40.3119 46.8886C40.6637 46.8039 40.9423 46.5358 41.0404 46.1875C41.1385 45.8392 41.0408 45.4651 40.785 45.2093L40.0778 45.9164ZM36.0067 41.8452L36.7139 41.1381L36.7139 41.1381L36.0067 41.8452ZM36.0067 40.5194L36.7139 41.2265L36.7139 41.2265L36.0067 40.5194ZM40.4946 36.0314L39.7875 35.3243L39.7874 35.3243L40.4946 36.0314ZM14.1908 16.5656C13.8205 16.1953 13.3249 15.9981 12.8206 15.9981V17.9981C12.8049 17.9981 12.7887 17.992 12.7766 17.9798L14.1908 16.5656ZM18.0307 20.4055L14.1908 16.5656L12.7766 17.9798L16.6165 21.8197L18.0307 20.4055ZM20.3807 16.6413L16.6165 20.4055L18.0307 21.8197L21.7949 18.0555L20.3807 16.6413ZM16.5408 14.2156L20.3807 18.0555L21.7949 16.6413L17.955 12.8014L16.5408 14.2156ZM16.099 12.1594C15.8292 12.8719 16.0019 13.6766 16.5408 14.2156L17.955 12.8014C17.9726 12.8189 17.978 12.8449 17.9694 12.8676L16.099 12.1594ZM14.5405 4.90237C16.4375 6.79939 17.0497 9.64914 16.099 12.1593L17.9694 12.8677C19.1985 9.62219 18.4082 5.94169 15.9547 3.48815L14.5405 4.90237ZM8.13148 3.08058C10.4134 2.53094 12.825 3.18692 14.5405 4.90238L15.9547 3.48814C13.7453 1.27885 10.6201 0.423956 7.66314 1.13619L8.13148 3.08058ZM12.6755 5.47237L8.60441 1.40128L7.1902 2.81549L11.2613 6.88659L12.6755 5.47237ZM12.6755 8.2124C13.4321 7.45578 13.4321 6.22899 12.6755 5.47237L11.2613 6.88659C11.2369 6.86216 11.2369 6.82262 11.2613 6.79819L12.6755 8.2124ZM8.1876 12.7003L12.6755 8.2124L11.2613 6.79819L6.77339 11.2861L8.1876 12.7003ZM5.44767 12.7004C6.20426 13.4568 7.43092 13.4568 8.18751 12.7004L6.77348 11.286C6.79789 11.2616 6.83729 11.2616 6.8617 11.286L5.44767 12.7004ZM1.37647 8.62911L5.44757 12.7003L6.8618 11.2861L2.7907 7.21491L1.37647 8.62911ZM4.87757 14.5652C3.16218 12.8498 2.50629 10.4384 3.05581 8.1561L1.11137 7.68792C0.399386 10.645 1.254 13.77 3.46336 15.9794L4.87757 14.5652ZM12.1347 16.1237C9.62432 17.0743 6.77456 16.4622 4.87757 14.5652L3.46336 15.9794C5.91693 18.433 9.59742 19.223 12.8429 17.9941L12.1347 16.1237ZM12.8206 15.9981C12.5903 15.9981 12.3576 16.0392 12.1346 16.1237L12.843 17.994C12.8358 17.9968 12.8282 17.9981 12.8206 17.9981V15.9981ZM46.5986 39.3954L42.5275 35.3243L41.1133 36.7386L45.1844 40.8096L46.5986 39.3954ZM43.0976 33.4595C44.813 35.1749 45.4688 37.5863 44.9193 39.8684L46.8637 40.3367C47.5758 37.3797 46.7211 34.2546 44.5118 32.0452L43.0976 33.4595ZM35.8406 31.9009C38.3506 30.9503 41.2005 31.5624 43.0976 33.4595L44.5118 32.0452C42.0583 29.5917 38.3776 28.8014 35.1322 30.0306L35.8406 31.9009ZM33.7844 31.4591C34.323 31.9978 35.1277 32.1712 35.8409 31.9008L35.132 30.0307C35.1552 30.0219 35.1813 30.0277 35.1986 30.0449L33.7844 31.4591ZM29.9444 27.6191L33.7844 31.4591L35.1986 30.0449L31.3586 26.2049L29.9444 27.6191ZM27.5943 31.3834L31.3586 27.6191L29.9444 26.2049L26.1801 29.9692L27.5943 31.3834ZM31.4342 33.8091L27.5943 29.9692L26.1801 31.3834L30.02 35.2233L31.4342 33.8091ZM31.8762 35.8652C32.146 35.1527 31.9733 34.3479 31.4341 33.8089L30.0201 35.2234C30.0026 35.2059 29.9971 35.1798 30.0058 35.157L31.8762 35.8652ZM33.4347 43.1224C31.5376 41.2253 30.9254 38.3756 31.8761 35.8653L30.0058 35.157C28.7766 38.4025 29.5669 42.083 32.0205 44.5366L33.4347 43.1224ZM39.8438 44.9441C37.5613 45.4936 35.15 44.8377 33.4347 43.1224L32.0205 44.5366C34.2298 46.746 37.3547 47.6004 40.3119 46.8886L39.8438 44.9441ZM35.2996 42.5523L39.3707 46.6235L40.785 45.2093L36.7139 41.1381L35.2996 42.5523ZM35.2996 39.8122C34.543 40.5689 34.543 41.7957 35.2996 42.5523L36.7139 41.1381C36.7383 41.1625 36.7383 41.202 36.7139 41.2265L35.2996 39.8122ZM39.7874 35.3243L35.2996 39.8123L36.7139 41.2265L41.2017 36.7385L39.7874 35.3243ZM41.1575 34.7569C40.6436 34.7569 40.1507 34.9611 39.7875 35.3243L41.2017 36.7386C41.1899 36.7503 41.1741 36.7569 41.1575 36.7569V34.7569ZM42.5275 35.3243C42.1642 34.9611 41.6713 34.7569 41.1575 34.7569V36.7569C41.1408 36.7569 41.125 36.7503 41.1133 36.7386L42.5275 35.3243Z" fill="#F9CB0D" mask="url(#path-1-outside-1)"/>
<path fill-rule="evenodd" clip-rule="evenodd" d="M46.9499 10.6136L31.9773 25.5862L25.5613 32.002L14.0938 43.4695C14.0938 43.4695 13.9056 43.6459 13.7121 43.7011L1.40476 47.78C1.3081 47.812 1.20863 47.8276 1.11001 47.8276C0.865226 47.8276 0.625695 47.7316 0.447008 47.553C0.19632 47.3024 0.108476 46.9317 0.220039 46.5952L4.30295 34.276L4.30298 34.2759C4.30477 34.2698 4.36156 34.0751 4.53048 33.9062L15.998 22.4386L22.4138 16.0227L37.3864 1.05009C38.0635 0.372844 38.9638 0 39.9216 0C40.8792 0 41.7796 0.372844 42.4568 1.05009L46.9499 5.54325C47.6271 6.22031 48 7.12078 48 8.07844C48 9.03609 47.6271 9.93647 46.9499 10.6136ZM39.9216 1.87491C39.4647 1.87491 39.0353 2.05284 38.7122 2.37591L35.6703 5.41781L42.5821 12.3297L45.624 9.28781C45.9471 8.96484 46.125 8.53528 46.125 8.07844C46.125 7.6215 45.9471 7.19203 45.6241 6.86906L41.1309 2.37591C40.8079 2.05275 40.3784 1.87491 39.9216 1.87491ZM2.58704 45.413L3.94313 41.321L6.67885 44.0567L2.58704 45.413ZM4.60323 39.3294L8.67057 43.3968L11.6934 42.3949L5.60504 36.3066L4.60323 39.3294ZM13.431 41.4808L10.638 38.6878L19.8146 29.5112C20.1807 29.1451 20.1807 28.5515 19.8146 28.1854C19.4486 27.8194 18.8549 27.8194 18.4888 28.1854L9.31219 37.362L6.5191 34.569L34.3445 6.74363L34.4201 6.81928L37.1374 9.53662L24.4821 22.192C24.116 22.5581 24.116 23.1518 24.4821 23.5178C24.6651 23.7008 24.9051 23.7924 25.145 23.7924C25.3849 23.7924 25.6249 23.7008 25.8079 23.5178L38.4632 10.8624L41.2562 13.6555L13.431 41.4808ZM21.2787 26.1548C21.4107 26.5229 21.7685 26.777 22.1604 26.777C22.6017 26.777 22.9935 26.4549 23.0791 26.0223C23.1537 25.6454 22.9838 25.2453 22.6551 25.0433C22.3126 24.833 21.8611 24.8637 21.554 25.1248C21.26 25.3748 21.1486 25.7918 21.2787 26.1548Z" fill="white"/>
</svg>
