<?xml version="1.0" encoding="UTF-8"?>
<svg width="24px" height="24px" viewBox="0 0 24 24" version="1.1" xmlns="http://www.w3.org/2000/svg" xmlns:xlink="http://www.w3.org/1999/xlink">
    <!-- Generator: Sketch 63.1 (92452) - https://sketch.com -->
    <title>ico / 24 / ui / organization</title>
    <desc>Created with Sketch.</desc>
    <g id="ico-/-24-/-ui-/-organization" stroke="none" stroke-width="1" fill="none" fill-rule="evenodd">
        <path d="M13.5,2 C13.7761424,2 14,2.22385763 14,2.5 L14,3.5 C14,3.77614237 13.7761424,4 13.5,4 L13,4 L13,10 L21.5,10 C21.7761424,10 22,10.2238576 22,10.5 L22,11.5 C22,11.7761424 21.7761424,12 21.5,12 L21,12 L21,21.5 C21,21.7761424 20.7761424,22 20.5,22 L10.5,22 C10.2238576,22 10,21.7761424 10,21.5 L10,17.5 L10,17.5 C10,17.2545401 9.82312484,17.0503916 9.58987563,17.0080557 L9.5,17 L6.5,17 C6.25454011,17 6.05039163,17.1768752 6.00805567,17.4101244 L6,17.5 L6,21.5 C6,21.7761424 5.77614237,22 5.5,22 L3.5,22 L3.5,22 C3.22385763,22 3,21.7761424 3,21.5 L3,4 L2.5,4 C2.22385763,4 2,3.77614237 2,3.5 L2,2.5 C2,2.22385763 2.22385763,2 2.5,2 L13.5,2 Z M14.5,17 L13.5,17 C13.2545401,17 13.0503916,17.1768752 13.0080557,17.4101244 L13,17.5 L13,18.5 C13,18.7454599 13.1768752,18.9496084 13.4101244,18.9919443 L13.5,19 L14.5,19 C14.7454599,19 14.9496084,18.8231248 14.9919443,18.5898756 L15,18.5 L15,17.5 C15,17.2545401 14.8231248,17.0503916 14.5898756,17.0080557 L14.5,17 Z M18.5,17 L17.5,17 C17.2545401,17 17.0503916,17.1768752 17.0080557,17.4101244 L17,17.5 L17,18.5 C17,18.7454599 17.1768752,18.9496084 17.4101244,18.9919443 L17.5,19 L18.5,19 C18.7454599,19 18.9496084,18.8231248 18.9919443,18.5898756 L19,18.5 L19,17.5 C19,17.2545401 18.8231248,17.0503916 18.5898756,17.0080557 L18.5,17 Z M14.5,13 L13.5,13 C13.2545401,13 13.0503916,13.1768752 13.0080557,13.4101244 L13,13.5 L13,14.5 C13,14.7454599 13.1768752,14.9496084 13.4101244,14.9919443 L13.5,15 L14.5,15 C14.7454599,15 14.9496084,14.8231248 14.9919443,14.5898756 L15,14.5 L15,13.5 C15,13.2545401 14.8231248,13.0503916 14.5898756,13.0080557 L14.5,13 Z M10.5,13 L9.5,13 C9.25454011,13 9.05039163,13.1768752 9.00805567,13.4101244 L9,13.5 L9,14.5 C9,14.7454599 9.17687516,14.9496084 9.41012437,14.9919443 L9.5,15 L10.5,15 C10.7454599,15 10.9496084,14.8231248 10.9919443,14.5898756 L11,14.5 L11,13.5 C11,13.2545401 10.8231248,13.0503916 10.5898756,13.0080557 L10.5,13 Z M6.5,13 L5.5,13 C5.25454011,13 5.05039163,13.1768752 5.00805567,13.4101244 L5,13.5 L5,14.5 C5,14.7454599 5.17687516,14.9496084 5.41012437,14.9919443 L5.5,15 L6.5,15 C6.74545989,15 6.94960837,14.8231248 6.99194433,14.5898756 L7,14.5 L7,13.5 C7,13.2545401 6.82312484,13.0503916 6.58987563,13.0080557 L6.5,13 Z M18.5,13 L17.5,13 C17.2545401,13 17.0503916,13.1768752 17.0080557,13.4101244 L17,13.5 L17,14.5 C17,14.7454599 17.1768752,14.9496084 17.4101244,14.9919443 L17.5,15 L18.5,15 C18.7454599,15 18.9496084,14.8231248 18.9919443,14.5898756 L19,14.5 L19,13.5 C19,13.2545401 18.8231248,13.0503916 18.5898756,13.0080557 L18.5,13 Z M10.5,9 L9.5,9 C9.25454011,9 9.05039163,9.17687516 9.00805567,9.41012437 L9,9.5 L9,10.5 C9,10.7454599 9.17687516,10.9496084 9.41012437,10.9919443 L9.5,11 L10.5,11 C10.7454599,11 10.9496084,10.8231248 10.9919443,10.5898756 L11,10.5 L11,9.5 C11,9.25454011 10.8231248,9.05039163 10.5898756,9.00805567 L10.5,9 Z M6.5,9 L5.5,9 C5.25454011,9 5.05039163,9.17687516 5.00805567,9.41012437 L5,9.5 L5,10.5 C5,10.7454599 5.17687516,10.9496084 5.41012437,10.9919443 L5.5,11 L6.5,11 C6.74545989,11 6.94960837,10.8231248 6.99194433,10.5898756 L7,10.5 L7,9.5 C7,9.25454011 6.82312484,9.05039163 6.58987563,9.00805567 L6.5,9 Z M10.5,5 L9.5,5 C9.25454011,5 9.05039163,5.17687516 9.00805567,5.41012437 L9,5.5 L9,6.5 C9,6.74545989 9.17687516,6.94960837 9.41012437,6.99194433 L9.5,7 L10.5,7 C10.7454599,7 10.9496084,6.82312484 10.9919443,6.58987563 L11,6.5 L11,5.5 C11,5.25454011 10.8231248,5.05039163 10.5898756,5.00805567 L10.5,5 Z M6.5,5 L5.5,5 C5.25454011,5 5.05039163,5.17687516 5.00805567,5.41012437 L5,5.5 L5,6.5 C5,6.74545989 5.17687516,6.94960837 5.41012437,6.99194433 L5.5,7 L6.5,7 C6.74545989,7 6.94960837,6.82312484 6.99194433,6.58987563 L7,6.5 L7,5.5 C7,5.25454011 6.82312484,5.05039163 6.58987563,5.00805567 L6.5,5 Z" id="Shape" fill="#0D0E2D"></path>
    </g>
</svg>