<svg width="80" height="80" viewBox="0 0 80 80" fill="none" xmlns="http://www.w3.org/2000/svg">
<path d="M46.2505 30.0625C47.1134 30.0625 47.813 29.3629 47.813 28.5C47.813 27.6371 47.1134 26.9375 46.2505 26.9375C45.3875 26.9375 44.688 27.6371 44.688 28.5C44.688 29.3629 45.3875 30.0625 46.2505 30.0625Z" fill="#0D0E2D"/>
<path d="M33.7505 30.0625C34.6134 30.0625 35.313 29.3629 35.313 28.5C35.313 27.6371 34.6134 26.9375 33.7505 26.9375C32.8875 26.9375 32.188 27.6371 32.188 28.5C32.188 29.3629 32.8875 30.0625 33.7505 30.0625Z" fill="#0D0E2D"/>
<path d="M35.3125 35.3125V36.875C35.3125 39.4597 37.4153 41.5625 40 41.5625C42.5847 41.5625 44.6875 39.4597 44.6875 36.875V35.3125" stroke="#0D0E2D" stroke-width="3" stroke-linecap="round"/>
<path d="M25.9375 35.3125V36.875C25.9375 41.5708 28.3103 45.9703 32.1875 48.5689V51.28C30.693 51.6536 16.3241 55.2463 15.4725 55.4592C10.5945 56.6792 7.1875 61.0425 7.1875 66.0703V78.4375C7.1875 79.3005 7.88719 80 8.75 80H32.9688C33.8316 80 34.5312 79.3005 34.5312 78.4375C34.5312 77.5745 33.8316 76.875 32.9688 76.875H22.8125V71.25C22.8125 70.387 22.1128 69.6875 21.25 69.6875C20.3872 69.6875 19.6875 70.387 19.6875 71.25V76.875H10.3125V66.0703C10.3125 62.4791 12.7461 59.3622 16.2306 58.4908L25.2275 56.2414L32.5 65.9375C33.0677 66.6944 34.1795 66.7802 34.8548 66.1048L40 60.9597L45.1452 66.1048C45.8195 66.7792 46.9316 66.6955 47.5 65.9375L54.7725 56.2414L63.7694 58.4908C67.2539 59.3622 69.6875 62.4791 69.6875 66.0703V76.875H60.3125V71.25C60.3125 70.387 59.6128 69.6875 58.75 69.6875C57.8872 69.6875 57.1875 70.387 57.1875 71.25V76.875H47.0312C46.1684 76.875 45.4688 77.5745 45.4688 78.4375C45.4688 79.3005 46.1684 80 47.0312 80H71.25C72.1128 80 72.8125 79.3005 72.8125 78.4375V66.0703C72.8125 61.0425 69.4055 56.6791 64.5275 55.4592C63.8044 55.2784 49.6891 51.7492 47.8125 51.28V48.5689C51.6894 45.9709 54.0625 41.5711 54.0625 36.875V35.3125C57.5088 35.3125 60.3125 32.5088 60.3125 29.0625C60.3125 25.6162 57.5088 22.8125 54.0625 22.8125V21.25C54.0625 13.5573 47.8344 7.1875 40 7.1875C32.2459 7.1875 25.9375 13.4959 25.9375 21.25V22.8125C22.4913 22.8125 19.6875 25.6162 19.6875 29.0625C19.6875 32.5088 22.4913 35.3125 25.9375 35.3125ZM44.6875 51.8527L40 56.5402L35.3125 51.8527V50.133C36.8113 50.6617 38.3972 50.9373 40 50.9373C41.6027 50.9373 43.1886 50.6617 44.6875 50.1328V51.8527ZM33.9191 62.6213L28.517 55.4189L33.2708 54.2305L37.7903 58.75L33.9191 62.6213ZM46.0809 62.6213L42.2097 58.75L46.7292 54.2305L51.483 55.4189L46.0809 62.6213ZM50.9375 36.875C50.9375 42.7992 46.1413 47.8125 40 47.8125C33.8595 47.8125 29.0625 42.8003 29.0625 36.875C29.0625 33.8561 29.0625 24.6112 29.0625 22.8125H46.25C47.972 22.8125 49.6094 22.2422 50.9375 21.2469V21.25V36.875ZM57.1875 29.0625C57.1875 30.7856 55.7856 32.1875 54.0625 32.1875V25.9375C55.7856 25.9375 57.1875 27.3394 57.1875 29.0625ZM40 10.3125C44.6242 10.3125 48.6666 13.15 50.2519 17.4375C49.4073 18.8195 47.8939 19.6875 46.25 19.6875H43.1208C44.1039 18.3808 44.6875 16.7573 44.6875 15C44.6875 14.137 43.9878 13.4375 43.125 13.4375C42.2622 13.4375 41.5625 14.137 41.5625 15C41.5625 17.5847 39.4597 19.6875 36.875 19.6875H29.1759C29.9366 14.3944 34.4997 10.3125 40 10.3125ZM25.9375 25.9375V32.1875C24.2144 32.1875 22.8125 30.7856 22.8125 29.0625C22.8125 27.3394 24.2144 25.9375 25.9375 25.9375Z" fill="#0D0E2D"/>
<path d="M1.56289 12.5H3.12539V27.5C3.12539 28.363 3.82508 29.0625 4.68789 29.0625H10.9379C11.8007 29.0625 12.5004 28.363 12.5004 27.5V12.5H14.0629C14.6391 12.5 15.1685 12.1828 15.4404 11.6748C15.7123 11.1667 15.6826 10.5503 15.3629 10.0708L9.11289 0.695781C8.82321 0.261094 8.33539 0 7.81289 0C7.29039 0 6.80258 0.261094 6.51289 0.695781L0.262894 10.0708C-0.0567936 10.5502 -0.0864811 11.1667 0.185394 11.6748C0.457269 12.1828 0.9868 12.5 1.56289 12.5Z" fill="#F9CB0D"/>
<path d="M67.5004 12.5H65.9379C65.3618 12.5 64.8323 12.1828 64.5604 11.6748C64.2885 11.1667 64.3182 10.5502 64.6379 10.0708L70.8879 0.695781C71.1776 0.261094 71.6654 0 72.1879 0C72.7104 0 73.1982 0.261094 73.4879 0.695781L79.7379 10.0708C80.0576 10.5503 80.0873 11.1667 79.8154 11.6748C79.5435 12.1828 79.0141 12.5 78.4379 12.5H76.8754V27.5C76.8754 28.363 76.1757 29.0625 75.3129 29.0625H69.0629C68.2001 29.0625 67.5004 28.363 67.5004 27.5V12.5Z" fill="#F9CB0D"/>
<path d="M40 80C40.8629 80 41.5625 79.3004 41.5625 78.4375C41.5625 77.5746 40.8629 76.875 40 76.875C39.1371 76.875 38.4375 77.5746 38.4375 78.4375C38.4375 79.3004 39.1371 80 40 80Z" fill="#0D0E2D"/>
</svg>
