<svg viewBox="0 0 145 139" fill="none" xmlns="http://www.w3.org/2000/svg">
<g clip-path="url(#clip0_4635_3411)">
<path d="M114.429 41.3426C113.892 42.4219 113.042 42.8716 111.813 42.8237C110.017 42.7517 108.214 42.8237 106.412 42.7997C105.086 42.7817 104.194 41.9602 104.182 40.809C104.164 39.6638 105.056 38.7763 106.364 38.7464C108.323 38.7104 110.282 38.7464 112.241 38.7284C113.302 38.7224 113.904 39.364 114.429 40.1434V41.3426Z" fill="#FCD42E"/>
<path d="M74.0687 0C75.1477 0.617591 75.5636 1.53498 75.5093 2.77616C75.437 4.40109 75.5033 6.038 75.4913 7.66892C75.4792 9.24588 74.6715 10.2112 73.4057 10.1933C72.1761 10.1753 71.4106 9.25188 71.4045 7.72888C71.3925 6.02002 71.4528 4.30515 71.3804 2.59628C71.3322 1.37309 71.7843 0.527651 72.8692 0H74.0687Z" fill="#FCD42E"/>
<path d="M96.4308 19.9368C95.9184 19.5291 95.1107 19.1873 94.8636 18.6117C94.6165 18.0301 94.6526 16.9808 95.0384 16.5431C96.5031 14.8642 98.1125 13.3112 99.746 11.7942C100.542 11.0567 101.723 11.2186 102.452 11.9741C103.146 12.6936 103.302 13.8209 102.591 14.5824C101.072 16.2133 99.4627 17.7663 97.8533 19.3073C97.564 19.5771 97.0818 19.655 96.4308 19.9368Z" fill="#FCD42E"/>
<path d="M52.4466 17.9282C52.0247 18.4438 51.6751 19.2413 51.0964 19.4691C50.5057 19.703 49.4629 19.649 49.0169 19.2653C47.3352 17.8082 45.768 16.2073 44.2551 14.5704C43.5016 13.7609 43.6885 12.6157 44.4721 11.8842C45.1954 11.2126 46.3406 11.0807 47.0941 11.7822C48.7276 13.3052 50.2887 14.9002 51.8378 16.5011C52.1151 16.7889 52.1754 17.2746 52.4466 17.9282Z" fill="#FCD42E"/>
<path d="M37.5587 42.7997C36.5159 42.7997 35.4791 42.8356 34.4364 42.7877C33.2429 42.7337 32.4774 41.9362 32.4593 40.821C32.4412 39.7117 33.1886 38.8063 34.358 38.7643C36.4737 38.6924 38.6014 38.6984 40.7171 38.7643C41.8925 38.8003 42.646 39.6997 42.6339 40.803C42.6218 41.9662 41.8262 42.7277 40.5544 42.7997C40.476 42.8056 40.3916 42.8056 40.3133 42.8056C39.391 42.8056 38.4749 42.8056 37.5526 42.8056V42.7997H37.5587Z" fill="#FCD42E"/>
<path d="M99.2633 36.0901C95.4719 19.2472 75.2192 8.92205 58.6312 20.1706C43.3271 30.5497 42.7364 53.3466 57.4016 64.6252C59.3244 66.1062 61.211 67.6712 62.9349 69.374C63.8813 70.3094 64.4599 71.6165 65.2556 72.8457C62.8505 73.973 61.4582 75.5799 61.2291 77.8884C61.0483 79.7352 61.0603 81.6359 61.2291 83.4887C61.416 85.5034 62.5431 87.0743 64.3514 88.0337C65.0084 88.3814 65.2194 88.7532 65.2917 89.4667C65.7378 93.8918 69.2338 97.0337 73.5736 96.9917C77.8352 96.9558 81.1564 93.7779 81.6386 89.3588C81.6868 88.9211 82.0846 88.3755 82.4764 88.1416C84.3992 86.9904 85.5384 85.3654 85.7132 83.1349C85.7916 82.1815 85.7132 81.2222 85.7735 80.2688C85.9664 77.0669 85.0743 74.4347 81.6928 72.8577C82.38 71.7365 82.8501 70.5433 83.6759 69.7038C85.2913 68.0669 87.0453 66.5319 88.8657 65.1168C98.5159 57.6158 101.891 47.7583 99.2633 36.0901ZM73.8087 92.9144C71.5062 93.1123 69.71 91.5414 69.3845 88.9571H77.4253C77.4976 91.0137 75.9304 92.7286 73.8087 92.9144ZM81.6386 82.3734C81.6024 84.0403 80.867 84.7598 79.1974 84.7778C77.3228 84.7958 75.4422 84.7838 73.5616 84.7838C71.6026 84.7838 69.6437 84.8018 67.6726 84.7778C66.0211 84.7598 65.2616 84.0043 65.2314 82.3554C65.2134 81.2462 65.2134 80.1309 65.2314 79.0156C65.2616 77.4027 65.9849 76.6472 67.5702 76.6412C71.4881 76.6232 75.4121 76.6232 79.33 76.6412C80.8851 76.6472 81.5843 77.3547 81.6325 78.9137C81.6687 80.0649 81.6627 81.2222 81.6386 82.3734ZM85.1587 60.392C83.0611 62.0229 81.1142 63.7438 79.3782 65.5066C78.2149 66.6938 77.5398 67.941 76.9973 68.9423C76.8527 69.2061 76.714 69.476 76.5513 69.7398L76.0028 70.6392C75.1529 70.6392 74.303 70.6392 73.4591 70.6392C72.6394 70.6392 71.8196 70.6392 70.9999 70.6392L70.3308 69.6079C70.1379 69.3081 69.9631 69.0023 69.7883 68.7025C69.1735 67.6472 68.414 66.34 67.1904 65.1288C65.4786 63.438 63.5437 61.7771 61.0965 59.8943C55.6174 55.6791 52.5976 49.2214 52.8086 42.164C53.0195 35.1727 56.3769 28.9668 62.0308 25.1353C65.6232 22.7009 69.4809 21.4657 73.5013 21.4657C82.7899 21.4657 91.337 28.3192 93.3803 37.4092C95.5262 46.9069 92.8318 54.4259 85.1587 60.392Z" fill="#FCD42E"/>
<path d="M23.9718 139C23.574 139 23.1701 138.928 22.7843 138.778C21.5065 138.292 20.6626 137.075 20.6566 135.714L20.5662 111.544C9.16798 111.214 0 101.885 0 90.4681V45.4979C0 33.8656 9.51156 24.4038 21.2051 24.4038H42.0968C43.9292 24.4038 45.412 25.8788 45.412 27.7016C45.412 29.5244 43.9292 30.9995 42.0968 30.9995H21.2051C13.1703 30.9995 6.63036 37.4992 6.63036 45.4919V90.4621C6.63036 98.4548 13.1703 104.955 21.2051 104.955H23.8753C25.7017 104.955 27.1845 106.424 27.1905 108.24L27.2628 127.188L46.5391 106.04C47.166 105.35 48.0581 104.955 48.9924 104.955H123.801C131.836 104.955 138.37 98.4548 138.37 90.4621V45.4919C138.37 37.4992 131.836 30.9935 123.801 30.9935H103.633C101.8 30.9935 100.317 29.5184 100.317 27.6956C100.317 25.8729 101.8 24.3978 103.633 24.3978H123.801C135.494 24.3978 145 33.8596 145 45.4919V90.4621C145 102.094 135.488 111.55 123.801 111.55H50.4571L26.425 137.915C25.7861 138.622 24.888 139 23.9718 139Z" fill="#1B2BB5"/>
</g>
<defs>
<clipPath id="clip0_4635_3411">
<rect width="145" height="139" fill="white"/>
</clipPath>
</defs>
</svg>
