<svg viewBox="0 0 168 171" fill="none" xmlns="http://www.w3.org/2000/svg">
<g clip-path="url(#clip0_4633_3393)">
<path d="M141.196 5.81349C134.022 13.0054 127.001 20.0432 119.673 27.3892C120.66 28.2973 121.8 29.3189 122.916 30.3811C123.814 31.2405 124.672 32.1486 125.561 33.0162C126.435 33.8675 127.308 34.7189 126.92 36.1054C126.532 37.4919 125.359 37.727 124.146 37.9784C121.469 38.5216 119.883 40.6865 120.069 43.4027C120.247 45.9811 122.229 47.927 124.817 48.0892C127.365 48.2432 129.565 46.5486 130.123 44.0108C130.18 43.7594 130.212 43.5 130.277 43.2486C130.827 40.9946 132.8 40.3702 134.474 41.9919C136.634 44.0838 138.705 46.2567 140.759 48.3324C142.118 46.9784 143.38 45.7216 144.714 44.3919C141.738 42.3162 139.926 39.4621 140.047 35.6027C140.136 32.8135 141.252 30.5027 143.291 28.6054C146.995 25.1513 154.121 24.7621 158.246 30.7865C159.451 29.4973 160.672 28.2 162.039 26.7324C160.146 24.8513 157.987 22.7027 155.844 20.554C155.407 20.1162 154.954 19.6784 154.582 19.1838C153.773 18.1216 153.821 17.0108 154.776 16.0946C155.722 15.1865 156.863 15.1946 157.874 16.0216C158.674 16.6784 159.378 17.4486 160.106 18.1784C162.346 20.4162 164.587 22.6459 166.803 24.9081C168.421 26.554 168.404 27.6243 166.763 29.2784C164.32 31.7513 161.845 34.1919 159.41 36.6729C158.585 37.5162 157.696 38.0432 156.507 37.6378C155.382 37.2567 155.075 36.3081 154.873 35.2135C154.339 32.3108 152.171 30.6243 149.381 30.8189C146.914 30.9892 144.924 32.9675 144.73 35.4486C144.512 38.2216 146.21 40.4351 149.082 40.9784C150.222 41.1973 151.201 41.5135 151.565 42.7378C151.921 43.954 151.298 44.8054 150.473 45.6162C148.038 48.0243 145.644 50.4729 143.21 52.8811C141.527 54.5513 140.427 54.5513 138.729 52.8486C137.087 51.2027 135.469 49.5243 133.827 47.8297C128.91 54.6811 121.614 53.4162 118.136 49.8567C113.785 45.4054 114.537 39.3729 120.28 34.2C118.565 32.5297 116.842 30.8919 115.16 29.2054C113.583 27.6243 113.566 26.5135 115.128 24.9486C123.03 17.0027 130.948 9.07295 138.866 1.15133C140.419 -0.40543 141.535 -0.381106 143.121 1.17565C145.191 3.21889 147.246 5.27025 149.276 7.34592C150.554 8.65133 150.675 10.0378 149.672 11.0351C148.613 12.0892 147.343 11.9838 145.992 10.6621C144.374 9.07295 142.789 7.427 141.196 5.81349Z" fill="#F9CB0D"/>
<path d="M143.112 71.1C143.112 68.1324 142.449 67.4838 139.432 67.4757C137.281 67.4675 135.129 67.4757 132.986 67.4757C132.945 59.4081 129.613 55.1108 123.426 55.0135C120.837 54.9729 118.548 55.8567 116.648 57.6405C113.825 60.2838 113.162 63.6243 113.736 67.3946C111.884 67.3946 110.185 67.3946 108.204 67.3946C108.204 64.4189 108.196 61.573 108.204 58.727C108.204 57.6 108.098 56.5135 106.958 55.9135C105.842 55.3216 104.904 55.7513 103.941 56.4081C101.62 58.0054 98.7809 57.6973 97.05 55.7351C95.3353 53.7811 95.3353 50.8378 97.0581 48.9C98.797 46.9378 101.628 46.6378 103.949 48.2432C104.912 48.9162 106.004 49.4594 106.918 48.6648C107.589 48.0811 108.107 46.9621 108.139 46.054C108.276 42.6811 108.204 39.3081 108.196 35.927C108.187 33.154 107.476 32.4567 104.661 32.4567C93.8309 32.4486 83.0089 32.4567 72.1788 32.4567C69.3075 32.4567 68.5957 33.1784 68.5957 36.0567C68.5957 58.5405 68.5957 81.0324 68.5957 103.516C68.5957 106.476 69.2913 107.157 72.292 107.157C94.6721 107.157 117.052 107.157 139.432 107.157C142.425 107.157 143.12 106.468 143.12 103.508C143.112 92.7 143.112 81.9 143.112 71.1ZM73.3516 37.2405C83.3648 37.2405 93.289 37.2405 103.359 37.2405C103.359 39.0324 103.359 40.8 103.359 42.7135C99.6867 42.1054 96.411 42.827 93.7904 45.5432C91.9382 47.4648 91.0243 49.8243 91.0809 52.4675C91.1941 57.673 95.4566 63.0811 103.351 61.954C103.351 63.7459 103.351 65.5135 103.351 67.4675C100.989 67.4675 98.6676 67.4675 96.3463 67.4675C95.675 67.4675 94.939 67.3054 94.3404 67.5162C93.4831 67.8162 92.3831 68.1973 92.003 68.8946C91.6632 69.5108 92.0838 70.6135 92.3184 71.4567C92.6419 72.6324 93.3537 73.7432 93.4426 74.9189C93.5963 77.0594 92.0919 78.973 90.086 79.6621C88.1206 80.3432 85.9368 79.7594 84.5618 78.1946C83.1626 76.6054 82.8876 74.254 83.8986 72.3811C84.0927 72.0162 84.3677 71.7 84.5861 71.3432C85.767 69.4865 84.8368 67.5811 82.6287 67.5C80.1457 67.4108 77.6545 67.4757 75.1633 67.4675C74.6052 67.4675 74.0391 67.4675 73.3516 67.4675C73.3516 57.2594 73.3516 47.3027 73.3516 37.2405ZM107.435 91.1676C105.502 89.8946 103.618 90.8027 103.529 93.1378C103.44 95.627 103.504 98.1243 103.496 100.614C103.496 101.173 103.496 101.724 103.496 102.381C93.386 102.381 83.4537 102.381 73.3435 102.381C73.3435 92.327 73.3435 82.3784 73.3435 72.3C75.1633 72.3 76.9346 72.3 78.6979 72.3C78.8758 80.327 82.2728 84.6243 88.3956 84.6324C94.575 84.6324 98.1176 80.1486 98.0853 72.2675C99.8161 72.2675 101.547 72.2675 103.496 72.2675C103.496 74.7486 103.496 77.173 103.496 79.5892C103.496 80.2621 103.464 80.9432 103.529 81.6162C103.723 83.7486 105.51 84.6324 107.314 83.5135C107.621 83.3189 107.896 83.0838 108.212 82.8973C110.355 81.6324 113.105 82.0865 114.707 83.9594C116.348 85.873 116.348 88.7676 114.698 90.673C113.081 92.5378 110.355 92.9757 108.204 91.7027C107.937 91.5324 107.694 91.3378 107.435 91.1676ZM138.34 102.381C128.327 102.381 118.411 102.381 108.341 102.381C108.341 100.589 108.341 98.8216 108.341 96.9C112.102 97.5162 115.443 96.7459 118.079 93.8595C119.843 91.9297 120.692 89.627 120.587 87.0324C120.344 80.7811 115.879 77.3432 108.301 77.6027C108.301 75.8675 108.301 74.1405 108.301 72.1621C110.412 72.1621 112.515 72.1621 114.618 72.1621C115.604 72.1621 116.591 72.2108 117.57 72.1378C119.77 71.9594 120.579 70.1513 119.479 68.2216C118.904 67.2162 118.37 66.0811 118.249 64.954C118.015 62.7243 119.43 60.7784 121.501 60C123.482 59.2621 125.787 59.8459 127.154 61.4513C128.586 63.1297 128.804 65.4892 127.688 67.4027C127.534 67.6702 127.332 67.9135 127.162 68.173C125.893 70.1108 126.774 72.0324 129.079 72.1297C131.562 72.227 134.053 72.1621 136.537 72.1621C137.095 72.1621 137.653 72.1621 138.324 72.1621C138.34 82.4027 138.34 92.3432 138.34 102.381Z" fill="#1DC8CC"/>
<path d="M90.5959 5.55409C92.0194 5.7649 93.4511 5.9676 94.8746 6.17841C95.4084 6.2595 95.9422 6.31625 96.4599 6.42977C98.2312 6.81895 99.1937 8.08382 98.9268 9.60814C98.6518 11.1568 97.3091 11.9838 95.5459 11.846C91.9628 11.5541 88.3717 11.0352 84.7967 11.1325C76.1908 11.3595 67.6659 12.5433 59.2865 14.4649C54.0777 15.6568 48.8446 17.019 43.8785 18.9568C33.5741 22.9784 27.3786 31.1433 23.2212 41.0595C22.3558 43.1352 21.6117 45.3 21.1264 47.4892C20.0345 52.3946 18.4249 57.0973 16.3382 61.6622C14.8418 64.946 15.0683 65.3514 17.7536 67.7352C18.7404 68.6109 19.7029 69.6081 20.4065 70.719C21.8867 73.0622 21.9756 75.4946 20.7381 78.073C17.0985 85.6136 12.7227 92.6757 7.63526 99.3163C4.90145 102.884 4.46469 102.487 8.95364 105.154C9.68966 105.592 10.4742 105.965 11.2183 106.387C15.6911 108.949 17.0176 113.06 14.8661 117.795C14.3566 118.914 13.758 119.992 13.1271 121.216C13.9764 121.881 14.8095 122.546 15.6507 123.187C17.8507 124.865 18.0529 125.911 16.6051 128.214C16.3867 128.57 16.2168 128.951 16.0065 129.357C16.2492 129.535 16.4029 129.673 16.5808 129.778C21.183 132.422 22.6227 135.649 21.3852 140.846C20.7948 143.335 20.8352 145.735 21.7087 148.143C22.7036 150.876 24.9844 152.1 27.8396 151.427C38.9851 148.808 49.7101 144.851 60.4997 141.081C63.4358 140.06 66.3799 139.014 69.1865 137.692C70.9497 136.865 72.5511 135.608 74.0879 134.368C75.5195 133.208 76.1585 131.562 76.3203 129.689C76.4739 127.849 77.6144 126.892 79.2724 127.014C80.8577 127.127 81.804 128.335 81.7393 130.192C81.6342 133.305 80.3643 135.908 78.1967 138.089C74.4842 141.827 69.7688 143.741 64.9321 145.435C62.6593 146.23 60.3703 147 57.8225 147.868C62.3924 153.089 65.6196 158.895 67.4637 165.341H129.492C129.492 165.032 129.549 164.846 129.484 164.741C124.987 157.581 122.981 149.578 121.549 141.381C121.242 139.638 121.024 137.87 120.805 136.111C120.563 134.165 121.396 132.835 122.981 132.568C124.647 132.284 125.844 133.322 126.241 135.341C127.235 140.4 128.101 145.492 129.298 150.503C130.341 154.865 132.194 158.927 134.725 162.665C135.591 163.946 136.31 165.357 136.893 166.792C137.766 168.957 136.577 170.716 134.24 170.765C130.859 170.838 127.47 170.805 124.089 170.83C123.774 170.83 123.466 170.943 123.151 171H64.4791C63.8078 169.962 62.999 168.981 62.5056 167.862C61.0659 164.578 60.0306 161.084 58.3159 157.954C56.9247 155.408 54.8137 153.26 52.9615 150.981C52.2498 150.114 51.3601 150.114 50.2358 150.454C43.0697 152.66 35.9035 154.873 28.6727 156.851C23.6418 158.23 18.6029 155.4 16.7264 150.527C15.3757 147.016 15.0764 143.465 16.0065 139.776C16.7588 136.816 16.3624 136.062 13.7499 134.522C13.2404 134.222 12.7389 133.914 12.2374 133.605C10.725 132.657 10.0132 131.287 10.2639 129.511C10.4014 128.522 10.6926 127.549 10.9191 126.535C10.6602 126.324 10.4176 126.122 10.1669 125.919C6.6485 123.114 6.41394 121.881 8.61393 117.868C8.71908 117.681 8.82423 117.495 8.92937 117.308C11.2102 113.157 11.0242 112.427 6.80218 110.246C3.89042 108.746 1.24558 107.003 0 103.768V101.505C1.20514 99.4865 2.37793 97.4514 3.62351 95.4649C7.22276 89.7325 11.0727 84.1541 14.397 78.2676C16.7264 74.1487 17.4058 74.8217 13.1595 70.9946C10.0213 68.1649 9.01834 64.6784 10.7169 60.9487C13.2404 55.3865 14.7367 49.5244 16.508 43.7108C21.458 27.5027 31.455 15.9163 48.2057 11.4649C56.4233 9.28382 64.8997 8.0676 73.2791 6.51896C76.0048 6.01625 78.7952 5.83787 81.5614 5.51355H90.5959V5.55409Z" fill="#1B2BB5"/>
<path d="M55.0716 24.7297C54.9099 26.1648 54.004 26.9919 52.5562 27.3892C48.4555 28.5 44.7187 30.3648 41.5562 33.2108C36.3151 37.9378 33.3225 43.9865 31.6158 50.7486C31.2761 52.1027 31.0335 53.4892 30.621 54.8189C30.1762 56.254 28.9144 56.9351 27.4666 56.6594C26.0997 56.4 25.0887 55.1594 25.3637 53.6919C27.6041 41.9108 32.2953 31.6135 43.2143 25.3784C45.7945 23.9108 48.6981 22.9702 51.529 22.0054C53.3974 21.3648 55.0878 22.7675 55.0716 24.7297Z" fill="#1B2BB5"/>
<path d="M24.7265 66.227C23.2545 66.2027 21.9684 64.8649 22.017 63.3973C22.0655 61.8811 23.3353 60.7054 24.8802 60.7622C26.3846 60.8189 27.4684 61.9541 27.4684 63.4622C27.4684 64.9946 26.2228 66.2514 24.7265 66.227Z" fill="#1B2BB5"/>
</g>
<defs>
<clipPath id="clip0_4633_3393">
<rect width="168" height="171" fill="white"/>
</clipPath>
</defs>
</svg>
