<svg viewBox="0 0 136 157" fill="none" xmlns="http://www.w3.org/2000/svg">
<g clip-path="url(#clip0_4635_3402)">
<path d="M124.704 65.3921C122.417 65.3839 120.135 65.3921 117.673 65.3921C117.673 65.3512 117.673 65.3185 117.673 65.2776H112.349C112.34 65.3144 112.332 65.3512 112.328 65.3921C110.058 65.3921 107.825 65.388 105.595 65.3921C98.4909 65.4085 94.1629 69.7423 94.1507 76.8646C94.1466 79.9719 94.1507 83.0792 94.1507 86.3704C93.4443 86.3704 92.8972 86.3704 92.3501 86.3704C86.2256 86.3704 80.1012 86.3541 73.9767 86.3745C67.1173 86.399 62.8383 90.7206 62.8261 97.6017C62.822 100.762 62.8261 103.923 62.8261 107.193C61.6788 107.193 60.6376 107.193 59.5964 107.193C60.9234 101.032 59.3106 94.9482 59.0044 88.8276C58.7268 83.2182 58.0531 77.6332 57.6448 72.0278C57.2895 67.1134 54.5662 63.8834 49.7197 62.8654C47.2862 62.3543 44.8446 61.8801 42.305 61.369C42.848 57.3254 43.3707 53.4045 43.9423 49.1524C45.3917 50.5139 46.637 51.6873 47.8864 52.8526C51.0548 55.8127 54.0477 56.2747 57.9592 54.3939C65.0309 50.9923 72.1108 47.6029 79.1702 44.1644C82.0324 42.7702 83.5799 40.403 83.6411 37.2098C83.6983 34.1475 82.3182 31.7843 79.6643 30.2675C77.1737 28.8447 74.6096 28.9387 72.0495 30.1939C67.0152 32.6634 61.9727 35.1083 56.9302 37.5614C56.428 37.8067 55.9217 38.0357 55.3501 38.3055C52.4022 35.5376 49.4706 32.7819 46.5268 30.014C47.4945 28.8487 48.4826 27.8184 49.2869 26.6614C56.4158 16.395 50.3077 2.19146 37.9648 0.265755C37.6667 0.228958 37.3891 0.0940364 37.1074 0C35.8825 0 34.6576 0 33.4327 0C31.7913 0.502891 30.0765 0.838151 28.5209 1.5332C18.1705 6.1369 15.1409 19.1098 22.3107 27.8838C22.5638 28.1946 22.8251 28.5012 23.213 28.9632C21.4083 29.7523 19.718 30.5046 18.0154 31.2405C15.537 32.3077 13.0545 33.3666 10.5721 34.4255C7.04847 35.9301 5.29687 38.6122 5.29687 42.4391C5.29279 51.3766 5.29687 60.3142 5.29687 69.2517C5.29687 74.9184 7.47718 77.5555 13.0872 78.6308C13.4016 84.5429 13.1444 90.3649 11.6296 96.187C9.42068 104.671 7.63642 113.261 5.63167 121.798C5.04373 124.296 5.39078 126.643 6.57893 128.961C2.96549 130.715 0.519782 133.446 0.238057 137.416C-0.0640841 141.631 -0.068167 145.9 0.221725 150.115C0.478952 153.84 3.09206 155.896 6.48502 157.008C47.5231 157.008 88.557 157.008 129.595 157.008C132.947 155.937 135.295 153.913 135.891 150.274C135.997 149.624 135.997 148.95 135.997 148.291C136.001 124.431 136.005 100.57 135.997 76.7092C135.997 69.7996 131.608 65.4167 124.704 65.3921ZM35.417 5.22516C41.8069 5.23333 47.0903 10.5116 47.1433 16.9388C47.1964 23.3824 41.8191 28.8119 35.4007 28.7956C28.8883 28.7792 23.6213 23.505 23.6254 16.9961C23.6295 10.4871 28.9047 5.21698 35.417 5.22516ZM10.6905 123.425C12.144 116.797 13.6996 110.194 15.2226 103.583C16.1698 99.4578 17.1498 95.3366 18.0725 91.2031C18.2807 90.2668 18.3747 89.2856 18.3869 88.3248C18.4277 85.6181 18.4196 82.9074 18.3951 80.2008C18.3747 78.1729 18.391 76.3167 19.816 74.4973C20.7142 73.3525 20.902 71.4391 20.9265 69.8609C21.0368 62.7591 21.0041 55.6573 20.9469 48.5555C20.9388 47.3944 21.2899 46.7974 22.3719 46.4213C23.6662 45.9675 24.9197 45.3869 26.165 44.7981C27.7206 44.0663 28.2922 42.6803 27.6798 41.3024C27.0632 39.9123 25.6832 39.3931 24.0745 40.0432C22.0453 40.865 20.065 41.8217 18.0235 42.6067C16.3495 43.2527 15.7126 44.3852 15.7248 46.1392C15.7656 53.752 15.7411 61.3649 15.7411 68.9778C15.7411 69.4357 15.7493 69.8977 15.7371 70.3556C15.6799 72.0973 14.7204 73.2053 13.2342 73.2585C11.7235 73.3116 10.5802 72.13 10.5313 70.3679C10.4863 68.7856 10.519 67.1993 10.519 65.617C10.519 62.4484 10.519 59.2798 10.519 56.1111C10.519 51.6669 10.5598 47.2186 10.4986 42.7743C10.4741 40.9672 11.1192 39.8387 12.8504 39.1232C17.6561 37.1444 22.3964 35.0102 27.1939 33.0068C27.8145 32.7492 28.6883 32.692 29.313 32.9128C33.1061 34.2661 36.8951 34.4051 40.6963 33.0722C41.4884 32.7942 41.9743 32.9046 42.5745 33.4811C45.8572 36.6251 49.1807 39.7243 52.492 42.8316C54.0803 44.3239 54.7499 44.4302 56.7302 43.4694C62.4137 40.7096 68.0931 37.9376 73.7766 35.1737C74.189 34.9734 74.5973 34.7526 75.0301 34.6136C76.353 34.1802 77.6473 34.7526 78.2189 35.9832C78.7619 37.1485 78.4026 38.4691 77.3002 39.2214C76.9246 39.479 76.4959 39.6588 76.0835 39.8592C69.3343 43.1055 62.5811 46.3559 55.8278 49.5981C53.6312 50.6529 53.0596 50.5548 51.2222 48.8294C48.9154 46.6625 46.6044 44.4997 44.3057 42.3205C43.4156 41.4742 42.4887 40.8323 41.1699 41.2943C39.8593 41.7522 39.4837 42.8193 39.3203 44.0418C38.4956 50.2155 37.6586 56.3851 36.8501 62.5629C36.5684 64.7012 37.3197 65.7356 39.4265 66.1649C42.6235 66.819 45.8286 67.42 49.0215 68.0783C51.0099 68.4912 52.2022 69.7505 52.3696 71.7416C53.2392 82.0202 54.0844 92.3029 54.8928 102.59C55.0766 104.9 53.8721 106.572 51.9572 106.993C49.5768 107.516 47.4169 105.987 47.1883 103.493C46.6534 97.6466 46.1798 91.7918 45.6898 85.937C45.4612 83.1895 45.2611 80.438 45.0243 77.6905C44.8691 75.8997 44.2158 75.1433 42.452 74.7794C38.1608 73.8963 33.8655 73.0254 29.562 72.1832C27.6389 71.807 26.3079 72.9028 26.2426 74.9634C26.1731 77.159 26.1364 79.3627 26.2344 81.5541C26.5039 87.5643 25.8057 93.4272 24.3113 99.2739C22.1677 107.672 20.3631 116.16 18.44 124.619C18.0317 126.422 17.1089 127.726 15.2512 128.127C12.4707 128.72 10.0617 126.291 10.6905 123.425ZM31.4606 126.43C31.4565 126.978 31.4606 127.526 31.4606 128.135C28.529 128.135 25.7853 128.135 22.9598 128.135C23.9561 123.854 24.9523 119.614 25.9323 115.37C27.6063 108.117 29.4314 100.897 30.8645 93.5949C31.4851 90.4304 31.3218 87.1064 31.4443 83.8519C31.5178 81.9262 31.4565 79.9964 31.4565 77.9031C34.1554 78.4346 36.6501 78.8802 39.108 79.469C39.4837 79.5589 39.9165 80.2949 39.9614 80.7691C40.3819 85.1398 40.7045 89.5145 41.0883 93.8893C41.4762 98.2967 41.8967 102.704 42.3091 107.193C41.5456 107.3 40.4922 107.369 39.4796 107.602C35.0291 108.628 31.775 112.369 31.5382 116.932C31.383 120.093 31.481 123.265 31.4606 126.43ZM11.7521 133.425C18.9463 133.425 26.1405 133.43 33.3347 133.421C35.7886 133.417 36.6787 132.559 36.6909 130.118C36.7113 126.185 36.6827 122.251 36.7032 118.314C36.7236 114.557 38.7487 112.529 42.4724 112.525C49.7687 112.517 57.065 112.525 64.3613 112.521C67.2112 112.521 68.036 111.711 68.036 108.911C68.04 105.026 68.0278 101.146 68.04 97.2623C68.0523 93.7298 70.1142 91.6242 73.6419 91.6119C80.9382 91.5874 88.2345 91.6038 95.5307 91.6038C98.6624 91.6038 99.3728 90.8801 99.3769 87.6992C99.381 83.9705 99.3606 80.2376 99.3851 76.5089C99.4096 72.7188 101.484 70.6418 105.281 70.6295C111.814 70.6091 118.342 70.6091 124.875 70.6295C128.672 70.6418 130.775 72.7392 130.779 76.5048C130.787 97.6057 130.783 118.707 130.779 139.808C130.779 140.253 130.73 140.699 130.697 141.226C88.9 141.226 47.1883 141.226 5.49285 141.226C4.56193 136.247 6.84432 133.43 11.7521 133.425ZM130.775 148.811C130.702 150.745 129.734 151.709 127.815 151.771C127.358 151.787 126.896 151.775 126.439 151.775C87.6057 151.775 48.7684 151.742 9.93514 151.82C5.27645 151.828 5.03964 150.094 5.37853 146.68C47.1148 146.68 88.8673 146.68 130.779 146.68C130.779 147.486 130.8 148.148 130.775 148.811Z" fill="#1B2BB5"/>
<path d="M117.673 63.4459C117.673 43.4693 117.66 23.4927 117.697 3.51609C117.701 1.91338 117.248 0.739966 115.811 0.00402832C115.3 0.00402832 114.79 0.00402832 114.28 0.00402832C109.196 2.35085 104.121 4.70585 99.0337 7.0445C96.3022 8.29968 93.5666 9.54669 90.8228 10.7732C88.716 11.7177 87.4584 13.3122 87.4339 15.6223C87.4095 17.9977 88.6548 19.6372 90.8269 20.6185C97.6496 23.7094 104.46 26.833 111.283 29.9281C111.944 30.2265 112.487 30.4391 112.483 31.404C112.442 42.4922 112.454 53.5803 112.446 64.6684C112.446 64.836 112.397 65.0118 112.348 65.2735H117.673C117.673 64.5785 117.673 64.0102 117.673 63.4459ZM112.332 24.6498C105.803 21.6815 99.3889 18.7623 92.6642 15.6999C99.344 12.6581 105.762 9.73476 112.332 6.74195C112.332 12.7357 112.332 18.5905 112.332 24.6498Z" fill="#F9CB0D"/>
</g>
<defs>
<clipPath id="clip0_4635_3402">
<rect width="136" height="157" fill="white"/>
</clipPath>
</defs>
</svg>
