<?xml version="1.0" encoding="UTF-8"?>
<svg width="24px" height="24px" viewBox="0 0 24 24" version="1.1" xmlns="http://www.w3.org/2000/svg" xmlns:xlink="http://www.w3.org/1999/xlink">
    <!-- Generator: Sketch 63.1 (92452) - https://sketch.com -->
    <title>ico / 24 / ui / personal</title>
    <desc>Created with Sketch.</desc>
    <g id="ico-/-24-/-ui-/-personal" stroke="none" stroke-width="1" fill="none" fill-rule="evenodd">
        <path d="M15.8273677,13 C18.919355,13 20.9575392,15.0650048 21.9419202,19.1950145 C22.1496094,20.0663828 21.75258,20.9695767 20.9701388,21.4056997 L20.9701388,21.4056997 L20.7361018,21.5306754 C18.8222971,22.5102251 15.9102646,23 12.0000043,23 C7.92680107,23 4.93675255,22.4685562 3.02985871,21.4056687 C2.24743664,20.9695528 1.85041765,20.0663793 2.05810156,19.1950305 L2.05810156,19.1950305 L2.14020933,18.8646856 C3.15340726,14.9548952 5.16421777,13 8.17264086,13 L8.17264086,13 Z M12.0000043,1 C14.8183969,1 17.1031555,3.23857625 17.1031555,6 C17.1031555,8.76142375 14.8183969,11 12.0000043,11 C9.18161168,11 6.89685306,8.76142375 6.89685306,6 C6.89685306,3.23857625 9.18161168,1 12.0000043,1 Z" id="Combined-Shape" fill="#0D0E2D"></path>
    </g>
</svg>