<?xml version="1.0" encoding="UTF-8"?>
<svg width="48px" height="48px" viewBox="0 0 48 48" version="1.1" xmlns="http://www.w3.org/2000/svg" xmlns:xlink="http://www.w3.org/1999/xlink">
    <!-- Generator: Sketch 63.1 (92452) - https://sketch.com -->
    <title>ico / 48 / poradsa</title>
    <desc>Created with Sketch.</desc>
    <g id="ico-/-48-/-poradsa" stroke="none" stroke-width="1" fill="none" fill-rule="evenodd">
        <path d="M28.8869063,5.0625 C30.4377188,5.0625 31.6994063,6.3241875 31.6994063,7.875 L31.6994063,7.875 L31.6994063,8.34375 C31.6994063,10.0152188 31.398,11.6487188 30.8034375,13.1987813 C30.618,13.6821563 30.0755625,13.9239375 29.592375,13.7384063 C29.1089063,13.5529688 28.8673125,13.0107188 29.05275,12.5273438 C29.5648125,11.1924375 29.8244063,9.78478125 29.8244063,8.34375 L29.8244063,8.34375 L29.8244063,7.875 C29.8244063,7.3580625 29.4038438,6.9375 28.8869063,6.9375 C28.3699688,6.9375 27.9494063,7.3580625 27.9494063,7.875 L27.9494063,7.875 L27.9494063,8.34375 C27.9494063,13.7715938 23.5335,18.1875 18.1056563,18.1875 L18.1056563,18.1875 L13.59375,18.1875 C8.16590625,18.1875 3.75,13.7715938 3.75,8.34375 L3.75,8.34375 L3.75,7.875 C3.75,7.3580625 3.3294375,6.9375 2.8125,6.9375 C2.2955625,6.9375 1.875,7.3580625 1.875,7.875 L1.875,7.875 L1.875,8.34375 C1.875,13.5477188 5.37075,18.181875 10.3759688,19.6133438 C10.7783438,19.7282813 11.0556563,20.0961563 11.0556563,20.5146563 L11.0556563,20.5146563 L11.0556563,29.9560313 L17.4346875,29.9560313 C16.6876875,28.255875 22.4417813,35.9914688 21.1644375,34.9209375 L21.1644375,34.9209375 L21.1644375,47.0625 C21.1644375,47.5801875 20.7447188,48 20.2269375,48 C19.7091563,48 19.2894375,47.5801875 19.2894375,47.0625 L19.2894375,47.0625 L19.2894375,33.0050625 C19.2255938,32.9255625 19.161,32.8468125 19.0989375,32.7658125 C18.8657813,32.4615 18.646875,32.1495938 18.4419375,31.8309375 L18.4419375,31.8309375 L12.1644375,31.8309375 L12.1644375,47.0625 C12.1644375,47.5801875 11.7447188,48 11.2269375,48 C10.7091563,48 10.2894375,47.5801875 10.2894375,47.0625 L10.2894375,47.0625 L10.2894375,31.8309375 L10.11825,31.8309375 C9.60046875,31.8309375 9.18075,31.411125 9.18075,30.8934375 L9.18075,30.8934375 L9.18075,21.2016563 C6.6710625,20.335125 4.42434375,18.718875 2.79834375,16.5968438 C0.9676875,14.207625 1.22302168e-11,11.3536875 1.22302168e-11,8.34375 L1.22302168e-11,8.34375 L1.22302168e-11,7.875 C1.22302168e-11,6.3241875 1.2616875,5.0625 2.8125,5.0625 C4.3633125,5.0625 5.625,6.3241875 5.625,7.875 L5.625,7.875 L5.625,8.34375 C5.625,12.170625 8.33690625,15.375 11.939625,16.1386875 C11.4724688,15.4275 11.1996563,14.57775 11.1996563,13.6650938 L11.1996563,13.6650938 L11.1996563,13.0139063 C11.1996563,10.5220313 13.2269063,8.4946875 15.7187813,8.4946875 C18.2106563,8.4946875 20.238,10.5220313 20.238,13.0139063 L20.238,13.0139063 L20.238,13.6650938 C20.238,14.6015625 19.9515938,15.4723125 19.4618438,16.1946563 C23.21175,15.5487188 26.0744063,12.27525 26.0744063,8.34375 L26.0744063,8.34375 L26.0744063,7.875 C26.0744063,6.3241875 27.3360938,5.0625 28.8869063,5.0625 Z M15.7187813,35.0625 C16.2365625,35.0625 16.6562813,35.4823125 16.6562813,36 L16.6562813,36 L16.6562813,47.0625 C16.6562813,47.5801875 16.2365625,48 15.7187813,48 C15.201,48 14.7812813,47.5801875 14.7812813,47.0625 L14.7812813,47.0625 L14.7812813,36 C14.7812813,35.4823125 15.201,35.0625 15.7187813,35.0625 Z M25.5254063,17.4075 C25.9257188,17.0790938 26.5164375,17.1373125 26.84475,17.5377188 C27.1731563,17.9379375 27.1148438,18.52875 26.7144375,18.8570625 C25.2039375,20.0960625 23.486625,20.9783438 21.6100313,21.4794375 C21.5290313,21.5011875 21.4476563,21.5115 21.3675938,21.5115 C20.9533125,21.5115 20.574375,21.2348438 20.4624375,20.8155938 C20.3288438,20.3153438 20.626125,19.8015938 21.126375,19.668 C22.7429063,19.236375 24.2229375,18.475875 25.5254063,17.4075 Z M27.6734063,15.1028438 C27.9730313,14.6805 28.5582188,14.5813125 28.9805625,14.8808438 C29.4028125,15.1804688 29.5021875,15.7656563 29.2025625,16.1879063 L29.2025625,16.1879063 L29.184375,16.2135 C29.0015625,16.471125 28.7125313,16.6085625 28.419,16.6085625 C28.2313125,16.6085625 28.0419375,16.5523125 27.8772188,16.4355 C27.4549688,16.135875 27.3555938,15.5506875 27.6552188,15.1284375 L27.6552188,15.1284375 Z M43.6875,13.2721875 C44.2052813,13.2721875 44.625,13.692 44.625,14.2096875 L44.625,14.2096875 L44.625,15.375 C44.625,15.8926875 44.2052813,16.3125 43.6875,16.3125 C43.1697188,16.3125 42.75,15.8926875 42.75,15.375 L42.75,15.375 L42.75,14.2096875 C42.75,13.692 43.1697188,13.2721875 43.6875,13.2721875 Z M15.7187813,10.3695938 C14.2607813,10.3695938 13.0746563,11.5557188 13.0746563,13.0138125 L13.0746563,13.0138125 L13.0746563,13.665 C13.0746563,15.123 14.2607813,16.309125 15.7187813,16.309125 C17.176875,16.309125 18.363,15.123 18.363,13.665 L18.363,13.665 L18.363,13.0138125 C18.363,11.5557188 17.1767813,10.3695938 15.7187813,10.3695938 Z M47.0625,11.0625 C47.5802813,11.0625 48,11.4823125 48,12 C48,12.5176875 47.5802813,12.9375 47.0625,12.9375 L47.0625,12.9375 L45.8971875,12.9375 C45.3794063,12.9375 44.9596875,12.5176875 44.9596875,12 C44.9596875,11.4823125 45.3794063,11.0625 45.8971875,11.0625 L45.8971875,11.0625 Z M41.4778125,11.0625 C41.9955938,11.0625 42.4153125,11.4823125 42.4153125,12 C42.4153125,12.5176875 41.9955938,12.9375 41.4778125,12.9375 L41.4778125,12.9375 L40.3125,12.9375 C39.7947188,12.9375 39.375,12.5176875 39.375,12 C39.375,11.4823125 39.7947188,11.0625 40.3125,11.0625 L40.3125,11.0625 Z M43.6875,7.6875 C44.2052813,7.6875 44.625,8.1073125 44.625,8.625 L44.625,8.625 L44.625,9.7903125 C44.625,10.308 44.2052813,10.7278125 43.6875,10.7278125 C43.1697188,10.7278125 42.75,10.308 42.75,9.7903125 L42.75,9.7903125 L42.75,8.625 C42.75,8.1073125 43.1697188,7.6875 43.6875,7.6875 Z M20.6130938,5.5846875 C21.130875,5.5846875 21.5505938,6.0045 21.5505938,6.5221875 L21.5505938,6.5221875 L21.5505938,7.6875 C21.5505938,8.2051875 21.130875,8.625 20.6130938,8.625 C20.0953125,8.625 19.6755938,8.2051875 19.6755938,7.6875 L19.6755938,7.6875 L19.6755938,6.5221875 C19.6755938,6.0045 20.0953125,5.5846875 20.6130938,5.5846875 Z M23.9880938,3.375 C24.505875,3.375 24.9255938,3.7948125 24.9255938,4.3125 C24.9255938,4.8301875 24.505875,5.25 23.9880938,5.25 L23.9880938,5.25 L22.8227813,5.25 C22.305,5.25 21.8852813,4.8301875 21.8852813,4.3125 C21.8852813,3.7948125 22.305,3.375 22.8227813,3.375 L22.8227813,3.375 Z M18.4034063,3.375 C18.9211875,3.375 19.3409063,3.7948125 19.3409063,4.3125 C19.3409063,4.8301875 18.9211875,5.25 18.4034063,5.25 L18.4034063,5.25 L17.2380938,5.25 C16.7203125,5.25 16.3005938,4.8301875 16.3005938,4.3125 C16.3005938,3.7948125 16.7203125,3.375 17.2380938,3.375 L17.2380938,3.375 Z M20.6130938,2.03170814e-13 C21.130875,2.03170814e-13 21.5505938,0.4198125 21.5505938,0.9375 L21.5505938,0.9375 L21.5505938,2.1028125 C21.5505938,2.6205 21.130875,3.0403125 20.6130938,3.0403125 C20.0953125,3.0403125 19.6755938,2.6205 19.6755938,2.1028125 L19.6755938,2.1028125 L19.6755938,0.9375 C19.6755938,0.4198125 20.0953125,2.03170814e-13 20.6130938,2.03170814e-13 Z" id="Combined-Shape" fill="#0D0E2D"></path>
        <path d="M45.1875,21.2315625 C43.6366875,21.2315625 42.375,22.49325 42.375,24.0439687 L42.375,24.5128125 C42.375,28.4444062 39.5123437,31.717875 35.7623437,32.3637187 C36.2520937,31.641375 36.5385937,30.7705312 36.5385937,29.8339687 L36.5385937,29.1827812 C36.5385937,26.6909062 34.51125,24.6636562 32.019375,24.6636562 C29.5275,24.6636562 27.50025,26.6909062 27.50025,29.1827812 L27.50025,29.8339687 C27.50025,30.7467187 27.7730625,31.5964687 28.2402187,32.30775 C24.6375,31.5440625 21.9255,28.3396875 21.9255,24.5128125 L21.9255,24.0439687 C21.9255,22.49325 20.6638125,21.2315625 19.113,21.2315625 C17.5621875,21.2315625 16.3005,22.49325 16.3005,24.0439687 L16.3005,24.5128125 C16.3005,26.4156562 16.6876875,28.255875 17.4346875,29.9560312 L18.4419375,31.8309375 C18.646875,32.1495937 18.8657812,32.4615 19.0989375,32.7658125 C19.161,32.8468125 19.2255937,32.9255625 19.2894375,33.0050625 L21.1644375,34.9209375 C22.4417812,35.9914687 23.91,36.828 25.4813437,37.370625 L25.4813437,47.0625 C25.4813437,47.5801875 25.9010625,48 26.4188437,48 C26.936625,48 37.1511562,48 37.6689375,48 C38.1867187,48 38.6064375,47.5801875 38.6064375,47.0625 L38.6064375,37.4428125 C44.17275,35.6344687 48,30.4180312 48,24.5128125 L48,24.0439687 C48,22.49325 46.7383125,21.2315625 45.1875,21.2315625 Z" id="Path" fill="#F9CB0D" fill-rule="nonzero"></path>
    </g>
</svg>