<svg width="48" height="48" viewBox="0 0 48 48" fill="none" xmlns="http://www.w3.org/2000/svg">
<path fill-rule="evenodd" clip-rule="evenodd" d="M20.6131 0C20.0953 0 19.6756 0.419813 19.6756 0.9375V2.10281C19.6756 2.6205 20.0953 3.04031 20.6131 3.04031C21.1309 3.04031 21.5506 2.6205 21.5506 2.10281V0.9375C21.5506 0.419813 21.1309 0 20.6131 0ZM11.2268 29.956H17.4347C16.6877 28.2559 22.4418 35.9915 21.1644 34.9209V47.0625C21.1644 47.5802 20.7447 48 20.2269 48C19.7092 48 19.2894 47.5802 19.2894 47.0625V33.0051L19.2439 32.9485C19.1951 32.888 19.1463 32.8276 19.0989 32.7658C18.8658 32.4615 18.6469 32.1496 18.4419 31.8309H12.1644V47.0625C12.1644 47.5802 11.7447 48 11.2269 48C10.7092 48 10.2894 47.5802 10.2894 47.0625V31.8309H10.1182C9.60047 31.8309 9.18075 31.4111 9.18075 30.8934V21.2017C6.67106 20.3351 4.42434 18.7189 2.79834 16.5968C0.967687 14.2076 0 11.3537 0 8.34375V7.875C0 6.32419 1.26169 5.0625 2.8125 5.0625C4.36331 5.0625 5.625 6.32419 5.625 7.875V8.34375C5.625 12.1706 8.33691 15.375 11.9396 16.1387C11.4725 15.4275 11.1997 14.5777 11.1997 13.6651V13.0139C11.1997 10.522 13.2269 8.49469 15.7188 8.49469C18.2107 8.49469 20.238 10.522 20.238 13.0139V13.6651C20.238 14.6016 19.9516 15.4723 19.4618 16.1947C23.2118 15.5487 26.0744 12.2752 26.0744 8.34375V7.875C26.0744 6.32419 27.3361 5.0625 28.8869 5.0625C30.4377 5.0625 31.6994 6.32419 31.6994 7.875V8.34375C31.6994 10.0152 31.398 11.6487 30.8034 13.1988C30.618 13.6822 30.0756 13.9239 29.5924 13.7384C29.1089 13.553 28.8673 13.0107 29.0527 12.5273C29.5648 11.1924 29.8244 9.78478 29.8244 8.34375V7.875C29.8244 7.35806 29.4038 6.9375 28.8869 6.9375C28.37 6.9375 27.9494 7.35806 27.9494 7.875V8.34375C27.9494 13.7716 23.5335 18.1875 18.1057 18.1875H13.5938C8.16591 18.1875 3.75 13.7716 3.75 8.34375V7.875C3.75 7.35806 3.32944 6.9375 2.8125 6.9375C2.29556 6.9375 1.875 7.35806 1.875 7.875V8.34375C1.875 13.5477 5.37075 18.1819 10.376 19.6133C10.7783 19.7283 11.0557 20.0962 11.0557 20.5147V29.956H11.2268ZM18.363 13.0138C18.363 11.5557 17.1768 10.3696 15.7188 10.3696C14.2608 10.3696 13.0747 11.5557 13.0747 13.0138V13.665C13.0747 15.123 14.2608 16.3091 15.7188 16.3091C17.1769 16.3091 18.363 15.123 18.363 13.665V13.0138ZM27.6734 15.1028C27.973 14.6805 28.5582 14.5813 28.9806 14.8808C29.4028 15.1805 29.5022 15.7657 29.2026 16.1879L29.1844 16.2135C29.0016 16.4711 28.7125 16.6086 28.419 16.6086C28.2313 16.6086 28.0419 16.5523 27.8772 16.4355C27.455 16.1359 27.3556 15.5507 27.6552 15.1284L27.6734 15.1028ZM25.5254 17.4075C25.9257 17.0791 26.5164 17.1373 26.8447 17.5377C27.1732 17.9379 27.1148 18.5288 26.7144 18.8571C25.2039 20.0961 23.4866 20.9783 21.61 21.4794C21.529 21.5012 21.4477 21.5115 21.3676 21.5115C20.9533 21.5115 20.5744 21.2348 20.4624 20.8156C20.3288 20.3153 20.6261 19.8016 21.1264 19.668C22.7429 19.2364 24.2229 18.4759 25.5254 17.4075ZM14.7813 36C14.7813 35.4823 15.201 35.0625 15.7188 35.0625C16.2366 35.0625 16.6563 35.4823 16.6563 36V47.0625C16.6563 47.5802 16.2366 48 15.7188 48C15.201 48 14.7813 47.5802 14.7813 47.0625V36ZM43.6875 7.6875C43.1697 7.6875 42.75 8.10731 42.75 8.625V9.79031C42.75 10.308 43.1697 10.7278 43.6875 10.7278C44.2053 10.7278 44.625 10.308 44.625 9.79031V8.625C44.625 8.10731 44.2053 7.6875 43.6875 7.6875ZM42.75 14.2097C42.75 13.692 43.1697 13.2722 43.6875 13.2722C44.2053 13.2722 44.625 13.692 44.625 14.2097V15.375C44.625 15.8927 44.2053 16.3125 43.6875 16.3125C43.1697 16.3125 42.75 15.8927 42.75 15.375V14.2097ZM47.0625 11.0625H45.8972C45.3794 11.0625 44.9597 11.4823 44.9597 12C44.9597 12.5177 45.3794 12.9375 45.8972 12.9375H47.0625C47.5803 12.9375 48 12.5177 48 12C48 11.4823 47.5803 11.0625 47.0625 11.0625ZM40.3125 11.0625H41.4778C41.9956 11.0625 42.4153 11.4823 42.4153 12C42.4153 12.5177 41.9956 12.9375 41.4778 12.9375H40.3125C39.7947 12.9375 39.375 12.5177 39.375 12C39.375 11.4823 39.7947 11.0625 40.3125 11.0625ZM19.6756 6.52219C19.6756 6.0045 20.0953 5.58469 20.6131 5.58469C21.1309 5.58469 21.5506 6.0045 21.5506 6.52219V7.6875C21.5506 8.20519 21.1309 8.625 20.6131 8.625C20.0953 8.625 19.6756 8.20519 19.6756 7.6875V6.52219ZM23.9881 3.375H22.8228C22.305 3.375 21.8853 3.79481 21.8853 4.3125C21.8853 4.83019 22.305 5.25 22.8228 5.25H23.9881C24.5059 5.25 24.9256 4.83019 24.9256 4.3125C24.9256 3.79481 24.5059 3.375 23.9881 3.375ZM17.2381 3.375H18.4034C18.9212 3.375 19.3409 3.79481 19.3409 4.3125C19.3409 4.83019 18.9212 5.25 18.4034 5.25H17.2381C16.7203 5.25 16.3006 4.83019 16.3006 4.3125C16.3006 3.79481 16.7203 3.375 17.2381 3.375Z" fill="white"/>
<path d="M45.1875 21.2314C43.6367 21.2314 42.375 22.4931 42.375 24.0439V24.5127C42.375 28.4443 39.5123 31.7178 35.7623 32.3636C36.2521 31.6413 36.5386 30.7704 36.5386 29.8339V29.1827C36.5386 26.6908 34.5112 24.6635 32.0194 24.6635C29.5275 24.6635 27.5002 26.6908 27.5002 29.1827V29.8339C27.5002 30.7466 27.773 31.5964 28.2402 32.3076C24.6375 31.5439 21.9255 28.3396 21.9255 24.5127V24.0439C21.9255 22.4931 20.6638 21.2314 19.113 21.2314C17.5622 21.2314 16.3005 22.4931 16.3005 24.0439V24.5127C16.3005 26.4155 16.6877 28.2558 17.4347 29.9559L18.4419 31.8308C18.6469 32.1495 18.8658 32.4614 19.0989 32.7657C19.161 32.8467 19.2256 32.9254 19.2894 33.0049L21.1644 34.9208C22.4418 35.9914 23.91 36.8279 25.4813 37.3705V47.0624C25.4813 47.5801 25.901 47.9999 26.4188 47.9999C26.9366 47.9999 37.1511 47.9999 37.6689 47.9999C38.1867 47.9999 38.6064 47.5801 38.6064 47.0624V37.4427C44.1727 35.6344 48 30.4179 48 24.5127V24.0439C48 22.4931 46.7383 21.2314 45.1875 21.2314Z" fill="#F9CB0D"/>
</svg>
