<?xml version="1.0" encoding="UTF-8"?>
<svg width="48px" height="48px" viewBox="0 0 48 48" version="1.1" xmlns="http://www.w3.org/2000/svg" xmlns:xlink="http://www.w3.org/1999/xlink">
    <title>ico / 48 / pracuj-premium</title>
    <g id="ico-/-48-/-pracuj-premium" stroke="none" stroke-width="1" fill="none" fill-rule="evenodd">
        <path d="M9.3984375,25.078125 C10.4323125,25.078125 11.2734375,25.91925 11.2734375,26.953125 L11.2734375,26.953125 L11.2734375,28.6063125 L18.5029687,28.6063125 C20.0055,28.6063125 21.4180312,29.1914062 22.4805,30.253875 L22.4805,30.253875 L26.950875,34.7449687 L28.8519375,35.8125 L32.4706875,35.8125 C34.2788437,35.8125 35.7499687,37.2835312 35.7499687,39.0917812 C35.7499687,40.9000312 34.2789375,42.3710625 32.4706875,42.3710625 L32.4706875,42.3710625 L25.40625,42.3710625 C24.3945,42.3710625 23.4115312,42.0795937 22.5635625,41.5279687 L22.5635625,41.5279687 L19.5415312,39.5624062 C19.1079375,39.279375 18.985875,38.6985 19.2689062,38.2649062 C19.5519375,37.8313125 20.1328125,37.7094375 20.5664062,37.9922812 L20.5664062,37.9922812 L20.577375,37.9994062 L23.5859062,39.9561562 C24.1289062,40.3094062 24.7583437,40.4960625 25.40625,40.4960625 L25.40625,40.4960625 L32.4707812,40.4960625 C33.2450625,40.4960625 33.8750625,39.8660625 33.8750625,39.0917812 C33.8750625,38.3175 33.2451562,37.6875 32.4707812,37.6875 L32.4707812,37.6875 L28.7924062,37.6875 C27.7907812,37.6875 26.8490625,37.2974062 26.1407812,36.589125 L26.1407812,36.589125 L21.1532812,31.5782812 C20.4465,30.8715 19.5047812,30.4814062 18.5031562,30.4814062 L18.5031562,30.4814062 L11.2735312,30.4814062 L11.2735312,42.3466875 L15.0489375,44.6333437 C16.660125,45.6091875 18.5074687,46.125 20.3911875,46.125 L20.3911875,46.125 L34.2666562,46.125 C36.6220312,46.125 38.9271562,45.3085312 40.7574375,43.8260625 L40.7574375,43.8260625 L45.5543437,39.940875 C45.8979375,39.6625312 46.0999687,39.2659687 46.1230312,38.8244062 C46.1460937,38.3828437 45.986625,37.9674375 45.6739687,37.6547812 C45.0809062,37.061625 44.15175,36.9733125 43.4581875,37.441875 L43.4581875,37.441875 L38.2198125,41.3813437 C37.806,41.6926875 37.2182812,41.6093437 36.907125,41.195625 C36.5959687,40.7818125 36.679125,40.194 37.0929375,39.8828437 L37.0929375,39.8828437 L42.3481875,35.9307187 C42.3584062,35.9230312 42.3688125,35.9155312 42.3794062,35.9082187 C43.8195937,34.9149375 45.76275,35.0920312 46.9997812,36.3290625 C47.6829375,37.0122187 48.0459375,37.9575 47.9954062,38.9224687 C47.9449687,39.8874375 47.4853125,40.7896875 46.7344687,41.3979375 L46.7344687,41.3979375 L41.9375625,45.283125 C39.7745625,47.035125 37.0502812,48 34.2666562,48 L34.2666562,48 L20.3911875,48 C18.1649062,48 15.98175,47.3904375 14.0775,46.237125 L14.0775,46.237125 L11.2734375,44.5388437 L11.2734375,46.125 C11.2734375,47.158875 10.4323125,48 9.3984375,48 L9.3984375,48 L0.9375,48 C0.41971875,48 -9.9475983e-13,47.5801875 -9.9475983e-13,47.0625 L-9.9475983e-13,47.0625 L-9.9475983e-13,26.015625 C-9.9475983e-13,25.4979375 0.41971875,25.078125 0.9375,25.078125 L0.9375,25.078125 Z M9.3984375,26.953125 L1.875,26.953125 L1.875,46.125 L9.39965625,46.125 L9.39946875,42.9000937 C9.3988125,42.8765625 9.39834375,42.8529375 9.39946875,42.8292187 L9.39946875,42.8292187 L9.398625,29.5407187 L9.3984375,26.953125 Z M5.63625,41.4459375 C5.88375,41.4459375 6.1246875,41.54625 6.3,41.720625 C6.474375,41.895 6.57375,42.136875 6.57375,42.3834375 C6.57375,42.6308437 6.474375,42.871875 6.3,43.04625 C6.1246875,43.220625 5.88375,43.3209375 5.63625,43.3209375 C5.3896875,43.3209375 5.1478125,43.2205312 4.9734375,43.04625 C4.7990625,42.871875 4.6996875,42.6309375 4.6996875,42.3834375 C4.6996875,42.136875 4.7990625,41.895 4.9734375,41.720625 C5.14875,41.54625 5.3896875,41.4459375 5.63625,41.4459375 Z M5.63671875,34.5512812 C6.1545,34.5512812 6.57421875,34.971 6.57421875,35.4887812 L6.57421875,35.4887812 L6.57421875,39.1562812 C6.57421875,39.6739687 6.1545,40.0937812 5.63671875,40.0937812 C5.1189375,40.0937812 4.69921875,39.6739687 4.69921875,39.1562812 L4.69921875,39.1562812 L4.69921875,35.4887812 C4.69921875,34.9710937 5.1189375,34.5512812 5.63671875,34.5512812 Z M20.671875,4.3786875 C21.1201875,4.11975 21.6936562,4.27340625 21.9525,4.7218125 C22.2114375,5.17021875 22.0577812,5.74359375 21.609375,6.0024375 L21.609375,6.0024375 L13.169625,10.8750937 L21.3604687,25.0620937 C21.6194062,25.5105 21.46575,26.0837812 21.0173437,26.3427187 C20.8696875,26.4279375 20.7084375,26.4685312 20.5494375,26.4685312 C20.2254375,26.4685312 19.9103437,26.3003437 19.7367187,25.9995937 L19.7367187,25.9995937 L11.545875,11.8125937 C11.0290312,10.917375 11.3368125,9.768375 12.232125,9.25134375 L12.232125,9.25134375 Z" id="Combined-Shape" fill="#0D0E2D"></path>
        <path d="M46.0951831,0 C47.1454663,0 48,0.832730539 48,1.85628743 L48,1.85628743 L48,29.1437126 C48,30.1672695 47.1454663,31 46.0951831,31 L46.0951831,31 L25.9047572,31 C24.8544741,31 24,30.1672695 24,29.1437126 L24,29.1437126 L24,1.85628743 C24,0.832730539 24.8544741,0 25.9047572,0 L25.9047572,0 Z M36.1666109,8.02907754 C35.9062505,7.93706086 35.6205925,8.07353042 35.5285758,8.33389083 L35.5285758,8.33389083 L33.9747961,12.7302972 C33.9057418,12.9256858 33.7233148,13.0582268 33.5161502,13.0635229 L33.5161502,13.0635229 L28.854775,13.1826909 C28.7037556,13.1865517 28.5625783,13.2584852 28.4706879,13.3783931 C28.302719,13.5975758 28.3442361,13.9114242 28.5634188,14.0793931 L28.5634188,14.0793931 L32.2645054,16.9156896 C32.4289921,17.0417426 32.498673,17.2561983 32.4396925,17.4548602 L32.4396925,17.4548602 L31.1125839,21.9249164 C31.0695882,22.0697374 31.0943748,22.2262337 31.1800183,22.3506803 C31.3365682,22.5781593 31.6478852,22.6356588 31.8753643,22.4791088 L31.8753643,22.4791088 L35.7165412,19.8356301 C35.8872539,19.7181465 36.1127461,19.7181465 36.2834588,19.8356301 L36.2834588,19.8356301 L40.1246357,22.4791088 C40.2490823,22.5647523 40.4055786,22.5895389 40.5503996,22.5465432 C40.8151216,22.4679502 40.9660091,22.1896384 40.8874161,21.9249164 L40.8874161,21.9249164 L39.5603075,17.4548602 C39.501327,17.2561983 39.5710079,17.0417426 39.7354946,16.9156896 L39.7354946,16.9156896 L43.4365812,14.0793931 C43.5564891,13.9875026 43.6284225,13.8463253 43.6322834,13.6953059 C43.6393406,13.4192537 43.4212772,13.1897482 43.145225,13.1826909 L43.145225,13.1826909 L38.4838498,13.0635229 C38.2766852,13.0582268 38.0942582,12.9256858 38.0252039,12.7302972 L38.0252039,12.7302972 L36.4714242,8.33389083 C36.4210848,8.19145593 36.3090458,8.07941694 36.1666109,8.02907754 Z" id="Combined-Shape" fill="#F9CB0D" fill-rule="nonzero"></path>
    </g>
</svg>