<svg width="48" height="48" viewBox="0 0 48 48" fill="none" xmlns="http://www.w3.org/2000/svg">
<path fill-rule="evenodd" clip-rule="evenodd" d="M20.6719 4.37872C21.1202 4.11978 21.6937 4.27344 21.9525 4.72184C22.2114 5.17025 22.0578 5.74363 21.6094 6.00247L13.1696 10.8751L21.3605 25.0621C21.6194 25.5105 21.4658 26.0838 21.0173 26.3428C20.8697 26.428 20.7084 26.4686 20.5494 26.4686C20.2254 26.4686 19.9103 26.3004 19.7367 25.9996L11.5459 11.8126C11.029 10.9174 11.3368 9.76841 12.2321 9.25138L20.6719 4.37872ZM46.9998 36.3291C45.7628 35.0921 43.8196 34.915 42.3794 35.9083C42.3688 35.9156 42.3584 35.9231 42.3482 35.9308L37.0929 39.8829C36.6791 40.194 36.596 40.7818 36.9071 41.1957C37.2183 41.6094 37.806 41.6927 38.2198 41.3814L43.4582 37.4419C44.1517 36.9733 45.0809 37.0617 45.674 37.6548C45.9866 37.9675 46.1461 38.3829 46.123 38.8244C46.1 39.266 45.8979 39.6626 45.5543 39.9409L40.7574 43.8261C38.9272 45.3086 36.622 46.125 34.2667 46.125H20.3912C18.5075 46.125 16.6601 45.6092 15.0489 44.6334L11.2735 42.3467V30.4814H18.5032C19.5048 30.4814 20.4465 30.8715 21.1533 31.5783L26.1408 36.5892C26.8491 37.2974 27.7908 37.6875 28.7924 37.6875H32.4708C33.2452 37.6875 33.8751 38.3175 33.8751 39.0918C33.8751 39.8661 33.2451 40.4961 32.4708 40.4961H25.4062C24.7583 40.4961 24.1289 40.3094 23.5859 39.9562L20.5774 37.9994L20.5664 37.9923C20.1328 37.7095 19.5519 37.8313 19.2689 38.2649C18.9859 38.6985 19.1079 39.2794 19.5415 39.5624L22.5636 41.528C23.4115 42.0796 24.3945 42.3711 25.4062 42.3711H32.4707C34.2789 42.3711 35.75 40.9001 35.75 39.0918C35.75 37.2836 34.2788 35.8125 32.4707 35.8125H28.8519L26.9509 34.745L22.4805 30.2539C21.418 29.1914 20.0055 28.6063 18.503 28.6063H11.2734V26.9532C11.2734 25.9193 10.4323 25.0782 9.39844 25.0782H0.9375C0.419719 25.0782 0 25.498 0 26.0157V47.0625C0 47.5802 0.419719 48 0.9375 48H9.39844C10.4323 48 11.2734 47.1589 11.2734 46.125V44.5389L14.0775 46.2372C15.9818 47.3905 18.1649 48 20.3912 48H34.2667C37.0503 48 39.7746 47.0352 41.9376 45.2832L46.7345 41.398C47.4853 40.7897 47.945 39.8875 47.9954 38.9225C48.0459 37.9575 47.6829 37.0123 46.9998 36.3291ZM1.875 46.125V26.9532H9.39844L9.39862 29.5408L9.39947 42.8293C9.39834 42.853 9.39881 42.8766 9.39947 42.9001L9.39966 46.1249L1.875 46.125ZM5.63672 34.5513C5.11894 34.5513 4.69922 34.9711 4.69922 35.4888V39.1563C4.69922 39.674 5.11894 40.0938 5.63672 40.0938C6.1545 40.0938 6.57422 39.674 6.57422 39.1563V35.4888C6.57422 34.971 6.1545 34.5513 5.63672 34.5513ZM5.63625 41.446C5.88375 41.446 6.12469 41.5463 6.3 41.7207C6.47437 41.895 6.57375 42.1369 6.57375 42.3835C6.57375 42.6309 6.47437 42.8719 6.3 43.0463C6.12469 43.2207 5.88375 43.321 5.63625 43.321C5.38969 43.321 5.14781 43.2206 4.97344 43.0463C4.79906 42.8719 4.69969 42.631 4.69969 42.3835C4.69969 42.1369 4.79906 41.895 4.97344 41.7207C5.14875 41.5463 5.38969 41.446 5.63625 41.446Z" fill="white"/>
<path d="M36.4659 31H46.0952C47.1455 31 47.9999 30.1673 47.9999 29.1437V1.85629C47.9999 0.832731 47.1455 0 46.0952 0H25.9048C24.8545 0 24 0.832731 24 1.85629V29.1437C24 30.1673 24.8545 31 25.9048 31H32.6564H36.4659Z" fill="#F9CB0D"/>
</svg>
