<?xml version="1.0" encoding="UTF-8"?>
<svg width="24px" height="24px" viewBox="0 0 24 24" version="1.1" xmlns="http://www.w3.org/2000/svg" xmlns:xlink="http://www.w3.org/1999/xlink">
    <!-- Generator: Sketch 63.1 (92452) - https://sketch.com -->
    <title>ico / 24 / admin / projects</title>
    <desc>Created with Sketch.</desc>
    <g id="ico-/-24-/-admin-/-projects" stroke="none" stroke-width="1" fill="none" fill-rule="evenodd">
        <path d="M15.5857864,3 C15.8510029,3 16.1053568,3.10535684 16.2928932,3.29289322 L20.7071068,7.70710678 C20.8946432,7.89464316 21,8.14899707 21,8.41421356 L21,19 C21,20.1045695 20.1045695,21 19,21 L11,21 C9.8954305,21 9,20.1045695 9,19 L9,5 C9,3.8954305 9.8954305,3 11,3 L15.5857864,3 Z M6.5,7.5 C6.77614237,7.5 7,7.72385763 7,8 L7,17.4694905 C7,17.8171521 6.90937388,18.1588089 6.7370601,18.4607635 L5.43426502,20.7437201 C5.29739878,20.9835581 4.99201969,21.0670331 4.75218174,20.9301669 C4.67446998,20.8858198 4.61008208,20.8214319 4.56573498,20.7437201 L3.2629399,18.4607635 C3.09062612,18.1588089 3,17.8171521 3,17.4694905 L3,8 C3,7.72385763 3.22385763,7.5 3.5,7.5 L6.5,7.5 Z M15.5,4.70710678 C15.2545401,4.70710678 15.0503916,4.88398194 15.0080557,5.11723115 L15,5.20710678 L15,8.5 C15,8.74545989 15.1768752,8.94960837 15.4101244,8.99194433 L15.5,9 L18.7928932,9 C18.9255015,9 19.0526784,8.94732158 19.1464466,8.85355339 C19.320013,8.67998704 19.3392981,8.41056264 19.2043021,8.2156945 L19.1464466,8.14644661 L15.8535534,4.85355339 C15.7597852,4.7597852 15.6326082,4.70710678 15.5,4.70710678 Z M6,3 C6.55228475,3 7,3.44771525 7,4 L7,5.5 C7,5.77614237 6.77614237,6 6.5,6 L3.5,6 C3.22385763,6 3,5.77614237 3,5.5 L3,4 C3,3.44771525 3.44771525,3 4,3 L6,3 Z" id="Combined-Shape" fill="#0D0E2D"></path>
    </g>
</svg>