<?xml version="1.0" encoding="UTF-8"?>
<svg width="113px" height="107px" viewBox="0 0 113 107" version="1.1" xmlns="http://www.w3.org/2000/svg" xmlns:xlink="http://www.w3.org/1999/xlink">
    <!-- Generator: Sketch 63.1 (92452) - https://sketch.com -->
    <title>illustration / institute / quote</title>
    <desc>Created with Sketch.</desc>
    <g id="Page-1" stroke="none" stroke-width="1" fill="none" fill-rule="evenodd">
        <g id="04-01-07-1---Statna-sprava" transform="translate(-1223.000000, -3822.000000)" fill-rule="nonzero">
            <g id="illustration-/-institute-/-quote" transform="translate(1224.000000, 3824.000000)">
                <path d="M33.5461347,104 C40.4123026,104 46.3711554,101.62963 51.4226933,96.8888889 C56.4742311,92.1481481 59,86.617284 59,80.2962963 C59,77.2345679 58.5340815,74.2716049 57.6022444,71.4074074 C56.6704073,68.5432099 55.0764755,65.9259259 52.8204489,63.5555556 C50.4663342,61.0864198 47.3765586,59.1604938 43.5511222,57.7777778 C39.7256858,56.3950617 34.7722361,55.7037037 28.6907731,55.7037037 L28.6907731,55.7037037 L20.4513716,55.7037037 C21.4322527,45.4320988 25.0615129,36.691358 31.3391521,29.4814815 C37.6167914,22.2716049 46.2975894,15.9506173 57.3815461,10.5185185 L57.3815461,10.5185185 L50.9077307,0 C36.8811305,6.22222222 24.8898587,15.3580247 14.9339152,27.4074074 C4.97797174,39.4567901 0,51.4074074 0,63.2592593 C0,76 2.89359933,85.9753086 8.680798,93.1851852 C14.4679967,100.395062 22.7564422,104 33.5461347,104 Z" id="“" stroke="#0D0E2D" stroke-width="2"></path>
                <path d="M86.5461347,104 C93.4123026,104 99.3711554,101.62963 104.422693,96.8888889 C109.474231,92.1481481 112,86.617284 112,80.2962963 C112,77.2345679 111.534081,74.2716049 110.602244,71.4074074 C109.670407,68.5432099 108.076475,65.9259259 105.820449,63.5555556 C103.466334,61.0864198 100.376559,59.1604938 96.5511222,57.7777778 C92.7256858,56.3950617 87.7722361,55.7037037 81.6907731,55.7037037 L81.6907731,55.7037037 L73.4513716,55.7037037 C74.4322527,45.4320988 78.0615129,36.691358 84.3391521,29.4814815 C90.6167914,22.2716049 99.2975894,15.9506173 110.381546,10.5185185 L110.381546,10.5185185 L103.907731,0 C89.8811305,6.22222222 77.8898587,15.3580247 67.9339152,27.4074074 C57.9779717,39.4567901 53,51.4074074 53,63.2592593 C53,76 55.8935993,85.9753086 61.680798,93.1851852 C67.4679967,100.395062 75.7564422,104 86.5461347,104 Z" id="Path" fill="#F9CB0D"></path>
            </g>
        </g>
    </g>
</svg>