<?xml version="1.0" encoding="UTF-8" standalone="no"?>
<svg
   width="48"
   height="48"
   viewBox="0 0 48 48"
   version="1.1"
   xml:space="preserve"
   style="clip-rule:evenodd;fill-rule:evenodd;stroke-linejoin:round;stroke-miterlimit:2"
   id="svg102"
   sodipodi:docname="sebapoznavanie-invert.svg"
   inkscape:version="1.1.1 (c3084ef, 2021-09-22)"
   xmlns:inkscape="http://www.inkscape.org/namespaces/inkscape"
   xmlns:sodipodi="http://sodipodi.sourceforge.net/DTD/sodipodi-0.dtd"
   xmlns="http://www.w3.org/2000/svg"
   xmlns:svg="http://www.w3.org/2000/svg"><defs
   id="defs106" /><sodipodi:namedview
   id="namedview104"
   pagecolor="#ffffff"
   bordercolor="#666666"
   borderopacity="1.0"
   inkscape:pageshadow="2"
   inkscape:pageopacity="0.0"
   inkscape:pagecheckerboard="0"
   showgrid="false"
   inkscape:zoom="8.4209649"
   inkscape:cx="59.791248"
   inkscape:cy="17.218929"
   inkscape:window-width="1792"
   inkscape:window-height="982"
   inkscape:window-x="154"
   inkscape:window-y="1105"
   inkscape:window-maximized="0"
   inkscape:current-layer="svg102" />
    
    
<g
   transform="matrix(0.23549899,0,0,0.23520943,26.376122,48.000007)"
   id="g412"
   style="clip-rule:evenodd;fill-rule:evenodd;stroke-linejoin:round;stroke-miterlimit:2"><path
     d="m 0,-204.073 c 1.765,0.255 3.531,0.509 5.295,0.768 0.656,0.096 1.318,0.17 1.965,0.312 2.187,0.479 3.384,2.036 3.048,3.925 -0.339,1.906 -2.002,2.935 -4.177,2.758 -4.427,-0.361 -8.87,-0.998 -13.29,-0.884 -10.638,0.275 -21.178,1.744 -31.541,4.108 -6.441,1.47 -12.908,3.15 -19.049,5.543 -12.741,4.965 -20.403,15.031 -25.538,27.264 -1.073,2.558 -1.986,5.227 -2.588,7.93 -1.347,6.052 -3.341,11.848 -5.916,17.483 -1.852,4.054 -1.575,4.549 1.75,7.494 1.225,1.085 2.409,2.311 3.28,3.684 1.834,2.887 1.944,5.892 0.406,9.073 -4.496,9.3 -9.911,18.005 -16.204,26.195 -3.383,4.402 -3.921,3.91 1.628,7.203 0.912,0.541 1.875,0.996 2.796,1.523 5.529,3.162 7.165,8.232 4.515,14.074 -0.626,1.381 -1.373,2.706 -2.148,4.217 1.051,0.82 2.078,1.637 3.122,2.432 2.724,2.075 2.968,3.357 1.184,6.199 -0.274,0.436 -0.484,0.911 -0.745,1.411 0.297,0.22 0.489,0.394 0.709,0.521 5.691,3.262 7.472,7.236 5.942,13.647 -0.731,3.068 -0.677,6.033 0.403,8.997 1.227,3.369 4.054,4.877 7.582,4.051 13.784,-3.226 27.044,-8.11 40.378,-12.757 3.626,-1.264 7.265,-2.552 10.736,-4.175 2.185,-1.023 4.165,-2.571 6.059,-4.103 1.769,-1.43 2.559,-3.464 2.756,-5.769 0.193,-2.268 1.603,-3.451 3.652,-3.305 1.957,0.14 3.129,1.627 3.051,3.916 -0.13,3.841 -1.697,7.047 -4.376,9.744 -4.585,4.614 -10.424,6.966 -16.402,9.056 -2.814,0.984 -5.642,1.926 -8.793,2.999 5.653,6.438 9.635,13.604 11.916,21.554 h 76.69 c 0,-0.377 0.072,-0.605 -0.01,-0.735 -5.556,-8.828 -8.036,-18.703 -9.81,-28.814 -0.378,-2.155 -0.647,-4.33 -0.92,-6.501 -0.302,-2.4 0.732,-4.042 2.689,-4.37 2.063,-0.346 3.536,0.933 4.026,3.418 1.229,6.24 2.302,12.519 3.783,18.699 1.289,5.376 3.584,10.385 6.713,14.999 1.07,1.58 1.96,3.322 2.678,5.092 1.084,2.671 -0.389,4.845 -3.276,4.905 -4.183,0.087 -8.368,0.047 -12.552,0.08 -0.387,0.003 -0.774,0.138 -1.16,0.212 h -72.542 c -0.825,-1.284 -1.834,-2.486 -2.44,-3.867 -1.778,-4.055 -3.063,-8.364 -5.182,-12.222 -1.722,-3.136 -4.332,-5.794 -6.623,-8.603 -0.875,-1.073 -1.975,-1.072 -3.367,-0.645 -8.859,2.722 -17.722,5.446 -26.66,7.89 -6.223,1.701 -12.452,-1.789 -14.769,-7.797 -1.672,-4.334 -2.04,-8.715 -0.887,-13.258 0.926,-3.646 0.437,-4.581 -2.786,-6.48 -0.628,-0.37 -1.253,-0.746 -1.87,-1.133 -1.868,-1.172 -2.747,-2.858 -2.442,-5.05 0.17,-1.22 0.526,-2.415 0.808,-3.665 -0.317,-0.259 -0.619,-0.511 -0.928,-0.756 -4.347,-3.456 -4.641,-4.977 -1.917,-9.926 0.128,-0.232 0.26,-0.462 0.388,-0.694 2.824,-5.125 2.592,-6.019 -2.628,-8.707 -3.603,-1.855 -6.865,-4.004 -8.413,-7.991 v -2.791 c 1.491,-2.485 2.937,-4.999 4.481,-7.45 4.451,-7.065 9.212,-13.951 13.325,-21.206 2.879,-5.08 3.719,-4.249 -1.534,-8.971 -3.879,-3.486 -5.116,-7.785 -3.02,-12.395 3.119,-6.861 4.969,-14.093 7.16,-21.255 6.116,-19.99 18.483,-34.28 39.188,-39.766 10.161,-2.693 20.644,-4.19 31.005,-6.1 3.373,-0.622 6.822,-0.835 10.236,-1.235 z"
     style="fill:#ffffff;fill-rule:nonzero"
     id="path410" /></g><g
   transform="matrix(0.23549899,0,0,0.23520943,16.032442,13.928347)"
   id="g416"
   style="clip-rule:evenodd;fill-rule:evenodd;stroke-linejoin:round;stroke-miterlimit:2;fill:#ffffff"><path
     d="m 0,-35.57 c -0.196,1.774 -1.321,2.791 -3.107,3.275 -5.067,1.374 -9.694,3.671 -13.596,7.183 -6.475,5.826 -10.185,13.29 -12.291,21.63 -0.422,1.67 -0.721,3.375 -1.227,5.018 -0.547,1.774 -2.113,2.611 -3.895,2.27 -1.693,-0.324 -2.943,-1.854 -2.599,-3.662 2.766,-14.531 8.574,-27.232 22.07,-34.921 3.186,-1.814 6.78,-2.969 10.278,-4.158 2.299,-0.782 4.394,0.95 4.367,3.365"
     style="fill:#ffffff;fill-rule:nonzero"
     id="path414" /></g><g
   transform="matrix(0.23541195,0.00638294,0.0063908,-0.2351225,7.1754124,17.600997)"
   id="g420"
   style="clip-rule:evenodd;fill-rule:evenodd;stroke-linejoin:round;stroke-miterlimit:2;fill:#ffffff"><path
     d="m 0.092,0.002 c -1.824,-0.021 -3.452,1.584 -3.447,3.4 0.006,1.87 1.541,3.359 3.447,3.343 C 1.949,6.729 3.334,5.366 3.385,3.502 3.438,1.613 1.943,0.023 0.092,0.002"
     style="fill:#ffffff;fill-rule:nonzero"
     id="path418" /></g><g
   transform="matrix(0.23549899,0,0,0.23520943,47.999992,15.784997)"
   id="g424"
   style="clip-rule:evenodd;fill-rule:evenodd;stroke-linejoin:round;stroke-miterlimit:2"><path
     d="m 0,1.844 c -0.891,1.802 -2.296,2.552 -4.341,2.471 -2.981,-0.119 -5.971,-0.002 -8.956,-0.043 -2.205,-0.031 -3.677,-1.397 -3.704,-3.322 -0.028,-1.912 1.448,-3.394 3.617,-3.438 3.25,-0.064 6.502,0 9.753,-0.025 1.756,-0.014 2.756,1.062 3.631,2.364 z"
     style="fill:#fbd42a;fill-rule:nonzero"
     id="path422" /></g><g
   transform="matrix(0.23549899,0,0,0.23520943,32.230432,4.006087)"
   id="g428"
   style="clip-rule:evenodd;fill-rule:evenodd;stroke-linejoin:round;stroke-miterlimit:2"><path
     d="m 0,-17.032 c 1.787,1.032 2.482,2.555 2.39,4.628 -0.12,2.715 -0.014,5.439 -0.034,8.16 -0.019,2.627 -1.365,4.244 -3.462,4.212 -2.041,-0.03 -3.307,-1.573 -3.323,-4.108 -0.019,-2.853 0.084,-5.71 -0.035,-8.558 -0.085,-2.044 0.665,-3.449 2.471,-4.334 z"
     style="fill:#fbd42a;fill-rule:nonzero"
     id="path426" /></g><g
   transform="matrix(0.23549899,0,0,0.23520943,35.197152,12.531207)"
   id="g432"
   style="clip-rule:evenodd;fill-rule:evenodd;stroke-linejoin:round;stroke-miterlimit:2"><path
     d="m 0,66.31 c 5.613,2.634 7.094,7.024 6.77,12.362 -0.096,1.588 0.03,3.192 -0.095,4.777 -0.293,3.721 -2.179,6.426 -5.367,8.35 -0.65,0.392 -1.308,1.297 -1.388,2.028 -0.803,7.371 -6.306,12.666 -13.383,12.735 -7.201,0.07 -13.004,-5.174 -13.739,-12.545 -0.119,-1.194 -0.475,-1.815 -1.557,-2.392 -3.002,-1.6 -4.87,-4.217 -5.176,-7.581 -0.281,-3.093 -0.304,-6.255 -10e-4,-9.344 0.376,-3.845 2.691,-6.533 6.678,-8.414 -1.325,-2.047 -2.278,-4.233 -3.851,-5.795 -2.862,-2.841 -5.989,-5.446 -9.184,-7.917 -24.325,-18.806 -23.349,-56.83 2.044,-74.138 C -10.728,-40.322 22.87,-23.107 29.16,4.986 33.518,24.449 27.919,40.89 11.911,53.4 8.888,55.762 5.985,58.318 3.297,61.051 1.922,62.449 1.143,64.434 0,66.31 m -13.483,19.887 c 3.119,0 6.237,0.023 9.355,-0.007 2.773,-0.027 3.985,-1.23 4.048,-4.013 0.044,-1.923 0.052,-3.849 -0.005,-5.772 -0.076,-2.6 -1.241,-3.776 -3.815,-3.789 -6.502,-0.031 -13.005,-0.031 -19.507,0 -2.628,0.012 -3.831,1.272 -3.881,3.959 -0.034,1.857 -0.034,3.716 0,5.573 0.05,2.749 1.305,4.012 4.052,4.041 3.251,0.033 6.502,0.008 9.753,0.008 m 6.407,6.959 h -13.338 c 0.544,4.314 3.518,6.928 7.337,6.598 3.517,-0.303 6.124,-3.167 6.001,-6.598"
     style="fill:#fbd42a;fill-rule:nonzero"
     id="path430" /></g><g
   transform="matrix(0.23549899,0,0,0.23520943,40.967252,4.335197)"
   id="g436"
   style="clip-rule:evenodd;fill-rule:evenodd;stroke-linejoin:round;stroke-miterlimit:2"><path
     d="M 0,14.818 C -0.852,14.137 -2.188,13.566 -2.595,12.604 -3.005,11.633 -2.94,9.884 -2.305,9.151 0.12,6.354 2.795,3.76 5.507,1.23 6.825,0 8.791,0.273 10,1.528 11.154,2.727 11.408,4.609 10.233,5.874 7.71,8.592 5.044,11.181 2.37,13.752 1.885,14.218 1.079,14.35 0,14.818"
     style="fill:#fbd42a;fill-rule:nonzero"
     id="path434" /></g><g
   transform="matrix(0.23549899,0,0,0.23520943,23.783562,5.045337)"
   id="g440"
   style="clip-rule:evenodd;fill-rule:evenodd;stroke-linejoin:round;stroke-miterlimit:2"><path
     d="m 0,8.448 c -0.703,0.861 -1.284,2.187 -2.243,2.572 -0.979,0.394 -2.711,0.3 -3.449,-0.343 -2.79,-2.431 -5.386,-5.103 -7.9,-7.827 -1.246,-1.35 -0.939,-3.261 0.363,-4.477 1.203,-1.124 3.104,-1.339 4.352,-0.169 2.707,2.535 5.299,5.195 7.866,7.873 0.458,0.478 0.567,1.29 1.011,2.371"
     style="fill:#fbd42a;fill-rule:nonzero"
     id="path438" /></g><g
   transform="matrix(0.23549899,0,0,0.23520943,17.966552,15.195087)"
   id="g444"
   style="clip-rule:evenodd;fill-rule:evenodd;stroke-linejoin:round;stroke-miterlimit:2"><path
     d="m 0,6.779 c -1.726,0 -3.454,0.06 -5.176,-0.016 C -7.155,6.676 -8.424,5.346 -8.455,3.482 -8.485,1.637 -7.245,0.121 -5.305,0.056 -1.791,-0.06 1.731,-0.057 5.245,0.052 7.191,0.113 8.444,1.613 8.427,3.452 8.408,5.392 7.091,6.665 4.978,6.784 4.846,6.791 4.713,6.791 4.58,6.791 3.053,6.792 1.527,6.792 0,6.792 Z"
     style="fill:#fbd42a;fill-rule:nonzero"
     id="path442" /></g></svg>
