<svg width="48" height="48" xml:space="preserve" style="clip-rule:evenodd;fill-rule:evenodd;stroke-linejoin:round;stroke-miterlimit:2" xmlns="http://www.w3.org/2000/svg"><path d="M0 75.478C.071 47.142.062 18.806.039-9.53c-.007-8.668-5.137-13.79-13.757-13.81-10.143-.024-20.287-.006-30.431-.006h-2.966c0-4.182.122-8.104-.025-12.015-.32-8.514-4.255-14.846-11.909-18.673-1.914-.957-4.071-1.426-6.117-2.119h-18.615c-.141.188-.245.429-.427.556-1.658 1.155-2.247 2.712-1.545 4.596.673 1.804 2.16 2.4 4.012 2.387 4.359-.032 8.718-.034 13.078-.004 8.365.058 13.991 5.706 14.05 14.094.025 3.592.004 7.185.004 10.976h-6.253c0-2.579.028-5.218-.01-7.856-.025-1.757.034-3.543-.263-5.26-.503-2.919-2.363-4.769-5.25-5.417-1.211-.271-2.494-.301-3.744-.302-20.54-.017-41.079-.014-61.618-.011-6.95.001-9.345 2.415-9.346 9.388v9.466h-6.407c.26-5.187-.042-10.508.932-15.586 1.12-5.843 6.65-9.457 12.944-9.482 11.736-.047 23.473-.005 35.21-.022 3.312-.005 5.369-2.134 4.412-4.748-.391-1.069-1.548-1.858-2.357-2.775h-40.753c-1.251.41-2.509.796-3.751 1.232-8.17 2.867-13.683 10.398-13.879 19.087-.091 4.011-.016 8.025-.016 12.326-1.054.06-1.932.154-2.81.155-9.555.01-19.11.006-28.665.006-9.361 0-12.279 1.935-15.781 10.462v95.593c.23.216.49.408.686.652 1.177 1.464 2.643 2.055 4.443 1.357 1.928-.747 2.421-2.328 2.418-4.252-.024-12.913-.012-25.826-.012-38.739v-3.239c.805.886 1.245 1.332 1.642 1.815 5.489 6.668 12.379 11.238 20.689 13.548 1.668.463 2.096 1.206 2.043 2.779-.097 2.847-.09 5.702-.008 8.551.149 5.194 3.454 8.408 8.618 8.449 3.437.027 6.875.027 10.313 0 5.321-.042 8.526-3.284 8.575-8.676.029-3.078.005-6.156.005-9.364h83.178c0 3.061-.02 5.973.005 8.885.052 5.995 3.211 9.143 9.174 9.159 3.354.01 6.709.038 10.062-.008 4.89-.068 8.169-3.324 8.264-8.219.06-3.102-.062-6.208.079-9.304.032-.694.701-1.803 1.283-1.96 9.155-2.481 16.542-7.541 22.368-14.969.071-.091.294-.063.593-.117v35.768c-.384-.169-1.828.436-4.039 1.605h10.153Zm-51.755-19.923h12.132v10.441h-12.132zm.088-18.479h12.071v10.721h-12.071zm-110.774 18.515h12.176v10.375h-12.176zm-.166-18.597h12.312v10.927c-3.749 0-7.399.04-11.046-.052-.431-.011-1.196-.735-1.21-1.148-.102-3.151-.056-6.307-.056-9.727m94.039-60.545h-64.93v-11.144h64.93zM-7.459-8.509c-.065 8.966.168 17.954-.378 26.893-.761 12.451-10.676 24.269-22.608 27.807-.382.113-.784.155-1.457.284 0-3.006.036-5.832-.009-8.658-.081-5.176-3.352-8.379-8.575-8.417a694.89 694.89 0 0 0-10.311 0c-5.2.038-8.455 3.196-8.604 8.445-.092 3.251-.017 6.508-.017 9.929h-83.183c0-3.268.02-6.426-.004-9.583-.043-5.554-3.221-8.761-8.711-8.792-3.353-.02-6.706-.02-10.059 0-5.364.031-8.611 3.192-8.743 8.57-.068 2.752-.012 5.507-.012 8.58-4.825-1.228-8.795-3.42-12.314-6.41-7.858-6.676-11.882-15.228-12.012-25.529-.101-8.046-.031-16.095-.019-24.143.006-4.451 1.809-6.284 6.239-6.288 14.67-.016 29.341-.006 44.012-.006 43.173 0 86.346-.001 129.52 0 5.761 0 7.287 1.502 7.245 7.318M-202.014 95.286v10.063c1.312 3.666 2.127 7.618 4.03 10.947 5.901 10.32 15.087 15.323 26.976 15.325 27.829.005 55.658-.007 83.487.01l3.937-2.525v-6.634c-1.623 1.046-2.614 1.661-2.71 1.661-28.006.006-56.012.022-84.017-.002-14.798-.013-24.157-9.431-24.168-24.232 0-.67-.037-1.344.007-2.012.139-2.164-.248-4.123-2.546-4.929-2.317-.814-3.787.566-4.996 2.328" style="fill:#0e123b;fill-rule:nonzero" transform="matrix(.18878 0 0 .18879 38.136 10.601)"/><path d="M0-8.604c-.153.405-.262.56-.262.716-.024 11.815-.071 23.63.031 35.444.006.684 1.138 1.801 1.906 1.966 6.29 1.35 12.572 2.915 18.945 3.672 17.928 2.129 35.824 1.707 53.401-2.723 5.197-1.311 10.13-3.789 15.05-6.026 2.134-.97 3.104-2.957 3.07-5.573-.131-10.138-.05-20.279-.061-30.419 0-.773-.1-1.545-.171-2.556-1.18.492-2.024.828-2.856 1.194C74.275-6.4 59.48.073 44.734 6.654c-3.546 1.583-6.819 1.553-10.365-.066C25.39 2.487 16.315-1.405 7.28-5.383 4.855-6.45 2.434-7.527 0-8.604M-7.819 25.67V-8.189c0-4.383-.143-4.553-5.06-5.719v2.744c0 9.809.147 19.622-.075 29.426-.085 3.74 1.694 5.688 5.135 7.408m54.468-59.957c-3.417-3.875-11.208-3.776-13.987.042 2.993 3.79 10.665 3.829 13.987-.042m-58.806 20.514c.897 0-5.629-2.245-4.743-2.284.459-1.632-3.592-1.645-5.073-2.257-3.712-1.535-7.35-3.249-11.041-4.837-3.54-1.523-5.796-4-5.837-7.993-.042-4.123 2.301-6.611 5.912-8.201 21.99-9.68 44.01-19.293 65.918-29.157 4.684-2.109 8.867-2.349 13.384.098 2.82 1.527 5.869 2.632 9.049 4.03 7.954 3.7 10.149 4.539 10.149 4.539 7.637 3.212 15.188 6.631 22.77 9.973.383.168.768.331 1.149.506 2.838 1.301 3.886 3.292 2.883 5.469-.977 2.118-3.037 2.661-5.827 1.451-4.069-1.765-8.115-3.585-12.175-5.373-10.877-4.792-21.734-9.628-32.662-14.299-1.191-.509-2.985-.506-4.172.011-22.254 9.695-44.459 19.501-66.668 29.296-.796.351-1.535.828-2.824 1.533 1.173.692 1.812 1.159 2.519 1.473 7.805 3.459 15.603 6.934 23.457 10.28.913.388 2.301.354 3.213-.054 8.709-3.898 17.355-7.938 26.044-11.885 1.278-.581 1.907-1.197 1.836-2.781-.15-3.317 1.722-5.687 4.313-7.501 5.464-3.825 14.697-3.839 20.258-.084 6.097 4.118 6.042 11.389-.282 15.207-5.696 3.439-11.714 3.547-17.853 1.048-.816-.332-1.993-.491-2.744-.155-7.489 3.348-14.923 6.816-22.369 10.259-.351.161-.667.396-1.396.835 3.914 1.745 7.46 3.337 11.015 4.908 7.12 3.146 14.216 6.351 21.397 9.352 1.221.51 3.025.594 4.211.076 22.323-9.742 44.593-19.604 66.87-29.451.73-.323 1.409-.76 2.892-1.571-2.041-.955-3.407-1.607-4.785-2.235-1.752-.798-3.552-1.499-5.26-2.381-2.035-1.051-2.709-2.946-1.887-4.841.805-1.856 2.763-2.796 4.821-1.967 3.256 1.312 6.503 2.699 9.597 4.349 2.884 1.537 4.291 4.185 4.154 7.496-.137 3.304-1.774 5.759-4.726 7.168a233.417 233.417 0 0 1-11.698 5.204c-1.557.642-2.095 1.475-2.083 3.17.077 11.485-.068 22.972.094 34.455.064 4.536-1.682 7.919-5.118 10.62-5.186 4.078-11.256 6.228-17.532 7.823-16.993 4.32-34.284 5.147-51.662 3.635-8.477-.738-16.879-2.331-25.77-3.602.353.895.584 2.162 1.267 3.1 3.453 4.742 7.026 9.396 10.55 14.086 2.53 3.367 2.454 4.538-.455 7.479H8.408l-8.734-9.96c0 2.109.303 3.905-.087 5.535-.375 1.564-1.47 2.956-2.248 4.425h-2.516c-4.249-2.199-1.928-6.417-2.933-9.932l-8.135 9.932h-2.516c-3.248-2.386-3.464-3.966-.98-7.277 3.521-4.692 7.053-9.374 10.571-14.067 2.537-3.385 1.944-6.263-1.656-8.234a42.176 42.176 0 0 1-2.796-1.683c-4.609-3.007-7.104-6.963-6.836-12.779.332-7.194.102-14.414.072-21.623-.02-4.737.177-10.181-.175-15.628" style="fill:#fbd42a;fill-rule:nonzero" transform="matrix(.18878 0 0 .18879 25.712 36.248)"/></svg>