<?xml version="1.0" encoding="UTF-8" standalone="no"?>
<svg
   width="48"
   height="48"
   viewBox="0 0 48 48"
   version="1.1"
   xml:space="preserve"
   style="clip-rule:evenodd;fill-rule:evenodd;stroke-linejoin:round;stroke-miterlimit:2"
   id="svg102"
   sodipodi:docname="staze-invert.svg"
   inkscape:version="1.1.1 (c3084ef, 2021-09-22)"
   xmlns:inkscape="http://www.inkscape.org/namespaces/inkscape"
   xmlns:sodipodi="http://sodipodi.sourceforge.net/DTD/sodipodi-0.dtd"
   xmlns="http://www.w3.org/2000/svg"
   xmlns:svg="http://www.w3.org/2000/svg"><defs
   id="defs106" /><sodipodi:namedview
   id="namedview104"
   pagecolor="#ffffff"
   bordercolor="#666666"
   borderopacity="1.0"
   inkscape:pageshadow="2"
   inkscape:pageopacity="0.0"
   inkscape:pagecheckerboard="0"
   showgrid="false"
   inkscape:zoom="8.4209649"
   inkscape:cx="59.791248"
   inkscape:cy="17.218929"
   inkscape:window-width="1792"
   inkscape:window-height="982"
   inkscape:window-x="154"
   inkscape:window-y="1105"
   inkscape:window-maximized="0"
   inkscape:current-layer="svg102" />
    <g
   transform="matrix(0.18878018,0,0,0.18878916,38.136239,10.601078)"
   id="g96"
   style="fill:#ffffff">
        <path
   d="M 0,75.478 C 0.071,47.142 0.062,18.806 0.039,-9.53 c -0.007,-8.668 -5.137,-13.79 -13.757,-13.81 -10.143,-0.024 -20.287,-0.006 -30.431,-0.006 h -2.966 c 0,-4.182 0.122,-8.104 -0.025,-12.015 -0.32,-8.514 -4.255,-14.846 -11.909,-18.673 -1.914,-0.957 -4.071,-1.426 -6.117,-2.119 h -18.615 c -0.141,0.188 -0.245,0.429 -0.427,0.556 -1.658,1.155 -2.247,2.712 -1.545,4.596 0.673,1.804 2.16,2.4 4.012,2.387 4.359,-0.032 8.718,-0.034 13.078,-0.004 8.365,0.058 13.991,5.706 14.05,14.094 0.025,3.592 0.004,7.185 0.004,10.976 h -6.253 c 0,-2.579 0.028,-5.218 -0.01,-7.856 -0.025,-1.757 0.034,-3.543 -0.263,-5.26 -0.503,-2.919 -2.363,-4.769 -5.25,-5.417 -1.211,-0.271 -2.494,-0.301 -3.744,-0.302 -20.54,-0.017 -41.079,-0.014 -61.618,-0.011 -6.95,10e-4 -9.345,2.415 -9.346,9.388 v 9.466 h -6.407 c 0.26,-5.187 -0.042,-10.508 0.932,-15.586 1.12,-5.843 6.65,-9.457 12.944,-9.482 11.736,-0.047 23.473,-0.005 35.21,-0.022 3.312,-0.005 5.369,-2.134 4.412,-4.748 -0.391,-1.069 -1.548,-1.858 -2.357,-2.775 h -40.753 c -1.251,0.41 -2.509,0.796 -3.751,1.232 -8.17,2.867 -13.683,10.398 -13.879,19.087 -0.091,4.011 -0.016,8.025 -0.016,12.326 -1.054,0.06 -1.932,0.154 -2.81,0.155 -9.555,0.01 -19.11,0.006 -28.665,0.006 -9.361,0 -12.279,1.935 -15.781,10.462 v 95.593 c 0.23,0.216 0.49,0.408 0.686,0.652 1.177,1.464 2.643,2.055 4.443,1.357 1.928,-0.747 2.421,-2.328 2.418,-4.252 -0.024,-12.913 -0.012,-25.826 -0.012,-38.739 v -3.239 c 0.805,0.886 1.245,1.332 1.642,1.815 5.489,6.668 12.379,11.238 20.689,13.548 1.668,0.463 2.096,1.206 2.043,2.779 -0.097,2.847 -0.09,5.702 -0.008,8.551 0.149,5.194 3.454,8.408 8.618,8.449 3.437,0.027 6.875,0.027 10.313,0 5.321,-0.042 8.526,-3.284 8.575,-8.676 0.029,-3.078 0.005,-6.156 0.005,-9.364 h 83.178 c 0,3.061 -0.02,5.973 0.005,8.885 0.052,5.995 3.211,9.143 9.174,9.159 3.354,0.01 6.709,0.038 10.062,-0.008 4.89,-0.068 8.169,-3.324 8.264,-8.219 0.06,-3.102 -0.062,-6.208 0.079,-9.304 0.032,-0.694 0.701,-1.803 1.283,-1.96 9.155,-2.481 16.542,-7.541 22.368,-14.969 0.071,-0.091 0.294,-0.063 0.593,-0.117 v 35.768 c -0.384,-0.169 -1.828,0.436 -4.039,1.605 H -1.482 Z M -51.755,55.555 h 12.132 v 10.441 h -12.132 z m 0.088,-18.479 h 12.071 v 10.721 h -12.071 z m -110.774,18.515 h 12.176 v 10.375 h -12.176 z m -0.166,-18.597 h 12.312 v 10.927 c -3.749,0 -7.399,0.04 -11.046,-0.052 -0.431,-0.011 -1.196,-0.735 -1.21,-1.148 -0.102,-3.151 -0.056,-6.307 -0.056,-9.727 m 94.039,-60.545 h -64.93 v -11.144 h 64.93 z m 61.109,15.042 c -0.065,8.966 0.168,17.954 -0.378,26.893 -0.761,12.451 -10.676,24.269 -22.608,27.807 -0.382,0.113 -0.784,0.155 -1.457,0.284 0,-3.006 0.036,-5.832 -0.009,-8.658 -0.081,-5.176 -3.352,-8.379 -8.575,-8.417 -3.437,-0.025 -6.875,-0.026 -10.311,0 -5.2,0.038 -8.455,3.196 -8.604,8.445 -0.092,3.251 -0.017,6.508 -0.017,9.929 h -83.183 c 0,-3.268 0.02,-6.426 -0.004,-9.583 -0.043,-5.554 -3.221,-8.761 -8.711,-8.792 -3.353,-0.02 -6.706,-0.02 -10.059,0 -5.364,0.031 -8.611,3.192 -8.743,8.57 -0.068,2.752 -0.012,5.507 -0.012,8.58 -4.825,-1.228 -8.795,-3.42 -12.314,-6.41 -7.858,-6.676 -11.882,-15.228 -12.012,-25.529 -0.101,-8.046 -0.031,-16.095 -0.019,-24.143 0.006,-4.451 1.809,-6.284 6.239,-6.288 14.67,-0.016 29.341,-0.006 44.012,-0.006 43.173,0 86.346,-10e-4 129.52,0 5.761,0 7.287,1.502 7.245,7.318 M -202.014,95.286 v 10.063 c 1.312,3.666 2.127,7.618 4.03,10.947 5.901,10.32 15.087,15.323 26.976,15.325 27.829,0.005 55.658,-0.007 83.487,0.01 l 3.937,-2.525 v -6.634 c -1.623,1.046 -2.614,1.661 -2.71,1.661 -28.006,0.006 -56.012,0.022 -84.017,-0.002 -14.798,-0.013 -24.157,-9.431 -24.168,-24.232 0,-0.67 -0.037,-1.344 0.007,-2.012 0.139,-2.164 -0.248,-4.123 -2.546,-4.929 -2.317,-0.814 -3.787,0.566 -4.996,2.328"
   style="fill:#ffffff;fill-rule:nonzero"
   id="path94" />
    </g>
    <g
   transform="matrix(0.18878018,0,0,0.18878916,25.711639,36.248438)"
   id="g100">
        <path
   d="m 0,-8.604 c -0.153,0.405 -0.262,0.56 -0.262,0.716 -0.024,11.815 -0.071,23.63 0.031,35.444 0.006,0.684 1.138,1.801 1.906,1.966 6.29,1.35 12.572,2.915 18.945,3.672 17.928,2.129 35.824,1.707 53.401,-2.723 5.197,-1.311 10.13,-3.789 15.05,-6.026 2.134,-0.97 3.104,-2.957 3.07,-5.573 -0.131,-10.138 -0.05,-20.279 -0.061,-30.419 0,-0.773 -0.1,-1.545 -0.171,-2.556 -1.18,0.492 -2.024,0.828 -2.856,1.194 C 74.275,-6.4 59.48,0.073 44.734,6.654 41.188,8.237 37.915,8.207 34.369,6.588 25.39,2.487 16.315,-1.405 7.28,-5.383 4.855,-6.45 2.434,-7.527 0,-8.604 M -7.819,25.67 V -8.189 c 0,-4.383 -0.143,-4.553 -5.06,-5.719 v 2.744 c 0,9.809 0.147,19.622 -0.075,29.426 -0.085,3.74 1.694,5.688 5.135,7.408 m 54.468,-59.957 c -3.417,-3.875 -11.208,-3.776 -13.987,0.042 2.993,3.79 10.665,3.829 13.987,-0.042 m -58.806,20.514 c 0.897,0 -5.629,-2.245 -4.743,-2.284 0.459,-1.632 -3.592,-1.645 -5.073,-2.257 -3.712,-1.535 -7.35,-3.249 -11.041,-4.837 -3.54,-1.523 -5.796,-4 -5.837,-7.993 -0.042,-4.123 2.301,-6.611 5.912,-8.201 21.99,-9.68 44.01,-19.293 65.918,-29.157 4.684,-2.109 8.867,-2.349 13.384,0.098 2.82,1.527 5.869,2.632 9.049,4.03 7.954,3.7 10.149,4.539 10.149,4.539 7.637,3.212 15.188,6.631 22.77,9.973 0.383,0.168 0.768,0.331 1.149,0.506 2.838,1.301 3.886,3.292 2.883,5.469 -0.977,2.118 -3.037,2.661 -5.827,1.451 -4.069,-1.765 -8.115,-3.585 -12.175,-5.373 -10.877,-4.792 -21.734,-9.628 -32.662,-14.299 -1.191,-0.509 -2.985,-0.506 -4.172,0.011 -22.254,9.695 -44.459,19.501 -66.668,29.296 -0.796,0.351 -1.535,0.828 -2.824,1.533 1.173,0.692 1.812,1.159 2.519,1.473 7.805,3.459 15.603,6.934 23.457,10.28 0.913,0.388 2.301,0.354 3.213,-0.054 8.709,-3.898 17.355,-7.938 26.044,-11.885 1.278,-0.581 1.907,-1.197 1.836,-2.781 -0.15,-3.317 1.722,-5.687 4.313,-7.501 5.464,-3.825 14.697,-3.839 20.258,-0.084 6.097,4.118 6.042,11.389 -0.282,15.207 -5.696,3.439 -11.714,3.547 -17.853,1.048 -0.816,-0.332 -1.993,-0.491 -2.744,-0.155 -7.489,3.348 -14.923,6.816 -22.369,10.259 -0.351,0.161 -0.667,0.396 -1.396,0.835 3.914,1.745 7.46,3.337 11.015,4.908 7.12,3.146 14.216,6.351 21.397,9.352 1.221,0.51 3.025,0.594 4.211,0.076 22.323,-9.742 44.593,-19.604 66.87,-29.451 0.73,-0.323 1.409,-0.76 2.892,-1.571 -2.041,-0.955 -3.407,-1.607 -4.785,-2.235 -1.752,-0.798 -3.552,-1.499 -5.26,-2.381 -2.035,-1.051 -2.709,-2.946 -1.887,-4.841 0.805,-1.856 2.763,-2.796 4.821,-1.967 3.256,1.312 6.503,2.699 9.597,4.349 2.884,1.537 4.291,4.185 4.154,7.496 -0.137,3.304 -1.774,5.759 -4.726,7.168 -3.851,1.838 -7.752,3.58 -11.698,5.204 -1.557,0.642 -2.095,1.475 -2.083,3.17 0.077,11.485 -0.068,22.972 0.094,34.455 0.064,4.536 -1.682,7.919 -5.118,10.62 -5.186,4.078 -11.256,6.228 -17.532,7.823 C 60,41.869 42.709,42.696 25.331,41.184 16.854,40.446 8.452,38.853 -0.439,37.582 c 0.353,0.895 0.584,2.162 1.267,3.1 3.453,4.742 7.026,9.396 10.55,14.086 2.53,3.367 2.454,4.538 -0.455,7.479 H 8.408 c -2.807,-3.201 -5.613,-6.401 -8.734,-9.96 0,2.109 0.303,3.905 -0.087,5.535 -0.375,1.564 -1.47,2.956 -2.248,4.425 h -2.516 c -4.249,-2.199 -1.928,-6.417 -2.933,-9.932 -2.822,3.444 -5.478,6.688 -8.135,9.932 h -2.516 c -3.248,-2.386 -3.464,-3.966 -0.98,-7.277 3.521,-4.692 7.053,-9.374 10.571,-14.067 2.537,-3.385 1.944,-6.263 -1.656,-8.234 -0.953,-0.522 -1.885,-1.088 -2.796,-1.683 -4.609,-3.007 -7.104,-6.963 -6.836,-12.779 0.332,-7.194 0.102,-14.414 0.072,-21.623 -0.02,-4.737 0.177,-10.181 -0.175,-15.628"
   style="fill:#fbd42a;fill-rule:nonzero"
   id="path98" />
    </g>
</svg>
