<?xml version="1.0" encoding="UTF-8"?>
<svg width="34px" height="34px" viewBox="0 0 34 34" version="1.1" xmlns="http://www.w3.org/2000/svg" xmlns:xlink="http://www.w3.org/1999/xlink">
    <!-- Generator: Sketch 63.1 (92452) - https://sketch.com -->
    <title>ico / mentor / step4</title>
    <desc>Created with Sketch.</desc>
    <g id="02---Homepage" stroke="none" stroke-width="1" fill="none" fill-rule="evenodd">
        <g id="02-03-02-1---PoradSa---Rad-poradim-(nový)" transform="translate(-1034.000000, -4934.000000)" fill="#1DC8CC" fill-rule="nonzero">
            <g id="Group-12" transform="translate(436.000000, 4824.000000)">
                <g id="Group-8" transform="translate(535.500000, 97.000000)">
                    <path d="M92.8476562,18.4453066 L92.6547461,18.4453066 C93.5256641,16.0599941 93.756625,14.2278457 93.7701719,14.1154199 C93.8068281,13.8121426 93.7022383,13.5087988 93.486418,13.2925137 C93.2707305,13.0762285 92.9675859,12.971041 92.6641758,13.0069004 C92.3893867,13.0394395 85.8882148,13.8556387 81.2887852,18.4453066 L69.8046875,18.4453066 L69.8046875,15.4570254 C69.8046875,14.906916 69.3587031,14.4609316 68.8085938,14.4609316 L66.1523438,14.4609316 C64.1384414,14.4609316 62.5,16.099373 62.5,18.1132754 L62.5,38.0351504 C62.5,40.0490527 64.1384414,41.6874941 66.1523438,41.6874941 L89.1953125,41.6874941 L89.1953125,46.0039004 C89.1953125,46.5540098 89.6412969,47 90.1914062,47 L92.8476562,47 C94.8615586,47 96.5,45.3615527 96.5,43.3476504 L96.5,22.0976504 C96.5,20.083748 94.8615586,18.4453066 92.8476562,18.4453066 Z M91.5289609,15.2469824 C91.2196406,16.5728496 90.5881836,18.6858301 89.3850352,20.7968848 L86.0120625,21.4714395 C85.6518086,21.5434902 85.3604844,21.8079863 85.2540352,22.159541 C85.1475859,22.5110957 85.2432773,22.8927988 85.5030586,23.1525801 L86.6741328,24.3235879 C84.5783516,26.3196934 82.02875,27.4881113 80.0315156,28.1545645 L84.0943828,24.0916973 C84.4833906,23.7027559 84.4833906,23.0720293 84.0943828,22.6830215 C83.7055078,22.2940137 83.0747813,22.2940137 82.685707,22.6830215 L78.6229727,26.7457559 C79.3147266,24.6722871 80.5473594,22.0039512 82.6856406,19.8656035 C85.5972891,16.9539551 89.4932773,15.7201934 91.5289609,15.2469824 L91.5289609,15.2469824 Z M64.4921875,18.1132754 C64.4921875,17.1978652 65.2369336,16.4531191 66.1523438,16.4531191 L67.8125,16.4531191 L67.8125,34.3828066 L66.1523438,34.3828066 C65.5549531,34.3828066 64.9905,34.5269746 64.4921875,34.782373 L64.4921875,18.1132754 Z M66.1523438,39.6953066 C65.2369336,39.6953066 64.4921875,38.9505605 64.4921875,38.0351504 C64.4921875,37.1197402 65.2369336,36.3749941 66.1523438,36.3749941 L68.8085938,36.3749941 C69.3587031,36.3749941 69.8046875,35.9290098 69.8046875,35.3789004 L69.8046875,20.4374941 L79.5897813,20.4374941 C76.9003945,24.1323379 76.0731055,28.2648652 75.8775391,29.491123 L73.2944023,32.0742598 C72.9053945,32.4632676 72.9053945,33.0939277 73.2944023,33.4829355 C73.4889062,33.6774395 73.7437734,33.7747246 73.998707,33.7747246 C74.2535742,33.7747246 74.5085742,33.6774395 74.7030117,33.4829355 L77.2862148,30.8997988 C78.7388516,30.6681738 84.270293,29.5504238 88.3202773,25.5005059 C88.4541523,25.3666309 88.5723555,25.2354121 88.686707,25.1085098 C88.7252227,25.0657441 88.7637383,25.0229785 88.8026523,24.9804121 C89.1621094,24.5871543 89.1484961,23.980666 88.7717734,23.6039434 L88.2278398,23.0599434 L90.2135195,22.662834 C90.4879102,22.6079824 90.7265742,22.4402402 90.8710742,22.2006465 C91.2277422,21.6094316 91.5419102,21.0174199 91.8188242,20.4374941 L92.8476562,20.4374941 C93.7630664,20.4374941 94.5078125,21.1822402 94.5078125,22.0976504 L94.5078125,40.0960684 C94.0093008,39.8404707 93.4453125,39.6953066 92.8476562,39.6953066 L90.1914062,39.6953066 L66.1523438,39.6953066 Z M92.8476562,45.0078066 L91.1875,45.0078066 L91.1875,41.6874941 L92.8476562,41.6874941 C93.7630664,41.6874941 94.5078125,42.4322402 94.5078125,43.3476504 C94.5078125,44.2630605 93.7630664,45.0078066 92.8476562,45.0078066 Z" id="ico-/-mentor-/-step4"></path>
                </g>
            </g>
        </g>
    </g>
</svg>