<?xml version="1.0" encoding="UTF-8"?>
<svg width="38px" height="34px" viewBox="0 0 38 34" version="1.1" xmlns="http://www.w3.org/2000/svg" xmlns:xlink="http://www.w3.org/1999/xlink">
    <!-- Generator: Sketch 63.1 (92452) - https://sketch.com -->
    <title>ico / mentor / step2</title>
    <desc>Created with Sketch.</desc>
    <g id="02---Homepage" stroke="none" stroke-width="1" fill="none" fill-rule="evenodd">
        <g id="02-03-02-1---PoradSa---Rad-poradim-(nový)" transform="translate(-678.000000, -4934.000000)" fill="#1DC8CC" fill-rule="nonzero" stroke="#1DC8CC" stroke-width="0.596842089">
            <g id="Group-12" transform="translate(436.000000, 4824.000000)">
                <g id="Group-10" transform="translate(220.000000, 97.000000)">
                    <g id="Group-4" transform="translate(11.000000, 0.000000)">
                        <path d="M22.3616268,25.6705882 C23.3296651,25.6705882 25.1606699,26.5117176 25.1606699,29.6941176 C25.1606699,30.8647529 24.9169378,31.8032941 24.6732057,32.4470588 L24.6732057,32.4470588 L28.5798086,32.4470588 C29.788134,32.4470588 30.9284211,32.968 31.7069856,33.8760471 C32.4855502,34.7857882 32.8154067,35.9801412 32.6104306,37.1550118 L32.6104306,37.1550118 L31.6458373,42.6608941 C31.3065072,44.5955765 29.6124402,46 27.6152153,46 L27.6152153,46 L26.2372249,46 C21.427177,46 18.4696651,44.8598588 17.1674641,44.2076235 L17.1674641,44.2076235 L17.1674641,44.5176471 C17.1674641,45.3350588 16.4913876,46 15.6602871,46 L15.6602871,46 L13.507177,46 C12.6760766,46 12,45.3350588 12,44.5176471 L12,44.5176471 L12,33.0823529 C12,32.2649412 12.6760766,31.6 13.507177,31.6 L13.507177,31.6 L15.6602871,31.6 C16.4534928,31.6 17.0985646,32.2081882 17.1562679,32.9739294 C18.2853589,32.2810353 20.4238278,30.7224471 20.4238278,28.8470588 C20.4238278,27.3104941 20.5736842,25.6705882 22.3616268,25.6705882 Z M22.3616268,26.9411765 C22.0438278,26.9411765 21.7156938,26.9411765 21.7156938,28.8470588 C21.7156938,31.9210353 17.8848804,34.0640941 17.1674641,34.4384941 L17.1674641,34.4384941 L17.1674641,42.7481412 C17.4430622,42.9268706 20.3781818,44.7294118 26.2372249,44.7294118 L26.2372249,44.7294118 L27.6152153,44.7294118 C28.9811483,44.7294118 30.1403828,43.7688471 30.3720574,42.4440471 L30.3720574,42.4440471 L31.3366507,36.9381647 C31.4770335,36.1343059 31.2513876,35.3160471 30.7182775,34.6943059 C30.1860287,34.0734118 29.4066029,33.7176471 28.5798086,33.7176471 L28.5798086,33.7176471 L23.6534928,33.7176471 C23.4157895,33.7176471 23.1961722,33.5888941 23.0842105,33.3822118 C22.9713876,33.1755294 22.9843062,32.9248 23.1160766,32.7299765 C23.121244,32.7215059 23.8688038,31.5712 23.8688038,29.6941176 C23.8688038,27.6747294 22.9679426,26.9411765 22.3616268,26.9411765 Z M15.6602871,32.8705882 L13.507177,32.8705882 C13.3883254,32.8705882 13.291866,32.9654588 13.291866,33.0823529 L13.291866,33.0823529 L13.291866,44.5176471 C13.291866,44.6345412 13.3883254,44.7294118 13.507177,44.7294118 L13.507177,44.7294118 L15.6602871,44.7294118 C15.7774163,44.7294118 15.8755981,44.6328471 15.8755981,44.5176471 L15.8755981,44.5176471 L15.8755981,33.0823529 C15.8755981,32.9654588 15.7791388,32.8705882 15.6602871,32.8705882 L15.6602871,32.8705882 Z M33.7627751,14 C38.572823,14 41.5303349,15.1401412 42.8325359,15.7923765 L42.8325359,15.7923765 L42.8325359,15.4823529 C42.8325359,14.6649412 43.5086124,14 44.3397129,14 L44.3397129,14 L46.492823,14 C47.3239234,14 48,14.6649412 48,15.4823529 L48,15.4823529 L48,26.9176471 C48,27.7350588 47.3239234,28.4 46.492823,28.4 L46.492823,28.4 L44.3397129,28.4 C43.5465072,28.4 42.9014354,27.7918118 42.8437321,27.0260706 C41.7146411,27.7189647 39.5761722,29.2775529 39.5761722,31.1529412 C39.5761722,32.6895059 39.4263158,34.3294118 37.6383732,34.3294118 C36.6703349,34.3294118 34.8393301,33.4882824 34.8393301,30.3058824 C34.8393301,29.1352471 35.0830622,28.1967059 35.3267943,27.5529412 L35.3267943,27.5529412 L31.4201914,27.5529412 C30.211866,27.5529412 29.0715789,27.032 28.2930144,26.1239529 C27.5144498,25.2142118 27.1845933,24.0198588 27.3895694,22.8449882 L27.3895694,22.8449882 L28.3541627,17.3391059 C28.6934928,15.4044235 30.3875598,14 32.3847847,14 L32.3847847,14 Z M33.7627751,15.2705882 L32.3847847,15.2705882 C31.0188517,15.2705882 29.8596172,16.2311529 29.6279426,17.5559529 L29.6279426,17.5559529 L28.6633493,23.0618353 C28.5229665,23.8656941 28.7486124,24.6839529 29.2817225,25.3056941 C29.8139713,25.9265882 30.5933971,26.2823529 31.4201914,26.2823529 L31.4201914,26.2823529 L36.3465072,26.2823529 C36.5842105,26.2823529 36.8038278,26.4111059 36.9157895,26.6177882 C37.0286124,26.8244706 37.0156938,27.0752 36.8839234,27.2700235 C36.878756,27.2784941 36.1311962,28.4288 36.1311962,30.3058824 C36.1311962,32.3252706 37.0320574,33.0588235 37.6383732,33.0588235 C37.9561722,33.0588235 38.2843062,33.0588235 38.2843062,31.1529412 C38.2843062,28.0789647 42.1151196,25.9359059 42.8325359,25.5615059 L42.8325359,25.5615059 L42.8325359,17.2518588 C42.5569378,17.0731294 39.6218182,15.2705882 33.7627751,15.2705882 L33.7627751,15.2705882 Z M46.492823,15.2705882 L44.3397129,15.2705882 C44.2225837,15.2705882 44.1244019,15.3671529 44.1244019,15.4823529 L44.1244019,15.4823529 L44.1244019,26.9176471 C44.1244019,27.0345412 44.2208612,27.1294118 44.3397129,27.1294118 L44.3397129,27.1294118 L46.492823,27.1294118 C46.6116746,27.1294118 46.708134,27.0345412 46.708134,26.9176471 L46.708134,26.9176471 L46.708134,15.4823529 C46.708134,15.3654588 46.6116746,15.2705882 46.492823,15.2705882 L46.492823,15.2705882 Z" id="ico-/-mentor-/-step2"></path>
                    </g>
                </g>
            </g>
        </g>
    </g>
</svg>