<?xml version="1.0" encoding="UTF-8"?>
<svg width="36px" height="27px" viewBox="0 0 36 27" version="1.1" xmlns="http://www.w3.org/2000/svg" xmlns:xlink="http://www.w3.org/1999/xlink">
    <!-- Generator: Sketch 63.1 (92452) - https://sketch.com -->
    <title>ico / mentor / step1</title>
    <desc>Created with Sketch.</desc>
    <g id="02---Homepage" stroke="none" stroke-width="1" fill="none" fill-rule="evenodd">
        <g id="02-03-02-1---PoradSa---Rad-poradim-(nový)" transform="translate(-502.000000, -4938.000000)" fill="#1DC8CC" fill-rule="nonzero">
            <g id="Group-12" transform="translate(436.000000, 4824.000000)">
                <g id="Group-11" transform="translate(31.500000, 97.000000)">
                    <g id="Group-3" transform="translate(22.500000, 0.000000)">
                        <path d="M47.962974,35.355133 C47.3686136,32.0075989 45.1471781,29.3197937 42.2179483,28.0731201 C43.5179056,26.9830017 44.3481974,25.3323059 44.3481974,23.4882507 C44.3481974,20.2129516 41.7301554,17.5482178 38.5119852,17.5482178 C35.293815,17.5482178 32.6757731,20.212677 32.6757731,23.4882507 C32.6757731,25.3334045 33.5068888,26.9846496 34.8082193,28.0750427 C34.3226236,28.282135 33.8521341,28.5293274 33.4027933,28.8174438 C32.2703775,29.5436402 31.3035806,30.5 30.5584329,31.6200562 C29.8001017,31.116333 28.9846415,30.6972046 28.1249613,30.3755799 C29.972587,29.039917 31.1805337,26.84375 31.1805337,24.365509 C31.1805337,20.3041382 27.9365458,17 23.9490579,17 C19.9615702,17 16.7175821,20.3041382 16.7175821,24.365509 C16.7175821,26.84375 17.9255289,29.039917 19.7731546,30.3755799 C15.8411478,31.8466492 12.8254007,35.3449707 12.0431741,39.7493896 C11.898704,40.5637512 12.1206278,41.3943176 12.6515421,42.0282287 C13.1775126,42.6558227 13.9449075,43.015625 14.7570719,43.015625 L33.141044,43.015625 C33.9532083,43.015625 34.7206034,42.6558227 35.2465739,42.0282287 C35.7777628,41.3943176 35.999412,40.5637512 35.8549417,39.7493896 C35.7585367,39.2061157 35.6277994,38.6768494 35.4660257,38.1635132 L45.6272806,38.1635132 C46.3265604,38.1635132 46.987388,37.8536988 47.4400247,37.3137207 C47.8965067,36.7690735 48.0871195,36.0549621 47.962974,35.355133 Z M34.7851481,23.4882507 C34.7851481,21.3758545 36.4569925,19.6575928 38.5119852,19.6575928 C40.5669779,19.6575928 42.2388224,21.3758545 42.2388224,23.4882507 C42.2388224,25.6003723 40.5669779,27.318634 38.5119852,27.318634 C36.4569925,27.318634 34.7851481,25.6003723 34.7851481,23.4882507 Z M18.8269571,24.365509 C18.8269571,21.4673157 21.1247477,19.109375 23.9490579,19.109375 C26.7733683,19.109375 29.0714335,21.4673157 29.0714335,24.365509 C29.0714335,27.2637024 26.7733683,29.621643 23.9490579,29.621643 C21.1247477,29.621643 18.8269571,27.2637024 18.8269571,24.365509 Z M33.6299356,40.6733398 C33.5568766,40.7604065 33.3964762,40.90625 33.141044,40.90625 L14.7570719,40.90625 C14.5016397,40.90625 14.3412394,40.7604065 14.2681802,40.6733398 C14.1923746,40.5827027 14.0720743,40.3898926 14.1201395,40.1179809 C14.9831156,35.2584534 19.1167215,31.731018 23.9490579,31.731018 C28.7813944,31.731018 32.915275,35.2584534 33.7779764,40.1179809 C33.8263163,40.3898926 33.7060159,40.5827027 33.6299356,40.6733398 Z M45.8233866,35.9588318 C45.7934489,35.9945373 45.7283548,36.0541382 45.6275552,36.0541382 L34.579429,36.0541382 C33.9554056,34.8849182 33.153953,33.8359985 32.2137979,32.9411621 C33.5876383,30.7557068 35.9356913,29.428009 38.5119852,29.428009 C42.1371989,29.428009 45.2380899,32.0757141 45.8860087,35.723999 C45.9063333,35.8390808 45.8555216,35.9206543 45.8233866,35.9588318 L45.8233866,35.9588318 Z" id="ico-/-mentor-/-step1"></path>
                    </g>
                </g>
            </g>
        </g>
    </g>
</svg>