<?xml version="1.0" encoding="UTF-8"?>
<svg width="36px" height="36px" viewBox="0 0 36 36" version="1.1" xmlns="http://www.w3.org/2000/svg" xmlns:xlink="http://www.w3.org/1999/xlink">
    <!-- Generator: Sketch 63.1 (92452) - https://sketch.com -->
    <title>ico / mentor / step5</title>
    <desc>Created with Sketch.</desc>
    <g id="02---Homepage" stroke="none" stroke-width="1" fill="none" fill-rule="evenodd">
        <g id="02-03-02-1---PoradSa---Rad-poradim-(nový)" transform="translate(-1210.000000, -4933.000000)" fill="#1DC8CC" fill-rule="nonzero">
            <g id="Group-12" transform="translate(436.000000, 4824.000000)">
                <g id="Group-7" transform="translate(746.000000, 97.000000)">
                    <path d="M46,12 C50.8079681,12 55.3281477,13.8723515 58.7279679,17.2720311 C62.1276475,20.6718513 64,25.1920309 64,30 C64,34.8079681 62.1276475,39.3281477 58.7279679,42.7279679 C55.3281477,46.1276475 50.8079681,48 46,48 C41.1920309,48 36.6718513,46.1276475 33.2720311,42.7279679 C29.8723515,39.3281477 28,34.8079681 28,30 C28,25.1920309 29.8723515,20.6718513 33.2720311,17.2720311 C36.6718513,13.8723515 41.1920309,12 46,12 Z M45.9999995,14.1093749 C37.2378669,14.1093749 30.1093749,21.2378669 30.1093749,29.9999995 C30.1093749,38.7621321 37.2378669,45.8906241 45.9999995,45.8906241 C54.7621321,45.8906241 61.8906241,38.7621321 61.8906241,29.9999995 C61.8906241,21.2378669 54.7621321,14.1093749 45.9999995,14.1093749 Z M46.0000698,17.726742 C46.4014839,17.726742 46.7681636,17.9546248 46.9458432,18.3146248 L46.9458432,18.3146248 L49.9595775,24.421195 L56.6986086,25.4004371 C57.0958742,25.4581637 57.4259211,25.7364606 57.5499523,26.1182574 C57.6739836,26.5001246 57.5705539,26.9192574 57.2830461,27.1993824 L57.2830461,27.1993824 L52.4066634,31.9527182 L53.5578196,38.664468 C53.6257415,39.0601868 53.4630384,39.460054 53.138265,39.6960227 C52.9545384,39.8295461 52.7369212,39.897468 52.5182494,39.897468 C52.3503431,39.897468 52.181804,39.8574602 52.0275384,39.7763196 L52.0275384,39.7763196 L45.9999995,36.6074759 L39.9725309,39.7763196 C39.6171716,39.9631399 39.1866481,39.9319914 38.8618044,39.6960227 C38.537031,39.460054 38.3743982,39.0601165 38.4422497,38.664468 L38.4422497,38.664468 L39.5934059,31.9527182 L34.7170233,27.1993824 C34.4295858,26.9191871 34.3260858,26.5000543 34.4501873,26.1182574 C34.5742186,25.7364606 34.9042654,25.4581637 35.3015311,25.4004371 L35.3015311,25.4004371 L42.0405621,24.421195 L45.0542964,18.3146248 C45.2319761,17.9546952 45.5986558,17.726742 46.0000698,17.726742 Z M45.9999995,21.164531 L43.6865777,25.8520543 C43.5329449,26.1633277 43.2359449,26.3791168 42.8924684,26.4290387 L42.8924684,26.4290387 L37.7195779,27.1806793 L41.462734,30.8293354 C41.7112887,31.0716323 41.8247028,31.4207339 41.7660621,31.7628745 L41.7660621,31.7628745 L40.882445,36.9148118 L45.5092183,34.4824213 C45.6628511,34.4016322 45.8314605,34.3612728 45.9999995,34.3612728 C46.1685386,34.3612728 46.337148,34.4016322 46.4907808,34.4824213 L46.4907808,34.4824213 L51.1175541,36.9148118 L50.2339369,31.7628042 C50.1752963,31.4206635 50.2887103,31.071562 50.537265,30.8292651 L50.537265,30.8292651 L54.2803509,27.180609 L49.1074604,26.4289684 C48.7639838,26.3790465 48.4669838,26.1632574 48.313351,25.851984 L48.313351,25.851984 L45.9999995,21.164531 Z" id="ico-/-mentor-/-step5"></path>
                </g>
            </g>
        </g>
    </g>
</svg>