<?xml version="1.0" encoding="UTF-8"?>
<svg width="34px" height="33px" viewBox="0 0 34 33" version="1.1" xmlns="http://www.w3.org/2000/svg" xmlns:xlink="http://www.w3.org/1999/xlink">
    <!-- Generator: Sketch 63.1 (92452) - https://sketch.com -->
    <title>ico / mentor / step3</title>
    <desc>Created with Sketch.</desc>
    <g id="02---Homepage" stroke="none" stroke-width="1" fill="none" fill-rule="evenodd">
        <g id="02-03-02-1---PoradSa---Rad-poradim-(nový)" transform="translate(-857.000000, -4933.000000)" fill="#1DC8CC" fill-rule="nonzero">
            <g id="Group-12" transform="translate(436.000000, 4824.000000)">
                <g id="Group-9" transform="translate(377.000000, 97.000000)">
                    <g id="Group-6" transform="translate(31.000000, 0.000000)">
                        <path d="M32.6391591,24.0151775 C33.1994946,24.0151775 33.653713,24.4722846 33.653713,25.0361836 L33.653713,25.0361836 L33.653713,26.4277538 L35.7003521,26.4277538 C35.9779964,26.4277538 36.243422,26.542231 36.4350039,26.7445878 L36.4350039,26.7445878 L39.601982,30.0910258 C42.0850427,32.714847 43.4524128,36.1552458 43.4524128,39.7786212 L43.4524128,39.7786212 L43.4524128,43.9789939 C43.4524128,44.5428929 42.9981944,45 42.4378589,45 L42.4378589,45 L17.5626272,45 C17.0022917,45 16.5480733,44.5428929 16.5480733,43.9789939 L16.5480733,43.9789939 L16.5480733,39.7786212 C16.5480733,36.1553127 17.9155762,32.714847 20.3986368,30.0910258 L20.3986368,30.0910258 L23.5655486,26.7445878 C23.7569976,26.5422979 24.022556,26.4277538 24.3002004,26.4277538 L24.3002004,26.4277538 L26.3467731,26.4277538 L26.3467731,25.0361836 C26.3467731,24.4722846 26.8009915,24.0151775 27.361327,24.0151775 C27.9216625,24.0151775 28.3758809,24.4722846 28.3758809,25.0361836 L28.3758809,25.0361836 L28.3758809,26.4277538 L31.6246051,26.4277538 L31.6246051,25.0361836 C31.6246051,24.4722846 32.0788899,24.0151775 32.6391591,24.0151775 Z M35.2655243,28.4696323 L24.7350946,28.4696323 L21.8680732,31.4992363 C19.7458639,33.741734 18.5771811,36.6819882 18.5771811,39.7786212 L18.5771811,39.7786212 L18.5771811,42.9579878 L41.4233049,42.9579878 L41.4233049,39.7786212 C41.4233049,36.6819882 40.2546222,33.7416003 38.1325456,31.4992363 L38.1325456,31.4992363 L35.2655243,28.4696323 Z M30.0003094,30.5807451 C32.9281588,30.5807451 35.3100829,32.9778172 35.3100829,35.9242865 C35.3100829,38.8707558 32.9280924,41.2678947 30.0003094,41.2678947 C27.0725264,41.2678947 24.690536,38.8707558 24.690536,35.9242865 C24.690536,32.977884 27.07246,30.5807451 30.0003094,30.5807451 Z M30.0003094,32.6226904 C28.1913381,32.6226904 26.7196439,34.103744 26.7196439,35.9242197 C26.7196439,37.7447621 28.1912717,39.2258157 30.0003094,39.2258157 C31.8092808,39.2258157 33.280975,37.7447621 33.280975,35.9242197 C33.280975,34.103744 31.8092808,32.6226904 30.0003094,32.6226904 Z M30.0162469,12.000072 C33.1512173,12.0046897 36.4354023,12.6394269 39.2639745,13.7872735 C42.1078864,14.941402 44.3925254,16.5720178 45.6971416,18.3785931 C46.9510899,20.1150653 47.3087537,21.9835238 46.7316174,23.781946 C46.3578169,24.9464329 45.2753958,25.7280592 44.0375178,25.7280592 L44.0375178,25.7280592 L44.0332678,25.7280592 L39.7865249,25.7240495 C38.9375216,25.7227798 38.1413112,25.3473372 37.6015616,24.6937543 C37.0684527,24.0483245 36.8493122,23.2062183 37.0001207,22.3832251 C37.0047691,22.3582981 37.0102144,22.3335047 37.0166558,22.3089118 L37.0166558,22.3089118 L37.2436986,21.4396065 C36.0047581,20.8451668 33.2030141,19.6978549 30.0031649,19.6813482 C26.8009915,19.663104 23.9973217,20.8110843 22.7599085,21.4052566 L22.7599085,21.4052566 L22.9833654,22.2795073 L22.9833654,22.2795073 L22.9990373,22.3515484 C23.1475879,23.1750094 22.9259904,24.0165141 22.3910221,24.6604068 C21.8503428,25.3112498 21.0547301,25.6842865 20.2079182,25.6843534 L20.2079182,25.6843534 L20.2036682,25.6843534 L15.9569253,25.6803437 C14.7166567,25.6785393 13.6345676,24.8933711 13.2636226,23.7264115 C12.6917988,21.9275883 13.0542438,20.061803 14.3118444,18.3307439 C15.6211755,16.5284456 17.9113262,14.9049137 20.7601522,13.7594061 C23.5927751,12.6204476 26.881011,11.9922596 30.0162469,12.000072 Z M30.0134579,14.041957 L29.9816493,14.041957 C24.1614778,14.041957 18.2646072,16.3496125 15.9498862,19.5357289 C15.078504,20.7351671 14.8249652,21.9357414 15.1963086,23.1039707 C15.2960508,23.4179311 15.6098201,23.6375296 15.9593159,23.6380642 L15.9593159,23.6380642 L20.2061253,23.6420739 L20.2061253,23.6420739 C20.451961,23.6420739 20.6802655,23.5358166 20.8342615,23.3504343 C20.9182654,23.2492559 21.0495504,23.0386792 21.0072497,22.7452352 L21.0072497,22.7452352 L20.5931406,21.1251783 C20.4803165,20.6837091 20.6718319,20.2205875 21.0624996,19.9900291 C21.2260581,19.8935288 25.1031177,17.6388683 29.9333056,17.6388683 C29.9602665,17.6388683 29.9864969,17.6389351 30.0135243,17.6390688 C34.8749894,17.6642631 38.7798733,19.9288142 38.9436974,20.0251809 C39.3368885,20.2565413 39.528736,20.7230043 39.41299,21.1662779 L39.41299,21.1662779 L38.9905137,22.7837284 C38.9478146,23.076571 39.0783027,23.2871477 39.1619081,23.3883929 C39.3157049,23.5746439 39.5442086,23.6816364 39.7888491,23.6819705 L39.7888491,23.6819705 L44.035592,23.6859802 C44.0359905,23.6859802 44.0364553,23.6859802 44.0367874,23.6859802 L44.1517346,23.6780563 C44.4534166,23.6362483 44.7111645,23.4326408 44.8005915,23.1541589 C45.1757201,21.985796 44.9250367,20.7829495 44.0558459,19.5789001 C41.7451094,16.3790171 35.8394067,14.0503774 30.0134579,14.041957 L30.0134579,14.041957 Z" id="ico-/-mentor-/-step3"></path>
                    </g>
                </g>
            </g>
        </g>
    </g>
</svg>