<svg width="64" height="72" viewBox="0 0 64 72" fill="none" xmlns="http://www.w3.org/2000/svg">
<path d="M38.3281 31.7812C38.3281 28.2919 35.4893 25.4531 32 25.4531C28.5107 25.4531 25.6719 28.2919 25.6719 31.7812C25.6719 35.2706 28.5107 38.1094 32 38.1094C35.4893 38.1094 38.3281 35.2706 38.3281 31.7812ZM32 33.8906C30.8369 33.8906 29.8906 32.9444 29.8906 31.7812C29.8906 30.6181 30.8369 29.6719 32 29.6719C33.1631 29.6719 34.1094 30.6181 34.1094 31.7812C34.1094 32.9444 33.1631 33.8906 32 33.8906Z" fill="#1DC8CC"/>
<path d="M60.7385 45.2853C60.3136 45.0401 59.8718 44.8518 59.4215 44.7144V27.2842C59.8718 27.1468 60.3139 26.9598 60.7385 26.7147C63.7602 24.9699 64.7993 21.0921 63.0547 18.0703C61.3102 15.0486 57.4326 14.0092 54.4103 15.7541C54.0716 15.9497 53.7592 16.1733 53.4714 16.4184L38.2182 7.49433C38.2889 7.11605 38.3278 6.72666 38.3278 6.32812C38.3278 2.8388 35.489 0 31.9996 0C28.5103 0 25.6715 2.8388 25.6715 6.32812C25.6715 6.72666 25.7102 7.11605 25.7811 7.49433L10.5277 16.4182C10.24 16.1733 9.92769 15.9495 9.58893 15.7541C6.56718 14.0095 2.68944 15.0486 0.94457 18.0703C-0.800024 21.0921 0.238913 24.9699 3.2608 26.7147C3.68549 26.9599 4.12762 27.1468 4.57776 27.2843V44.7144C4.12748 44.8519 3.68549 45.0401 3.2608 45.2853C0.239054 47.0301 -0.800024 50.9079 0.94457 53.9297C2.68087 56.9374 6.55382 57.9983 9.58893 56.2459C9.92769 56.0503 10.24 55.8267 10.5277 55.5817L25.7811 64.5057C25.7103 64.884 25.6715 65.2733 25.6715 65.6719C25.6715 69.1612 28.5103 72 31.9996 72C35.489 72 38.3278 69.1612 38.3278 65.6719C38.3278 65.3282 38.2992 64.9911 38.2462 64.6622L53.9868 55.9763C54.1237 56.0706 54.2639 56.1614 54.4103 56.2459C57.4514 58.0018 61.3212 56.9322 63.0547 53.9297C64.7993 50.9079 63.7603 47.0301 60.7385 45.2853ZM53.4631 45.9562L49.392 43.6057C50.4148 41.2758 50.984 38.7034 50.984 36C50.984 33.2966 50.4148 30.7242 49.392 28.3943L53.4625 26.0442C53.9866 26.4914 54.5756 26.8455 55.2028 27.0983V44.9035C54.5759 45.1564 53.9869 45.5093 53.4631 45.9562ZM31.9996 50.7656C29.7363 50.7656 27.5905 50.253 25.6715 49.339V48.6562C25.6715 45.1669 28.5103 42.3281 31.9996 42.3281C35.489 42.3281 38.3278 45.1669 38.3278 48.6562V49.339C36.4088 50.253 34.263 50.7656 31.9996 50.7656ZM42.3325 46.5368C41.3487 41.7334 37.0894 38.1094 31.9996 38.1094C26.9099 38.1094 22.6506 41.7334 21.6668 46.5368C18.933 43.8553 17.234 40.1226 17.234 36C17.234 27.8582 23.8579 21.2344 31.9996 21.2344C40.1414 21.2344 46.7653 27.8582 46.7653 36C46.7653 40.1226 45.0662 43.8553 42.3325 46.5368ZM51.3537 22.3902L47.2771 24.7438C44.2109 20.5933 39.4966 17.7317 34.109 17.1335V12.2934C34.8445 12.0326 35.5174 11.6394 36.0997 11.1426L51.3589 20.07C51.2163 20.8292 51.2106 21.6159 51.3537 22.3902ZM29.8903 17.1335C24.5025 17.7318 19.7883 20.5933 16.7221 24.7438L12.6456 22.3902C12.7887 21.6157 12.7831 20.8291 12.6402 20.0699L27.8996 11.1424C28.482 11.6392 29.1549 12.0324 29.8903 12.2933V17.1335ZM10.5367 26.044L14.6073 28.3942C13.5845 30.7242 13.0153 33.2966 13.0153 36C13.0153 38.7034 13.5845 41.2758 14.6073 43.6057L10.5362 45.9561C10.0124 45.5091 9.42341 45.1561 8.79637 44.9033V27.0982C9.42383 26.8452 10.0126 26.4912 10.5367 26.044ZM12.6456 49.6098L16.7221 47.2562C19.7883 51.4067 24.5026 54.2683 29.8903 54.8665V59.7066C29.1548 59.9674 28.482 60.3606 27.8996 60.8574L12.6402 51.93C12.7831 51.1708 12.7887 50.3843 12.6456 49.6098ZM34.109 54.8665C39.4968 54.2682 44.2109 51.4067 47.2771 47.2562L51.3537 49.6098C51.1726 50.5901 51.2295 51.5903 51.5019 52.5291L36.2202 60.9618C35.6109 60.4153 34.8955 59.9856 34.109 59.7066V54.8665ZM56.5197 19.4075C57.5269 18.8259 58.8195 19.1724 59.4011 20.1797C59.9827 21.187 59.6362 22.4796 58.6291 23.0612C57.6216 23.6427 56.3293 23.2964 55.7477 22.2891C55.1661 21.2818 55.5126 19.9891 56.5197 19.4075ZM31.9996 4.21875C33.1627 4.21875 34.109 5.16502 34.109 6.32812C34.109 7.49123 33.1627 8.4375 31.9996 8.4375C30.8365 8.4375 29.8903 7.49123 29.8903 6.32812C29.8903 5.16502 30.8365 4.21875 31.9996 4.21875ZM4.59815 20.1797C5.17682 19.1773 6.46748 18.8235 7.47955 19.4075C8.48671 19.9891 8.83321 21.2818 8.25159 22.2891C7.66996 23.2965 6.37776 23.6429 5.37018 23.0612C4.36302 22.4796 4.01652 21.187 4.59815 20.1797ZM7.47955 52.5925C6.47212 53.174 5.17977 52.8276 4.59815 51.8203C4.01652 50.813 4.36302 49.5204 5.37018 48.9388C6.37748 48.3571 7.66996 48.7036 8.25159 49.7109C8.83321 50.7182 8.48671 52.0109 7.47955 52.5925ZM31.9996 67.7812C30.8365 67.7812 29.8903 66.835 29.8903 65.6719C29.8903 64.5088 30.8365 63.5625 31.9996 63.5625C33.1627 63.5625 34.109 64.5088 34.109 65.6719C34.109 66.835 33.1627 67.7812 31.9996 67.7812ZM59.4011 51.8203C58.8195 52.8278 57.5271 53.174 56.5197 52.5925C55.5126 52.0109 55.1661 50.7182 55.7477 49.7109C56.3264 48.7086 57.617 48.3548 58.6291 48.9388C59.6362 49.5204 59.9827 50.813 59.4011 51.8203Z" fill="#1DC8CC"/>
</svg>
