<?xml version="1.0" encoding="UTF-8"?>
<svg width="24px" height="24px" viewBox="0 0 24 24" version="1.1" xmlns="http://www.w3.org/2000/svg" xmlns:xlink="http://www.w3.org/1999/xlink">
    <!-- Generator: Sketch 63.1 (92452) - https://sketch.com -->
    <title>ico / 24 / ui / work</title>
    <desc>Created with Sketch.</desc>
    <g id="ico-/-24-/-ui-/-work" stroke="none" stroke-width="1" fill="none" fill-rule="evenodd">
        <path d="M21,19 C21.5522847,19 22,19.4477153 22,20 L22,21 C22,22.1045695 21.1045695,23 20,23 L4,23 C2.8954305,23 2,22.1045695 2,21 L2,20 C2,19.4477153 2.44771525,19 3,19 L21,19 Z M15,1 C16.5976809,1 17.9036609,2.24891996 17.9949073,3.82372721 L18,4 L18,5 L21,5 C22.1045695,5 23,5.8954305 23,7 L23,15 C23,16.1045695 22.1045695,17 21,17 L3,17 C1.8954305,17 1,16.1045695 1,15 L1,7 C1,5.8954305 1.8954305,5 3,5 L6,5 L6,4 C6,2.40231912 7.24891996,1.09633912 8.82372721,1.00509269 L9,1 L15,1 Z M13,13 L11,13 C10.4477153,13 10,13.4477153 10,14 C10,14.5128358 10.3860402,14.9355072 10.8833789,14.9932723 L11,15 L13,15 C13.5522847,15 14,14.5522847 14,14 C14,13.4477153 13.5522847,13 13,13 Z M15,3 L9,3 C8.48716416,3 8.06449284,3.38604019 8.00672773,3.88337887 L8,4 L8,5 L16,5 L16,4 C16,3.48716416 15.6139598,3.06449284 15.1166211,3.00672773 L15,3 Z" id="Combined-Shape" fill="#0D0E2D"></path>
    </g>
</svg>